<svg xmlns="http://www.w3.org/2000/svg" width="1048" height="622" viewBox="0 0 1048 622">
  <g fill="none" fill-rule="evenodd">
    <g transform="translate(61.552 271.289)">
      <g fill="#46AEDA" transform="translate(462.83 41.108)">
        <path d="M107.227338 72.2450953L93.40612 121.387923 137.919135 96.9087093C131.454494 85.0148541 120.423439 76.0214711 107.227338 72.2450953L107.227338 72.2450953zM29.2117211 39.084506C23.2578481 33.0837948 13.5990041 33.0876365 7.64513107 39.084506L4.95026023 41.8005769C-1.0036128 47.7974464-.999801095 57.532275 4.95026023 63.5329862L7.82046919 66.421933C13.9306219 56.5411204 21.7102985 47.8204965 30.7516473 40.6403882L29.2117211 39.084506 29.2117211 39.084506zM122.365821 24.0443112C122.388691 23.7139264 122.461113 23.3989083 122.461113 23.06084L122.461113 15.377471C122.457302 6.89503171 115.634361.0145748258 107.214319.0107331386L80.5286177.0107331386C72.1123875.0145748258 65.2856356 6.89119007 65.2856356 15.377471L65.2856356 22.9263811C73.7819117 20.5291699 82.7203448 19.2191555 91.9675253 19.2191555 102.567859 19.2191555 112.779399 20.9248635 122.365821 24.0443112"/>
        <path d="M93.0491478,58.9366989 C126.501459,58.9366989 153.719854,86.2476499 153.719854,119.813714 C153.719854,153.379778 126.501459,180.690728 93.0491478,180.690728 C59.5968365,180.690728 32.378441,153.379778 32.378441,119.813714 C32.378441,86.2476499 59.5968365,58.9366989 93.0491478,58.9366989 L93.0491478,58.9366989 Z M8.1101583,119.813714 C8.1101583,166.87884 46.1319386,205.041533 93.0491478,205.041533 C139.966356,205.041533 177.988137,166.87884 177.988137,119.813714 C177.988137,72.748587 139.966356,34.5858934 93.0491478,34.5858934 C46.1319386,34.5858934 8.1101583,72.748587 8.1101583,119.813714 L8.1101583,119.813714 Z"/>
      </g>
      <path fill="#1D3657" d="M167.155704 241.531374C163.652753 232.192239 160.363257 223.014454 157.275782 213.990337 154.188306 204.966221 150.994103 195.784595 147.704607 186.449302L50.7578676 186.449302 31.30677 241.531374.123264608 241.531374C8.35272166 218.711768 16.071411 197.605553 23.2793332 178.205047 30.4834434 158.808382 37.5274622 140.395188 44.430448 122.973149 51.3219985 105.543427 58.1678094 88.8974077 64.9602562 73.0274093 71.7527025 57.1574103 78.8538968 41.444921 86.2638387 25.8860986L113.742374 25.8860986C121.152315 41.444921 128.25351 57.1574103 135.045956 73.0274093 141.838403 88.8974077 148.680402 105.543427 155.579576 122.973149 162.471127 140.395188 169.518957 158.808382 176.726879 178.205047 183.930989 197.605553 191.649679 218.711768 199.882947 241.531374L167.155704 241.531374 167.155704 241.531374 167.155704 241.531374zM139.059675 161.559028C132.469248 143.506952 125.935997 126.034972 119.456109 109.123876 112.968599 92.2166232 106.225704 75.9855064 99.2312374 60.4228421 92.0233151 75.9855064 85.1813164 92.2166232 78.7014292 109.123876 72.2177298 126.034972 65.7797713 143.506952 59.4027999 161.559028L139.059675 161.559028 139.059675 161.559028 139.059675 161.559028zM275.213545 244.639297C257.512017 244.224394 244.960094 240.390393 237.550152 233.125768 230.136399 225.868826 226.439051 214.562749 226.439051 199.207536L226.439051 5.03343543 255.144953.0546123686 255.144953 194.539889C255.144953 199.318945 255.560427 203.256672 256.379942 206.368435 257.207081 209.476359 258.544988 211.969612 260.393661 213.83667 262.246147 215.699887 264.719939 217.102102 267.807415 218.035632 270.898702 218.969161 274.702777 219.749022 279.227263 220.371376L275.213545 244.639297M411.988722 225.346357C409.522553 227.013648 404.73506 229.134258 397.633865 231.727395 390.532671 234.320532 382.246039 235.619021 372.77778 235.619021 363.103689 235.619021 353.99373 234.059297 345.455525 230.951375 336.913508 227.835768 329.450203 223.014454 323.069419 216.479749 316.688636 209.941202 311.645759 201.804515 307.940788 192.054319 304.239629 182.304124 302.383332 170.68687 302.383332 157.202558 302.383332 145.377853 304.129089 134.536619 307.632041 124.682699 311.13118 114.832619 316.223609 106.323288 322.916952 99.1662303 329.602671 92.0091722 337.782576 86.4079963 347.460478 82.3627021 357.134569 78.3174085 368.04365 76.2928411 380.187722 76.2928411 393.566783 76.2928411 405.245827 77.2839957 415.232477 79.2509377 425.215316 81.2255638 433.601052 83.0388389 440.393499 84.6946049L440.393499 229.084316C440.393499 253.978431 434.016528 272.022823 421.254961 283.225176 408.485771 294.427527 389.141401 300.024862 363.206604 300.024862 353.120851 300.024862 343.603039 299.202741 334.649359 297.543134 325.69568 295.875842 317.923626 293.912741 311.340823 291.630781L316.589532 266.425489C322.349009 268.699767 329.40065 270.728176 337.736835 272.491509 346.07302 274.251 354.767504 275.13843 363.8241 275.13843 380.908132 275.13843 393.204672 271.715489 400.721341 264.865765 408.234199 258.023725 411.988722 247.128708 411.988722 232.192239L411.988722 225.346357 411.988722 225.346357 411.988722 225.346357zM400.103846 102.900347C395.262989 102.178111 388.729738 101.809309 380.500281 101.809309 365.062902 101.809309 353.174214 106.899541 344.83803 117.060797 336.501845 127.225894 332.335659 140.706365 332.335659 157.509893 332.335659 166.849027 333.513473 174.83589 335.88435 181.47432 338.251414 188.116593 341.441806 193.60636 345.455525 197.966672 349.469243 202.3193 354.100457 205.538632 359.349166 207.6093 364.597875 209.687651 370.002863 210.721064 375.560319 210.721064 383.172281 210.721064 390.17056 209.633867 396.551343 207.455632 402.928315 205.273556 407.975003 202.738044 411.679974 199.83373L411.679974 105.236092C408.794518 104.406288 404.940891 103.630268 400.103846 102.900347L400.103846 102.900347zM719.143012 244.643138C701.437669 244.224394 688.885748 240.394235 681.475806 233.12961 674.065865 225.872668 670.360894 214.562749 670.360894 199.211377L670.360894 5.03727713 699.07823.058454067 699.07823 194.539889C699.07823 199.318945 699.486079 203.256672 700.309409 206.368435 701.132733 209.4802 702.47064 211.969612 704.326941 213.83667 706.175611 215.703729 708.641782 217.105944 711.73307 218.039473 714.820545 218.973003 718.624617 219.749022 723.156731 220.371376L719.143012 244.643138M769.465051 50.4690379C764.323073 50.4690379 759.943432 48.7556465 756.349001 45.3365472 752.743132 41.9097649 750.94401 37.2997431 750.94401 31.487275 750.94401 25.6786481 752.743132 21.0609432 756.349001 17.641844 759.943432 14.2150611 764.323073 12.5055115 769.465051 12.5055115 774.610848 12.5055115 778.986676 14.2150611 782.592545 17.641844 786.186977 21.0609432 787.993719 25.6786481 787.993719 31.487275 787.993719 37.2997431 786.186977 41.9097649 782.592545 45.3365472 778.986676 48.7556465 774.610848 50.4690379 769.465051 50.4690379L769.465051 50.4690379 769.465051 50.4690379zM755.266477 79.7196234L783.98 79.7196234 783.98 241.531374 755.266477 241.531374 755.266477 79.7196234 755.266477 79.7196234zM885.245394 75.6743298C896.771974 75.6743298 906.495614 77.1841114 914.423945 80.1883092 922.344656 83.1963481 928.72544 87.4490928 933.562483 92.9427013 938.399532 98.4439934 941.849116 104.978699 943.907438 112.550659 945.961942 120.122619 946.994913 128.470599 946.994913 137.598442L946.994913 238.734627C944.524928 239.149529 941.075345 239.718099 936.653771 240.444177 932.224577 241.170255 927.235066 241.84255 921.677607 242.464903 916.120153 243.087256 910.097671 243.655825 903.617781 244.174453 897.13027 244.689238 890.696126 244.954314 884.319155 244.954314 875.258746 244.954314 866.926373 244.020785 859.310597 242.153726 851.694827 240.286668 845.10821 237.328571 839.550756 233.287119 833.993297 229.241825 829.67083 223.901883 826.583355 217.259611 823.49588 210.621181 821.95214 202.634318 821.95214 193.299025 821.95214 184.382475 823.751262 176.702948 827.357132 170.271968 830.951563 163.84483 835.841973 158.658556 842.020735 154.713146 848.195685 150.77542 855.399798 147.867264 863.633064 146.000206 871.862523 144.133147 880.507452 143.199618 889.567861 143.199618 892.445695 143.199618 895.434068 143.353285 898.521543 143.664462 901.609018 143.975638 904.544025 144.398223 907.318939 144.913009 910.097671 145.431637 912.518096 145.89648 914.580226 146.311382 916.634735 146.730126 918.075556 147.041302 918.89888 147.244911L918.89888 139.154324C918.89888 134.382952 918.384304 129.665363 917.355145 124.993875 916.322174 120.326229 914.469686 116.181051 911.797686 112.550659 909.121873 108.920267 905.466456 106.015954 900.835241 103.833877 896.204026 101.659483 890.181544 100.568445 882.775415 100.568445 873.303344 100.568445 865.024337 101.244581 857.91933 102.593013 850.821944 103.941444 845.519872 105.343659 842.020735 106.791974L838.624512 82.8313879C842.329483 81.1756219 848.508245 79.565956 857.149367 78.0100738 865.794295 76.4503497 875.159639 75.6743298 885.245394 75.6743298L885.245394 75.6743298 885.245394 75.6743298zM887.715378 220.682552C894.507824 220.682552 900.530306 220.525043 905.779017 220.213866 911.027722 219.90269 915.399743 219.337962 918.89888 218.504317L918.89888 170.271968C916.836751 169.238555 913.493894 168.354968 908.866492 167.62889 904.231464 166.902811 898.624457 166.53401 892.037839 166.53401 887.715378 166.53401 883.133717 166.849027 878.30048 167.47138 873.463437 168.093733 869.034243 169.392222 865.024337 171.359165 861.006805 173.333791 857.660136 176.026812 854.98813 179.453594 852.312318 182.872693 850.974411 187.386673 850.974411 192.987848 850.974411 203.360396 854.263907 210.567397 860.854338 214.612691 867.440949 218.661826 876.394631 220.682552 887.715378 220.682552L887.715378 220.682552 887.715378 220.682552z"/>
    </g>
    <text fill="#666666" font-family="Roboto-Italic, Roboto" font-size="160" font-style="italic">
      <tspan x="144" y="187">powered by</tspan>
    </text>
  </g>
</svg>
