<svg xmlns="http://www.w3.org/2000/svg" width="999" height="510" viewBox="0 0 999 510">
  <g fill="none" fill-rule="evenodd">
    <path fill="#4285F4" d="M245.61,298.05 L129.04,298.05 L129.04,332.64 L211.71,332.64 C207.63,381.15 167.27,401.87 129.18,401.87 C80.44,401.87 37.92,363.52 37.92,309.78 C37.92,257.42 78.46,217.1 129.29,217.1 C168.51,217.1 191.62,242.1 191.62,242.1 L215.84,217.02 C215.84,217.02 184.75,182.41 128.06,182.41 C55.86,182.41 0.01,243.34 0.01,309.16 C0.01,373.65 52.55,436.54 129.9,436.54 C197.9,436.54 247.73,389.94 247.73,321.02 C247.73,306.48 245.62,298.08 245.62,298.08 L245.62,298.08 L245.61,298.05 Z"/>
    <path fill="#EA4335" d="M341.1,273 C293.27,273 258.99,310.4 258.99,354 C258.99,398.26 292.24,436.35 341.66,436.35 C386.4,436.35 423.06,402.15 423.06,354.95 C423.06,300.85 380.42,272.95 341.06,272.95 L341.06,272.95 L341.1,273 Z M341.58,305.08 C365.1,305.08 387.39,324.08 387.39,354.74 C387.39,384.74 365.19,404.29 341.47,404.29 C315.4,404.29 294.84,383.41 294.84,354.5 C294.84,326.21 315.15,305.08 341.58,305.08 L341.58,305.08 L341.58,305.08 Z"/>
    <path fill="#FBBC05" d="M519.68,273 C471.85,273 437.57,310.4 437.57,354 C437.57,398.26 470.82,436.35 520.24,436.35 C564.98,436.35 601.64,402.15 601.64,354.95 C601.64,300.85 559,272.95 519.64,272.95 L519.64,272.95 L519.68,273 Z M520.16,305.08 C543.68,305.08 565.97,324.08 565.97,354.74 C565.97,384.74 543.77,404.29 520.05,404.29 C493.98,404.29 473.42,383.41 473.42,354.5 C473.42,326.21 493.73,305.08 520.16,305.08 L520.16,305.08 L520.16,305.08 Z"/>
    <path fill="#4285F4" d="M694.84,273.08 C650.94,273.08 616.43,311.53 616.43,354.69 C616.43,403.85 656.43,436.45 694.09,436.45 C717.37,436.45 729.75,427.21 738.89,416.6 L738.89,432.71 C738.89,460.89 721.78,477.77 695.95,477.77 C671,477.77 658.49,459.22 654.14,448.69 L622.74,461.87 C633.88,485.42 656.29,509.97 696.2,509.97 C739.85,509.97 773.12,482.48 773.12,424.81 L773.12,278 L738.88,278 L738.88,291.87 C728.35,280.52 713.95,273.12 694.88,273.12 L694.88,273.12 L694.84,273.08 Z M698.02,305.08 C719.55,305.08 741.65,323.46 741.65,354.85 C741.65,386.75 719.59,404.34 697.55,404.34 C674.14,404.34 652.37,385.34 652.37,355.16 C652.37,323.8 674.99,305.09 698.03,305.09 L698.03,305.09 L698.02,305.08 Z"/>
    <path fill="#EA4335" d="M925.39,272.87 C883.98,272.87 849.2,305.87 849.2,354.44 C849.2,405.89 887.96,436.44 929.36,436.44 C963.92,436.44 985.13,417.53 997.79,400.59 L969.56,381.8 C962.23,393.17 949.98,404.28 929.56,404.28 C906.56,404.28 896.04,391.71 889.5,379.53 L999,334.07 L993.31,320.75 C982.73,294.67 958.05,272.87 925.39,272.87 L925.39,272.87 L925.39,272.87 Z M926.82,304.28 C941.74,304.28 952.48,312.21 957.04,321.73 L883.9,352.32 C880.75,328.65 903.17,304.32 926.81,304.32 L926.81,304.32 L926.82,304.28 Z"/>
    <polygon fill="#34A853" points="796.99 431.57 832.99 431.57 832.99 190.82 796.99 190.82"/>
    <path fill="#666666" d="M97.23 16.95L93.09 37.34 107.7 37.34 105.43 48.75 90.82 48.75 80.59 100.07C79.7033333 104.29 79.8333333 107.14 80.98 108.62 82.1266667 110.1 83.9666667 110.85 86.5 110.87 87.9528809 110.850841 89.4028248 110.73391 90.84 110.52 92.1862877 110.349388 93.5217788 110.102323 94.84 109.78L94.76 120.33C92.7521395 121.448421 90.5724936 122.225659 88.31 122.63 85.6028474 123.220296 82.8407508 123.521981 80.07 123.53 74.6033333 123.53 70.3966667 121.603333 67.45 117.75 64.5033333 113.896667 63.8533333 108.003333 65.5 100.07L75.73 48.74 63.4 48.74 65.67 37.33 78.01 37.33 82.15 16.94 97.23 16.94 97.23 16.95zM162.07 50.93L153.79 50.46C150.401774 50.4452678 147.090178 51.4677102 144.3 53.39 141.214723 55.5526762 138.640994 58.3653456 136.76 61.63L124.76 121.86 109.65 121.86 126.5 37.34 140.02 37.34 139.1 48.67C141.707675 44.8517094 145.070179 41.6083226 148.98 39.14 152.534218 36.9335016 156.636582 35.7693171 160.82 35.78 161.958411 35.7867461 163.094793 35.8769882 164.22 36.05 165.135984 36.1646496 166.039684 36.3621249 166.92 36.64L162.07 50.93zM210.82 121.87C210.82 119.316667 210.873333 117.22 210.98 115.58 211.086667 113.94 211.27 112.273333 211.53 110.58 208.040813 114.277367 203.991227 117.402297 199.53 119.84 195.403036 122.210546 190.738931 123.487581 185.98 123.55 178.273333 123.55 172.583333 121.246667 168.91 116.64 165.236667 112.033333 164.206667 105.873333 165.82 98.16 167.486667 89.5666667 171.72 83.12 178.52 78.82 185.32 74.52 194.03 72.37 204.65 72.37L219.1 72.37 220.74 64.01C221.78 58.75 221.206667 54.75 219.02 52.01 216.833333 49.27 213.19 47.89 208.09 47.87 203.818398 47.8389464 199.652438 49.1971825 196.22 51.74 192.68 54.32 190.57 57.32 189.89 60.74L175.59 60.74 175.43 60.27C176.47 53.7633333 180.376667 48.0466667 187.15 43.12 193.923333 38.1933333 201.996667 35.7333333 211.37 35.74 219.756667 35.74 226.383333 38.2266667 231.25 43.2 236.116667 48.1733333 237.666667 55.14 235.9 64.1L227.78 104.87C227.142673 107.784164 226.67191 110.732275 226.37 113.7 226.108785 116.427092 226.108785 119.172908 226.37 121.9L210.82 121.9 210.82 121.87zM190.82 110.62C195.361637 110.531246 199.802723 109.266794 203.71 106.95 207.693208 104.842567 211.162342 101.882194 213.87 98.28L217 82.73 202.07 82.73C197.02569 82.6911876 192.118966 84.3737954 188.16 87.5 184.046667 90.68 181.6 94.3266667 180.82 98.44 179.986667 102.44 180.376667 105.473333 181.99 107.54 183.603333 109.606667 186.546667 110.633333 190.82 110.62L190.82 110.62zM274.57 48.98C277.738643 44.9358398 281.716885 41.5979314 286.25 39.18 290.569789 36.9225143 295.375966 35.7552999 300.25 35.78 308.25 35.78 314.16 38.49 317.98 43.91 321.8 49.33 322.633333 57.5333333 320.48 68.52L309.81 121.87 294.73 121.87 305.36 68.87C306.92 60.9566667 306.713333 55.5533333 304.74 52.66 302.766667 49.7666667 298.913333 48.32 293.18 48.32 289.319844 48.3835384 285.555828 49.534232 282.32 51.64 278.622161 53.952708 275.411985 56.9658572 272.87 60.51L260.59 121.87 245.5 121.87 262.38 37.34 275.9 37.34 274.57 48.98zM381.45 99.41C382.023333 95.93 381.32 93.1266667 379.34 91 377.36 88.8733333 373.246667 87.0033333 367 85.39 357.78 83.15 351.023333 80.1033333 346.73 76.25 342.436667 72.3966667 340.836667 67.19 341.93 60.63 343.076667 53.4966667 346.743333 47.5733333 352.93 42.86 359.116667 38.1466667 366.64 35.7866667 375.5 35.78 384.353333 35.78 391.176667 38.3333333 395.97 43.44 400.763333 48.5466667 402.483333 54.6666667 401.13 61.8L400.9 62.27 386.45 62.27C387.125097 58.7312928 386.210948 55.0746959 383.95 52.27 381.65 49.3366667 378.21 47.87 373.63 47.87 368.963333 47.87 365.16 49.0833333 362.22 51.51 359.473237 53.6460057 357.631106 56.7376443 357.06 60.17 356.486667 63.67 357.1 66.3366667 358.9 68.17 360.7 70.0033333 364.776667 71.7 371.13 73.26 380.763333 75.5466667 387.69 78.6533333 391.91 82.58 396.13 86.5066667 397.72 91.77 396.68 98.37 395.614952 105.820243 391.476451 112.483193 385.27 116.74 378.916667 121.24 371.103333 123.49 361.83 123.49 352.143333 123.49 344.746667 120.73 339.64 115.21 334.533333 109.69 332.71 103.336667 334.17 96.15L334.33 95.68 348.78 95.68C348.113333 101.12 349.286667 105.096667 352.3 107.61 355.527679 110.195199 359.577487 111.533304 363.71 111.38 367.959187 111.522796 372.149204 110.353083 375.71 108.03 378.760269 106.101801 380.847115 102.967895 381.45 99.41L381.45 99.41z"/>
    <polygon fill="#666666" points="426.29 121.87 411.21 121.87 435.59 0 450.67 0"/>
    <path fill="#666666" d="M496.92 121.87C496.92 119.316667 496.973333 117.22 497.08 115.58 497.186667 113.94 497.37 112.273333 497.63 110.58 494.140813 114.277367 490.091227 117.402297 485.63 119.84 481.503036 122.210546 476.838931 123.487581 472.08 123.55 464.373333 123.55 458.683333 121.246667 455.01 116.64 451.336667 112.033333 450.306667 105.873333 451.92 98.16 453.586667 89.5666667 457.82 83.12 464.62 78.82 471.42 74.52 480.13 72.37 490.75 72.37L505.2 72.37 506.84 64.01C507.88 58.75 507.306667 54.75 505.12 52.01 502.933333 49.27 499.286667 47.89 494.18 47.87 489.908398 47.8389464 485.742438 49.1971825 482.31 51.74 478.77 54.32 476.66 57.32 475.98 60.74L461.68 60.74 461.52 60.27C462.56 53.7633333 466.466667 48.0466667 473.24 43.12 480.013333 38.1933333 488.1 35.7466667 497.5 35.78 505.886667 35.78 512.513333 38.2666667 517.38 43.24 522.246667 48.2133333 523.796667 55.18 522.03 64.14L513.87 104.87C513.247234 107.775056 512.789832 110.713113 512.5 113.67 512.238785 116.397092 512.238785 119.142908 512.5 121.87L496.92 121.87 496.92 121.87zM476.92 110.62C481.461637 110.531246 485.902723 109.266794 489.81 106.95 493.793208 104.842567 497.262342 101.882194 499.97 98.28L503.1 82.73 488.17 82.73C483.12569 82.6911876 478.218966 84.3737954 474.26 87.5 470.146667 90.68 467.7 94.3266667 466.92 98.44 466.086667 102.44 466.476667 105.473333 468.09 107.54 469.703333 109.606667 472.646667 110.633333 476.92 110.62L476.92 110.62zM572.62 16.95L568.5 37.34 583.11 37.34 580.84 48.75 566.21 48.75 555.98 100.07C555.093333 104.29 555.223333 107.14 556.37 108.62 557.516667 110.1 559.366667 110.843333 561.92 110.85 563.372881 110.830841 564.822825 110.71391 566.26 110.5 567.606288 110.329388 568.941779 110.082323 570.26 109.76L570.18 120.31C568.17214 121.428421 565.992494 122.205659 563.73 122.61 561.022847 123.200296 558.260751 123.501981 555.49 123.51 550.023333 123.51 545.816667 121.583333 542.87 117.73 539.923333 113.876667 539.256667 107.99 540.87 100.07L551.1 48.74 538.79 48.74 541.06 37.33 553.4 37.33 557.5 16.95 572.58 16.95 572.62 16.95zM619.03 123.51C608.403333 123.51 600.37 119.563333 594.93 111.67 589.49 103.776667 587.756667 93.6333333 589.73 81.24L590.28 77.8C592.28 65.3 597.213333 55.17 605.08 47.41 612.946667 39.65 621.476667 35.77 630.67 35.77 641.03 35.77 648.453333 39.24 652.94 46.18 657.426667 53.12 658.78 62.2766667 657 73.65L655.44 83.28 604.5 83.28C603.353333 91.88 604.146667 98.7166667 606.88 103.79 609.613333 108.863333 614.28 111.4 620.88 111.4 629.397196 111.437203 637.65982 108.497887 644.24 103.09L648.54 113.09C644.973141 116.301926 640.839342 118.821542 636.35 120.52 630.819494 122.609585 624.940988 123.624408 619.03 123.51L619.03 123.51zM628.79 47.87C624.416667 47.87 620.183333 50.0566667 616.09 54.43 611.869841 59.0425247 608.850902 64.6236128 607.3 70.68L607.5 71.17 642.27 71.17 642.58 69.17C643.566667 62.87 642.966667 57.7533333 640.78 53.82 638.593333 49.8866667 634.596667 47.9033333 628.79 47.87L628.79 47.87zM669.96 79.6C672.82 65.0666667 677.416667 54.13 683.75 46.79 690.083333 39.45 698.22 35.7833333 708.16 35.79 712.239716 35.7346996 716.272972 36.6607023 719.92 38.49 723.397623 40.2551295 726.367824 42.8777173 728.55 46.11L737.77.02 752.85.02 728.5 121.87 715.5 121.87 716.05 113.75C713.116079 116.843123 709.598338 119.324235 705.7 121.05 701.846928 122.703952 697.692937 123.54156 693.5 123.51 684.44 123.51 677.603333 119.446667 672.99 111.32 668.376667 103.193333 667.27 93.1666667 669.67 81.24L669.96 79.6zM684.8 81.24C682.973333 90.2 683.306667 97.4 685.8 102.84 688.293333 108.28 692.98 111 699.86 111 703.435348 111.047296 706.934581 109.966033 709.86 107.91 713.101057 105.532222 715.848733 102.546799 717.95 99.12L725.95 59.2C724.713583 56.0020865 722.586194 53.2257222 719.82 51.2 716.830048 49.1312962 713.253844 48.0794716 709.62 48.2 703.373333 48.2 698.203333 51.0266667 694.11 56.68 690.016667 62.3333333 687.033333 69.95 685.16 79.53L684.8 81.24zM863.5 84.37C860.893333 97.3366667 856.493333 107.103333 850.3 113.67 844.106667 120.236667 836.136667 123.516667 826.39 123.51 822.039027 123.534392 817.784945 122.225712 814.2 119.76 810.421739 117.170737 807.379408 113.646044 805.37 109.53L801.37 121.87 788.37 121.87 812.7 0 827.78 0 818.78 45C821.644508 42.1005994 825.039367 39.7785163 828.78 38.16 832.575409 36.5552225 836.659413 35.7452284 840.78 35.78 849.893333 35.78 856.65 40.2866667 861.05 49.3 865.45 58.3133333 866.35 69.46 863.75 82.74L863.5 84.37zM848.73 82.73C850.73 72.5233333 850.56 64.23 848.22 57.85 845.88 51.47 841.283333 48.28 834.43 48.28 830.648288 48.2864646 826.975911 49.5492837 823.99 51.87 820.567122 54.5136976 817.667514 57.772789 815.44 61.48L808.01 98.87C809.116944 102.364454 811.236505 105.451566 814.1 107.74 816.913333 109.953333 820.533333 111.06 824.96 111.06 830.816922 111.197055 836.399225 108.579888 840.04 103.99 843.946667 99.2766667 846.733333 92.7533333 848.4 84.42L848.73 82.73zM903.63 90.54L904.02 100.15 904.49 100.23 935.9 37.34 952.7 37.34 900.35 134.87C897.237659 140.395259 893.283587 145.401952 888.63 149.71 884.24268 153.853023 878.413757 156.123613 872.38 156.04 870.914736 156.004402 869.4541 155.860678 868.01 155.61 866.19 155.323333 864.783333 155.05 863.79 154.79L867.79 142.68 870.06 142.84C872.3 142.993333 873.68 143.07 874.2 143.07 876.906667 143.07 879.626667 141.506667 882.36 138.38 884.909536 135.518109 887.123884 132.374406 888.96 129.01L894.12 120.18 881.5 37.34 898.4 37.34 903.63 90.54z"/>
  </g>
</svg>
