<svg id="svg2" xmlns="http://www.w3.org/2000/svg" viewBox="0 0 999 509.93"><defs><style>.cls-1{fill:#4285f4;}.cls-2{fill:#ea4335;}.cls-3{fill:#fbbc05;}.cls-4{fill:#34a853;}.cls-5{fill:#fff;}</style></defs><title>banner--translated-by-google</title><path id="path2998" class="cls-1" d="M276.11,339.18H159.54v34.59h82.67C238.13,422.28,197.77,443,159.68,443c-48.74,0-91.26-38.35-91.26-92.09,0-52.36,40.54-92.68,91.37-92.68,39.22,0,62.33,25,62.33,25l24.22-25.08s-31.09-34.61-87.78-34.61c-72.2,0-128.05,60.93-128.05,126.75,0,64.49,52.54,127.38,129.89,127.38,68,0,117.83-46.6,117.83-115.52,0-14.54-2.11-22.94-2.11-22.94h0Z" transform="translate(-30.5 -41.13)"/><path id="path3000" class="cls-2" d="M371.6,314.13c-47.83,0-82.11,37.4-82.11,81,0,44.26,33.25,82.35,82.67,82.35,44.74,0,81.4-34.2,81.4-81.4,0-54.1-42.64-82-82-82h0Zm0.48,32.08c23.52,0,45.81,19,45.81,49.66,0,30-22.2,49.55-45.92,49.55-26.07,0-46.63-20.88-46.63-49.79,0-28.29,20.31-49.42,46.74-49.42h0Z" transform="translate(-30.5 -41.13)"/><path id="path3005" class="cls-3" d="M550.18,314.13c-47.83,0-82.11,37.4-82.11,81,0,44.26,33.25,82.35,82.67,82.35,44.74,0,81.4-34.2,81.4-81.4,0-54.1-42.64-82-82-82h0Zm0.48,32.08c23.52,0,45.81,19,45.81,49.66,0,30-22.2,49.55-45.92,49.55-26.07,0-46.63-20.88-46.63-49.79,0-28.29,20.31-49.42,46.74-49.42h0Z" transform="translate(-30.5 -41.13)"/><path id="path3007" class="cls-1" d="M725.34,314.21c-43.9,0-78.41,38.45-78.41,81.61,0,49.16,40,81.76,77.66,81.76,23.28,0,35.66-9.24,44.8-19.85v16.11c0,28.18-17.11,45.06-42.94,45.06-24.95,0-37.46-18.55-41.81-29.08L653.24,503c11.14,23.55,33.55,48.1,73.46,48.1,43.65,0,76.92-27.49,76.92-85.16V319.13H769.38V333c-10.53-11.35-24.93-18.75-44-18.75h0Zm3.18,32c21.53,0,43.63,18.38,43.63,49.77,0,31.9-22.06,49.49-44.1,49.49-23.41,0-45.18-19-45.18-49.18,0-31.36,22.62-50.07,45.66-50.07h0Z" transform="translate(-30.5 -41.13)"/><path id="path3011" class="cls-2" d="M955.89,314c-41.41,0-76.19,33-76.19,81.57,0,51.45,38.76,82,80.16,82,34.56,0,55.77-18.91,68.43-35.85l-28.23-18.79c-7.33,11.37-19.58,22.48-40,22.48-23,0-33.52-12.57-40.06-24.75L1029.5,375.2l-5.69-13.32C1013.23,335.8,988.55,314,955.89,314h0Zm1.43,31.41c14.92,0,25.66,7.93,30.22,17.45L914.4,393.45c-3.15-23.67,19.27-48,42.91-48h0Z" transform="translate(-30.5 -41.13)"/><path id="path3015" class="cls-4" d="M827.49,472.7h36V231.95h-36V472.7Z" transform="translate(-30.5 -41.13)"/><path class="cls-5" d="M127.73,58.08l-4.14,20.39H138.2l-2.27,11.41H121.32L111.09,141.2q-1.33,6.33.39,8.55T117,152a32.38,32.38,0,0,0,4.34-.35,35.78,35.78,0,0,0,4-.74l-0.08,10.55a20.76,20.76,0,0,1-6.45,2.3,39.21,39.21,0,0,1-8.24.9q-8.2,0-12.62-5.78T96,141.2l10.23-51.33H93.9l2.27-11.41h12.34l4.14-20.39h15.08Z" transform="translate(-30.5 -41.13)"/><path class="cls-5" d="M192.57,92.06l-8.28-.47a16.6,16.6,0,0,0-9.49,2.93,25.78,25.78,0,0,0-7.54,8.24l-12,60.23H140.15L157,78.47h13.52L169.6,89.8a33.84,33.84,0,0,1,9.88-9.53,22.34,22.34,0,0,1,11.84-3.36,23.28,23.28,0,0,1,3.4.27,15.27,15.27,0,0,1,2.7.59Z" transform="translate(-30.5 -41.13)"/><path class="cls-5" d="M241.32,163q0-3.83.16-6.29t0.55-5a48.43,48.43,0,0,1-12,9.26,27.94,27.94,0,0,1-13.55,3.71q-11.56,0-17.07-6.91t-3.09-18.48q2.5-12.89,12.7-19.34t26.13-6.45H249.6l1.64-8.36q1.56-7.89-1.72-12T238.59,89a19.7,19.7,0,0,0-11.87,3.87q-5.31,3.87-6.33,9h-14.3l-0.16-.47q1.56-9.76,11.72-17.15t24.22-7.38q12.58,0,19.88,7.46t4.65,20.9L258.28,146a78.53,78.53,0,0,0-1.41,8.83,43,43,0,0,0,0,8.2H241.32Zm-20-11.25a26.28,26.28,0,0,0,12.89-3.67,30.63,30.63,0,0,0,10.16-8.67l3.13-15.55H232.57a22.17,22.17,0,0,0-13.91,4.77q-6.17,4.77-7.34,10.94-1.25,6,1.17,9.1T221.32,151.75Z" transform="translate(-30.5 -41.13)"/><path class="cls-5" d="M305.07,90.11a36.9,36.9,0,0,1,11.68-9.8,29.9,29.9,0,0,1,14-3.4q12,0,17.73,8.13t2.5,24.61L340.31,163H325.23l10.63-53q2.34-11.87-.62-16.21t-11.56-4.34a20.53,20.53,0,0,0-10.86,3.32,33.47,33.47,0,0,0-9.45,8.87L291.09,163H276l16.88-84.53H306.4Z" transform="translate(-30.5 -41.13)"/><path class="cls-5" d="M411.95,140.54q0.86-5.22-2.11-8.41t-12.34-5.61q-13.83-3.36-20.27-9.14t-4.8-15.62q1.72-10.7,11-17.77T406,76.91q13.28,0,20.47,7.66t5.16,18.36l-0.23.47H416.95a12.27,12.27,0,0,0-2.5-10Q411,89,404.13,89q-7,0-11.41,3.64a13.85,13.85,0,0,0-5.16,8.66q-0.86,5.25,1.84,8t12.23,5.09q14.45,3.43,20.78,9.32t4.77,15.79a26.89,26.89,0,0,1-11.41,18.37q-9.53,6.75-23.44,6.75-14.53,0-22.19-8.28t-5.47-19.06l0.16-.47h14.45q-1,8.16,3.52,11.93a17.23,17.23,0,0,0,11.41,3.77,20.69,20.69,0,0,0,12-3.35A12.71,12.71,0,0,0,411.95,140.54Z" transform="translate(-30.5 -41.13)"/><path class="cls-5" d="M456.79,163H441.71L466.09,41.13h15.08Z" transform="translate(-30.5 -41.13)"/><path class="cls-5" d="M527.42,163q0-3.83.16-6.29t0.55-5a48.43,48.43,0,0,1-12,9.26,27.94,27.94,0,0,1-13.55,3.71q-11.56,0-17.07-6.91t-3.09-18.48q2.5-12.89,12.7-19.34t26.13-6.45H535.7l1.64-8.36q1.56-7.89-1.72-12T524.68,89a19.7,19.7,0,0,0-11.87,3.87q-5.31,3.87-6.33,9h-14.3l-0.16-.47q1.56-9.76,11.72-17.15T528,76.91q12.58,0,19.88,7.46t4.65,20.9L544.37,146A78.53,78.53,0,0,0,543,154.8a43,43,0,0,0,0,8.2H527.42Zm-20-11.25a26.28,26.28,0,0,0,12.89-3.67,30.63,30.63,0,0,0,10.16-8.67l3.13-15.55H518.67a22.17,22.17,0,0,0-13.91,4.77q-6.17,4.77-7.34,10.94-1.25,6,1.17,9.1T507.42,151.75Z" transform="translate(-30.5 -41.13)"/><path class="cls-5" d="M603.12,58.08L599,78.47h14.61l-2.27,11.41H596.71L586.48,141.2q-1.33,6.33.39,8.55t5.55,2.23a32.38,32.38,0,0,0,4.34-.35,35.78,35.78,0,0,0,4-.74l-0.08,10.55a20.76,20.76,0,0,1-6.45,2.3,39.21,39.21,0,0,1-8.24.9q-8.2,0-12.62-5.78t-2-17.66l10.23-51.33H569.29l2.27-11.41H583.9L588,58.08h15.08Z" transform="translate(-30.5 -41.13)"/><path class="cls-5" d="M649.53,164.64q-15.94,0-24.1-11.84t-5.2-30.43l0.55-3.44q3-18.75,14.8-30.39t25.59-11.64q15.54,0,22.27,10.41t4.06,27.47l-1.56,9.63H635q-1.72,12.9,2.38,20.51t14,7.61a36.54,36.54,0,0,0,23.36-8.31l4.3,10a38.66,38.66,0,0,1-12.19,7.43A46.46,46.46,0,0,1,649.53,164.64ZM659.29,89q-6.56,0-12.7,6.56a38.06,38.06,0,0,0-8.79,16.25L638,112.3h34.77l0.31-2q1.48-9.45-1.8-15.35T659.29,89Z" transform="translate(-30.5 -41.13)"/><path class="cls-5" d="M700.46,120.73q4.29-21.8,13.79-32.81t24.41-11a25.46,25.46,0,0,1,11.76,2.7,22.94,22.94,0,0,1,8.63,7.62l9.22-46.09h15.08L759,163H746l0.55-8.12a32.27,32.27,0,0,1-10.35,7.3A30.35,30.35,0,0,1,724,164.64q-13.59,0-20.51-12.19t-3.32-30.08Zm14.84,1.64q-2.74,13.44,1,21.6t14.06,8.16a17,17,0,0,0,10-3.09,31,31,0,0,0,8.09-8.79l8-39.92a17.93,17.93,0,0,0-6.13-8,16.94,16.94,0,0,0-10.2-3q-9.37,0-15.51,8.48t-8.95,22.85Z" transform="translate(-30.5 -41.13)"/><path class="cls-5" d="M894,125.5q-3.91,19.45-13.2,29.3t-23.91,9.84a21.3,21.3,0,0,1-12.19-3.75,26.49,26.49,0,0,1-8.83-10.23l-4,12.34h-13L843.2,41.13h15.08l-9,45a31.82,31.82,0,0,1,10-6.84,30.16,30.16,0,0,1,12-2.38q13.67,0,20.27,13.52t2.7,33.44Zm-14.77-1.64q3-15.31-.51-24.88t-13.79-9.57A17.06,17.06,0,0,0,854.49,93a34.77,34.77,0,0,0-8.55,9.61L838.51,140a18.51,18.51,0,0,0,6.09,8.87q4.22,3.32,10.86,3.32a18.69,18.69,0,0,0,15.08-7.07q5.86-7.07,8.36-19.57Z" transform="translate(-30.5 -41.13)"/><path class="cls-5" d="M934.13,131.67l0.39,9.61,0.47,0.08L966.4,78.47h16.8L930.85,176a61.06,61.06,0,0,1-11.72,14.84,23.2,23.2,0,0,1-16.25,6.33,29.78,29.78,0,0,1-4.37-.43q-2.73-.43-4.22-0.82l4-12.11,2.27,0.16q3.36,0.23,4.14.23,4.06,0,8.16-4.69a50.34,50.34,0,0,0,6.6-9.37l5.16-8.83L912,78.47H928.9Z" transform="translate(-30.5 -41.13)"/></svg>