<?xml version="1.0" encoding="UTF-8" standalone="no"?>
<svg width="36px" height="34px" viewBox="0 0 36 34" version="1.1" xmlns="http://www.w3.org/2000/svg" xmlns:xlink="http://www.w3.org/1999/xlink" xmlns:sketch="http://www.bohemiancoding.com/sketch/ns">
    <!-- Generator: Sketch 3.2.2 (9983) - http://www.bohemiancoding.com/sketch -->
    <title>Imported Layers</title>
    <desc>Created with Sketch.</desc>
    <defs></defs>
    <g id="Startseite" stroke="none" stroke-width="1" fill="none" fill-rule="evenodd" sketch:type="MSPage">
        <g id="Slice-Start" sketch:type="MSArtboardGroup" transform="translate(-500.000000, -92.000000)">
            <g id="Imported-Layers" sketch:type="MSLayerGroup" transform="translate(502.000000, 92.000000)">
                <path d="M24.0582278,11.2651899 C21.8848101,8.25253165 17.6670886,7.56392405 14.6329114,9.73734177 C14.5468354,9.80211392 14.4607595,9.8664557 14.3962025,9.93101266 L13.1050633,9.67256962 L13.578481,10.6841772 C11.4696203,12.9867089 11.2113924,16.5373418 13.1050633,19.1628734 C15.278481,22.1968354 19.4962025,22.8639241 22.5303797,20.6905063 C25.543038,18.5173038 26.2316456,14.2991519 24.0582278,11.2651899" id="Fill-1" fill="#FBD0AE" sketch:type="MSShapeGroup"></path>
                <path d="M14.4607595,12.2548481 C13.9443038,12.6208861 13.8367089,13.3527468 14.2025316,13.8474684 C14.5683544,14.3639241 15.3,14.471519 15.7949367,14.1059114 C16.3113924,13.7398734 16.4189873,13.0080127 16.0531646,12.5132911 C15.6873418,11.9968354 14.9556962,11.8892405 14.4607595,12.2548481" id="Fill-2" fill="#F6A10C" sketch:type="MSShapeGroup"></path>
                <path d="M16.0746835,10.2105443 C16.2528608,10.2105443 16.3974684,10.3551519 16.3974684,10.5333291 C16.3974684,10.7119367 16.2528608,10.8561139 16.0746835,10.8561139 C15.8962911,10.8561139 15.7518987,10.7119367 15.7518987,10.5333291 C15.7518987,10.3551519 15.8962911,10.2105443 16.0746835,10.2105443" id="Fill-3" fill="#40301A" sketch:type="MSShapeGroup"></path>
                <path d="M16.3113924,11.4588608 C16.8278481,11.3727848 17.1506329,10.8780633 17.064557,10.3613924 C16.978481,9.84493671 16.4835443,9.5221519 15.9670886,9.60822785" id="Stroke-4" stroke="#40301A" stroke-width="0.534" stroke-linecap="round" sketch:type="MSShapeGroup"></path>
                <path d="M10.9101266,30.7183544 C11.7659367,30.7183544 12.4594937,31.4119114 12.4594937,32.2675063 C12.4594937,33.1233165 11.7659367,33.8170886 10.9101266,33.8170886 C10.0545316,33.8170886 9.36075949,33.1233165 9.36075949,32.2675063 C9.36075949,31.4119114 10.0545316,30.7183544 10.9101266,30.7183544" id="Fill-5" fill="#40301A" sketch:type="MSShapeGroup"></path>
                <path d="M26.2316456,30.7183544 C27.0874557,30.7183544 27.7810127,31.4119114 27.7810127,32.2675063 C27.7810127,33.1233165 27.0874557,33.8170886 26.2316456,33.8170886 C25.3760506,33.8170886 24.6822785,33.1233165 24.6822785,32.2675063 C24.6822785,31.4119114 25.3760506,30.7183544 26.2316456,30.7183544" id="Fill-6" fill="#40301A" sketch:type="MSShapeGroup"></path>
                <path d="M33.5481013,15.1599114 C33.5481013,6.87510127 26.8341772,0.182911392 18.5708861,0.182911392 L18.5708861,15.2031646 L3.59367089,15.2031646 L3.59367089,15.2462025 C3.59367089,23.5310127 10.3075949,30.2232025 18.5708861,30.2232025 C26.8556962,30.2232025 33.5481013,23.5094937 33.5481013,15.2462025 L33.5481013,15.2031646 L33.5481013,15.1599114" id="Fill-7" fill="#40301A" sketch:type="MSShapeGroup"></path>
                <path d="M3.9164557,15.5474684 L3.9164557,15.5474684 C3.9164557,13.3955696 2.17341772,11.6312278 0.0215189873,11.6312278" id="Stroke-8" stroke="#40301A" stroke-width="2.945" stroke-linecap="round" sketch:type="MSShapeGroup"></path>
            </g>
        </g>
    </g>
</svg>