<svg xmlns="http://www.w3.org/2000/svg" viewBox="0 0 2090 596.7"><path opacity=".3" fill="#006B81" d="M307.5 300.3C149 300.3 20.2 429 20.2 587.6c0 3 0 6 .2 9H151v-107c0-23.2 18.8-42 42-42 23 0 42 18.8 42 42v107h34v-107c0-23.2 18.8-42 42-42 23 0 41.8 18.8 41.8 42v107H387v-107c0-23.2 18.8-42 42-42 23 0 41.8 18.8 41.8 42v107h124v-9c0-158.7-128.6-287.3-287.3-287.3z"/><path opacity=".5" fill="#4C97A7" d="M1426.3 315.7c-150.4 0-272.3 122-272.3 272.4v8.7h57c-.2-2.3-.2-4.6-.2-6.8 0-119.2 96.5-215.7 215.5-215.7s215.5 96.5 215.5 215.6v6.7h56.7V588c0-150.3-121.8-272.3-272.2-272.3z"/><path opacity=".3" fill="#524738" d="M1426.3 374.3c-119 0-215.5 96.5-215.5 215.6v6.7h44.4v-5.4c0-94.6 76.5-171.2 171-171.2 94.7 0 171.3 76.7 171.3 171.3v5.4h44.2V590c0-119.2-96.4-215.7-215.4-215.7z"/><path opacity=".3" fill="#F7A100" d="M1426.3 420c-94.6 0-171.2 76.7-171.2 171.3 0 1.8 0 3.6.2 5.4h46.5v-4c0-71.4 57.7-129 129-129s129 57.6 129 129v4h37.7v-5.4c0-94.6-76.5-171.2-171-171.2z"/><path opacity=".5" fill="#AAA797" d="M496.4 52.8c-8.2-8.2-19.4-12.8-31-12.8-11.6 0-22.8 4.6-31 12.8-8.2 8.2-12.8 19.4-12.8 31v509.7h87.7V83.8c0-11.6-4.7-22.8-13-31zm-31 247c-7.2 0-13-5.8-13-13s5.8-13.2 13-13.2 13.2 6 13.2 13-6 13.3-13.2 13.3zm0-46.5c-7.2 0-13-6-13-13 0-7.4 5.8-13.3 13-13.3s13.2 6 13.2 13.2c0 7.2-6 13-13.2 13zm0-46.6c-7.2 0-13-6-13-13s5.8-13.3 13-13.3 13.2 6 13.2 13.2-6 13-13.2 13zm0-46.6c-7.2 0-13-5.7-13-13s5.8-13 13-13 13.2 5.7 13.2 13-6 13-13.2 13zm0-46.4c-7.2 0-13-6-13-13.2 0-7.2 5.8-13 13-13s13.2 5.8 13.2 13c0 7.3-6 13.2-13.2 13.2z"/><path opacity=".3" fill="#40301A" d="M702 596.7V388.4c0-15.8 6.2-31 17.4-42.2 11.2-11 26.4-17.4 42.2-17.4 15.8 0 31 6.3 42.2 17.4s17.4 26.4 17.4 42.2v208.3H702z"/><path opacity=".4" fill="#006B81" d="M802.7 596.7V452.5c0-22.2 8.8-43.4 24.5-59 15.7-15.8 37-24.6 59-24.6 22.3 0 43.6 8.7 59.2 24.4 15.7 15.7 24.5 37 24.5 59v144.3H802.6z"/><path opacity=".2" fill="#006B81" d="M1711.8 212c-100.7 0-192 40-259.2 105 138 13.3 246 129.5 246 271v8.7h385.7l.2-11.8c0-206-167-373-372.7-373z"/><g fill="#006B81"><path opacity=".3" d="M117 117.6c2.6-2.8 6.3-4.3 10-4.3h1.5v-2.7c0-8.8 3.5-17.2 9.8-23.4 6.2-6.3 14.6-9.7 23.4-9.7 8.8 0 17.2 3.4 23.5 9.7 3 3 5.3 6.5 7 10.4 4-3.6 9-5.5 14.2-5.5 5.6 0 11 2.3 15 6.3s6.2 9.3 6.2 15v1.4c2-1 4-1.4 6.2-1.4 3.8 0 7.5 1.5 10.2 4.3 2.7 2.7 4.3 6.4 4.3 10.2v5H112.5v-5c0-3.8 1.6-7.5 4.3-10.2z"/><path opacity=".3" d="M74.2 123.6c1.6-1.6 3.8-2.6 6.2-2.6h.8v-1.6c0-5.3 2-10.4 6-14.2 3.7-3.8 8.8-6 14-6 5.4 0 10.5 2.2 14.3 6 1.8 1.8 3.2 4 4.2 6.3 2.4-2 5.5-3.3 8.7-3.3 3.3 0 6.6 1.3 9 3.7 2.4 2.3 3.8 5.6 3.8 9v1c1-.7 2.4-1 3.7-1 2.2 0 4.4 1 6 2.6 1.7 1.6 2.7 4 2.7 6.2v3H71.7v-3c0-2.3 1-4.6 2.6-6.2z"/></g><path fill="#8BBDAC" d="M1463 115c-3.2-3.3-7.6-5-12-5h-1.7v-3.2c0-10.3-4-20.2-11.4-27.5-7.4-7.3-17.3-11.4-27.6-11.4s-20.2 4-27.5 11.3c-3.6 3.5-6.4 7.7-8.3 12.2-4.6-4.2-10.5-6.5-16.7-6.5-6.6 0-13 2.6-17.6 7.3-4.6 4.7-7.3 11-7.3 17.6v1.6c-2-1-4.6-1.6-7-1.6-4.6 0-9 1.7-12 5-3.3 3-5 7.4-5 12v6h158.9v-6c0-4.6-2-9-5-12z" opacity=".3"/><path opacity=".3" fill="#006B81" d="M1130.7 103.2c5.3-5.2 12.4-8.2 20-8.2h2.6V90c0-17 6.8-33.4 18.8-45.5 12.2-12 28.5-18.8 45.6-18.8 17 0 33.3 6.8 45.4 18.8 5.8 6 10.4 12.7 13.6 20.2 7.6-7 17.4-10.7 27.6-10.7 11 0 21.3 4.3 29 12 7.7 7.7 12 18.2 12 29v3c3.8-2 7.8-2.8 12-2.8 7.4 0 14.6 3 20 8.2 5 5.3 8 12.4 8 20v9.6h-262.7V123c0-7.4 3-14.5 8.2-19.8z"/><path opacity=".3" fill="#8BBDAC" d="M234 296.4v1.5c0 23 17 42.4 39.3 45.8v253H291V408.3c0-10.8 4.3-21 12-28.6 7.5-7.6 17.7-11.8 28.4-11.8 10.8 0 21 4.2 28.6 11.8 7.6 7.6 11.8 17.8 11.8 28.6v188.3h34V163.3c0-17.6-7-34.4-19.4-46.8C374 104 357 97 339.6 97s-34.4 7-47 19.5c-12.3 12.4-19.3 29.2-19.3 46.8v58.3H234v1.5c0 23.3 17 42.6 39.3 46v27.4H234zm85.5.8c0-11 9-20 20-20s20 9 20 20-9 20-20 20-20-9-20-20zm0-70c0-11 9-20 20-20s20 9 20 20-9 20-20 20-20-9-20-20zm0-70c0-11 9-20 20-20s20 9 20 20c0 11.2-9 20.2-20 20.2s-20-9-20-20z"/><path fill="#BF4528" d="M258 199c-8.5-.2-15.6 6.4-16 15l15.6.4.5-15.4z"/><path fill="#165265" d="M270 211.8c-.3 6.8-6 12-12.8 12-6.8-.3-12.2-6-12-13l12.4.6.4-12.4c6.8.2 12 6 12 12.8z"/><path fill="none" stroke="#D9D5C1" stroke-width=".6" stroke-linecap="round" stroke-miterlimit="10" d="M259.3 204.2c0-1.3 1.3-2.4 2.6-2.3 1.3 0 2.4 1 2.3 2.5"/><circle fill="#D9D5C1" cx="261.8" cy="204.5" r=".9"/><path fill="#F5A10C" d="M247.3 274.6c-8.5-.2-15.7 6.4-16 15l15.5.5.5-15.4z"/><path fill="#BF4528" d="M259.2 287.4c-.2 6.8-6 12.2-12.8 12-6.8-.3-12-6-12-12.8l12.4.4.4-12.4c6.8.3 12.2 6 12 12.8z"/><path fill="none" stroke="#D9D5C1" stroke-width=".6" stroke-linecap="round" stroke-miterlimit="10" d="M248.6 280c0-1.5 1.2-2.6 2.6-2.5 1.3 0 2.4 1.2 2.3 2.6"/><circle fill="#D9D5C1" cx="251.1" cy="280.1" r=".9"/><g><path fill="#F7A100" d="M301 94.7c-8 3.5-11.4 12.6-7.8 20.4l14-6.2-6.3-14z"/><path fill="#291F00" d="M317.2 101c2.8 6 0 13.4-6.2 16.2-6.2 2.8-13.6 0-16.3-6.2l11.2-5-5.2-11.3c6.2-2.8 13.5 0 16.4 6.2z"/><path fill="none" stroke="#D9D5C1" stroke-width=".6" stroke-linecap="round" stroke-miterlimit="10" d="M304.3 98.8c-.5-1.2 0-2.7 1.3-3.3 1.2-.5 2.7 0 3.3 1.3"/><circle fill="#D9D5C1" cx="306.7" cy="97.9" r=".9"/></g><path opacity=".3" fill="#006B81" d="M885.6 596.7c-40-68-114-114-198.5-114-84.6 0-158.6 46-198.5 114h397z"/><path fill="#AAA797" d="M608 596.7v-71.3c0-36.4-29.4-66-65.8-66s-66 29.6-66 66c0 .7 0 70.6.2 71.3H608z"/><path opacity=".3" fill="#8BBDAC" d="M748.8 390.2c-12.4-12.4-29.3-19.4-46.8-19.4-17.5 0-34.4 7-46.8 19.4-12.4 12.4-19.4 29.3-19.4 46.8v159.7H768V437c.2-17.5-6.8-34.4-19.2-46.8z"/><g><g fill="#006B81"><path d="M818 546.8h18V592h-18zM839.3 546.8h18V592h-18z"/></g><path fill="#BF4528" d="M864 543v-52.2c0-7-2.7-13.8-7.7-18.8s-11.7-7.8-18.8-7.8c-7 0-13.8 2.8-18.8 7.8s-7.8 11.7-7.8 18.8v52h53z"/><circle fill="#A07A54" cx="837.8" cy="377.5" r="80"/><g fill="#291F00"><path d="M864.3 380.7c-.2 0-.4 0-.5-.2-1.3-1.3-3-2-4.8-2-1.8 0-3.6.7-5 2-.2.3-.7.3-1 0s-.3-1 0-1.2c1.6-1.6 3.7-2.4 6-2.4s4.4.8 6 2.3c.2.4.2 1 0 1.2l-.7.2zM822 380.7c-.2 0-.4 0-.5-.2-1.3-1.3-3-2-4.8-2-1.8 0-3.6.7-5 2-.2.3-.7.3-1 0-.3-.3-.3-1 0-1.2 1.6-1.6 3.7-2.4 6-2.4s4.4.8 6 2.3c.2.4.2 1 0 1.2l-.7.2z"/><circle cx="858.9" cy="385.8" r="3.9"/><circle cx="816.6" cy="385.8" r="3.9"/></g><g fill="#BF4528"><path d="M893.7 396.7c0 7.5-6 13.6-13.6 13.6s-13.5-6-13.5-13.6 6-13.6 13.6-13.6 13.7 6.2 13.7 13.7zM809 396.7c0 7.5-6 13.6-13.6 13.6s-13.6-6-13.6-13.6 6-13.6 13.6-13.6 13.6 6.2 13.6 13.7z"/></g><path fill="#291F00" d="M837.8 354.6c25.2 0 49.4-4.5 71.8-12.7-13-26.4-40.4-44.5-71.8-44.5s-58.6 18-71.8 44.4c22.4 8 46.6 12.6 71.8 12.6zM837.8 412.4c7.5 0 14.8-1.3 21.5-3.8-4-8-12-13.3-21.5-13.3-9.4 0-17.5 5.4-21.5 13.3 6.7 2.4 14 3.8 21.5 3.8z"/><path fill="#64141A" d="M773.5 532.7c1-24.7 12.6-47.4 32.3-62.2l10.8 14.3c-15.3 11.6-24.5 29.3-25.2 48.5l-18-.6z"/><path fill="#A07A54" d="M786 492c-7.6 12-12 26-12.5 40.7l18 .6c.3-11.7 4-23 10-32.5L786 492z"/><g><path fill="#64141A" d="M874 532.2c7-18 5.6-37.8-4-54.5l15.7-9c12.2 21.5 14 47 5 70l-16.7-6.5z"/><path fill="#A07A54" d="M895.4 496.5c2 14 .6 28.6-4.8 42.2l-16.6-6.5c4.3-11 5.4-22.6 3.5-34l18-1.7z"/></g></g><g><circle fill="#40301A" cx="1239.6" cy="404.4" r="40.5"/><circle fill="#A07A54" cx="1165.6" cy="377.5" r="80"/><path fill="#40301A" d="M1151.6 298.7c0 44 36 79.8 80 79.8 4.8 0 9.5-.4 14-1.2 0-44-36-79.8-80-79.8-4.8 0-9.4.4-14 1.2z"/><path fill="#40301A" d="M1086 371.3c6 1.4 12.2 2.2 18.6 2.2 42 0 76.6-32.5 79.7-73.8-6-1.4-12.2-2.2-18.7-2.2-42 0-76.5 32.5-79.7 73.8z"/><path fill="none" stroke="#40301A" stroke-width="1.6" stroke-linecap="round" stroke-miterlimit="10" d="M1181.3 380c3-3 8-3 10.8 0M1139 380c3-3 8-3 10.8 0"/><g fill="#40301A"><circle cx="1186.7" cy="385.8" r="3.9"/><circle cx="1144.4" cy="385.8" r="3.9"/></g><path fill="none" stroke="#40301A" stroke-width="1.6" stroke-linecap="round" stroke-miterlimit="10" d="M1177 395c-2.6 2-6.4 3.3-10.3 3.5h-2c-4-.2-8-1.5-10.3-3.5"/><g fill="#DF996E"><path d="M1221.5 396.7c0 7.5-6 13.6-13.6 13.6s-13.7-6-13.7-13.6 6-13.6 13.6-13.6 13.5 6.2 13.5 13.7zM1136.8 396.7c0 7.5-6 13.6-13.6 13.6s-13.6-6-13.6-13.6 6-13.6 13.6-13.6 13.6 6.2 13.6 13.7z"/></g><g fill="#A07A54"><path d="M1145.3 546.8h18V592h-18zM1166.6 546.8h18V592h-18z"/></g><path fill="#F78300" d="M1191.4 574v-83.2c0-7-2.8-13.8-7.8-18.8s-11.7-7.8-18.8-7.8c-7 0-13.8 2.8-18.8 7.8s-7.8 11.7-7.8 18.8v83h53.2z"/><path fill="#006B81" d="M1121 537c-13.2-21-16.3-46.2-8.5-69.6l17 5.7c-6 18.3-3.7 38 6.7 54.3l-15 9.6z"/><path fill="#A07A54" d="M1108.3 496.5c.6 14.2 5 28 12.8 40.4l15.2-9.7c-6.3-10-9.7-21-10-32.5l-18 1.7z"/><path fill="#006B81" d="M1252.2 513.3c-24-5-44.4-20.6-55.6-42.6l16-8c8.7 17 24.6 29.2 43.4 33l-3.8 17.6z"/><path fill="#A07A54" d="M1214.4 494c10.6 9.6 23.5 16.3 37.8 19.3l3.8-17.5c-11.5-2.4-22-8-30.2-15.7l-11.4 14z"/><g><path fill="#A07A54" d="M1191.2 475c-10-14-29.7-17-43.8-7-.4.3-.8.6-1 1l-6-1.3 2 4.7c-9.7 10.7-11 27.2-2 39.4 10 14 29.6 17.2 43.7 7 14-10 17.3-29.6 7.2-43.7z"/><path fill="#40301A" d="M1173.8 463.2c-2.7 6-4.3 13-4.3 20 0 14 6 26.4 15.2 35.2 13.5-10.2 16.4-29.4 6.5-43.3-4.4-6-10.6-10-17.4-11.8z"/><path fill="#DF996E" d="M1146.6 479.7c-2.4 1.7-3 5-1.2 7.4 1.7 2.5 5 3 7.4 1.3 2.4-1.7 3-5 1.2-7.4-1.7-2.5-5-3-7.4-1.3z"/><circle fill="#40301A" cx="1154.1" cy="471.7" r="1.5"/><path fill="none" stroke="#40301A" stroke-width=".5" stroke-linecap="round" stroke-miterlimit="10" d="M1155.2 476c2.4-.4 4-2.7 3.5-5-.4-2.5-2.7-4-5-3.6"/><path fill="#006B81" d="M1164.7 534.8c18.6 0 33.6-15 33.6-33.7H1131c0 18.7 15 33.8 33.7 33.8z"/></g></g><g><path fill="#006B81" d="M1069.4 513.6c16 0 28.7 12.8 28.7 28.7 0 15.8-12.7 28.7-28.6 28.7v-57.4z"/><path fill="#DF996E" d="M1031.6 557.8h13.5v34h-13.4zM1047 557.8h13.6v34H1047z"/><path fill="#AAA797" d="M1066.2 580.4v-63.8c0-5.3-2-10.4-6-14-3.7-4-8.8-6-14-6-5.4 0-10.4 2-14.2 6-3.8 3.6-6 8.7-6 14v63.8h40.2z"/><path fill="#BF4528" d="M1028.2 552c8.8-11.6 11.8-26.2 8.2-40.3l13-3.3c4.5 18 .7 36.8-10.5 51.7l-10.8-8z"/><path fill="#DF996E" d="M1041 492c33 1.8 61.5-23.5 63.4-56.7 1.8-33-23.5-61.5-56.7-63.4-33-2-61.5 23.5-63.4 56.6v2.8l-9 7.4 9.6 2.4c4.2 27.5 27 49.2 56 50.8z"/><circle fill="#DF996E" cx="1011" cy="444.6" r="10.2"/><circle fill="#40301A" cx="997.9" cy="423.1" r="2.9"/><path fill="none" stroke="#40301A" stroke-width="1.6" stroke-linecap="round" stroke-miterlimit="10" d="M991 418.7c2-4 7.2-5.6 11.2-3.4 4 2.2 5.5 7.3 3.3 11.3"/><path fill="#40301A" d="M1051.4 372c-19.7-2.3-38.2 5-51 18.6 11 22.3 32.6 39 59 42 16 1.8 31.6-1.5 44.8-8.7-3.5-26.8-24.8-48.8-52.8-52z"/></g><path fill="#40301A" d="M907.6 540.4v-12.6H872v12.6h-22.3v52.4H930v-52.4h-22.4zm-30-7H902v7h-24.4v-7z"/><g><g fill="#A33F4E"><path d="M544 414.2h17.8v45.2h-18zM523.3 414.2h18v45.2h-18z"/></g><path fill="#006B81" d="M569 437.2v-79c0-7-2.7-13.8-7.7-18.8s-11.7-7.8-18.8-7.8c-7 0-13.8 2.8-18.8 7.8S516 351 516 358.2v79h53z"/><path fill="#FFD1AD" d="M623.8 258l13-3.2-12-9.8c0-1.3-.2-2.4-.3-3.7-2.4-44-40.2-77.7-84-75.2-44 2.5-77.8 40.3-75.4 84.2 2.6 44 40.3 77.7 84.3 75.3 38.3-2 68.8-31 74.5-67.5z"/><path fill="#524738" d="M520 190.2c-2-6-4.2-12-7-17.7-29.7 13-49.8 43.4-48 77.7 1.8 29.3 19 54 43.3 66.5C529 279.4 534.5 234 520 190.2z"/><circle fill="#DF996E" cx="589.2" cy="262.6" r="13.6"/><circle fill="#40301A" cx="606.6" cy="234" r="3.9"/><path fill="none" stroke="#40301A" stroke-width="1.6" stroke-linecap="round" stroke-miterlimit="10" d="M596.4 238.7c-3-5.3-1-12 4.4-15s12.2-1 15 4.4"/><path fill="#524738" d="M465.4 235c17.5 9.7 38 14 59.4 11.6 35.2-4 64-26 78.3-55.8-16.7-17.8-41.4-27.7-67.5-24.7-37.2 4.5-65.4 33.6-70 69z"/><path fill="#64141A" d="M512.4 355.3c-19.2 0-34.8 15.5-34.8 34.8S493 425 512.4 425v-69.5z"/><path fill="#524738" d="M621.3 257.7c-8.2 0-15.2 5-18.3 12 5 1.7 10.7 3 16.8 3.8 1.8-5 3.2-10.2 4-15.5h.3c-.8-.2-1.7-.3-2.7-.3z"/><path fill="#A07A54" d="M603.8 403.3v-11.5h-32.4v11.5h-20.6v48h73.6v-48h-20.6zm-27.4-6.5h22.4v6.5h-22.4v-6.5z"/><path fill="#FFD1AD" d="M574.4 405c-22.4-10.3-38.7-30-44.7-53.8L547 347c4.7 18.5 17.4 34 35 42l-7.6 16z"/></g><path fill="#A07A54" d="M944.8 557.6V549h-24v8.6h-15V593h54v-35.4h-15zm-20.2-4.8H941v4.8h-16.4v-4.8z"/><g><g fill="none" stroke="#40301A" stroke-width="7" stroke-miterlimit="10"><circle cx="1907.7" cy="527" r="63.8"/><circle cx="1547.7" cy="527.5" r="63.8"/><path stroke-linecap="round" stroke-linejoin="round" d="M1729.2 450.4h-101l58.6 79.7h98zM1908.7 531c-13.5-14.5-31.4-44-44.4-64.5-12.2-19.4-21.7-37-24-42.3l40 .2"/><path stroke-linecap="round" stroke-linejoin="round" d="M1628.2 450.4H1852c2 5.3 5 9.8 5.4 11L1786 530h-238.8l81-79.6zM1728.3 447.3l-13.3-23h36.8"/></g><path fill="#108B33" d="M1830.2 450.3l10.4-54.6c1.3-7.3-.2-14.8-4.4-21-4-6-10.6-10.2-17.8-11.6-7.3-1.3-14.8.2-21 4.4-6 4.2-10.3 10.6-11.7 18l-10.4 54.4 55 10.5z"/><path fill="#006B81" d="M1807 461.3l17-8 20.4 42.8-17 8.2z"/><path fill="#FFD1AD" d="M1881.6 429.3c-26-1-49.6-13.7-65-34.6l15-11.2c12.2 16.3 30.6 26 50.8 27l-.8 18.8z"/><path fill="#A07A54" d="M1736.4 279.4c2.4 45-32 83.2-77 85.6s-83.3-32-85.7-77c-2.3-45 32.2-83.3 77-85.7 45-2.4 83.4 32 85.7 77z"/><path fill="#40301A" d="M1650.5 202.3c-43.8 2.4-77.8 38.8-77.3 82.3 13 5.6 27.3 8.8 42.4 9.2 44.5 1 83.8-23.3 104-59.8-16-20.5-41.3-33-69-31.7z"/><circle fill="#A07A54" cx="1700.3" cy="300.8" r="13.9"/><path fill="#A07A54" d="M1729 276.7l19.7 16.5-23 5.6"/><circle fill="#40301A" cx="1718.1" cy="271.8" r="4"/><path fill="none" stroke="#40301A" stroke-width="1.6" stroke-linecap="round" stroke-miterlimit="10" d="M1707.7 276.6c-3-5.5-1-12.3 4.6-15.3 5.5-3 12.3-1 15.3 4.6"/><path fill="#006B81" d="M1679 455.7l2.2-55.5c.3-7.4-2.3-14.6-7.4-20-5-5.5-12-8.7-19.4-9-7.4-.3-14.6 2.4-20 7.4s-8.7 12-9 19.4l-2.2 55.5 55.8 2.2z"/><path fill="#A07A54" d="M1652.2 471.4l17-8 20.4 42.8-17 8zM1724.6 436.3c-26-1-49.6-13.7-65-34.6l15-11.2c12 16.3 30.6 26 50.8 27l-.8 18.8z"/><g><path fill="#FCBC00" d="M1753.2 218.8c-13-4.6-24.8-11.4-35-19.8 11.8-11.2 29.2-15.6 45.5-9.8 16.3 5.8 27 20.2 29 36.3-13 0-26.4-2-39.5-6.7z"/><circle fill="#FFD1AD" cx="1846.3" cy="281.4" r="77.3"/><path fill="#FCBC00" d="M1876.3 246.5l-1.4 20.2c16 3.8 32 5.6 48 5.4-3.4-28-22.2-53.2-50.8-63.4-28.5-10.2-59-2.5-79.5 17 17.7 14.8 38.2 26.6 61 34.8 5.3 2 10.6 3.5 16 5l6.6-19z"/><g fill="#F7A100"><path opacity=".8" d="M1891 317c-2.4 6.7-10 10.3-16.8 8-6.8-2.6-10.4-10-8-17 2.5-6.8 10-10.3 16.8-8 7 2.5 10.4 10 8 17zM1814 289.4c-2.5 6.8-10 10.4-17 8-6.7-2.5-10.3-10-7.8-16.8s10-10.4 16.7-8c6.8 2.4 10.3 10 8 16.8z"/></g><g fill="#40301A"><path d="M1860 293c1.6-1.5 4-1.5 5.5 0s1.5 4 0 5.4c-1.4 1.5-3.8 1.5-5.3 0s-1.6-4 0-5.4zM1821.7 279.3c1.4-1.5 3.8-1.5 5.3 0s1.6 4 0 5.4c-1.4 1.5-3.8 1.5-5.3 0s-1.5-4 0-5.4z"/></g><path fill="none" stroke="#40301A" stroke-width="1.6" stroke-linecap="round" stroke-miterlimit="10" d="M1851 300.8c-3 1-6.8 1-10.5 0l-2-.8c-3.5-1.5-6.6-4-8.2-6.5M1859.8 288.5c3.7-1.7 8-.2 10 3.5M1821.4 274.8c3.7-1.7 8-.2 9.8 3.5"/></g><g><path fill="#F78300" d="M1547.6 406.2c-19.4 0-35 15.7-35 35h35v-35z"/><path fill="#64141A" d="M1547.4 406.2v28h-28c0 15.6 12.5 28 28 28s28-12.4 28-28-12.5-28-28-28zm6 13c-1.7 0-3-1.3-3-3s1.3-3 3-3 3 1.4 3 3-1.3 3-3 3z"/></g></g></svg>