<?xml version="1.0" encoding="utf-8"?>
<!-- Generator: Adobe Illustrator 18.1.1, SVG Export Plug-In . SVG Version: 6.00 Build 0)  -->
<svg version="1.1" id="Ebene_1" xmlns="http://www.w3.org/2000/svg" xmlns:xlink="http://www.w3.org/1999/xlink" x="0px" y="0px"
	 viewBox="0 0 1028.4 289.2" enable-background="new 0 0 1028.4 289.2" xml:space="preserve">
<path opacity="0.15" fill="#B0375C" enable-background="new    " d="M78.5,289.4c0-1.4,0-2.7,0-4c0-69.6,57.3-126,128.1-126
	c70.7,0,128.1,56.4,128.1,126c0,1.4,0,2.7,0,4H78.5z"/>
<g opacity="0.13" enable-background="new    ">
	<path fill="#B0375C" d="M368.5,289.2c36.5,0,71.6-14.3,97.5-39.7c25.8-25.4,40.3-59.8,40.4-95.7V70.3c0-4.1,1.6-8,4.4-10.9
		c2.8-2.9,6.6-4.5,10.5-4.5s7.8,1.6,10.5,4.5c2.8,2.9,4.4,6.8,4.4,10.9v219.1h-29.8v-0.2H368.5z"/>
	<path fill="#B0375C" d="M24.7,67.9c14.8-13.3,34.8-20.7,55.6-20.7s40.9,7.5,55.6,20.7C150.7,81.2,159,99.2,159,118v35.7
		c0,35.9,14.5,70.4,40.4,95.9c25.9,25.4,60.9,39.7,97.5,39.7H159H1.7l0-171.3C1.7,99.3,10,81.2,24.7,67.9z"/>
</g>
<path opacity="0.1" fill="#B0375C" enable-background="new    " d="M648.9,289.4c0-2-0.1-3.9-0.1-5.9
	c0-102.4,84.4-185.4,188.5-185.4s188.5,83,188.5,185.4c0,2,0,3.9-0.1,5.9H648.9z"/>
<path opacity="0.4" fill="#93AB39" enable-background="new    " d="M795.3,289.4c0-0.6,0-1.2,0-1.8c0-32.2,26.5-58.3,59.3-58.3
	c32.7,0,59.3,26.1,59.3,58.3c0,0.6,0,1.3,0,1.8H795.3z"/>
<path opacity="0.5" fill="#88C7AA" enable-background="new    " d="M781.6,289.4v-60c0-7.3,2.9-14.3,8.2-19.5
	c5.2-5.2,12.4-8.1,19.8-8.1c7.4,0,14.6,2.9,19.8,8.1c5.2,5.2,8.2,12.2,8.2,19.5v60H781.6z"/>
<path opacity="0.65" fill="#88C7AA" enable-background="new    " d="M45.5,289.4v-40.7c0-7.3,2.9-14.3,8.2-19.5
	c5.2-5.2,12.4-8.1,19.8-8.1c7.4,0,14.6,2.9,19.8,8.1c5.2,5.2,8.2,12.2,8.2,19.5v40.7H45.5z"/>
<path opacity="0.35" fill="#02663B" enable-background="new    " d="M617.7,289.4c0-0.5,0-0.9,0-1.4c0-24.6,21.2-44.5,47.3-44.5
	c26.1,0,47.3,19.9,47.3,44.5c0,0.5,0,1,0,1.4H617.7z"/>
<g>
	<ellipse opacity="0.35" fill="#93AB39" enable-background="new    " cx="905.2" cy="77.6" rx="28.4" ry="27.9"/>
	<path opacity="0.35" fill="#93AB39" enable-background="new    " d="M827.8,133.1c0,10.4,8.6,18.8,19.1,18.8s19.1-8.4,19.1-18.8
		s-8.6-18.8-19.1-18.8C836.4,114.3,827.8,122.7,827.8,133.1z"/>
	<ellipse opacity="0.35" fill="#93AB39" enable-background="new    " cx="847" cy="133.1" rx="13.8" ry="13.6"/>
</g>
<path opacity="0.45" fill="#88C7AA" enable-background="new    " d="M644,289.4c0-0.2,0-0.5,0-0.8c0-13.3-10.9-24-24.4-24
	c-13.5,0-24.4,10.8-24.4,24c0,0.2,0,0.5,0,0.8H644z"/>
<path opacity="0.35" fill="#93AB39" enable-background="new    " d="M90.8,289.4c0-0.5,0-0.9,0-1.4c0-24.3,20-44,44.7-44
	s44.7,19.7,44.7,44c0,0.5,0,0.9,0,1.4H90.8z"/>
<path opacity="0.45" fill="#B0375C" enable-background="new    " d="M564.8,289.4v-45.3c0-5.5,2.2-10.8,6.2-14.7
	c4-3.9,9.3-6.1,15-6.1c5.6,0,11,2.2,15,6.1c4,3.9,6.2,9.2,6.2,14.7v45.3H564.8z"/>
<path opacity="0.3" fill="#41311A" enable-background="new    " d="M662.9,190.6v98.9h83.2v-98.9c0-10.9-4.4-21.3-12.2-28.9
	c-7.8-7.7-18.4-12-29.4-12c-11,0-21.6,4.3-29.4,12C667.3,169.3,662.9,179.7,662.9,190.6z M688.8,198.5c0-9,7.4-16.2,16.5-16.2
	c9.1,0,16.5,7.3,16.5,16.2c0,9-7.4,16.2-16.5,16.2S688.8,207.5,688.8,198.5z"/>
<path opacity="0.8" fill="#F6A00C" enable-background="new    " d="M636.1,224.4v65h51.7v-65c0-6.8-2.7-13.2-7.6-18
	c-4.9-4.7-11.4-7.4-18.3-7.4c-6.9,0-13.4,2.7-18.3,7.4C638.7,211.2,636,217.7,636.1,224.4z M652.1,229.4c0-5.5,4.6-10,10.2-10
	s10.2,4.5,10.2,10s-4.6,10-10.2,10S652.1,234.9,652.1,229.4z"/>
<g opacity="0.3">
	<path fill="#93AB39" d="M651.7,289.2c-27.9,0-54.7-10.9-74.5-30.3c-19.7-19.4-30.8-45.7-30.9-73.1v-1.4c0-3.1-1.2-6.1-3.3-8.3
		c-2.1-2.2-5-3.5-8-3.5c-3,0-5.9,1.3-8,3.5c-2.1,2.2-3.3,5.2-3.3,8.3v105h22.7v-0.2H651.7z"/>
	<path fill="#155367" d="M499,93.6c-7.8-7-18.4-11-29.4-11s-21.6,4-29.4,11s-12.2,16.6-12.2,26.5v97.5c0,19.1-7.7,37.3-21.4,50.8
		c-13.7,13.5-32.3,21-51.6,21h72.9h83.3V120.1C511.1,110.2,506.8,100.7,499,93.6z"/>
</g>
<path opacity="0.3" fill="#155367" enable-background="new    " d="M255.6,30.5c1.8-1.8,4.2-2.7,6.8-2.7c0.3,0,0.6,0,0.9,0V26
	c0-5.7,2.3-11.2,6.4-15.3c4.1-4.1,9.7-6.3,15.5-6.3c5.8,0,11.4,2.3,15.5,6.3c2,2,3.6,4.2,4.7,6.8c2.6-2.3,5.9-3.6,9.4-3.6
	c3.7,0,7.3,1.4,9.9,4.1c2.6,2.6,4.1,6.1,4.1,9.7v1c1.3-0.6,2.6-0.9,4.1-0.9c2.6,0,5,1,6.8,2.7c1.8,1.8,2.8,4.1,2.8,6.7v3.3h-13.7
	h-5.5h-16.2h-6.4h-28.9h-8.7h-10.5v-3.3C252.8,34.7,253.8,32.2,255.6,30.5z"/>
<path opacity="0.3" fill="#208983" enable-background="new    " d="M680.4,34.4c1.1-1.1,2.6-1.7,4.1-1.7c0.2,0,0.4,0,0.6,0v-1.1
	c0-3.5,1.4-6.8,3.9-9.3c2.5-2.5,5.9-3.8,9.4-3.8c3.5,0,6.9,1.4,9.4,3.8c1.2,1.2,2.2,2.6,2.8,4.1c1.6-1.4,3.6-2.2,5.7-2.2
	c2.3,0,4.4,0.9,6,2.5c1.6,1.5,2.5,3.7,2.5,5.9v0.6c0.8-0.3,1.6-0.5,2.5-0.5c1.5,0,3,0.6,4.1,1.7c1.1,1.1,1.7,2.5,1.7,4.1v2h-8.3
	h-3.3h-9.8h-3.9h-17.5h-5.2h-6.4v-2C678.7,36.9,679.4,35.5,680.4,34.4z"/>
<path opacity="0.28" fill="#D7D3BE" enable-background="new    " d="M333.5,34.4c1.1-1.1,2.6-1.7,4.1-1.7c0.2,0,0.4,0,0.6,0v-1.1
	c0-3.5,1.4-6.8,3.9-9.3c2.5-2.5,5.9-3.8,9.4-3.8c3.5,0,6.9,1.4,9.4,3.8c1.2,1.2,2.2,2.6,2.8,4.1c1.6-1.4,3.6-2.2,5.7-2.2
	c2.3,0,4.4,0.9,6,2.5c1.6,1.5,2.5,3.7,2.5,5.9v0.6c0.8-0.3,1.6-0.5,2.5-0.5c1.5,0,3,0.6,4.1,1.7c1.1,1.1,1.7,2.5,1.7,4.1v2h-8.3
	h-3.3h-9.8H361h-17.5h-5.2h-6.4v-2C331.8,36.9,332.5,35.5,333.5,34.4z"/>
<g>
	<g>
		<path fill="#F6A108" d="M515.1,38.2c8.2-0.2,15.2,6.1,15.4,14.2l-14.9,0.5L515.1,38.2z"/>
		<path fill="#155367" d="M503.6,50.3c0.2,6.5,5.7,11.6,12.3,11.3c6.6-0.2,11.8-5.6,11.5-12.1l-11.9,0.4l-0.4-11.7
			C508.6,38.4,503.4,43.8,503.6,50.3z"/>
		<path fill="none" stroke="#D7D3BE" stroke-width="0.2904" stroke-linecap="round" stroke-miterlimit="10" d="M513.9,43.1
			c0-1.3-1.2-2.3-2.5-2.3c-1.3,0-2.4,1.2-2.3,2.5"/>
		<ellipse fill="#D7D3BE" cx="511.5" cy="43.4" rx="0.8" ry="0.8"/>
	</g>
</g>
<g>
	<path fill="none" stroke="#41311A" stroke-width="0.9729" stroke-linecap="round" stroke-miterlimit="10" d="M97.2,152.9
		c0,2.1-1.8,3.9-3.9,3.9h-5.9h-5.2c-2.2,0-3.9,1.7-3.9,3.9v128.7V164.2v94.7"/>
	<path opacity="0.5" fill="#93AB3A" enable-background="new    " d="M135.5,161.4c0-0.4,0-0.8,0-1.2c0-20.8-17.1-37.7-38.3-37.7
		c-21.1,0-38.3,16.9-38.3,37.7c0,0.4,0,0.8,0,1.2H135.5z"/>
</g>
<path fill="none" stroke="#41311A" stroke-width="0.9729" stroke-linecap="round" stroke-miterlimit="10" d="M908.6,85.9
	c0,2-1.6,3.6-3.6,3.6h-5.5h-6.7c-2,0-3.6,1.6-3.6,3.6v99.9V96.4v193"/>
<path fill="none" stroke="#41311A" stroke-width="0.9729" stroke-linecap="round" stroke-linejoin="round" stroke-miterlimit="10" d="
	M846.6,131.6c0,3.2,2.6,5.8,5.9,5.8h6.7h3.9h14.7c3.3,0,5.9,2.6,5.9,5.8v146.2V148.6"/>
<g>
	<g>
		<g>
			<path fill="#FBCFAB" d="M925.5,238.9c-5-6.8-14.6-8.3-21.5-3.4c-0.2,0.1-0.4,0.3-0.5,0.4l-2.9-0.6l1.1,2.3
				c-4.8,5.2-5.4,13.1-1.1,19c5,6.8,14.6,8.3,21.5,3.4C928.8,255.1,930.4,245.7,925.5,238.9z"/>
			<path fill="#F6A108" d="M903.6,241.1c-1.2,0.8-1.4,2.5-0.6,3.6c0.8,1.2,2.5,1.4,3.6,0.6c1.2-0.8,1.4-2.5,0.6-3.6
				C906.4,240.5,904.7,240.3,903.6,241.1z"/>
			<ellipse fill="#41311A" cx="907.3" cy="237.2" rx="0.7" ry="0.7"/>
			<path fill="none" stroke="#41311A" stroke-width="0.2598" stroke-linecap="round" stroke-miterlimit="10" d="M907.8,239.3
				c1.2-0.2,1.9-1.3,1.7-2.5c-0.2-1.2-1.3-1.9-2.5-1.7"/>
		</g>
		<ellipse fill="#41311A" cx="895.5" cy="286" rx="3.5" ry="3.5"/>
		<ellipse fill="#41311A" cx="930.4" cy="286" rx="3.5" ry="3.5"/>
		<path fill="#AF1D3F" d="M947.1,247.6c0-18.6-15.3-33.6-34.1-33.6v33.7h-34.1c0,0,0,0,0,0.1c0,18.6,15.3,33.6,34.1,33.6
			c18.9,0,34.1-15.1,34.1-33.6C947.1,247.7,947.1,247.7,947.1,247.6C947.1,247.7,947.1,247.7,947.1,247.6z"/>
		<path fill="none" stroke="#41311A" stroke-width="1.4327" stroke-linecap="round" stroke-miterlimit="10" d="M879.5,248.5
			L879.5,248.5c0-4.8-4-8.8-8.9-8.8"/>
	</g>
	<g>
		<g>
			<rect x="827.2" y="267.6" fill="#93AB3A" width="8.8" height="21.8"/>
			<rect x="817.1" y="267.6" fill="#93AB3A" width="8.8" height="21.8"/>
		</g>
		<path fill="#AF1D3F" d="M839.6,266.1v-25.5c0-3.4-1.4-6.7-3.8-9.1c-2.5-2.4-5.7-3.8-9.2-3.8c-3.4,0-6.8,1.4-9.2,3.8
			c-2.5,2.4-3.8,5.6-3.8,9.1v25.5H839.6z"/>
		<path fill="#AF1D3F" d="M869.8,245.7c-12,1.9-24-1.6-33-9.5l5.9-6.4c7,6.2,16.4,8.9,25.7,7.4L869.8,245.7z"/>
		<path fill="#AF1D3F" d="M815.3,238.5c-7.3,9.5-18.4,15.2-30.5,15.6l-0.3-8.6c9.4-0.3,18.1-4.7,23.8-12.2L815.3,238.5z"/>
		<g>
			<path fill="#FBCFAB" d="M870.4,205l6.5,0.5l-4.1-6.3c0.2-0.6,0.3-1.1,0.5-1.7c5.6-20.6-6.8-41.7-27.7-47.2
				c-20.9-5.5-42.4,6.7-48,27.2c-5.6,20.6,6.8,41.7,27.7,47.2C843.5,229.5,862.1,220.9,870.4,205z"/>
			<ellipse fill="#F6A108" cx="853.5" cy="201.9" rx="6.7" ry="6.6"/>
			<ellipse fill="#41311A" cx="866" cy="191.4" rx="1.9" ry="1.9"/>
			<path fill="none" stroke="#41311A" stroke-width="0.7783" stroke-linecap="round" stroke-miterlimit="10" d="M860.6,192
				c-0.5-2.9,1.4-5.7,4.4-6.2c2.9-0.5,5.8,1.4,6.3,4.3"/>
			<g>
				<path fill="#41311A" d="M811.6,156.6c-7.1,5.5-12.4,13.4-14.3,22.7c-0.6,2.8-0.8,5.5-0.8,8.3c7.6-3.8,13.3-10.8,15.2-19.6
					C812.4,164.1,812.4,160.3,811.6,156.6z"/>
				<g>
					<path fill="#41311A" d="M800.1,170.6c6.7,7,15.6,12.2,25.9,14.2c17,3.4,33.8-2.3,45-13.7c-5.1-10.7-15.1-19-27.7-21.5
						C825.3,146,807.7,155.1,800.1,170.6z"/>
				</g>
				<ellipse fill="#41311A" cx="827.6" cy="144.7" rx="13" ry="12.8"/>
			</g>
		</g>
	</g>
	<g>
		<g>
			<rect x="732.9" y="267.6" fill="#155367" width="8.8" height="21.8"/>
			<rect x="743.4" y="267.6" fill="#155367" width="8.8" height="21.8"/>
		</g>
		<path fill="#88C7AA" d="M755.5,266.1v-25.5c0-3.4-1.4-6.7-3.8-9.1c-2.5-2.4-5.7-3.8-9.2-3.8c-3.4,0-6.8,1.4-9.2,3.8
			c-2.5,2.4-3.8,5.6-3.8,9.1v25.5H755.5z"/>
		<path fill="#208983" d="M782.6,254c-12.1-1.2-22.8-7.5-29.4-17.5l7.4-4.7c5.2,7.8,13.5,12.7,22.9,13.7L782.6,254z"/>
		<path fill="#208983" d="M713.6,262.2c-1.4-11.8,2.7-23.5,11.2-32l6.3,6.1c-6.6,6.6-9.8,15.7-8.7,24.9L713.6,262.2z"/>
		<ellipse fill="#FBCFAB" cx="742.6" cy="185.9" rx="39.2" ry="38.6"/>
		<path fill="none" stroke="#41311A" stroke-width="0.7783" stroke-linecap="round" stroke-miterlimit="10" d="M750.3,187.1
			c1.5-1.4,3.9-1.4,5.3,0"/>
		<path fill="none" stroke="#41311A" stroke-width="0.7783" stroke-linecap="round" stroke-miterlimit="10" d="M729.6,187.1
			c1.5-1.4,3.9-1.4,5.3,0"/>
		<g>
			<ellipse fill="#41311A" cx="753" cy="190" rx="1.9" ry="1.9"/>
			<ellipse fill="#41311A" cx="732.2" cy="190" rx="1.9" ry="1.9"/>
		</g>
		<path fill="none" stroke="#41311A" stroke-width="0.7783" stroke-linecap="round" stroke-miterlimit="10" d="M748.2,194.4
			c-1.2,1-3.1,1.6-5,1.7h-1c-2-0.1-3.8-0.7-5-1.7"/>
		<g>
			<path fill="#F6A108" d="M770.1,195.2c0,3.6-3,6.6-6.7,6.6c-3.7,0-6.7-2.9-6.7-6.6s3-6.6,6.7-6.6
				C767.1,188.7,770.1,191.6,770.1,195.2z"/>
			<path fill="#F6A108" d="M728.5,195.2c0,3.6-3,6.6-6.7,6.6c-3.7,0-6.7-2.9-6.7-6.6s3-6.6,6.7-6.6
				C725.5,188.7,728.5,191.6,728.5,195.2z"/>
		</g>
		<g>
			<path fill="#EF8106" d="M763.9,153.5c-0.3,2-0.5,4-0.5,6c0,13.7,7.2,25.6,18.1,32.5c0.3-2,0.5-4,0.5-6
				C782,172.4,774.8,160.4,763.9,153.5z"/>
			<path fill="#EF8106" d="M721.4,153.5c0.3,2,0.5,4,0.5,6c0,13.7-7.2,25.6-18.1,32.5c-0.3-2-0.5-4-0.5-6
				C703.3,172.4,710.5,160.4,721.4,153.5z"/>
			<path fill="#EF8106" d="M742.6,174.9c12.4,0,24.2-2.2,35.2-6.1c-6.4-12.7-19.8-21.4-35.2-21.4s-28.7,8.7-35.2,21.4
				C718.4,172.7,730.3,174.9,742.6,174.9z"/>
		</g>
		<path fill="#EF8106" d="M752.6,198c-2.1-3.2-5.8-5.4-10.1-5.4s-7.9,2.2-10.1,5.4H752.6z"/>
	</g>
</g>
<g>
	<path fill="#41311A" d="M460,233.3c-3.3,0-6,2.7-6,5.9v2.1h2.4v0.6v11.5v1.2c0,2.6,2.2,4.7,4.8,4.7c2.7,0,4.8-2.1,4.8-4.7v-1.2
		v-11.5v-0.6v-0.6v-1.5C466,235.9,463.3,233.3,460,233.3z"/>
	<g>
		<g>
			<g>
				<ellipse fill="#41311A" cx="464.5" cy="286.5" rx="2.9" ry="2.9"/>
				<ellipse fill="#41311A" cx="493.7" cy="286.5" rx="2.9" ry="2.9"/>
			</g>
			<path fill="#534838" d="M501.1,251.5c0-1.2-1-2.2-2.3-2.2c-1.3,0-2.3,1-2.3,2.2c0,0.9,0.5,1.6,1.3,2v27.2h-38.3c-0.6,0-1,0.4-1,1
				c0,0.6,0.5,1,1,1h40.4v-29.2C500.6,253.2,501.1,252.4,501.1,251.5z"/>
		</g>
		<g>
			<path fill="#135368" d="M480.2,264.6c0,8.2-3.8,15.8-10.3,20.9l-3.8-4.6c5.1-4,8-9.9,8-16.3L480.2,264.6z"/>
		</g>
		<g>
			<rect x="477.3" y="264.6" fill="#135368" width="6" height="15"/>
		</g>
		<g>
			<path fill="#02663B" d="M486,263.1V246c0-2.3-0.9-4.6-2.6-6.2c-1.7-1.7-4-2.6-6.3-2.6s-4.7,0.9-6.3,2.6c-1.7,1.7-2.6,3.9-2.6,6.2
				v17.1H486z"/>
		</g>
		<g>
			<path fill="#FBCFA9" d="M474.6,244.1c5.2,6.4,12.9,10.1,21.2,10.2l0.1-5.9c-6.5-0.1-12.5-3-16.6-8L474.6,244.1z"/>
		</g>
		<path fill="#FBCFA9" d="M499.8,194.1l2.5-3.6l-5.1,0.2c-4.9-5.4-12.1-8.8-20.1-8.8c-14.9,0-27,11.9-27,26.5
			c0,14.7,12.1,26.5,27,26.5c14.9,0,27-11.9,27-26.5C504,203.1,502.5,198.2,499.8,194.1z"/>
		<path fill="#AF1D3F" d="M450.1,208.4c0,4.9,1.4,9.5,3.7,13.5c16.3-3,28.6-17.1,28.6-34c0-1.9-0.2-3.8-0.5-5.6
			c-1.6-0.3-3.2-0.4-4.9-0.4C462.2,181.8,450.1,193.7,450.1,208.4z"/>
		<path fill="#AF1D3F" d="M470.3,181.6c0,6.9,4.7,12.7,11.1,14.4c0.7-2.6,1-5.4,1-8.2c0-6.8-2-13.2-5.5-18.6
			C472.9,172,470.3,176.5,470.3,181.6z"/>
		<ellipse fill="#F6A00C" cx="492.1" cy="202.8" rx="4.6" ry="4.5"/>
		<ellipse fill="#41311A" cx="490.1" cy="191.9" rx="1.3" ry="1.3"/>
		<path fill="none" stroke="#41311A" stroke-width="0.5353" stroke-linecap="round" stroke-miterlimit="10" d="M488.6,195.3
			c-1.9-0.7-2.9-2.8-2.2-4.7c0.7-1.9,2.9-2.9,4.8-2.2"/>
	</g>
</g>
<g>
	<g>
		<g>
			
				<ellipse transform="matrix(0.2267 -0.974 0.974 0.2267 -80.5995 365.4425)" fill="#A8A594" cx="189.8" cy="233.5" rx="2.9" ry="2.9"/>
			
				<ellipse transform="matrix(0.2267 -0.974 0.974 0.2267 -68.0516 331.7494)" fill="#A8A594" cx="174.9" cy="208.7" rx="2.9" ry="2.9"/>
		</g>
		
			<line fill="none" stroke="#534838" stroke-width="2.0074" stroke-linecap="round" stroke-miterlimit="10" x1="196.6" y1="235.4" x2="176.4" y2="202"/>
	</g>
	<g>
		<path fill="#FBCFA9" d="M198.1,210.6c-5,6.5-6.7,14.8-4.7,22.8l5.9-1.4c-1.6-6.2-0.2-12.7,3.7-17.7L198.1,210.6z"/>
	</g>
	<g>
		<polygon fill="#FBCFA9" points="201.4,209.8 198.3,204.6 185.3,212.2 188.4,217.4 		"/>
	</g>
	<g>
		<polygon fill="#41311A" points="211,212.9 203.4,200.3 193.3,206.2 200.9,218.8 		"/>
		<path fill="#135368" d="M198.3,201.6l14.9-8.7c2-1.2,4.5-1.5,6.8-0.9c2.3,0.6,4.3,2.1,5.5,4.1c1.2,2,1.6,4.4,1,6.7
			c-0.6,2.3-2.1,4.2-4.1,5.4l-14.9,8.7L198.3,201.6z"/>
	</g>
	<g>
		<path fill="#FBCFA9" d="M222.8,208.8c1.6,8.1,6.7,14.9,14.1,18.8l2.8-5.2c-5.7-3-9.7-8.4-11-14.7L222.8,208.8z"/>
	</g>
	<g>
		<path fill="#FBCFA9" d="M212.9,191.4c-4.1-7.1-4.8-15.6-1.7-23.2l5.6,2.2c-2.4,5.9-1.9,12.5,1.4,18.1L212.9,191.4z"/>
	</g>
	<polygon fill="#41311A" stroke="#41311A" stroke-width="0.1338" stroke-miterlimit="10" points="265.1,204 237.4,158.2 218.9,169 
		246.6,214.8 	"/>
	
		<ellipse transform="matrix(0.2267 -0.974 0.974 0.2267 16.9696 384.3345)" fill="#FBCFA9" cx="250.5" cy="181.5" rx="26.5" ry="27"/>
	<g>
		<path fill="none" stroke="#41311A" stroke-width="0.5353" stroke-linecap="round" stroke-miterlimit="10" d="M247.1,177.4
			c0.3-1.4-0.5-2.7-1.9-3.1"/>
		<path fill="none" stroke="#41311A" stroke-width="0.5353" stroke-linecap="round" stroke-miterlimit="10" d="M254.4,189.5
			c0.3-1.4-0.5-2.8-1.9-3.1"/>
	</g>
	<g>
		
			<ellipse transform="matrix(0.2267 -0.974 0.974 0.2267 16.8086 374.8355)" fill="#41311A" cx="244.5" cy="176.8" rx="1.3" ry="1.3"/>
		
			<ellipse transform="matrix(0.2267 -0.974 0.974 0.2267 10.6748 391.3058)" fill="#41311A" cx="251.8" cy="188.9" rx="1.3" ry="1.3"/>
	</g>
	<path fill="none" stroke="#41311A" stroke-width="0.5353" stroke-linecap="round" stroke-miterlimit="10" d="M243.5,181.2
		c-0.1,1,0.1,2.3,0.8,3.5l0.4,0.6c0.7,1.1,1.8,2,2.8,2.3"/>
	<g>
		<path fill="#F6A00C" d="M235.3,168.7c-2.2,1.3-2.9,4-1.6,6.2c1.3,2.2,4.1,2.9,6.3,1.6c2.2-1.3,2.9-4,1.6-6.2
			C240.3,168.1,237.5,167.4,235.3,168.7z"/>
		
			<ellipse transform="matrix(0.2267 -0.974 0.974 0.2267 3.3821 397.9419)" fill="#F6A00C" cx="252.3" cy="196.8" rx="4.5" ry="4.6"/>
	</g>
	<path fill="#41311A" stroke="#41311A" stroke-width="0.1338" stroke-miterlimit="10" d="M251.7,180.7c-4.9-8.1-8.8-16.2-11.6-23.8
		c12.2-5,26.6-0.4,33.6,11.1c7,11.6,4.1,26.1-6.2,34.2C262,196.1,256.6,188.8,251.7,180.7z"/>
	<g>
		<polygon fill="#AF1D3F" points="228.6,224.2 230.5,234.3 245.9,231.5 244,221.5 		"/>
		<path fill="#FFFFFF" d="M239,225.3c-1.2,0.2-2,1.3-1.7,2.5c0.2,1.2,1.4,1.9,2.5,1.7c1.2-0.2,2-1.3,1.7-2.5
			C241.3,225.9,240.2,225.1,239,225.3z"/>
	</g>
	<path fill="#AF1D3F" d="M238.3,153.5c7-4,15.1-5.1,22.9-3.1c7.9,2,14.6,7,18.8,13.9c4.2,6.9,5.4,15.1,3.4,22.9
		c-2,7.7-6.9,14.2-13.7,18.3c0.5,3.5-1.1,7.2-4.5,9.1c-4.4,2.6-10.1,1.1-12.8-3.3l15.3-8.9c12.6-7.5,16.8-23.7,9.2-36.3
		c-7.6-12.6-24.1-16.8-36.8-9.5l-15.3,8.9c-2.6-4.4-1.2-10,3.2-12.6C231.3,151,235.3,151.4,238.3,153.5z"/>
</g>
<g>
</g>
<g>
</g>
<g>
</g>
<g>
</g>
<g>
</g>
<g>
</g>
</svg>
