<?xml version="1.0" encoding="utf-8"?>
<!-- Generator: Adobe Illustrator 18.0.0, SVG Export Plug-In . SVG Version: 6.00 Build 0)  -->
<!DOCTYPE svg PUBLIC "-//W3C//DTD SVG 1.1//EN" "http://www.w3.org/Graphics/SVG/1.1/DTD/svg11.dtd">
<svg version="1.1" id="Ebene_1" xmlns="http://www.w3.org/2000/svg" xmlns:xlink="http://www.w3.org/1999/xlink" x="0px" y="0px"
	 width="2090px" height="596.7px" viewBox="0 0 2090 596.7" enable-background="new 0 0 2090 596.7" xml:space="preserve">
<path opacity="0.35" fill="#D9D5C1" d="M1933.1,597c0.1-2.8,0.1-5.5,0.1-8.3c0-144.3-116.9-261.2-261.2-261.2
	c-144.2,0-261.2,116.9-261.2,261.2c0,2.8,0.1,5.5,0.1,8.3H1933.1z"/>
<g>
	<g opacity="0.35">
		<path opacity="0.35" fill="#94AC41" d="M770.4,597c0.1-4.1,0.2-8.1,0.2-12.2c0-212.2-172-384.2-384.2-384.2
			c-212.2,0-384.2,172-384.2,384.2c0,4.1,0.1,8.1,0.2,12.2H770.4z"/>
		<path fill="#94AC41" d="M471.8,597c0-1.3,0.1-2.5,0.1-3.8c0-66.7-54.1-120.8-120.8-120.8c-66.7,0-120.8,54.1-120.8,120.8
			c0,1.3,0,2.6,0.1,3.8H471.8z"/>
		<path fill="#8BC8AC" d="M499.8,597V472.7c0-15.1-6-29.7-16.7-40.4c-10.7-10.7-25.2-16.7-40.4-16.7c-15.1,0-29.7,6-40.4,16.7
			c-10.7,10.7-16.7,25.2-16.7,40.4V597H499.8z"/>
		<path fill="#8BC8AC" d="M2000.4,597v-84.3c0-15.1-6-29.7-16.7-40.4c-10.7-10.7-25.2-16.7-40.4-16.7c-15.1,0-29.7,6-40.4,16.7
			c-10.7,10.7-16.7,25.2-16.7,40.4V597H2000.4z"/>
	</g>
	<path opacity="0.35" fill="#00643B" d="M834,597c0-1,0.1-1.9,0.1-2.9c0-51-43.2-92.3-96.4-92.3c-53.2,0-96.4,41.3-96.4,92.3
		c0,1,0,2,0.1,2.9H834z"/>
	<g>
		<path fill="none" stroke="#40301A" stroke-width="2" stroke-linecap="round" stroke-miterlimit="10" d="M240.8,175.2
			c0,4.1,3.3,7.4,7.4,7.4h11.2h13.7c4.1,0,7.4,3.3,7.4,7.4v207V196.9V597"/>
		<path fill="none" stroke="#40301A" stroke-width="2" stroke-linecap="round" stroke-linejoin="round" stroke-miterlimit="10" d="
			M367.3,269.8c0,6.7-5.4,12.1-12.1,12.1h-13.6h-7.9h-30c-6.7,0-12.1,5.4-12.1,12.1V597V305"/>
		<circle opacity="0.35" fill="#94AC41" cx="247.7" cy="157.9" r="57.8"/>
		<path opacity="0.35" fill="#94AC41" d="M405.5,273c0,21.5-17.5,39-39,39c-21.5,0-39-17.5-39-39c0-21.5,17.5-39,39-39
			C388.1,234,405.5,251.4,405.5,273z"/>
		<circle opacity="0.35" fill="#94AC41" cx="366.5" cy="273" r="28.2"/>
	</g>
	<path fill="#8BC8AC" d="M780.3,597c0-0.5,0-1.1,0-1.6c0-27.5,22.3-49.8,49.8-49.8c27.5,0,49.8,22.3,49.8,49.8c0,0.5,0,1.1,0,1.6
		H780.3z"/>
</g>
<g>
	<path opacity="0.35" fill="#94AC41" d="M1908.1,597c0-1,0.1-1.9,0.1-2.9c0-50.4-40.8-91.2-91.2-91.2c-50.4,0-91.2,40.8-91.2,91.2
		c0,1,0,1.9,0,2.9H1908.1z"/>
	<path fill="#8BC8AC" d="M941.8,597v-93.9c0-11.4-4.5-22.4-12.6-30.5c-8.1-8.1-19-12.6-30.5-12.6c-11.4,0-22.4,4.5-30.5,12.6
		c-8.1,8.1-12.6,19-12.6,30.5V597H941.8z"/>
	<path opacity="0.3" fill="#40301A" d="M716.9,332.1c-15.9-15.9-37.5-24.9-60-24.9c-22.5,0-44.1,8.9-60,24.9
		C581,348,572,369.6,572,392.1V597h169.7V392.1C741.8,369.6,732.8,348,716.9,332.1z M655.4,442.1c-18.5,0-33.6-15-33.6-33.6
		c0-18.5,15-33.6,33.6-33.6c18.5,0,33.6,15,33.6,33.6C689,427.1,673.9,442.1,655.4,442.1z"/>
	<path opacity="0.8" fill="#EF8212" d="M781.1,425c-9.9-9.9-23.3-15.4-37.3-15.4c-14,0-27.4,5.6-37.3,15.4
		c-9.9,9.9-15.4,23.3-15.4,37.3V597h105.4V462.2C796.6,448.3,791,434.9,781.1,425z M742.9,493.3c-11.5,0-20.8-9.3-20.8-20.8
		c0-11.5,9.3-20.8,20.8-20.8c11.5,0,20.8,9.3,20.8,20.8C763.8,483.9,754.4,493.3,742.9,493.3z"/>
</g>
<g opacity="0.3">
	<path fill="#165265" d="M1342,596.5c-74.5,0-146-29.6-198.7-82.3c-52.6-52.6-82.2-124-82.3-198.4v-173c0-8.5-3.2-16.6-8.9-22.6
		c-5.7-6-13.4-9.4-21.4-9.4c-8,0-15.8,3.4-21.4,9.4c-5.7,6-8.9,14.1-8.9,22.6V597h60.7v-0.5H1342z"/>
	<path fill="#278B85" d="M2042.8,47.2c-30.1-27.6-70.9-43-113.4-43c-42.5,0-83.3,15.5-113.4,43c-30.1,27.6-47,64.9-47,103.9v164.7
		c0,74.5-29.6,146-82.3,198.7c-52.7,52.7-124.2,82.3-198.7,82.3h281h320.8V151.1C2089.8,112.2,2072.9,74.8,2042.8,47.2z"/>
</g>
<g opacity="0.3">
	<path fill="#94AC41" d="M764.6,596.6c56.9,0,111.5-22.6,151.8-62.9c40.2-40.2,62.8-94.7,62.9-151.5v-2.8c0-6.5,2.4-12.7,6.8-17.3
		c4.3-4.6,10.2-7.2,16.4-7.2c6.1,0,12,2.6,16.4,7.2c4.3,4.6,6.8,10.8,6.8,17.3V597h-46.3v-0.4H764.6z"/>
	<path fill="#165265" d="M1076,191.1c15.9-14.6,37.5-22.8,60-22.8c22.5,0,44.1,8.2,60,22.8c15.9,14.6,24.9,34.4,24.9,55v202
		c0,39.5,15.7,77.3,43.6,105.2c27.9,27.9,65.8,43.6,105.2,43.6H1221h-169.8V246.1C1051.2,225.5,1060.1,205.7,1076,191.1z"/>
</g>
<path opacity="0.3" fill="#165265" d="M1572.2,50.2c-3.7-3.7-8.6-5.7-13.8-5.7c-0.6,0-1.3,0-1.9,0.1v-3.7c0-11.9-4.7-23.3-13.1-31.7
	c-8.4-8.4-19.8-13.1-31.7-13.1c-11.9,0-23.3,4.7-31.7,13.1c-4.1,4.1-7.3,8.8-9.5,14c-5.3-4.8-12.1-7.4-19.2-7.4
	c-7.6,0-14.9,3-20.2,8.4c-5.4,5.4-8.4,12.6-8.4,20.2v2c-2.6-1.2-5.4-1.9-8.3-1.9c-5.2,0-10.2,2.1-13.8,5.7
	c-3.7,3.7-5.7,8.6-5.7,13.8v6.8h27.9h11.2h33h13h58.9h17.7h21.5v-6.8C1577.9,58.9,1575.8,53.9,1572.2,50.2z"/>
<path opacity="0.3" fill="#278B85" d="M706,58.4c-2.2-2.2-5.2-3.5-8.4-3.5c-0.4,0-0.8,0-1.2,0.1v-2.3c0-7.2-2.9-14.1-7.9-19.2
	c-5.1-5.1-12-7.9-19.2-7.9c-7.2,0-14.1,2.9-19.2,7.9c-2.5,2.5-4.4,5.4-5.7,8.5c-3.2-2.9-7.3-4.5-11.6-4.5c-4.6,0-9,1.8-12.2,5.1
	c-3.2,3.2-5.1,7.6-5.1,12.2V56c-1.6-0.7-3.3-1.1-5-1.1c-3.1,0-6.2,1.2-8.4,3.5c-2.2,2.2-3.5,5.2-3.5,8.4v4.1h16.9h6.8h19.9h7.9h35.6
	h10.7h13v-4.1C709.5,63.6,708.2,60.6,706,58.4z"/>
<path opacity="0.28" fill="#D9D5C1" d="M1413.2,58.4c-2.2-2.2-5.2-3.5-8.4-3.5c-0.4,0-0.8,0-1.2,0.1v-2.3c0-7.2-2.9-14.1-7.9-19.2
	c-5.1-5.1-12-7.9-19.2-7.9c-7.2,0-14.1,2.9-19.2,7.9c-2.5,2.5-4.4,5.4-5.7,8.5c-3.2-2.9-7.3-4.5-11.6-4.5c-4.6,0-9,1.8-12.2,5.1
	c-3.2,3.2-5.1,7.6-5.1,12.2V56c-1.6-0.7-3.3-1.1-5-1.1c-3.1,0-6.2,1.2-8.4,3.5c-2.2,2.2-3.5,5.2-3.5,8.4v4.1h16.9h6.8h19.9h7.9h35.6
	h10.7h13v-4.1C1416.7,63.6,1415.4,60.6,1413.2,58.4z"/>
<g>
	<g>
		<path fill="#F5A10C" d="M1035.1,76.2c16.8-0.5,30.9,12.6,31.4,29.4l-30.4,1L1035.1,76.2z"/>
		<path fill="#165265" d="M1011.7,101.3c0.4,13.4,11.7,24,25.1,23.5c13.4-0.4,24-11.7,23.5-25.1l-24.3,0.8l-0.8-24.3
			C1021.8,76.6,1011.3,87.9,1011.7,101.3z"/>
		<path fill="none" stroke="#D9D5C1" stroke-width="0.5969" stroke-linecap="round" stroke-miterlimit="10" d="M1032.6,86.5
			c-0.1-2.7-2.4-4.8-5.1-4.7c-2.7,0.1-4.8,2.4-4.7,5.1"/>
		<circle fill="#D9D5C1" cx="1027.7" cy="87" r="1.7"/>
	</g>
</g>
<g>
	<g>
		<rect x="395" y="546.8" fill="#FBD0AE" width="17.9" height="45.2"/>
		<rect x="374.4" y="546.8" fill="#FBD0AE" width="17.9" height="45.2"/>
	</g>
	<path fill="#EF8212" d="M420.2,543.6v-52.8c0-7-2.8-13.8-7.8-18.8c-5-5-11.7-7.8-18.8-7.8c-7,0-13.8,2.8-18.8,7.8
		c-5,5-7.8,11.7-7.8,18.8v52.8H420.2z"/>
	<path fill="#EF8212" d="M471.8,501.4c-24.4,3.9-48.9-3.3-67.3-19.7l12-13.3c14.3,12.9,33.4,18.5,52.4,15.4L471.8,501.4z"/>
	<path fill="#EF8212" d="M380.8,486.4c-14.9,19.7-37.5,31.5-62.2,32.3l-0.6-17.9c19.2-0.6,36.9-9.8,48.5-25.2L380.8,486.4z"/>
	<g>
		<path fill="#FBD0AE" d="M483,417l13.2,1l-8.3-13.1c0.4-1.2,0.7-2.3,1-3.5c11.4-42.6-13.9-86.4-56.4-97.8
			c-42.6-11.4-86.4,13.9-97.8,56.4c-11.4,42.6,13.9,86.4,56.4,97.8C428.2,467.8,466.2,449.9,483,417z"/>
		<g>
			<defs>
				<path id="SVGID_1_" d="M483,417l13.2,1l-8.3-13.1c0.4-1.2,0.7-2.3,1-3.5c11.4-42.6-13.9-86.4-56.4-97.8
					c-42.6-11.4-86.4,13.9-97.8,56.4c-11.4,42.6,13.9,86.4,56.4,97.8C428.2,467.8,466.2,449.9,483,417z"/>
			</defs>
			<clipPath id="SVGID_2_">
				<use xlink:href="#SVGID_1_"  overflow="visible"/>
			</clipPath>
			<g id="Kopf_Textur" opacity="0.75" clip-path="url(#SVGID_2_)">
				
					<image overflow="visible" width="435" height="435" id="Kopf_Textur_10_" xlink:href="5017A32F1DE1BE84.jpg"  transform="matrix(0.2028 0.3448 -0.3448 0.2028 443.1958 262.5024)">
				</image>
			</g>
		</g>
		<circle fill="#F5A10C" cx="448.7" cy="410.5" r="13.6"/>
		<circle fill="#40301A" cx="474.1" cy="388.8" r="3.9"/>
		<path fill="none" stroke="#40301A" stroke-width="1.6" stroke-linecap="round" stroke-miterlimit="10" d="M463,390.1
			c-1.1-6,2.9-11.8,8.9-12.9c6-1.1,11.8,2.9,12.9,8.9"/>
		<g>
			<path fill="#40301A" d="M363.2,316.7c-14.5,11.3-25.3,27.7-29.2,47.1c-1.2,5.8-1.7,11.5-1.6,17.2c15.4-7.9,27.2-22.4,30.9-40.6
				C364.9,332.3,364.8,324.3,363.2,316.7z"/>
			<g>
				<path fill="#40301A" d="M339.7,345.7c13.6,14.6,31.8,25.2,52.8,29.5c34.7,7.1,68.9-4.8,91.8-28.5
					c-10.4-22.2-30.7-39.3-56.5-44.6C391.1,294.6,355.2,313.5,339.7,345.7z"/>
			</g>
			<circle fill="#40301A" cx="395.8" cy="291.9" r="26.6"/>
		</g>
	</g>
</g>
<g>
	<g>
		<rect x="222.8" y="546.8" fill="#165265" width="17.9" height="45.2"/>
		<rect x="244.1" y="546.8" fill="#165265" width="17.9" height="45.2"/>
	</g>
	<path fill="#8BC8AC" d="M268.9,543.6v-52.8c0-7-2.8-13.8-7.8-18.8c-5-5-11.7-7.8-18.8-7.8c-7,0-13.8,2.8-18.8,7.8
		c-5,5-7.8,11.7-7.8,18.8v52.8H268.9z"/>
	<path fill="#278B85" d="M314.1,518.5c-24.6-2.4-46.4-15.6-60-36.3l15-9.8c10.6,16.1,27.6,26.4,46.7,28.3L314.1,518.5z"/>
	<path fill="#278B85" d="M193.3,535.6c-2.8-24.5,5.5-48.7,22.8-66.3l12.8,12.6c-13.5,13.7-20,32.6-17.8,51.7L193.3,535.6z"/>
	<circle fill="#FBD0AE" cx="242.6" cy="377.5" r="80"/>
	<g>
		<defs>
			<circle id="SVGID_3_" cx="242.6" cy="377.5" r="80"/>
		</defs>
		<clipPath id="SVGID_4_">
			<use xlink:href="#SVGID_3_"  overflow="visible"/>
		</clipPath>
		<g id="Kopf_Textur_7_" opacity="0.75" clip-path="url(#SVGID_4_)">
			
				<image overflow="visible" width="435" height="435" id="Kopf_Textur_8_" xlink:href="5017A32F1DE1BE85.jpg"  transform="matrix(0.4 0 0 0.4 156.5654 290.5146)">
			</image>
		</g>
	</g>
	<path fill="none" stroke="#40301A" stroke-width="1.6" stroke-linecap="round" stroke-miterlimit="10" d="M258.3,379.9
		c3-3,7.9-3,10.8,0"/>
	<path fill="none" stroke="#40301A" stroke-width="1.6" stroke-linecap="round" stroke-miterlimit="10" d="M216,379.9
		c3-3,7.9-3,10.8,0"/>
	<g>
		<circle fill="#40301A" cx="263.7" cy="385.8" r="3.9"/>
		<circle fill="#40301A" cx="221.4" cy="385.8" r="3.9"/>
	</g>
	<path fill="none" stroke="#40301A" stroke-width="1.6" stroke-linecap="round" stroke-miterlimit="10" d="M253.9,395
		c-2.5,2-6.3,3.3-10.2,3.5h-2.1c-4-0.2-7.8-1.5-10.2-3.5"/>
	<g>
		<path fill="#F5A10C" d="M298.5,396.7c0,7.5-6.1,13.6-13.6,13.6s-13.6-6.1-13.6-13.6c0-7.5,6.1-13.6,13.6-13.6
			S298.5,389.2,298.5,396.7z"/>
		<path fill="#F5A10C" d="M213.8,396.7c0,7.5-6.1,13.6-13.6,13.6c-7.5,0-13.6-6.1-13.6-13.6c0-7.5,6.1-13.6,13.6-13.6
			C207.7,383.1,213.8,389.2,213.8,396.7z"/>
	</g>
	<g>
		<path fill="#40301A" d="M286,310.3c-0.6,4.1-1,8.2-1,12.5c0,28.3,14.6,53.1,36.8,67.4c0.6-4.1,1-8.2,1-12.5
			C322.8,349.4,308.2,324.6,286,310.3z"/>
		<path fill="#40301A" d="M199.2,310.3c0.6,4.1,1,8.2,1,12.5c0,28.3-14.6,53.1-36.8,67.4c-0.6-4.1-1-8.2-1-12.5
			C162.4,349.4,177,324.6,199.2,310.3z"/>
		<path fill="#40301A" d="M242.6,354.6c25.2,0,49.4-4.5,71.8-12.7c-13.1-26.3-40.4-44.4-71.8-44.4c-31.4,0-58.6,18.1-71.8,44.4
			C193.2,350.1,217.4,354.6,242.6,354.6z"/>
	</g>
	<path fill="#40301A" d="M262.9,402.4c-4.3-6.7-11.9-11.2-20.5-11.2c-8.6,0-16.2,4.5-20.5,11.2H262.9z"/>
</g>
<g>
	<g>
		<path fill="#FBD0AE" d="M585.3,487.2c-10.1-14-29.7-17.2-43.8-7.1c-0.4,0.3-0.8,0.6-1.1,0.9l-6-1.2l2.2,4.7
			c-9.8,10.7-11,27.2-2.2,39.4c10.1,14.1,29.7,17.2,43.8,7.1C592.2,520.9,595.4,501.3,585.3,487.2z"/>
		<g>
			<defs>
				<path id="SVGID_5_" d="M585.3,487.2c-10.1-14-29.7-17.2-43.8-7.1c-0.4,0.3-0.8,0.6-1.1,0.9l-6-1.2l2.2,4.7
					c-9.8,10.7-11,27.2-2.2,39.4c10.1,14.1,29.7,17.2,43.8,7.1C592.2,520.9,595.4,501.3,585.3,487.2z"/>
			</defs>
			<clipPath id="SVGID_6_">
				<use xlink:href="#SVGID_5_"  overflow="visible"/>
			</clipPath>
			<g id="Kopf_Textur_5_" opacity="0.75" clip-path="url(#SVGID_6_)">
				
					<image overflow="visible" width="435" height="435" id="Kopf_Textur_6_" xlink:href="5017A32F1DE1BE83.jpg"  transform="matrix(0.2028 0.3448 -0.3448 0.2028 590.687 388.0439)">
				</image>
			</g>
		</g>
		<path fill="#F5A10C" d="M540.7,491.8c-2.4,1.7-2.9,5.1-1.2,7.4c1.7,2.4,5.1,2.9,7.4,1.2c2.4-1.7,2.9-5.1,1.2-7.4
			C546.4,490.6,543,490.1,540.7,491.8z"/>
		<circle fill="#40301A" cx="548.2" cy="483.8" r="1.5"/>
		<path fill="none" stroke="#40301A" stroke-width="0.5341" stroke-linecap="round" stroke-miterlimit="10" d="M549.3,488.1
			c2.4-0.4,3.9-2.7,3.5-5.1c-0.4-2.4-2.7-3.9-5.1-3.5"/>
	</g>
	<circle fill="#40301A" cx="524.2" cy="584.8" r="7.2"/>
	<circle fill="#40301A" cx="595.4" cy="584.8" r="7.2"/>
	<path fill="#40301A" d="M629.4,505.3c0-38.5-31.2-69.6-69.6-69.6v69.8h-69.6c0,0.1,0,0.1,0,0.2c0,38.5,31.2,69.6,69.6,69.6
		c38.5,0,69.6-31.2,69.6-69.6c0-0.1,0-0.1,0-0.2C629.4,505.5,629.4,505.4,629.4,505.3z"/>
	<path fill="none" stroke="#40301A" stroke-width="2.9451" stroke-linecap="round" stroke-miterlimit="10" d="M491.7,507.1
		C491.7,507.1,491.7,507.1,491.7,507.1c0-10-8.1-18.2-18.1-18.2"/>
</g>
<g>
	<g>
		<circle fill="#40301A" cx="1104.4" cy="586.8" r="5.2"/>
		<circle fill="#40301A" cx="1156.3" cy="586.8" r="5.2"/>
		<path fill="#40301A" d="M1169.2,522.2c0-2.2-1.8-4-4-4c-2.2,0-4,1.8-4,4c0,1.6,0.9,3,2.3,3.6v50.8h-69.6c-0.9,0-1.7,0.8-1.7,1.7
			c0,0.9,0.8,1.7,1.7,1.7h73v-54.3C1168.2,525.2,1169.2,523.8,1169.2,522.2z"/>
	</g>
	<path fill="#524738" d="M1142.3,545.1v-31.7c0-4.2-1.7-8.3-4.7-11.3c-3-3-7-4.7-11.3-4.7s-8.3,1.7-11.3,4.7c-3,3-4.7,7-4.7,11.3
		v31.7H1142.3z"/>
	<path fill="#524738" d="M1158,528c-14.7-1.4-27.8-9.4-36-21.8l9-5.9c6.3,9.7,16.6,15.8,28,17L1158,528z"/>
	<path fill="#165265" d="M1131.9,547.1c0,14.8-6.7,28.6-18.3,37.9l-6.7-8.4c9-7.2,14.2-18,14.2-29.5L1131.9,547.1z"/>
	<rect x="1128" y="547.1" fill="#165265" width="10.8" height="27.1"/>
	<path fill="#00643B" d="M1096,490.5c-5.9,0-10.7,4.8-10.7,10.7v3.9h4.3v1V527v2.2c0,4.7,3.8,8.6,8.6,8.6c4.7,0,8.6-3.8,8.6-8.6V527
		v-20.8v-1v-1.2v-2.7C1106.7,495.3,1101.9,490.5,1096,490.5z"/>
	<circle fill="#FBD0AE" cx="1126.5" cy="445.5" r="48"/>
	<g>
		<defs>
			<circle id="SVGID_7_" cx="1126.5" cy="445.5" r="48"/>
		</defs>
		<clipPath id="SVGID_8_">
			<use xlink:href="#SVGID_7_"  overflow="visible"/>
		</clipPath>
		<g id="Kopf_Textur_3_" opacity="0.75" clip-path="url(#SVGID_8_)">
			
				<image overflow="visible" width="435" height="435" id="Kopf_Textur_4_" xlink:href="5017A32F1DE1BE8C.jpg"  transform="matrix(0.1042 -0.2162 0.2162 0.1042 1057.3828 469.8516)">
			</image>
		</g>
	</g>
	<path fill="none" stroke="#40301A" stroke-width="0.96" stroke-linecap="round" stroke-miterlimit="10" d="M1135.9,446.9
		c1.8-1.8,4.7-1.8,6.5,0"/>
	<path fill="none" stroke="#40301A" stroke-width="0.96" stroke-linecap="round" stroke-miterlimit="10" d="M1110.5,446.9
		c1.8-1.8,4.7-1.8,6.5,0"/>
	<g>
		<circle fill="#40301A" cx="1139.1" cy="450.5" r="2.4"/>
		<circle fill="#40301A" cx="1113.8" cy="450.5" r="2.4"/>
	</g>
	<path fill="none" stroke="#40301A" stroke-width="0.96" stroke-linecap="round" stroke-miterlimit="10" d="M1133.3,455.9
		c-1.5,1.2-3.8,2-6.1,2.1h-1.3c-2.4-0.1-4.7-0.9-6.1-2.1"/>
	<g>
		<path fill="#F5A10C" d="M1160.1,457c0,4.5-3.7,8.2-8.2,8.2c-4.5,0-8.2-3.7-8.2-8.2c0-4.5,3.7-8.2,8.2-8.2
			C1156.4,448.8,1160.1,452.5,1160.1,457z"/>
		<path fill="#F5A10C" d="M1109.2,457c0,4.5-3.7,8.2-8.2,8.2s-8.2-3.7-8.2-8.2c0-4.5,3.7-8.2,8.2-8.2S1109.2,452.5,1109.2,457z"/>
	</g>
	<path fill="#165265" d="M1126.5,431.6c15.1,0,29.6-2.7,43-7.6c-7.9-15.8-24.2-26.6-43-26.6c-18.8,0-35.1,10.8-43,26.6
		C1096.9,429,1111.4,431.6,1126.5,431.6z"/>
	<path fill="#154450" d="M1126.5,431.6c-8.1,0-16-0.8-23.7-2.3c3.4,9.8,12.8,16.8,23.7,16.8c11,0,20.3-7,23.7-16.8
		C1142.5,430.9,1134.6,431.6,1126.5,431.6z"/>
</g>
<g>
	<g>
		<path fill="#40301A" d="M1660.9,525.6c-3-2.5-3.3-6.9-0.9-9.8c2.5-3,6.9-3.3,9.8-0.9c3,2.5,3.3,6.9,0.9,9.8
			C1668.3,527.7,1663.9,528,1660.9,525.6z"/>
		<path fill="#40301A" d="M1713.7,462.6c-3-2.5-3.3-6.9-0.9-9.8c2.5-3,6.9-3.3,9.8-0.9c3,2.5,3.3,6.9,0.9,9.8
			C1721,464.7,1716.6,465,1713.7,462.6z"/>
		<polyline fill="none" stroke="#40301A" stroke-width="5" stroke-linecap="round" stroke-miterlimit="10" points="1636.5,531.2 
			1652.6,518.6 1714.3,445 1723.9,426.9 		"/>
	</g>
	<path fill="#0E8B32" d="M1660.6,440.6l-32.4-27.1c-4.3-3.6-9.9-5.4-15.5-4.9c-5.6,0.5-10.8,3.2-14.4,7.5c-3.6,4.3-5.4,9.9-4.9,15.5
		c0.5,5.6,3.2,10.8,7.5,14.4l32.4,27.1L1660.6,440.6z"/>
	<path fill="#FBD0AE" d="M1641.4,366.9c3.4,19.4-2.2,39.1-15.2,54l-10.8-9.5c10.2-11.6,14.5-26.9,11.8-42.1L1641.4,366.9z"/>
	<path fill="#FBD0AE" d="M1606,440.3c-13.3,14.5-32.3,22.2-52,20.9l0.9-14.3c15.4,1,30.2-5,40.6-16.3L1606,440.3z"/>
	<path fill="#165265" d="M1659.4,458.1c5.2,19,1.5,39.2-10,55.2l-11.6-8.4c9-12.5,11.9-28.2,7.8-43L1659.4,458.1z"/>
	
		<rect x="1658.7" y="447.8" transform="matrix(0.642 -0.7667 0.7667 0.642 239.1973 1444.0684)" fill="#165265" width="14.3" height="36.1"/>
	<g>
		<path fill="#FBD0AE" d="M1602.6,333l6-8.8l-12.4,0.5c-0.7-0.7-1.3-1.4-2-2.1c-25-24.9-65.4-24.8-90.3,0.2
			c-24.9,25-24.8,65.4,0.2,90.3c25,24.9,65.4,24.8,90.3-0.2C1616.1,391.2,1618.8,357.7,1602.6,333z"/>
		<g>
			<defs>
				<path id="SVGID_9_" d="M1602.6,333l6-8.8l-12.4,0.5c-0.7-0.7-1.3-1.4-2-2.1c-25-24.9-65.4-24.8-90.3,0.2
					c-24.9,25-24.8,65.4,0.2,90.3c25,24.9,65.4,24.8,90.3-0.2C1616.1,391.2,1618.8,357.7,1602.6,333z"/>
			</defs>
			<clipPath id="SVGID_10_">
				<use xlink:href="#SVGID_9_"  overflow="visible"/>
			</clipPath>
			<g id="Kopf_Textur_1_" opacity="0.75" clip-path="url(#SVGID_10_)">
				
					<image overflow="visible" width="435" height="435" id="Kopf_Textur_9_" xlink:href="5017A32F1DE1BE8F.jpg"  transform="matrix(-0.3194 -2.011000e-02 2.011000e-02 -0.3194 1616.2959 441.6738)">
				</image>
			</g>
		</g>
		<path fill="#F5A10C" d="M1592.1,346.4c4.3,4.2,4.3,11.1,0,15.4c-4.2,4.2-11.1,4.3-15.4,0c-4.3-4.2-4.3-11.1,0-15.4
			C1581,342.2,1587.9,342.2,1592.1,346.4z"/>
		<path fill="#40301A" d="M1577.3,330.1c-1.2-1.2-1.2-3.2,0-4.4c1.2-1.2,3.2-1.2,4.4,0c1.2,1.2,1.2,3.2,0,4.4
			C1580.5,331.3,1578.6,331.3,1577.3,330.1z"/>
		<path fill="none" stroke="#40301A" stroke-width="1.28" stroke-linecap="round" stroke-miterlimit="10" d="M1576,336.1
			c-4.6-1.6-7-6.7-5.4-11.3c1.6-4.6,6.7-7,11.3-5.4"/>
		<path fill="#8BC8AC" d="M1494,400.9c15.7-2.7,30.7-10.1,42.8-22.3c20-20,27-48,21.3-73.7c-19.3-2.8-39.7,3.2-54.5,18.1
			C1482.6,344.2,1479.4,376.4,1494,400.9z"/>
		<path fill="#8BC8AC" d="M1545.2,276c-1,0.8-1.9,1.6-2.8,2.5c-13.8,13.8-13.7,36.2,0.1,50c4.6,4.6,10.2,7.7,16.1,9.2
			C1562.7,316.6,1558.2,294.2,1545.2,276z"/>
	</g>
</g>
<g>
</g>
<g>
</g>
<g>
</g>
<g>
</g>
<g>
</g>
<g>
</g>
</svg>
