<?xml version="1.0" encoding="utf-8"?>
<!-- Generator: Adobe Illustrator 15.1.0, SVG Export Plug-In . SVG Version: 6.00 Build 0)  -->
<!DOCTYPE svg PUBLIC "-//W3C//DTD SVG 1.1//EN" "http://www.w3.org/Graphics/SVG/1.1/DTD/svg11.dtd">
<svg version="1.1" id="Ebene_1" xmlns="http://www.w3.org/2000/svg" xmlns:xlink="http://www.w3.org/1999/xlink" x="0px" y="0px"
	 width="2090px" height="596.7px" viewBox="0 0 2090 596.7" enable-background="new 0 0 2090 596.7" xml:space="preserve">
<path opacity="0.35" fill="#D9D5C1" enable-background="new    " d="M1933.1,597c0.101-2.801,0.101-5.5,0.101-8.301
	c0-144.299-116.9-261.199-261.2-261.199c-144.2,0-261.2,116.9-261.2,261.199c0,2.801,0.101,5.5,0.101,8.301H1933.1z"/>
<g opacity="0.3">
	<path fill="#165265" d="M1342,596.5c-74.5,0-146-29.6-198.7-82.301c-52.6-52.6-82.2-124-82.3-198.4v-173c0-8.5-3.2-16.6-8.9-22.6
		c-5.699-6-13.399-9.4-21.399-9.4s-15.8,3.4-21.4,9.4c-5.7,6-8.899,14.1-8.899,22.6V597h60.699v-0.5H1342z"/>
	<path fill="#278B85" d="M2042.8,47.2c-30.1-27.6-70.899-43-113.399-43s-83.301,15.5-113.4,43c-30.1,27.6-47,64.9-47,103.9v164.699
		c0,74.5-29.6,146-82.3,198.701c-52.7,52.699-124.2,82.299-198.7,82.299h281h320.8V151.1C2089.8,112.2,2072.9,74.8,2042.8,47.2z"/>
</g>
<path opacity="0.2" fill="#94AC41" enable-background="new    " d="M770.4,597c0.1-4.1,0.199-8.1,0.199-12.201
	C770.6,372.6,598.6,200.6,386.4,200.6c-212.2,0-384.2,172-384.2,384.199c0,4.102,0.1,8.102,0.2,12.201H770.4z"/>
<path opacity="0.4" fill="#94AC41" d="M471.8,597c0-1.301,0.101-2.5,0.101-3.801c0-66.699-54.101-120.799-120.801-120.799
	c-66.7,0-120.8,54.1-120.8,120.799c0,1.301,0,2.6,0.1,3.801H471.8z"/>
<path opacity="0.5" fill="#8BC8AC" d="M499.8,597V472.7c0-15.1-6-29.699-16.7-40.4C472.4,421.6,457.9,415.6,442.7,415.6
	c-15.101,0-29.7,6-40.4,16.699C391.6,443,385.6,457.5,385.6,472.7V597H499.8z"/>
<path opacity="0.65" fill="#8BC8AC" d="M2000.4,597V512.7c0-15.1-6-29.699-16.7-40.4c-10.7-10.699-25.2-16.699-40.4-16.699
	c-15.1,0-29.7,6-40.399,16.699c-10.7,10.701-16.7,25.201-16.7,40.4V597H2000.4z"/>
<path opacity="0.35" fill="#00643B" enable-background="new    " d="M834,597c0-1,0.1-1.9,0.1-2.9c0-51-43.199-92.301-96.399-92.301
	S641.3,543.1,641.3,594.1c0,1,0,2,0.101,2.9H834z"/>
<g>
	<circle opacity="0.35" fill="#94AC41" enable-background="new    " cx="247.7" cy="157.9" r="57.8"/>
	<path opacity="0.35" fill="#94AC41" enable-background="new    " d="M405.5,273c0,21.5-17.5,39-39,39s-39-17.5-39-39s17.5-39,39-39
		C388.1,234,405.5,251.4,405.5,273z"/>
	<circle opacity="0.35" fill="#94AC41" enable-background="new    " cx="366.5" cy="273" r="28.2"/>
</g>
<path opacity="0.45" fill="#8BC8AC" d="M780.3,597c0-0.5,0-1.1,0-1.6c0-27.5,22.3-49.801,49.8-49.801s49.801,22.301,49.801,49.801
	c0,0.5,0,1.1,0,1.6H780.3z"/>
<path opacity="0.35" fill="#94AC41" enable-background="new    " d="M1908.1,597c0-1,0.101-1.9,0.101-2.9
	c0-50.4-40.8-91.199-91.2-91.199s-91.2,40.799-91.2,91.199c0,1,0,1.9,0,2.9H1908.1z"/>
<path opacity="0.45" fill="#8BC8AC" d="M941.8,597v-93.9c0-11.4-4.5-22.4-12.6-30.5c-8.101-8.1-19-12.6-30.5-12.6
	c-11.4,0-22.4,4.5-30.5,12.6c-8.101,8.1-12.601,19-12.601,30.5V597H941.8z"/>
<path opacity="0.3" fill="#40301A" enable-background="new    " d="M716.9,332.1c-15.9-15.9-37.5-24.9-60-24.9s-44.101,8.9-60,24.9
	C581,348,572,369.6,572,392.1V597h169.7V392.1C741.8,369.6,732.8,348,716.9,332.1z M655.4,442.1c-18.5,0-33.601-15-33.601-33.6
	c0-18.5,15-33.601,33.601-33.601c18.5,0,33.6,15,33.6,33.601C689,427.1,673.9,442.1,655.4,442.1z"/>
<path opacity="0.8" fill="#F7A100" enable-background="new    " d="M781.1,425c-9.899-9.9-23.3-15.4-37.3-15.4
	s-27.399,5.6-37.3,15.4c-9.9,9.9-15.4,23.299-15.4,37.299V597h105.4V462.2C796.6,448.299,791,434.901,781.1,425z M742.9,493.299
	c-11.5,0-20.801-9.299-20.801-20.799S731.4,451.7,742.9,451.7S763.7,461,763.7,472.5C763.8,483.901,754.4,493.299,742.9,493.299z"/>
<g opacity="0.3">
	<path fill="#94AC41" d="M764.6,596.6c56.9,0,111.5-22.6,151.801-62.9C956.6,493.5,979.2,439,979.3,382.2v-2.8
		c0-6.5,2.4-12.7,6.8-17.3c4.301-4.6,10.2-7.2,16.4-7.2c6.1,0,12,2.601,16.4,7.2c4.3,4.6,6.8,10.8,6.8,17.3V597h-46.3v-0.4H764.6z"
		/>
	<path fill="#165265" d="M1076,191.1c15.9-14.6,37.5-22.8,60-22.8s44.1,8.2,60,22.8s24.9,34.4,24.9,55v202
		c0,39.5,15.699,77.301,43.6,105.199c27.9,27.9,65.8,43.602,105.2,43.602H1221h-169.8V246.1C1051.2,225.5,1060.1,205.7,1076,191.1z"
		/>
</g>
<path opacity="0.3" fill="#165265" enable-background="new    " d="M1572.2,60.2c-3.7-3.7-8.601-5.7-13.8-5.7
	c-0.601,0-1.301,0-1.9,0.1v-3.7c0-11.9-4.7-23.3-13.1-31.7c-8.4-8.4-19.801-13.1-31.7-13.1c-11.9,0-23.3,4.7-31.7,13.1
	c-4.1,4.1-7.3,8.8-9.5,14c-5.3-4.8-12.1-7.4-19.2-7.4c-7.6,0-14.899,3-20.2,8.4c-5.399,5.4-8.399,12.6-8.399,20.2v2
	c-2.601-1.2-5.4-1.9-8.3-1.9c-5.2,0-10.2,2.1-13.801,5.7c-3.699,3.7-5.699,8.6-5.699,13.8v6.8h27.899h11.2h33h13h58.9h17.699h21.5
	V74C1577.9,68.9,1575.8,63.9,1572.2,60.2z"/>
<path opacity="0.3" fill="#278B85" enable-background="new    " d="M706,68.4c-2.2-2.2-5.2-3.5-8.4-3.5c-0.399,0-0.8,0-1.199,0.1
	v-2.3c0-7.2-2.9-14.1-7.9-19.2c-5.1-5.1-12-7.9-19.2-7.9s-14.1,2.9-19.2,7.9c-2.5,2.5-4.399,5.4-5.699,8.5
	c-3.2-2.9-7.301-4.5-11.601-4.5c-4.6,0-9,1.8-12.2,5.1c-3.199,3.2-5.1,7.6-5.1,12.2V66c-1.6-0.7-3.3-1.1-5-1.1
	c-3.1,0-6.2,1.2-8.4,3.5c-2.199,2.2-3.5,5.2-3.5,8.4v4.1h16.9h6.8h19.9h7.899H685.7h10.7h13v-4.1C709.5,73.6,708.2,70.6,706,68.4z"
	/>
<path opacity="0.28" fill="#D9D5C1" enable-background="new    " d="M1413.2,68.4c-2.2-2.2-5.2-3.5-8.4-3.5c-0.399,0-0.8,0-1.2,0.1
	v-2.3c0-7.2-2.899-14.1-7.899-19.2c-5.101-5.1-12-7.9-19.2-7.9s-14.1,2.9-19.2,7.9c-2.5,2.5-4.399,5.4-5.7,8.5
	c-3.199-2.9-7.3-4.5-11.6-4.5c-4.6,0-9,1.8-12.2,5.1c-3.199,3.2-5.1,7.6-5.1,12.2V66c-1.6-0.7-3.3-1.1-5-1.1c-3.1,0-6.2,1.2-8.4,3.5
	c-2.199,2.2-3.5,5.2-3.5,8.4v4.1h16.9h6.8h19.9h7.9h35.6h10.7h13v-4.1C1416.7,73.6,1415.4,70.6,1413.2,68.4z"/>
<g>
	<g>
		<path fill="#F5A10C" d="M1035.1,76.2c16.801-0.5,30.9,12.6,31.4,29.4l-30.4,1L1035.1,76.2z"/>
		<path fill="#165265" d="M1011.7,101.3c0.399,13.4,11.7,24,25.1,23.5c13.4-0.4,24-11.7,23.5-25.1l-24.3,0.8l-0.8-24.3
			C1021.8,76.6,1011.3,87.9,1011.7,101.3z"/>
		<path fill="none" stroke="#D9D5C1" stroke-width="0.5969" stroke-linecap="round" stroke-miterlimit="10" d="M1032.6,86.5
			c-0.1-2.7-2.399-4.8-5.1-4.7c-2.7,0.1-4.8,2.4-4.7,5.1"/>
		<circle fill="#D9D5C1" cx="1027.7" cy="87" r="1.7"/>
	</g>
</g>
<g>
	<g>
		<path fill="#FBD0AE" d="M615.3,487.2c-10.1-14-29.7-17.199-43.8-7.1c-0.4,0.301-0.8,0.6-1.1,0.9l-6-1.201l2.199,4.701
			c-9.8,10.699-11,27.199-2.199,39.4C574.5,538,594.1,541.1,608.2,531C622.2,520.901,625.4,501.299,615.3,487.2z"/>
		<path fill="#F5A10C" d="M570.7,491.799c-2.4,1.701-2.9,5.102-1.2,7.4c1.7,2.4,5.1,2.9,7.4,1.201
			c2.399-1.701,2.899-5.102,1.199-7.4C576.4,490.6,573,490.1,570.7,491.799z"/>
		<circle fill="#40301A" cx="578.2" cy="483.799" r="1.5"/>
		<path fill="none" stroke="#40301A" stroke-width="0.5341" stroke-linecap="round" stroke-miterlimit="10" d="M579.3,488.1
			c2.4-0.4,3.9-2.699,3.5-5.1c-0.399-2.4-2.7-3.9-5.1-3.5"/>
	</g>
	<circle fill="#40301A" cx="554.2" cy="584.8" r="7.2"/>
	<circle fill="#40301A" cx="625.4" cy="584.8" r="7.2"/>
	<path fill="#40301A" d="M659.4,505.299c0-38.5-31.2-69.6-69.601-69.6V505.5h-69.6c0,0.1,0,0.1,0,0.199c0,38.5,31.2,69.6,69.6,69.6
		c38.5,0,69.601-31.199,69.601-69.6c0-0.1,0-0.1,0-0.199C659.4,505.5,659.4,505.401,659.4,505.299z"/>
	<path fill="none" stroke="#40301A" stroke-width="2.9451" stroke-linecap="round" stroke-miterlimit="10" d="M521.7,507.1
		L521.7,507.1c0-10-8.101-18.199-18.101-18.199"/>
</g>
<g>
	<path fill="none" stroke="#40301A" stroke-width="2" stroke-linecap="round" stroke-miterlimit="10" d="M1895.047,313.936
		c0,4.438,3.599,8.035,8.037,8.035h12.091h10.623c4.439,0,8.038,3.6,8.038,8.037V596.7V337.374v196.365"/>
	<path opacity="0.5" fill="#94AC42" d="M1817.044,331.622c-0.026-0.822-0.044-1.648-0.044-2.479
		c0-43.101,34.943-78.044,78.049-78.044c43.102,0,78.044,34.943,78.044,78.044c0,0.83-0.017,1.656-0.043,2.479H1817.044z"/>
</g>
<path fill="none" stroke="#40301A" stroke-width="2" stroke-linecap="round" stroke-miterlimit="10" d="M240.8,175.2
	c0,4.1,3.3,7.4,7.4,7.4h11.2h13.7c4.1,0,7.4,3.3,7.4,7.4v207V196.9V597"/>
<path fill="none" stroke="#40301A" stroke-width="2" stroke-linecap="round" stroke-linejoin="round" stroke-miterlimit="10" d="
	M367.3,269.8c0,6.7-5.399,12.1-12.1,12.1H341.6H333.7h-30c-6.7,0-12.1,5.4-12.1,12.1v303V305"/>
<g>
	<g>
		<rect x="415" y="546.799" fill="#94AC42" width="17.9" height="45.201"/>
		<rect x="394.4" y="546.799" fill="#94AC42" width="17.899" height="45.201"/>
	</g>
	<path fill="#EF8212" d="M440.2,543.6v-52.801c0-7-2.8-13.799-7.8-18.799S420.7,464.2,413.6,464.2c-7,0-13.8,2.801-18.8,7.801
		S387,483.7,387,490.799V543.6H440.2z"/>
	<path fill="#F7A100" d="M501.8,501.401C477.4,505.299,452.9,498.1,434.5,481.7l12-13.299c14.3,12.898,33.4,18.5,52.4,15.398
		L501.8,501.401z"/>
	<path fill="#F7A100" d="M390.8,486.401c-14.899,19.699-37.5,31.5-62.2,32.299l-0.6-17.9c19.2-0.6,36.9-9.799,48.5-25.199
		L390.8,486.401z"/>
	<g>
		<path fill="#FBD0AE" d="M503,417l13.2,1l-8.3-13.101c0.399-1.2,0.699-2.3,1-3.5C520.3,358.799,495,315,452.5,303.6
			c-42.6-11.4-86.4,13.9-97.8,56.4c-11.4,42.6,13.899,86.4,56.399,97.799C448.2,467.799,486.2,449.901,503,417z"/>
		<circle fill="#F5A10C" cx="468.7" cy="410.5" r="13.6"/>
		<circle fill="#40301A" cx="494.1" cy="388.8" r="3.9"/>
		<path fill="none" stroke="#40301A" stroke-width="1.6" stroke-linecap="round" stroke-miterlimit="10" d="M483,390.1
			c-1.1-6,2.9-11.801,8.9-12.9s11.8,2.9,12.899,8.9"/>
		<g>
			<path fill="#40301A" d="M383.2,316.7c-14.5,11.301-25.3,27.7-29.2,47.1c-1.2,5.801-1.7,11.5-1.6,17.201
				C367.8,373.1,379.6,358.6,383.3,340.4C384.9,332.299,384.8,324.299,383.2,316.7z"/>
			<g>
				<path fill="#40301A" d="M359.7,345.7c13.6,14.6,31.8,25.2,52.8,29.5c34.7,7.1,68.9-4.8,91.8-28.5
					c-10.399-22.199-30.7-39.3-56.5-44.6C411.1,294.6,375.2,313.5,359.7,345.7z"/>
			</g>
			<circle fill="#40301A" cx="415.8" cy="291.9" r="26.6"/>
		</g>
	</g>
</g>
<g>
	<g>
		<rect x="222.8" y="546.799" fill="#165265" width="17.9" height="45.201"/>
		<rect x="244.1" y="546.799" fill="#165265" width="17.9" height="45.201"/>
	</g>
	<path fill="#8BC8AC" d="M268.9,543.6v-52.801c0-7-2.8-13.799-7.8-18.799s-11.7-7.801-18.8-7.801c-7,0-13.8,2.801-18.8,7.801
		s-7.8,11.699-7.8,18.799V543.6H268.9z"/>
	<path fill="#278B85" d="M324.1,518.5c-24.6-2.4-46.399-15.6-60-36.301l15-9.799c10.6,16.1,27.6,26.398,46.7,28.299L324.1,518.5z"/>
	<path fill="#278B85" d="M183.3,535.6c-2.8-24.5,5.5-48.699,22.8-66.301l12.8,12.602c-13.5,13.699-20,32.6-17.8,51.699L183.3,535.6z
		"/>
	<circle fill="#FBD0AE" cx="242.6" cy="377.5" r="80"/>
	<path fill="none" stroke="#40301A" stroke-width="1.6" stroke-linecap="round" stroke-miterlimit="10" d="M258.3,379.9
		c3-3,7.9-3,10.8,0"/>
	<path fill="none" stroke="#40301A" stroke-width="1.6" stroke-linecap="round" stroke-miterlimit="10" d="M216,379.9
		c3-3,7.9-3,10.8,0"/>
	<g>
		<circle fill="#40301A" cx="263.7" cy="385.8" r="3.9"/>
		<circle fill="#40301A" cx="221.4" cy="385.8" r="3.9"/>
	</g>
	<path fill="none" stroke="#40301A" stroke-width="1.6" stroke-linecap="round" stroke-miterlimit="10" d="M253.9,395
		c-2.5,2-6.3,3.299-10.2,3.5h-2.1c-4-0.201-7.8-1.5-10.2-3.5"/>
	<g>
		<path fill="#F5A10C" d="M298.5,396.7c0,7.5-6.1,13.6-13.6,13.6s-13.6-6.1-13.6-13.6s6.1-13.6,13.6-13.6S298.5,389.2,298.5,396.7z"
			/>
		<path fill="#F5A10C" d="M213.8,396.7c0,7.5-6.1,13.6-13.6,13.6s-13.6-6.1-13.6-13.6s6.1-13.6,13.6-13.6S213.8,389.2,213.8,396.7z"
			/>
	</g>
	<g>
		<path fill="#EF8212" d="M286,310.299c-0.6,4.101-1,8.201-1,12.5c0,28.301,14.6,53.101,36.8,67.4c0.601-4.1,1-8.199,1-12.5
			C322.8,349.4,308.2,324.6,286,310.299z"/>
		<path fill="#EF8212" d="M199.2,310.299c0.6,4.101,1,8.201,1,12.5c0,28.301-14.6,53.101-36.8,67.4c-0.6-4.1-1-8.199-1-12.5
			C162.4,349.4,177,324.6,199.2,310.299z"/>
		<path fill="#EF8212" d="M242.6,354.6c25.2,0,49.4-4.5,71.8-12.7c-13.101-26.3-40.4-44.4-71.8-44.4s-58.6,18.1-71.8,44.4
			C193.2,350.1,217.4,354.6,242.6,354.6z"/>
	</g>
	<path fill="#EF8212" d="M262.9,402.4c-4.3-6.7-11.9-11.2-20.5-11.2s-16.2,4.5-20.5,11.2H262.9z"/>
</g>
<g>
	<path fill="#40301A" d="M1085.772,475.631c-6.798,0-12.31,5.51-12.31,12.309v4.424h4.964v1.172v23.874v2.52
		c0,5.427,4.4,9.827,9.827,9.827c5.43,0,9.829-4.4,9.829-9.827v-2.52v-23.874v-1.172v-1.346v-3.078
		C1098.083,481.141,1092.571,475.631,1085.772,475.631z"/>
	<g>
		<g>
			<g>
				<circle fill="#40301A" cx="1095.117" cy="586" r="6.001"/>
				<circle fill="#40301A" cx="1154.566" cy="586" r="6.001"/>
			</g>
			<path fill="#524738" d="M1169.598,513.465c0-2.561-2.075-4.636-4.636-4.636c-2.56,0-4.637,2.075-4.637,4.636
				c0,1.817,1.05,3.388,2.573,4.147v56.421h-78.178c-1.139,0-2.062,0.925-2.062,2.063c0,1.141,0.924,2.063,2.062,2.063h82.305
				v-60.548C1168.55,516.853,1169.598,515.283,1169.598,513.465z"/>
		</g>
		<g>
			<path fill="#155266" d="M1126.983,540.494c-0.054,16.969-7.684,32.796-20.932,43.425l-7.716-9.618
				c10.327-8.287,16.274-20.621,16.315-33.846L1126.983,540.494z"/>
		</g>
		<g>
			<rect x="1121.066" y="540.455" fill="#155266" width="12.331" height="31.066"/>
		</g>
		<g>
			<path fill="#00643B" d="M1138.881,537.329v-35.42c0-4.841-1.924-9.485-5.348-12.907c-3.422-3.424-8.065-5.347-12.907-5.347
				s-9.485,1.923-12.907,5.347c-3.424,3.422-5.348,8.066-5.348,12.907v35.42H1138.881z"/>
		</g>
		<g>
			<path fill="#FFD1AD" d="M1115.707,498.056c10.532,13.304,26.313,21.028,43.297,21.193l0.119-12.331
				c-13.239-0.129-25.539-6.146-33.748-16.516L1115.707,498.056z"/>
		</g>
		<path fill="#FFD1AD" d="M1167.018,394.413l5.021-7.532l-10.42,0.434c-10.072-11.247-24.704-18.327-40.991-18.327
			c-30.389,0-55.022,24.634-55.022,55.022c0,30.387,24.634,55.02,55.022,55.02c30.385,0,55.019-24.633,55.019-55.02
			C1175.646,413.115,1172.479,402.958,1167.018,394.413z"/>
		<path fill="#8BC8AC" d="M1065.605,424.009c0,10.18,2.768,19.712,7.588,27.891c33.238-6.225,58.394-35.389,58.394-70.433
			c0-3.938-0.324-7.801-0.934-11.565c-3.253-0.601-6.602-0.915-10.025-0.915C1090.239,368.987,1065.605,393.621,1065.605,424.009z"
			/>
		<path fill="#8BC8AC" d="M1106.809,368.579c0,14.272,9.62,26.297,22.729,29.947c1.337-5.468,2.05-11.179,2.05-17.059
			c0-14.19-4.127-27.417-11.242-38.548C1112.173,348.52,1106.809,357.922,1106.809,368.579z"/>
		<circle fill="#F7A100" cx="1151.22" cy="412.493" r="9.336"/>
		<circle fill="#40301A" cx="1147.239" cy="389.874" r="2.704"/>
		<path fill="none" stroke="#40301A" stroke-width="1.1004" stroke-linecap="round" stroke-miterlimit="10" d="M1144.147,396.955
			c-3.949-1.45-5.977-5.826-4.525-9.773c1.448-3.949,5.825-5.977,9.775-4.526"/>
	</g>
</g>
<g>
	<g>
		<g>
			<circle fill="#AAA797" cx="1662.674" cy="522.708" r="6.001"/>
			<circle fill="#AAA797" cx="1703.786" cy="479.767" r="6"/>
		</g>
		
			<line fill="none" stroke="#524738" stroke-width="4.1265" stroke-linecap="round" stroke-miterlimit="10" x1="1648.332" y1="523.372" x2="1703.824" y2="465.41"/>
	</g>
	<g>
		<path fill="#FFD1AD" d="M1656.819,472.71c6.967,15.472,6.564,33.037-1.103,48.193l-11.004-5.567
			c5.979-11.815,6.295-25.505,0.862-37.562L1656.819,472.71z"/>
	</g>
	<g>
		
			<rect x="1659.955" y="460.181" transform="matrix(0.6916 -0.7223 0.7223 0.6916 170.2135 1350.0828)" fill="#FFD1AD" width="12.331" height="31.064"/>
	</g>
	<g>
		
			<rect x="1634.208" y="456.559" transform="matrix(0.6915 -0.7224 0.7224 0.6915 170.3431 1336.0187)" fill="#40301A" width="30.152" height="24.051"/>
		<path fill="#155266" d="M1660.698,454.393l-25.585-24.494c-3.497-3.35-8.182-5.17-13.021-5.063
			c-4.84,0.105-9.441,2.13-12.788,5.626c-3.35,3.499-5.171,8.182-5.065,13.021s2.13,9.44,5.627,12.788l25.584,24.495
			L1660.698,454.393z"/>
	</g>
	<g>
		<path fill="#FFD1AD" d="M1608.627,457.367c-6.867,15.516-20.211,26.946-36.613,31.359l-3.201-11.907
			c12.785-3.441,23.186-12.347,28.536-24.441L1608.627,457.367z"/>
	</g>
	<g>
		<path fill="#FFD1AD" d="M1636.442,426.873c11.499-12.475,16.669-29.268,14.187-46.068l-12.197,1.804
			c1.935,13.098-2.094,26.185-11.058,35.909L1636.442,426.873z"/>
	</g>
	
		<rect x="1525.888" y="381.299" transform="matrix(0.6915 -0.7223 0.7223 0.6915 196.327 1266.325)" fill="#40301A" stroke="#40301A" stroke-width="0.2751" stroke-miterlimit="10" width="110.017" height="43.97"/>
	<circle fill="#FFD1AD" cx="1566.218" cy="389.214" r="55.02"/>
	<g>
		<path fill="none" stroke="#40301A" stroke-width="1.1004" stroke-linecap="round" stroke-miterlimit="10" d="M1574.854,382.528
			c-0.061-2.914,2.252-5.319,5.162-5.382"/>
		<path fill="none" stroke="#40301A" stroke-width="1.1004" stroke-linecap="round" stroke-miterlimit="10" d="M1554.757,403.52
			c-0.061-2.914,2.251-5.32,5.163-5.383"/>
	</g>
	<g>
		<circle fill="#40301A" cx="1580.404" cy="382.679" r="2.707"/>
		<circle fill="#40301A" cx="1560.307" cy="403.67" r="2.708"/>
	</g>
	<path fill="none" stroke="#40301A" stroke-width="1.1004" stroke-linecap="round" stroke-miterlimit="10" d="M1580.267,391.893
		c-0.191,2.16-1.354,4.669-3.148,6.734l-1.021,1.067c-1.984,1.88-4.44,3.15-6.592,3.439"/>
	<g>
		<path fill="#F7A100" d="M1602.373,370.528c3.729,3.571,3.86,9.491,0.288,13.224c-3.575,3.734-9.496,3.862-13.228,0.292
			c-3.732-3.574-3.863-9.497-0.29-13.229C1592.718,367.082,1598.64,366.955,1602.373,370.528z"/>
		<circle fill="#F7A100" cx="1555.593" cy="419.39" r="9.356"/>
	</g>
	<path fill="#40301A" stroke="#40301A" stroke-width="0.2751" stroke-miterlimit="10" d="M1564.231,387.119
		c13.428-14.026,24.908-28.524,34.082-42.599c-21.907-15.771-52.639-13.41-71.839,6.645c-19.189,20.043-20.22,50.822-3.542,72.019
		C1536.664,413.376,1550.73,401.221,1564.231,387.119z"/>
	<g>
		
			<rect x="1560.581" y="473.017" transform="matrix(-0.3983 0.9173 -0.9173 -0.3983 2645.5464 -757.3987)" fill="#AAA797" width="21.218" height="31.971"/>
		<path fill="#FFFFFF" d="M1568.879,483.145c2.257,0.98,3.291,3.604,2.31,5.859c-0.979,2.254-3.6,3.291-5.855,2.309
			c-2.254-0.978-3.289-3.601-2.31-5.856C1564.002,483.202,1566.623,482.167,1568.879,483.145z"/>
	</g>
	<path fill="#AAA797" d="M1603.5,338.49c-11.995-11.288-27.642-17.301-44.129-16.944c-16.673,0.363-32.206,7.198-43.738,19.244
		c-11.533,12.047-17.684,27.862-17.32,44.534c0.358,16.488,7.049,31.859,18.848,43.353c-2.622,6.918-1.049,15.032,4.631,20.47
		c7.58,7.26,19.609,6.997,26.869-0.584l-26.217-25.101c-21.669-21.003-22.346-55.711-1.449-77.539
		c20.897-21.828,55.61-22.661,77.533-1.922l26.212,25.094c7.258-7.581,6.997-19.611-0.586-26.87
		C1618.474,336.788,1610.298,335.571,1603.5,338.49z"/>
</g>
</svg>
