<svg xmlns="http://www.w3.org/2000/svg" viewBox="0 0 2090 596.7"><path opacity=".1" fill="#40301A" d="M2075 597c.2-4 .2-7.6.2-11.5 0-200.2-162.2-362.3-362.3-362.3-200 0-362.4 162-362.4 362.3V597h724.5z"/><g opacity=".3"><path fill="#40301A" d="M968.8 596.5v.5h59.6V151c0-8.2-3-16.2-8.7-22-5.5-6-13.2-9.3-21-9.3s-15.4 3.3-21 9.2c-5.6 5.8-8.8 13.8-8.8 22v170c-.2 73-29.2 143-81 194.7-51.6 51.7-121.8 80.8-195 80.8H969z"/><path opacity=".8" fill="#875726" d="M89.2 239.5v357.3h482.5c-59.7 0-117-23.7-159.3-66-42.2-42.2-66-99.5-66-159.3v-132c0-31.3-13.5-61.2-37.7-83.3-24-22-56.8-34.5-91-34.5-34 0-66.7 12.4-90.8 34.5-24.2 22-37.8 52-37.8 83.3z"/></g><path opacity=".2" fill="#40301A" d="M770.5 597v-8.3c0-143.7-116.4-260.2-260-260.2S250 445 250 588.7c0 2.8.2 5.5.3 8.3h520.2z"/><path opacity=".6" fill="#875726" d="M1379 597v-3.8c0-66.7-54-120.8-120.8-120.8s-120.8 54-120.8 120.8v3.8H1379zM800 597V472.7c0-15-6-29.7-16.6-40.4-10.7-10.7-25.2-16.7-40.4-16.7-15 0-29.7 6-40.4 16.7S686 457.5 686 472.7V597h114z"/><path opacity=".3" fill="#AF1D3F" d="M970.5 594.6v-4c0-70.8-60-128.2-133.8-128.2-74 0-134 57.4-134 128.2 0 1.4 0 2.8.3 4h267.5z"/><path opacity=".6" fill="#875726" d="M1233.6 597v-1.6c0-27.5 22.3-49.8 49.8-49.8s49.8 22.3 49.8 49.8v1.6h-99.6z"/><path opacity=".3" fill="#AF1D3F" d="M1991.8 597l.2-4.2c0-73.6-59.6-133-133-133-73.7 0-133.2 59.4-133.2 133v4.2h266z"/><path opacity=".3" fill="#165265" d="M1569 597v-94c0-11.3-4.6-22.3-12.7-30.4-8-8-19-12.6-30.5-12.6-11.4 0-22.4 4.5-30.5 12.6-8 8-12.6 19-12.6 30.5v94h86.2z"/><path opacity=".6" fill="#875726" d="M1353.4 392v205H1523V392c0-22.4-9-44-24.8-60-16-16-37.5-24.8-60-24.8s-44 9-60 25-25 37.4-24.8 60zm52.7 16.5c0-18.6 15.2-33.6 33.7-33.6 18.6 0 33.6 15 33.6 33.5 0 18.6-15 33.6-33.6 33.6s-33.6-15-33.6-33.5z"/><path opacity=".7" fill="#524738" d="M1298.6 462.2V597H1404V462.3c0-14-5.6-27.4-15.4-37.3-10-9.8-23.3-15.4-37.3-15.4s-27.4 5.5-37.3 15.4-15.5 23.3-15.4 37.2zm32.8 10.3c0-11.5 9.3-20.8 20.8-20.8s20.8 9.3 20.8 20.8-9.3 20.8-20.8 20.8-21-9.4-20.8-20.8z"/><path fill="#524738" d="M1026 191c16-14.5 37.6-22.7 60-22.7s44.2 8.2 60 22.8 25 34.5 25 55v202c0 39.6 15.7 77.4 43.6 105.3 28 28 65.8 43.6 105.2 43.6h-318.4V246c0-20.5 9-40.3 24.8-55z" opacity=".5"/><path opacity=".3" fill="#165265" d="M1500 102c-3.7-3.7-8.7-5.7-14-5.7h-1.8v-3.6c0-12-4.7-23.3-13-31.7s-20-13-31.8-13c-12 0-23.3 4.6-31.7 13-4 4-7.3 8.8-9.5 14-5.3-4.8-12-7.4-19.2-7.4-7.6 0-14.8 3-20.2 8.4-5.3 5.4-8.3 12.6-8.3 20.2v2c-2.7-1.2-5.4-2-8.3-2-5.2 0-10.2 2.2-14 5.8-3.5 3.7-5.5 8.6-5.5 13.8v6.8h183.1v-6.8c0-5-2.3-10-6-13.8z"/><path opacity=".3" fill="#D9D5C1" d="M1341 110.2c-2.2-2.2-5.2-3.5-8.4-3.5h-1.2v-2.2c0-7.2-3-14-8-19.2-5-5-12-8-19-8-7.3 0-14.2 3-19.3 8-2.4 2.5-4.3 5.4-5.6 8.5-3.2-3-7.3-4.5-11.6-4.5-4.6 0-9 1.8-12.2 5-3.2 3.3-5 7.7-5 12.3v1.2c-1.7-.7-3.4-1-5-1-3.2 0-6.3 1-8.5 3.4-2 2.2-3.4 5.2-3.4 8.4v4h110.9v-4c0-3.2-1.3-6.2-3.5-8.4z"/><path opacity=".5" fill="#165265" d="M560.5 88.7V94h142.3v-5.3c0-4-1.5-7.8-4.4-10.7-2.8-2.8-6.7-4.5-10.7-4.5-2.3 0-4.5.6-6.5 1.5v-1.5c0-6-2.3-11.5-6.5-15.7-4-4.2-9.8-6.6-15.7-6.6-5.5 0-10.8 2-15 5.8-1.6-4-4-7.7-7.3-11-6.5-6.4-15.4-10-24.6-10-9.2 0-18 3.6-24.6 10-6.5 6.6-10 15.5-10 24.7v3c-.6-.2-1.2-.2-1.6-.2-4 0-8 1.6-10.7 4.5-2.7 3-4.4 6.7-4.5 10.7z"/><path opacity=".3" fill="#165265" d="M686 91v3H772v-3c0-2.6-1-5-2.7-6.7-1.7-1.7-4-2.7-6.5-2.7-1.3 0-2.6.3-4 1v-1c0-3.6-1.4-7-4-9.5-2.3-2.5-5.8-4-9.3-4-3.4 0-6.6 1.4-9 3.6-1-2.4-2.5-4.7-4.5-6.6-4-4-9.3-6-15-6-5.5 0-10.8 2-14.8 6s-6 9.3-6 15v1.7h-1c-2.6 0-5 1-6.6 2.6-1.7 1.8-2.7 4-2.6 6.6z"/><path fill="#AF1D3F" d="M1001.2 75.7c16.8-.5 31 12.6 31.4 29.4l-30.4 1-1-30.3z"/><path fill="#40301A" d="M977.8 100.8c.4 13.4 11.7 24 25 23.5 13.5-.4 24-11.7 23.6-25l-24.3.7-.7-24.3c-13.4.4-24 11.7-23.5 25z"/><path fill="none" stroke="#D9D5C1" stroke-width=".6" stroke-linecap="round" stroke-miterlimit="10" d="M998.7 86c0-2.7-2.4-4.8-5-4.7-2.8 0-5 2.4-4.8 5"/><circle fill="#D9D5C1" cx="993.8" cy="86.5" r="1.7"/><path fill="#FBD0AE" d="M1872.2 487.2c-10-14-29.7-17.2-43.8-7-.4.2-.8.5-1 .8l-6-1.2 2 4.7c-9.7 10.7-11 27.2-2 39.4 10 14 29.6 17 43.7 7 14-10 17.3-29.7 7.2-43.8z"/><path fill="#F5A10C" d="M1827.6 491.8c-2.4 1.7-3 5-1.2 7.4 1.7 2.4 5 3 7.4 1.2 2.4-1.7 3-5 1.2-7.4-1.7-2.4-5-3-7.4-1.2z"/><circle fill="#40301A" cx="1835.1" cy="483.8" r="1.5"/><path fill="none" stroke="#40301A" stroke-width=".5" stroke-linecap="round" stroke-miterlimit="10" d="M1836.2 488c2.4-.3 4-2.6 3.5-5-.4-2.4-2.7-4-5-3.5"/><circle fill="#40301A" cx="1811.1" cy="584.8" r="7.2"/><circle fill="#40301A" cx="1882.3" cy="584.8" r="7.2"/><path fill="#40301A" d="M1916.3 505.3c0-38.5-31.2-69.6-69.6-69.6v69.8H1777v.2c0 38.5 31.3 69.6 69.7 69.6 38.5 0 69.6-31.2 69.6-69.6v-.2-.2z"/><path fill="none" stroke="#40301A" stroke-width="2.9" stroke-linecap="round" stroke-miterlimit="10" d="M1778.6 507c0-10-8-18-18-18"/><g><path fill="none" stroke="#40301A" stroke-width="2" stroke-linecap="round" stroke-miterlimit="10" d="M150 544V379.6v217-223c0-3.8 3-6.8 7-6.8h18.8c3.8 0 6.8-3 6.8-6.8"/><path opacity=".3" fill="#165265" d="M117.3 374.8v-2c0-36 29.2-65.4 65.3-65.4 36 0 65.3 29.3 65.3 65.4v2H117.2z"/></g><g><circle opacity=".3" fill="#524738" cx="1851.8" cy="172.6" r="55.9"/><path opacity=".3" fill="#AF1D3F" d="M1737 246c20.8 0 37.7 17 37.7 37.8s-17 37.7-37.7 37.7c-20.8 0-37.7-17-37.7-37.7 0-20.8 16.8-37.7 37.7-37.7z"/><circle opacity=".3" fill="#AF1D3F" cx="1737" cy="283.8" r="27.3"/><path fill="none" stroke="#40301A" stroke-width="2" stroke-linecap="round" stroke-miterlimit="10" d="M1820 597V210.3v193.4-200c0-4 3.3-7.2 7.3-7.2h24c4 0 7.2-3.2 7.2-7.2"/><path fill="none" stroke="#40301A" stroke-width="2" stroke-linecap="round" stroke-linejoin="round" stroke-miterlimit="10" d="M1809.4 314.8V597 304c0-6.3-5.2-11.6-11.7-11.6H1748c-6.6 0-11.8-5.2-11.8-11.7"/></g><g><g fill="#FBD0AE"><path d="M1672 546.8h17.8V592h-18zM1651.3 546.8h18V592h-18z"/></g><path fill="#AF1D3F" d="M1697 543.6v-52.8c0-7-2.7-13.8-7.7-18.8s-11.7-7.8-18.8-7.8c-7 0-13.8 2.8-18.8 7.8s-7.8 11.7-7.8 18.8v52.8h53z"/><path fill="#FBD0AE" d="M1758.7 501.4c-24.4 4-49-3.3-67.3-19.7l12-13.3c14.3 13 33.4 18.5 52.4 15.4l3 17.6zM1647.7 486.4c-15 19.7-37.5 31.5-62.2 32.3l-.6-18c19-.5 36.8-9.7 48.4-25l14.3 10.7zM1760 417l13 1-8.2-13 1-3.6c11.4-42.6-14-86.4-56.4-97.8-42.6-11.4-86.4 14-97.8 56.4-11.4 42.6 14 86.4 56.4 97.8 37 10 75-8 92-40.8z"/><circle fill="#F5A10C" cx="1725.6" cy="410.5" r="13.6"/><circle fill="#40301A" cx="1751" cy="388.8" r="3.9"/><path fill="none" stroke="#40301A" stroke-width="1.6" stroke-linecap="round" stroke-miterlimit="10" d="M1740 390c-1.2-6 2.8-11.7 8.8-12.8 6-1 11.8 3 13 9"/><path fill="#40301A" d="M1640 316.7c-14.4 11.3-25.2 27.7-29 47-1.3 6-1.8 11.6-1.7 17.3 15.4-8 27.2-22.4 31-40.6 1.5-8 1.4-16-.2-23.7z"/><path fill="#40301A" d="M1616.6 345.7c13.6 14.6 31.8 25.2 52.8 29.5 34.7 7 69-4.8 91.8-28.5-10.4-22.2-30.7-39.3-56.5-44.6-36.7-7.4-72.6 11.5-88 43.7z"/><circle fill="#40301A" cx="1672.7" cy="291.9" r="26.6"/></g><g><g fill="#40301A"><path d="M1479.7 546.8h18V592h-18zM1501 546.8h18V592h-18z"/></g><path fill="#165265" d="M1525.8 543.6v-52.8c0-7-2.8-13.8-7.8-18.8s-11.7-7.8-18.8-7.8c-7 0-13.8 2.8-18.8 7.8s-7.8 11.7-7.8 18.8v52.8h53.2z"/><path fill="#278B85" d="M1581 518.5c-24.6-2.4-46.4-15.6-60-36.3l15-9.8c10.6 16 27.6 26.4 46.7 28.3l-1.7 17.8zM1440.2 535.6c-2.8-24.5 5.5-48.7 22.8-66.3l12.8 12.6c-13.5 13.6-20 32.5-17.8 51.6l-17.8 2z"/><circle fill="#FBD0AE" cx="1499.5" cy="377.5" r="80"/><path fill="none" stroke="#40301A" stroke-width="1.6" stroke-linecap="round" stroke-miterlimit="10" d="M1515.2 380c3-3 8-3 10.8 0M1473 380c3-3 7.8-3 10.7 0"/><g fill="#40301A"><circle cx="1520.6" cy="385.8" r="3.9"/><circle cx="1478.3" cy="385.8" r="3.9"/></g><path fill="none" stroke="#40301A" stroke-width="1.6" stroke-linecap="round" stroke-miterlimit="10" d="M1510.8 395c-2.5 2-6.3 3.3-10.2 3.5h-2c-4-.2-8-1.5-10.3-3.5"/><g fill="#F5A10C"><path d="M1555.4 396.7c0 7.5-6 13.6-13.6 13.6s-13.6-6-13.6-13.6 6-13.6 13.6-13.6 13.6 6.2 13.6 13.7zM1470.7 396.7c0 7.5-6 13.6-13.6 13.6s-13.5-6-13.5-13.6 6-13.6 13.6-13.6 13.7 6.2 13.7 13.7z"/></g><g fill="#40301A"><path d="M1543 310.3c-.7 4-1 8.2-1 12.5 0 28.3 14.5 53 36.7 67.4.6-4 1-8.2 1-12.5 0-28.3-14.6-53-36.8-67.4zM1456 310.3c.7 4 1 8.2 1 12.5 0 28.3-14.5 53-36.7 67.4-.6-4-1-8.2-1-12.5 0-28.3 14.6-53 36.8-67.4z"/><path d="M1499.5 354.6c25.2 0 49.4-4.5 71.8-12.7-13-26.4-40.4-44.5-71.8-44.5s-58.6 18-71.8 44.4c22.4 8 46.6 12.6 71.8 12.6z"/></g><path fill="#40301A" d="M1519.8 402.4c-4.3-6.7-12-11.2-20.5-11.2-8.6 0-16.2 4.5-20.5 11.2h41z"/></g><g><path fill="#40301A" d="M991.6 475.6c-6.8 0-12.3 5.5-12.3 12.3v4.4h5V520c0 5.4 4.3 9.8 9.7 9.8 5.5 0 10-4.4 10-10V488c0-7-5.6-12.4-12.4-12.4z"/><g fill="#40301A"><circle cx="1000.9" cy="586" r="6"/><circle cx="1060.4" cy="586" r="6"/></g><path fill="#524738" d="M1075.4 513.5c0-2.6-2-4.7-4.6-4.7-2.6 0-4.7 2-4.7 4.7 0 1.8 1.2 3.4 2.7 4V574h-78.2c-1 0-2 1-2 2 0 1.2 1 2.2 2 2.2h82.3v-60.6c1.5-.7 2.6-2.3 2.6-4z"/><path fill="#155266" d="M1032.8 540.5c0 17-7.7 32.8-21 43.4l-7.7-9.7c10.5-8.3 16.4-20.6 16.4-33.8h12.4z"/><path fill="#155266" d="M1027 540.5h12.2v31H1027z"/><path fill="#278B85" d="M1044.7 537.3V502c0-5-2-9.6-5.4-13-3.4-3.4-8-5.3-13-5.3-4.7 0-9.4 2-12.8 5.3-3.4 3.4-5.3 8-5.3 13v35.3h36.5z"/><path fill="#FFD1AD" d="M1021.5 498c10.5 13.4 26.3 21 43.3 21.2V507c-13-.2-25.4-6.2-33.6-16.6l-9.7 7.7zM1072.8 394.4l5-7.5-10.4.3c-10-11.2-24.7-18.3-41-18.3-30.4 0-55 24.6-55 55s24.6 55 55 55 55-24.6 55-55c0-11-3-21-8.6-29.6z"/><path fill="#AF1D3F" d="M971.4 424c0 10.2 2.8 19.7 7.6 28 33.2-6.3 58.4-35.5 58.4-70.5 0-4-.3-7.8-1-11.6-3.2-.7-6.6-1-10-1-30.4 0-55 24.6-55 55z"/><path fill="#AF1D3F" d="M1012.6 368.6c0 14.2 9.6 26.3 22.7 30 1.4-5.5 2-11.3 2-17 0-14.3-4-27.6-11.2-38.7-8 5.5-13.4 15-13.4 25.6z"/><circle fill="#F7A100" cx="1057" cy="412.5" r="9.3"/><circle fill="#40301A" cx="1053" cy="389.9" r="2.7"/><path fill="none" stroke="#40301A" stroke-width="1.1" stroke-linecap="round" stroke-miterlimit="10" d="M1050 397c-4-1.5-6-6-4.6-9.8 1.5-4 5.8-6 9.8-4.5"/></g><g><g fill="#40301A"><circle cx="377.5" cy="471.9" r="6"/><circle cx="352.6" cy="417.9" r="6"/></g><path fill="none" stroke="#524738" stroke-width="4.1" stroke-linecap="round" stroke-miterlimit="10" d="M357.2 404.4l33.6 72.8"/><path fill="#FFD1AD" d="M408.3 435c-9 9.7-13.3 22.7-11.5 35.8l-12.2 1.7c-2.3-16.8 3-33.6 14.7-46l9 8.5z"/><path fill="#FFD1AD" d="M378 438.4l-5-11.2 28-13 5.2 11.2z"/><path fill="#40301A" d="M403 444l-12.6-27.6 22-10 12.6 27.4z"/><path fill="#155266" d="M417 441.2l32-15c4.4-2 7.8-5.6 9.5-10 1.7-4.7 1.5-9.7-.5-14-2-4.5-5.7-8-10.3-9.6-4.5-1.7-9.5-1.5-14 .6l-32 14.8 15.2 33.2z"/><path fill="#FFD1AD" d="M462 426.7c1.3 13.2 8.2 25 19.2 32.4l-7 10.3c-14-9.5-23-24.6-24.3-41.5l12-1zM444.8 385c-5.3-12.2-5-26 1.2-37.6l-11-5.7c-7.7 15-8.3 32.6-1.5 48.2l11.3-5z"/><path fill="#40301A" stroke="#40301A" stroke-width=".299994" stroke-miterlimit="10" d="M496.8 445l-46-100 40-18.5 46 100z"/><circle fill="#FFD1AD" cx="512.1" cy="377.1" r="55"/><g fill="none" stroke="#40301A" stroke-width="1.1" stroke-linecap="round" stroke-miterlimit="10"><path d="M503 361.2c2.8 1 4.2 4 3.2 6.8M515.2 387.6c2.7 1 4 4 3 6.8"/></g><g fill="#40301A"><circle cx="500.9" cy="366.3" r="2.7"/><circle cx="513" cy="392.7" r="2.7"/></g><path fill="none" stroke="#40301A" stroke-width="1.1" stroke-linecap="round" stroke-miterlimit="10" d="M504.5 389.2c-2-1-3.8-3-5-5.4l-.7-1.3c-1-2.5-1.3-5.3-.8-7.4"/><g fill="#F7A100"><path d="M496.5 352.3c2 4.7 0 10.2-4.6 12.4-4.8 2.2-10.4 0-12.5-4.6-2.2-4.6 0-10 4.6-12.3 4.7-2.2 10.3 0 12.5 4.6z"/><circle cx="512.4" cy="409.1" r="9.4"/></g><path fill="#40301A" stroke="#40301A" stroke-width=".3" stroke-miterlimit="10" d="M542 423.4c22.7-14.6 31.7-44 20-69.3-11.5-25-39.8-37.3-65.6-29.6 4 16.3 10.2 33.8 18.3 51.4 8.2 17.7 17.5 33.8 27.3 47.6z"/><g><path fill="#AF1D3F" d="M490 458.2l1.6 21-32 2.6-1.5-21z"/><path fill="#FFF" d="M483.8 469.2c.2 2.4-1.6 4.6-4 4.8-2.5.2-4.7-1.7-5-4 0-2.6 1.8-4.7 4.2-5 2.5 0 4.6 1.7 4.8 4.2z"/></g><path fill="#AAA797" d="M472.7 313.8c-9.6 4.4-13.7 15.7-9.3 25.3l33-15c27.4-12.6 60-.5 72.6 27 12.7 27.4.7 60-26.6 72.8l-33 15.2c4.4 9.5 15.7 13.7 25.2 9.3 7.2-3.3 11.3-10.5 11-18 15-7 26.3-19.2 32-34.7 5.8-15.7 5-32.6-1.8-47.8-7-15-19.5-26.6-35-32.4-15.6-5.7-32.4-5-47.4 1.6-5.4-5-13.6-6.4-20.7-3.2z"/></g><path opacity=".3" fill="#AF1D3F" d="M1189.2 596.7v.3h-38V418.6c0-5.3 2-10.4 5.6-14 3.6-4 8.4-6 13.4-6s10 2 13.5 6c3.6 3.6 5.5 8.7 5.5 14v2.3c0 46.5 18.6 91.2 51.6 124 33 33 77.8 51.7 124.4 51.7h-176z"/></svg>