<?xml version="1.0" encoding="utf-8"?>
<!-- Generator: Adobe Illustrator 18.1.1, SVG Export Plug-In . SVG Version: 6.00 Build 0)  -->
<svg version="1.1" id="Ebene_1" xmlns="http://www.w3.org/2000/svg" xmlns:xlink="http://www.w3.org/1999/xlink" x="0px" y="0px"
	 viewBox="0 0 1024 286.8" enable-background="new 0 0 1024 286.8" xml:space="preserve">
<g id="headerimage_Ref">
	<defs>
		<rect id="SVGID_3_" y="0" width="1024" height="286.8"/>
	</defs>
	<clipPath id="SVGID_1_">
		<use xlink:href="#SVGID_3_"  overflow="visible"/>
	</clipPath>
	<g clip-path="url(#SVGID_1_)">
		<g>
			<path fill="#D8D5C1" d="M143.2,144.4C65.8,144.4,3,207.2,3,284.6c0,1.5,0,3,0.1,4.5h63.8c0-12.2,0-52.1,0-52.3
				c0-11.3,9.2-20.5,20.5-20.5c11.3,0,20.5,9.2,20.5,20.5c0,0.2,0,40.1,0,52.3h16.7c0-12.2,0-52.1,0-52.3c0-11.3,9.2-20.5,20.5-20.5
				c11.3,0,20.5,9.2,20.5,20.5c0,0.2,0,40.1,0,52.3H182c0-12.2,0-52.1,0-52.3c0-11.3,9.2-20.5,20.5-20.5c11.3,0,20.5,9.2,20.5,20.5
				c0,0.2,0,40.1,0,52.3h60.5c0-1.5,0.1-3,0.1-4.5C283.5,207.2,220.7,144.4,143.2,144.4z"/>
			<g>
				<path opacity="0.5" fill="#5C8794" d="M697.2,151.9c-73.4,0-132.9,59.5-132.9,132.9c0,1.4,0,2.8,0.1,4.2h27.7
					c0-1.1-0.1-2.2-0.1-3.3c0-58.1,47.1-105.2,105.2-105.2c58.1,0,105.2,47.1,105.2,105.2c0,1.1,0,2.2-0.1,3.3H830
					c0-1.4,0.1-2.8,0.1-4.2C830.1,211.4,770.6,151.9,697.2,151.9z"/>
				<path opacity="0.29" fill="#02653C" d="M697.2,180.5c-58.1,0-105.2,47.1-105.2,105.2c0,1.1,0,2.2,0.1,3.3h21.6
					c0-0.9,0-1.8,0-2.7c0-46.1,37.4-83.6,83.6-83.6c46.2,0,83.6,37.4,83.6,83.6c0,0.9,0,1.8,0,2.7h21.6c0-1.1,0.1-2.2,0.1-3.3
					C802.4,227.6,755.3,180.5,697.2,180.5z"/>
				<path opacity="0.35" fill="#F6A10B" d="M697.2,202.9c-46.1,0-83.6,37.4-83.6,83.6c0,0.9,0,1.8,0,2.7h22.7c0-0.7,0-1.3,0-2
					c0-34.8,28.2-63,63-63c34.8,0,63,28.2,63,63c0,0.7,0,1.3,0,2h18.4c0-0.9,0-1.8,0-2.7C780.8,240.3,743.4,202.9,697.2,202.9z"/>
				<path opacity="0.41" fill="#885827" d="M105.3,142.5v-13.4c10.9-1.6,19.3-11,19.3-22.4c0-0.2,0-0.5,0-0.7h-19.3V77.5
					c0-8.6-3.4-16.8-9.5-22.8c-6.1-6.1-14.3-9.5-22.8-9.5s-16.8,3.4-22.8,9.5C44,60.7,40.6,69,40.6,77.5v211.5h16.6v-91.9
					c0-5.2,2.1-10.2,5.8-13.9c3.7-3.7,8.7-5.8,13.9-5.8c5.2,0,10.2,2.1,13.9,5.8c3.7,3.7,5.8,8.7,5.8,13.9v91.9h8.6V165.6
					c10.9-1.6,19.3-11,19.3-22.4c0-0.2,0-0.5,0-0.7H105.3z M72.9,152.7c-5.4,0-9.8-4.4-9.8-9.8c0-5.4,4.4-9.8,9.8-9.8
					c5.4,0,9.8,4.4,9.8,9.8C82.7,148.3,78.4,152.7,72.9,152.7z M72.9,118.5c-5.4,0-9.8-4.4-9.8-9.8c0-5.4,4.4-9.8,9.8-9.8
					c5.4,0,9.8,4.4,9.8,9.8C82.7,114.2,78.4,118.5,72.9,118.5z M72.9,84.4c-5.4,0-9.8-4.4-9.8-9.8c0-5.4,4.4-9.8,9.8-9.8
					c5.4,0,9.8,4.4,9.8,9.8C82.7,80,78.4,84.4,72.9,84.4z"/>
				<path opacity="0.41" fill="#D8D5C1" d="M368.7,25.2c-4-4-9.5-6.3-15.1-6.3c-5.7,0-11.1,2.3-15.1,6.3c-4,4-6.3,9.5-6.3,15.1
					v248.7H375V40.3C375,34.7,372.7,29.2,368.7,25.2z M353.6,145.8c-3.5,0-6.4-2.9-6.4-6.4s2.9-6.4,6.4-6.4c3.5,0,6.4,2.9,6.4,6.4
					S357.1,145.8,353.6,145.8z M353.6,123c-3.5,0-6.4-2.9-6.4-6.4c0-3.5,2.9-6.4,6.4-6.4c3.5,0,6.4,2.9,6.4,6.4
					C360,120.2,357.1,123,353.6,123z M353.6,100.3c-3.5,0-6.4-2.9-6.4-6.4c0-3.5,2.9-6.4,6.4-6.4c3.5,0,6.4,2.9,6.4,6.4
					C360,97.4,357.1,100.3,353.6,100.3z M353.6,77.6c-3.5,0-6.4-2.9-6.4-6.4c0-3.5,2.9-6.4,6.4-6.4c3.5,0,6.4,2.9,6.4,6.4
					C360,74.7,357.1,77.6,353.6,77.6z M353.6,54.8c-3.5,0-6.4-2.9-6.4-6.4c0-3.5,2.9-6.4,6.4-6.4c3.5,0,6.4,2.9,6.4,6.4
					C360,52,357.1,54.8,353.6,54.8z"/>
				<path opacity="0.41" fill="#D8D5C1" d="M400.1,289.1V187.4c0-7.7,3.1-15.1,8.5-20.6c5.5-5.5,12.9-8.5,20.6-8.5
					c7.7,0,15.1,3.1,20.6,8.5c5.5,5.5,8.5,12.9,8.5,20.6v101.7H400.1z"/>
				<path opacity="0.41" fill="#D8D5C1" d="M348.2,289.1v-70.4c0-10.8,4.3-21.2,12-28.9c7.7-7.7,18-12,28.9-12
					c10.8,0,21.2,4.3,28.9,12c7.7,7.7,12,18,12,28.9v70.4H348.2z"/>
				<path opacity="0.25" fill="#006B81" d="M836.5,101.4c-49.2,0-93.8,19.5-126.5,51.2c67.4,6.5,120.1,63.2,120.1,132.3
					c0,1.3,0,2.9-0.1,4.2h188.3c0.1-1.9,0.1-3.8,0.1-5.8C1018.5,182.8,937,101.4,836.5,101.4z"/>
				<g>
					<g>
						<path opacity="0.3" fill="#2A8C86" d="M159.1,55.2c1.3-1.3,3.1-2.1,5-2.1c0.2,0,0.5,0,0.7,0v-1.4c0-4.3,1.7-8.4,4.7-11.4
							c3-3,7.2-4.7,11.4-4.7c4.3,0,8.4,1.7,11.4,4.7c1.5,1.5,2.6,3.2,3.4,5.1c1.9-1.7,4.4-2.7,7-2.7c2.7,0,5.4,1.1,7.3,3
							c1.9,1.9,3,4.6,3,7.3v0.7c0.9-0.4,2-0.7,3-0.7c1.9,0,3.7,0.7,5,2.1c1.3,1.3,2.1,3.1,2.1,5v2.5h-10.1h-4.1h-11.9h-4.7h-21.3
							h-6.4H157v-2.5C157,58.3,157.8,56.5,159.1,55.2z"/>
						<path opacity="0.3" fill="#2A8C86" d="M138.3,58.2c0.8-0.8,1.9-1.3,3-1.3c0.1,0,0.3,0,0.4,0v-0.8c0-2.6,1-5.1,2.9-6.9
							c1.8-1.8,4.3-2.9,6.9-2.9c2.6,0,5.1,1,6.9,2.9c0.9,0.9,1.6,1.9,2.1,3.1c1.1-1,2.6-1.6,4.2-1.6c1.7,0,3.2,0.7,4.4,1.8
							c1.2,1.2,1.8,2.8,1.8,4.4v0.4c0.6-0.3,1.2-0.4,1.8-0.4c1.1,0,2.2,0.5,3,1.3c0.8,0.8,1.3,1.9,1.3,3v1.5H171h-2.5h-7.2h-2.8
							h-12.9h-3.9H137v-1.5C137,60.1,137.5,59,138.3,58.2z"/>
					</g>
					<g opacity="0.3">
						<path fill="#8CBEAC" d="M715.1,53.9c-1.6-1.6-3.7-2.4-5.9-2.4c-0.3,0-0.5,0-0.8,0V50c0-5-2-9.9-5.6-13.4
							c-3.6-3.6-8.4-5.6-13.4-5.6c-5,0-9.9,2-13.4,5.6c-1.7,1.7-3.1,3.7-4,5.9c-2.2-2-5.1-3.1-8.1-3.1c-3.2,0-6.3,1.3-8.6,3.5
							c-2.3,2.3-3.5,5.4-3.5,8.6v0.8c-1.1-0.5-2.3-0.8-3.5-0.8c-2.2,0-4.3,0.9-5.9,2.4c-1.6,1.6-2.4,3.7-2.4,5.9v2.9h11.8h4.8h14
							h5.5h25h7.5h9.1v-2.9C717.5,57.6,716.7,55.5,715.1,53.9z"/>
					</g>
					<path opacity="0.3" fill="#2A8C86" d="M552.9,48.2c2.6-2.6,6.1-4,9.7-4c0.4,0,0.9,0,1.3,0.1v-2.6c0-8.3,3.3-16.3,9.2-22.2
						c5.9-5.9,13.9-9.2,22.2-9.2c8.3,0,16.3,3.3,22.2,9.2c2.9,2.9,5.1,6.2,6.7,9.8c3.7-3.3,8.5-5.2,13.5-5.2
						c5.3,0,10.4,2.1,14.2,5.9c3.8,3.8,5.9,8.9,5.9,14.2v1.4c1.8-0.8,3.8-1.3,5.8-1.3c3.6,0,7.1,1.4,9.7,4c2.6,2.6,4,6.1,4,9.7v4.8
						h-19.5h-7.9h-23.1h-9.1h-41.3H564h-15v-4.8C548.9,54.3,550.4,50.8,552.9,48.2z"/>
					<path fill="#D8D5C1" d="M451.2,57.4c-0.9-0.9-2.2-1.5-3.6-1.5c-0.2,0-0.3,0-0.5,0v-1c0-3.1-1.2-6-3.4-8.1
						c-2.2-2.2-5.1-3.4-8.1-3.4c-3.1,0-6,1.2-8.1,3.4c-1,1-1.9,2.3-2.4,3.6c-1.4-1.2-3.1-1.9-4.9-1.9c-2,0-3.8,0.8-5.2,2.2
						c-1.4,1.4-2.2,3.2-2.2,5.2v0.5c-0.7-0.3-1.4-0.5-2.1-0.5c-1.3,0-2.6,0.5-3.6,1.5c-0.9,0.9-1.5,2.2-1.5,3.6v1.8h7.2h2.9h8.5h3.3
						h15.1h4.5h5.5v-1.8C452.7,59.6,452.1,58.3,451.2,57.4z"/>
				</g>
				<g>
					<g>
						
							<line fill="none" stroke="#41311B" stroke-width="1.8736" stroke-linecap="round" stroke-miterlimit="10" x1="36" y1="157" x2="36" y2="283.7"/>
						<polygon fill="#41311B" points="43.9,151.8 28.2,151.8 28.2,186.5 34.9,186.5 34.9,226.9 37.1,226.9 37.1,186.5 43.9,186.5 
													"/>
						<circle fill="#138C38" cx="36" cy="172.9" r="4.6"/>
						<circle fill="#FFFFFF" cx="36" cy="160.9" r="4.6"/>
					</g>
					<path fill="#41311B" d="M45.7,289.1c0-5.3-4.3-9.7-9.7-9.7c-5.3,0-9.7,4.3-9.7,9.7H45.7z"/>
				</g>
			</g>
		</g>
		<g>
			<g>
				<path fill="#C04528" d="M112.7,95c4.2-0.1,7.7,3.1,7.8,7.3l-7.5,0.2L112.7,95z"/>
				<path fill="#185366" d="M106.9,101.2c0.1,3.3,2.9,5.9,6.2,5.8c3.3-0.1,5.9-2.9,5.8-6.2l-6,0.2l-0.2-6
					C109.4,95.1,106.8,97.9,106.9,101.2z"/>
				<path fill="none" stroke="#D9D5C2" stroke-width="0.2913" stroke-linecap="round" stroke-miterlimit="10" d="M112.1,97.5
					c0-0.7-0.6-1.2-1.3-1.2c-0.7,0-1.2,0.6-1.2,1.3"/>
				<circle fill="#D9D5C2" cx="110.9" cy="97.6" r="0.4"/>
			</g>
		</g>
		<g>
			<g>
				<path fill="#F6A211" d="M118,131.9c4.2-0.1,7.7,3.1,7.8,7.3l-7.5,0.2L118,131.9z"/>
				<path fill="#C04528" d="M112.2,138.1c0.1,3.3,2.9,5.9,6.2,5.8c3.3-0.1,5.9-2.9,5.8-6.2l-6,0.2l-0.2-6
					C114.7,132,112.1,134.8,112.2,138.1z"/>
				<path fill="none" stroke="#D9D5C2" stroke-width="0.2913" stroke-linecap="round" stroke-miterlimit="10" d="M117.4,134.4
					c0-0.7-0.6-1.2-1.3-1.2c-0.7,0-1.2,0.6-1.2,1.3"/>
				<circle fill="#D9D5C2" cx="116.1" cy="134.6" r="0.4"/>
			</g>
		</g>
		<g>
			<g>
				<path fill="#F6A10B" d="M91.8,44c3.8,1.7,5.5,6.2,3.8,10l-6.9-3.1L91.8,44z"/>
				<path fill="#272114" d="M83.9,47.1c-1.4,3,0,6.6,3,8c3,1.4,6.6,0,8-3l-5.5-2.5l2.5-5.5C88.8,42.7,85.3,44.1,83.9,47.1z"/>
				<path fill="none" stroke="#D9D5C2" stroke-width="0.2913" stroke-linecap="round" stroke-miterlimit="10" d="M90.1,46.1
					c0.3-0.6,0-1.3-0.6-1.6c-0.6-0.3-1.3,0-1.6,0.6"/>
				<circle fill="#D9D5C2" cx="89" cy="45.6" r="0.4"/>
			</g>
		</g>
	</g>
	<path clip-path="url(#SVGID_1_)" fill="#D8D5C1" d="M433.3,289.1c-19.5-33.3-55.6-55.6-96.9-55.6c-41.3,0-77.4,22.3-96.9,55.6
		H433.3z"/>
	<path clip-path="url(#SVGID_1_)" fill="#AAA797" d="M297.9,289.1c0-0.3,0-34.5,0-34.8c0-17.8-14.4-32.2-32.2-32.2
		c-17.8,0-32.2,14.4-32.2,32.2c0,0.3,0,34.5,0,34.8H297.9z"/>
	<path clip-path="url(#SVGID_1_)" fill="#AAA797" d="M194.9,289.1c0-0.3,0-50,0-50.2c0-13.8-11.2-24.9-24.9-24.9
		c-13.8,0-24.9,11.2-24.9,24.9c0,0.3,0,50,0,50.2H194.9z"/>
	<path opacity="0.3" clip-path="url(#SVGID_1_)" fill="#41311B" enable-background="new    " d="M320.7,188.3
		c-6-6-14.3-9.5-22.8-9.5c-8.6,0-16.8,3.4-22.8,9.5c-6,6-9.5,14.3-9.5,22.8v77.9h64.6v-77.9C330.2,202.6,326.8,194.3,320.7,188.3z"
		/>
	<path opacity="0.3" clip-path="url(#SVGID_1_)" fill="#41311B" enable-background="new    " d="M161.7,201.3
		c-5.3-5.3-12.4-8.3-19.9-8.3c-7.5,0-14.6,3-19.9,8.3c-5.3,5.3-8.3,12.4-8.3,19.9v67.9H170v-67.9C170,213.7,167,206.5,161.7,201.3z"
		/>
	<g clip-path="url(#SVGID_1_)">
		<g>
			<rect x="470.2" y="264.7" fill="#175367" width="8.7" height="22.1"/>
			<rect x="480.6" y="264.7" fill="#175367" width="8.7" height="22.1"/>
		</g>
		<path fill="#C04528" d="M492.7,262.8v-25.4c0-3.4-1.4-6.7-3.8-9.2c-2.4-2.4-5.7-3.8-9.2-3.8c-3.4,0-6.7,1.4-9.2,3.8
			c-2.4,2.4-3.8,5.7-3.8,9.2v25.4H492.7z"/>
		<circle fill="#A07B54" cx="479.9" cy="182.1" r="39"/>
		<g>
			<path fill="#272114" d="M492.8,183.6c-0.1,0-0.2,0-0.3-0.1c-0.6-0.6-1.4-1-2.3-1c-0.9,0-1.8,0.3-2.4,1c-0.2,0.2-0.4,0.2-0.6,0
				c-0.2-0.2-0.2-0.4,0-0.6c0.8-0.8,1.8-1.2,2.9-1.2c0,0,0,0,0,0c1.1,0,2.1,0.4,2.9,1.2c0.2,0.2,0.1,0.4,0,0.6
				C493,183.6,492.9,183.6,492.8,183.6z"/>
			<path fill="#272114" d="M472.1,183.6c-0.1,0-0.2,0-0.3-0.1c-0.6-0.6-1.4-1-2.3-1c-0.9,0-1.8,0.3-2.4,1c-0.2,0.2-0.4,0.2-0.6,0
				c-0.2-0.2-0.2-0.4,0-0.6c0.8-0.8,1.8-1.2,2.9-1.2c0,0,0,0,0,0c1.1,0,2.1,0.4,2.9,1.2c0.1,0.2,0.1,0.4,0,0.6
				C472.3,183.6,472.2,183.6,472.1,183.6z"/>
			<g>
				<circle fill="#272114" cx="490.2" cy="186.1" r="1.9"/>
				<circle fill="#272114" cx="469.5" cy="186.1" r="1.9"/>
			</g>
		</g>
		<g>
			<path fill="#C04528" d="M507.1,191.5c0,3.7-3,6.6-6.6,6.6s-6.6-3-6.6-6.6s3-6.6,6.6-6.6S507.1,187.8,507.1,191.5z"/>
			<path fill="#C04528" d="M465.8,191.5c0,3.7-3,6.6-6.6,6.6c-3.7,0-6.6-3-6.6-6.6s3-6.6,6.6-6.6
				C462.8,184.8,465.8,187.8,465.8,191.5z"/>
		</g>
		<g>
			<path fill="#272114" d="M479.9,170.9c12.3,0,24.1-2.2,35-6.2c-6.4-12.8-19.7-21.7-35-21.7c-15.3,0-28.6,8.8-35,21.7
				C455.7,168.7,467.6,170.9,479.9,170.9z"/>
		</g>
		<path fill="#272114" d="M479.8,199.1c3.7,0,7.2-0.7,10.5-1.8c-1.9-3.8-5.9-6.5-10.5-6.5c-4.6,0-8.6,2.6-10.5,6.5
			C472.6,198.5,476.2,199.1,479.8,199.1z"/>
		<g>
			<path fill="#64141B" d="M448.5,257.8c0.4-12,6.1-23.1,15.8-30.4l5.3,7c-7.5,5.6-12,14.3-12.3,23.7L448.5,257.8z"/>
			<path fill="#A07B54" d="M454.5,238c-3.7,5.9-5.8,12.7-6.1,19.8l8.7,0.3c0.2-5.7,1.9-11.2,5-15.9L454.5,238z"/>
		</g>
		<g>
			<path fill="#64141B" d="M497.5,257.6c3.4-8.7,2.8-18.5-1.9-26.6l7.6-4.3c5.9,10.5,6.8,22.9,2.4,34.1L497.5,257.6z"/>
			<path fill="#A07B54" d="M507.9,240.2c1.1,6.9,0.3,13.9-2.3,20.6l-8.1-3.2c2.1-5.3,2.7-11,1.7-16.5L507.9,240.2z"/>
		</g>
	</g>
	<g clip-path="url(#SVGID_1_)">
		<circle fill="#41311B" cx="712.7" cy="195.2" r="19.8"/>
		<circle fill="#A07B54" cx="676.6" cy="182.1" r="39"/>
		<path fill="#41311B" d="M669.7,143.6c0.1,21.5,17.5,38.9,39,38.9c2.3,0,4.6-0.2,6.8-0.6c-0.1-21.5-17.5-38.9-39-38.9
			C674.2,143,672,143.3,669.7,143.6z"/>
		<path fill="#41311B" d="M637.7,179c2.9,0.7,6,1.1,9.1,1.1c20.5,0,37.4-15.9,38.9-36c-2.9-0.7-6-1.1-9.1-1.1
			C656,143,639.2,158.9,637.7,179z"/>
		<path fill="none" stroke="#41311B" stroke-width="0.7809" stroke-linecap="round" stroke-miterlimit="10" d="M684.2,183.3
			c1.5-1.5,3.9-1.5,5.3,0"/>
		<path fill="none" stroke="#41311B" stroke-width="0.7809" stroke-linecap="round" stroke-miterlimit="10" d="M663.6,183.3
			c1.5-1.5,3.9-1.5,5.3,0"/>
		<g>
			<circle fill="#41311B" cx="686.9" cy="186.1" r="1.9"/>
			<circle fill="#41311B" cx="666.2" cy="186.1" r="1.9"/>
		</g>
		<path fill="none" stroke="#41311B" stroke-width="0.7809" stroke-linecap="round" stroke-miterlimit="10" d="M682.1,190.6
			c-1.2,1-3.1,1.6-5,1.7h-1c-2-0.1-3.8-0.7-5-1.7"/>
		<g>
			<path fill="#DF9A6F" d="M703.9,191.5c0,3.7-3,6.6-6.6,6.6s-6.6-3-6.6-6.6s3-6.6,6.6-6.6S703.9,187.8,703.9,191.5z"/>
			<path fill="#DF9A6F" d="M662.5,191.5c0,3.7-3,6.6-6.6,6.6c-3.7,0-6.6-3-6.6-6.6s3-6.6,6.6-6.6
				C659.5,184.8,662.5,187.8,662.5,191.5z"/>
		</g>
		<g>
			<rect x="666.6" y="264.7" fill="#A07B54" width="8.7" height="22.1"/>
			<rect x="677" y="264.7" fill="#A07B54" width="8.7" height="22.1"/>
		</g>
		<path fill="#F08312" d="M689.1,277.9v-40.5c0-3.4-1.4-6.7-3.8-9.2c-2.4-2.4-5.7-3.8-9.2-3.8c-3.4,0-6.7,1.4-9.2,3.8
			c-2.4,2.4-3.8,5.7-3.8,9.2v40.5H689.1z"/>
		<path fill="#138C38" d="M654.8,259.9c-6.5-10.1-8-22.5-4.2-34l8.3,2.8c-3,8.9-1.8,18.6,3.3,26.5L654.8,259.9z"/>
		<path fill="#A07B54" d="M648.6,240.1c0.3,6.9,2.4,13.7,6.2,19.8l7.4-4.7c-3.1-4.8-4.7-10.3-4.9-15.9L648.6,240.1z"/>
		<g>
			<path fill="#138C38" d="M718.9,248.4c-11.8-2.5-21.7-10.1-27.2-20.8l7.8-4c4.3,8.4,12,14.3,21.2,16.2L718.9,248.4z"/>
			<path fill="#A07B54" d="M700.4,239c5.1,4.7,11.5,7.9,18.5,9.4l1.8-8.6c-5.6-1.2-10.7-3.9-14.7-7.7L700.4,239z"/>
		</g>
		<g>
			<g>
				<path fill="#A07B54" d="M689,229.7c-4.9-6.8-14.5-8.4-21.4-3.5c-0.2,0.1-0.4,0.3-0.5,0.4l-2.9-0.6l1.1,2.3
					c-4.8,5.2-5.4,13.3-1.1,19.2c4.9,6.9,14.5,8.4,21.4,3.5C692.4,246.2,694,236.6,689,229.7z"/>
				<path fill="#41311B" d="M680.6,223.9c-1.4,3-2.1,6.3-2.1,9.8c0,6.8,2.9,12.9,7.4,17.2c6.6-5,8-14.4,3.1-21.1
					C686.9,226.7,683.9,224.8,680.6,223.9z"/>
				<path fill="#DF9A6F" d="M667.3,232c-1.2,0.8-1.4,2.5-0.6,3.6c0.8,1.2,2.5,1.4,3.6,0.6c1.2-0.8,1.4-2.5,0.6-3.6
					C670.1,231.4,668.4,231.1,667.3,232z"/>
				<circle fill="#41311B" cx="670.9" cy="228.1" r="0.7"/>
				<path fill="none" stroke="#41311B" stroke-width="0.2607" stroke-linecap="round" stroke-miterlimit="10" d="M671.5,230.2
					c1.2-0.2,1.9-1.3,1.7-2.5c-0.2-1.2-1.3-1.9-2.5-1.7"/>
			</g>
			<path fill="#006B81" d="M676.1,258.8c9.1,0,16.4-7.3,16.4-16.4h-32.8C659.7,251.5,667.1,258.8,676.1,258.8z"/>
		</g>
	</g>
	<g clip-path="url(#SVGID_1_)">
		<g>
			<rect x="436.3" y="270.2" fill="#02653C" width="6.6" height="16.5"/>
			<rect x="428.5" y="270.2" fill="#02653C" width="6.6" height="16.5"/>
		</g>
		<path fill="#41311B" d="M445.5,268.6v-18.9c0-2.6-1-5.1-2.9-6.9c-1.8-1.8-4.3-2.9-6.9-2.9c-2.6,0-5.1,1-6.9,2.9
			c-1.8,1.8-2.9,4.3-2.9,6.9v18.9H445.5z"/>
		<circle fill="#FBD1AE" cx="435.6" cy="208.3" r="29.3"/>
		<path fill="none" stroke="#41311B" stroke-width="0.7809" stroke-linecap="round" stroke-miterlimit="10" d="M425.9,209.1
			c1.1-1.1,2.9-1.1,4,0"/>
		<path fill="none" stroke="#41311B" stroke-width="0.7809" stroke-linecap="round" stroke-miterlimit="10" d="M441.4,209.1
			c1.1-1.1,2.9-1.1,4,0"/>
		<g>
			<circle fill="#41311B" cx="427.9" cy="211.3" r="1.4"/>
			<circle fill="#41311B" cx="443.4" cy="211.3" r="1.4"/>
		</g>
		<path fill="none" stroke="#41311B" stroke-width="0.7809" stroke-linecap="round" stroke-miterlimit="10" d="M439.7,214.7
			c-0.9,0.7-2.3,1.2-3.7,1.3h-0.8c-1.4-0.1-2.8-0.5-3.7-1.3"/>
		<g>
			<path fill="#DF9A6F" d="M420.1,210.3c2.7,0,5,2.2,5,5c0,2.7-2.2,5-5,5s-5-2.2-5-5C415.2,212.5,417.4,210.3,420.1,210.3z"/>
			<path fill="#DF9A6F" d="M451.1,210.3c2.7,0,5,2.2,5,5c0,2.7-2.2,5-5,5s-5-2.2-5-5C446.2,212.5,448.4,210.3,451.1,210.3z"/>
		</g>
		<g>
			<path fill="#138C38" d="M461.9,195.2c-4.8-9.6-14.8-16.3-26.3-16.3c-11.5,0-21.5,6.6-26.3,16.3c8.2,3,17.1,4.6,26.3,4.6
				C444.8,199.9,453.7,198.2,461.9,195.2z"/>
		</g>
		<g>
			<path fill="#C04528" d="M453.9,263.8c-0.2-7-3.5-13.5-9.2-17.8l4-5.2c7.2,5.5,11.5,13.8,11.7,22.8L453.9,263.8z"/>
			<path fill="#FBD1AE" d="M455.9,248.7c2.8,4.4,4.3,9.5,4.5,14.9l-6.6,0.2c-0.1-4.3-1.4-8.4-3.7-11.9L455.9,248.7z"/>
		</g>
		<g>
			<path fill="#C04528" d="M410.7,227.7c2.5,6.6,7.8,11.6,14.5,13.8l-2,6.3c-8.6-2.8-15.4-9.3-18.6-17.7L410.7,227.7z"/>
			<path fill="#FBD1AE" d="M413.7,242.6c-4.1-3.3-7.2-7.6-9.1-12.6l6.1-2.4c1.5,4,4.1,7.5,7.4,10L413.7,242.6z"/>
		</g>
		<path fill="#41311B" d="M435.6,199.9c5.2,0,10.3-0.5,15.2-1.5c-2.6,5.8-8.4,9.9-15.1,9.9c-6.7,0-12.5-4-15.1-9.8
			C425.5,199.4,430.5,199.9,435.6,199.9z"/>
	</g>
	<g clip-path="url(#SVGID_1_)">
		<path fill="#006B81" d="M578.9,248.5c7.7,0,14,6.3,14,14c0,7.7-6.3,14-14,14V248.5z"/>
		<rect x="560.4" y="270.1" fill="#DF9A6F" width="6.6" height="16.6"/>
		<rect x="568" y="270.1" fill="#DF9A6F" width="6.6" height="16.6"/>
		<path fill="#AAA797" d="M577.3,281.1V250c0-2.6-1-5.1-2.9-6.9c-1.8-1.8-4.3-2.9-6.9-2.9c-2.6,0-5.1,1-6.9,2.9
			c-1.8,1.8-2.9,4.3-2.9,6.9v31.1H577.3z"/>
		<path fill="#C04528" d="M558.8,267.3c4.3-5.6,5.7-12.8,4-19.7l6.4-1.6c2.2,8.8,0.3,18-5.1,25.3L558.8,267.3z"/>
		<path fill="#DF9A6F" d="M565,238c16.1,0.9,30-11.5,30.9-27.7c0.9-16.1-11.5-30-27.7-30.9c-16.1-0.9-30,11.5-30.9,27.7
			c0,0.5-0.1,0.9-0.1,1.3l-4.4,3.6l4.7,1.2C539.7,226.6,550.9,237.2,565,238z"/>
		<circle fill="#DF9A6F" cx="550.4" cy="214.8" r="5"/>
		<circle fill="#41311B" cx="544" cy="204.3" r="1.4"/>
		<path fill="none" stroke="#41311B" stroke-width="0.7809" stroke-linecap="round" stroke-miterlimit="10" d="M540.6,202.2
			c1.1-2,3.6-2.7,5.5-1.6c2,1.1,2.7,3.6,1.6,5.5"/>
		<path fill="#41311B" d="M570.1,179.4c-9.6-1.1-18.7,2.5-24.9,9.1c5.3,10.9,15.8,19,28.8,20.5c7.8,0.9,15.4-0.7,21.8-4.2
			C594.1,191.7,583.8,181,570.1,179.4z"/>
	</g>
	<path clip-path="url(#SVGID_1_)" fill="#AAA797" d="M515,261.6v-6.1h-17.3v6.1h-10.9v25.6H526v-25.6H515z M500.4,258.1h12v3.4h-12
		V258.1z"/>
	<g clip-path="url(#SVGID_1_)">
		
			<line fill="none" stroke="#41311B" stroke-width="0.9761" stroke-linecap="round" stroke-miterlimit="10" x1="355.4" y1="102.9" x2="355.4" y2="219.1"/>
		<g>
			<circle fill="#FAC961" cx="355.2" cy="73.5" r="22"/>
			<polygon fill="#FAC961" points="350.8,102.8 355.2,95.2 359.6,102.8 			"/>
		</g>
	</g>
	<g clip-path="url(#SVGID_1_)">
		
			<line fill="none" stroke="#41311B" stroke-width="0.9761" stroke-linecap="round" stroke-miterlimit="10" x1="323.6" y1="78.8" x2="323.6" y2="155"/>
		<g>
			<circle fill="#F08312" cx="323.5" cy="49.4" r="22"/>
			<polygon fill="#F08312" points="319.1,78.6 323.5,71 327.9,78.6 			"/>
		</g>
	</g>
	<g clip-path="url(#SVGID_1_)">
		
			<line fill="none" stroke="#41311B" stroke-width="0.9761" stroke-linecap="round" stroke-miterlimit="10" x1="409" y1="73.7" x2="409" y2="234"/>
		<g>
			<circle opacity="0.7" fill="#006B81" cx="409.1" cy="44.3" r="22"/>
			<polygon opacity="0.7" fill="#006B81" points="413.5,73.6 409.1,66 404.7,73.6 			"/>
		</g>
	</g>
	<g clip-path="url(#SVGID_1_)">
		<g>
			<rect x="170.6" y="194.6" fill="#175367" width="8.7" height="22.1"/>
			<rect x="160.6" y="194.6" fill="#175367" width="8.7" height="22.1"/>
		</g>
		<path fill="#AAA797" d="M182.9,205.9v-38.6c0-3.4-1.4-6.7-3.8-9.2c-2.4-2.4-5.7-3.8-9.2-3.8c-3.4,0-6.7,1.4-9.2,3.8
			c-2.4,2.4-3.8,5.7-3.8,9.2v38.6H182.9z"/>
		<g>
			<path fill="#FBD1AE" d="M209.6,118.4l6.3-1.5l-5.8-4.8c0-0.6,0-1.2-0.1-1.8c-1.2-21.5-19.6-37.9-41.1-36.7
				c-21.5,1.2-37.9,19.6-36.7,41.1c1.2,21.5,19.6,37.9,41.1,36.7C192,150.3,206.9,136.2,209.6,118.4z"/>
			<path fill="#534839" d="M159,85.3c-1-3-2.1-5.9-3.4-8.6c-14.6,6.3-24.4,21.2-23.4,37.9c0.8,14.3,9.2,26.3,21.1,32.5
				C163.3,128.8,166.1,106.7,159,85.3z"/>
			<circle fill="#DF9A6F" cx="192.8" cy="120.6" r="6.6"/>
			<circle fill="#41311B" cx="201.2" cy="106.7" r="1.9"/>
			<path fill="none" stroke="#41311B" stroke-width="0.7809" stroke-linecap="round" stroke-miterlimit="10" d="M196.3,109
				c-1.4-2.6-0.5-5.9,2.2-7.3c2.6-1.4,5.9-0.5,7.3,2.2"/>
			<g>
				<g>
					<path fill="#534839" d="M132.3,107.2c8.5,4.7,18.6,6.8,29,5.6c17.2-2,31.2-12.7,38.2-27.2c-8.2-8.7-20.2-13.5-33-12.1
						C148.4,75.7,134.6,89.9,132.3,107.2z"/>
				</g>
			</g>
		</g>
		<path fill="#006B81" d="M155.2,165.9c-9.4,0-17,7.6-17,17c0,9.4,7.6,17,17,17V165.9z"/>
		<path fill="#534839" d="M208.4,118.3c-4,0-7.4,2.4-8.9,5.8c2.4,0.8,5.2,1.5,8.2,1.8c0.9-2.4,1.6-4.9,2-7.5l0.2,0
			C209.3,118.3,208.9,118.3,208.4,118.3z"/>
		<path fill="#41311B" d="M199.9,189.3v-5.6H184v5.6h-10v23.5h35.9v-23.5H199.9z M186.5,186.2h11v3.2h-11V186.2z"/>
		<path fill="#FBD1AE" d="M185.5,190.2c-10.9-5.1-18.9-14.7-21.9-26.3l8.5-2.1c2.3,9.1,8.5,16.6,17,20.5L185.5,190.2z"/>
	</g>
	<path clip-path="url(#SVGID_1_)" fill="#388FAC" d="M530.1,270v-4.1h-11.6v4.1h-7.4v17.2h26.4V270H530.1z M520.3,267.6h8v2.3h-8
		V267.6z"/>
	<g clip-path="url(#SVGID_1_)">
		<circle fill="#A07B54" cx="265.9" cy="119.2" r="39"/>
		<g>
			<rect x="256.2" y="201.8" fill="#A07B54" width="8.7" height="22.1"/>
			<rect x="266.6" y="201.8" fill="#A07B54" width="8.7" height="22.1"/>
		</g>
		<path fill="#95AC41" d="M278.7,208.2v-33.7c0-3.4-1.4-6.7-3.8-9.2c-2.4-2.4-5.7-3.8-9.2-3.8c-3.4,0-6.7,1.4-9.2,3.8
			c-2.4,2.4-3.8,5.7-3.8,9.2v33.7H278.7z"/>
		<path fill="#02653C" d="M244.4,197c-6.5-10.1-8-22.5-4.2-34l8.3,2.8c-3,8.9-1.8,18.6,3.3,26.5L244.4,197z"/>
		<path fill="#006B81" d="M226.8,119.2c0,5.5,1.1,10.7,3.2,15.5c7.4-7.1,12-17.1,12-28.1c0-5.5-1.1-10.7-3.2-15.5
			C231.4,98.2,226.8,108.2,226.8,119.2z"/>
		<path fill="none" stroke="#41311B" stroke-width="0.7809" stroke-linecap="round" stroke-miterlimit="10" d="M273.5,120.4
			c1.5-1.5,3.9-1.5,5.3,0"/>
		<path fill="none" stroke="#41311B" stroke-width="0.7809" stroke-linecap="round" stroke-miterlimit="10" d="M252.9,120.4
			c1.5-1.5,3.9-1.5,5.3,0"/>
		<g>
			<circle fill="#41311B" cx="276.2" cy="123.3" r="1.9"/>
			<circle fill="#41311B" cx="255.5" cy="123.3" r="1.9"/>
		</g>
		<path fill="none" stroke="#41311B" stroke-width="0.7809" stroke-linecap="round" stroke-miterlimit="10" d="M271.4,127.8
			c-1.2,1-3.1,1.6-5,1.7h-1c-2-0.1-3.8-0.7-5-1.7"/>
		<g>
			<path fill="#DF9A6F" d="M293.1,128.6c0,3.7-3,6.6-6.6,6.6c-3.7,0-6.6-3-6.6-6.6c0-3.7,3-6.6,6.6-6.6
				C290.2,121.9,293.1,124.9,293.1,128.6z"/>
			<path fill="#DF9A6F" d="M251.8,128.6c0,3.7-3,6.6-6.6,6.6s-6.6-3-6.6-6.6c0-3.7,3-6.6,6.6-6.6S251.8,124.9,251.8,128.6z"/>
		</g>
		<g>
			<path fill="#41311B" d="M265.9,108c12.3,0,24.1-2.2,35-6.2c-6.4-12.8-19.7-21.7-35-21.7c-15.3,0-28.6,8.8-35,21.7
				C241.8,105.8,253.6,108,265.9,108z"/>
		</g>
		<path fill="#A07B54" d="M238.2,177.3c0.3,6.9,2.4,13.7,6.2,19.8l7.4-4.7c-3.1-4.8-4.7-10.3-4.9-15.9L238.2,177.3z"/>
		<g>
			<path fill="#02653C" d="M308.4,185.5c-11.8-2.5-21.7-10.1-27.2-20.8l7.8-4c4.3,8.4,12,14.3,21.2,16.2L308.4,185.5z"/>
			<path fill="#A07B54" d="M290,176.1c5.1,4.7,11.5,7.9,18.5,9.4l1.8-8.6c-5.6-1.2-10.7-3.9-14.7-7.7L290,176.1z"/>
		</g>
		<path fill="#006B81" d="M237,115c24.1,0,45.4-8.3,58.6-21c-7.2-8.4-17.8-13.8-29.8-13.8c-20,0-36.4,15-38.8,34.3
			C230.4,114.8,233.7,115,237,115z"/>
		<g>
			<path fill="#006B81" d="M222.4,140c3.4-0.3,6.2-2.4,7.6-5.3c-1.8-2.6-5-4.2-8.4-3.9c-3.4,0.3-6.2,2.4-7.6,5.3
				C215.8,138.7,219,140.3,222.4,140z"/>
			<path fill="#006B81" d="M231,143.9c1.4-3.1,0.9-6.6-1-9.2c-3.2,0.4-6.1,2.4-7.5,5.5c-1.4,3.2-0.9,6.6,1,9.2
				C226.8,149.1,229.7,147.1,231,143.9z"/>
		</g>
		<g>
			<g>
				<path fill="#A07B54" d="M278.6,166.9c-4.9-6.8-14.5-8.4-21.4-3.5c-0.2,0.1-0.4,0.3-0.5,0.4l-2.9-0.6l1.1,2.3
					c-4.8,5.2-5.4,13.3-1.1,19.2c4.9,6.9,14.5,8.4,21.4,3.5C282,183.3,283.5,173.7,278.6,166.9z"/>
				<path fill="#41311B" d="M270.1,161c-1.4,3-2.1,6.3-2.1,9.8c0,6.8,2.9,12.9,7.4,17.2c6.6-5,8-14.4,3.1-21.1
					C276.5,163.9,273.4,161.9,270.1,161z"/>
				<path fill="#DF9A6F" d="M256.8,169.1c-1.2,0.8-1.4,2.5-0.6,3.6c0.8,1.2,2.5,1.4,3.6,0.6c1.2-0.8,1.4-2.5,0.6-3.6
					C259.6,168.5,258,168.3,256.8,169.1z"/>
				<circle fill="#41311B" cx="260.5" cy="165.2" r="0.7"/>
				<path fill="none" stroke="#41311B" stroke-width="0.2607" stroke-linecap="round" stroke-miterlimit="10" d="M261,167.3
					c1.2-0.2,1.9-1.3,1.7-2.5c-0.2-1.2-1.3-1.9-2.5-1.7"/>
			</g>
			<path fill="#02653C" d="M265.7,196c9.1,0,16.4-7.3,16.4-16.4h-32.8C249.3,188.6,256.6,196,265.7,196z"/>
		</g>
	</g>
	<g clip-path="url(#SVGID_1_)">
		<path fill="#41311B" d="M324.6,197.5c-5.1,0-9.2,4.1-9.2,9.2c0,5.1,4.1,9.2,9.2,9.2V197.5z"/>
		<rect x="336.4" y="217.5" fill="#64141B" width="6.6" height="16.5"/>
		<rect x="328.9" y="217.5" fill="#64141B" width="6.6" height="16.5"/>
		<path fill="#F08312" d="M345.6,216.4v-18.9c0-2.6-1-5.1-2.9-6.9c-1.8-1.8-4.3-2.9-6.9-2.9c-2.6,0-5.1,1-6.9,2.9
			c-1.8,1.8-2.9,4.3-2.9,6.9v18.9H345.6z"/>
		<path fill="#F08312" d="M362.3,205.1c-8.9,1.4-17.9-1.2-24.6-7.2l4.4-4.9c5.2,4.7,12.2,6.8,19.2,5.6L362.3,205.1z"/>
		<path fill="#DF9A6F" d="M365.7,160.9l4.7-1.2l-4.4-3.6c0-0.5,0-0.9-0.1-1.3c-0.9-16.1-14.7-28.5-30.8-27.6
			c-16.1,0.9-28.5,14.7-27.6,30.8c0.9,16.1,14.7,28.5,30.8,27.6C352.4,184.8,363.6,174.2,365.7,160.9z"/>
		<circle fill="#DF9A6F" cx="353" cy="162.5" r="5"/>
		<circle fill="#41311B" cx="359.4" cy="152.1" r="1.4"/>
		<path fill="none" stroke="#41311B" stroke-width="0.7809" stroke-linecap="round" stroke-miterlimit="10" d="M355.7,153.8
			c-1.1-2-0.3-4.4,1.6-5.5c2-1.1,4.4-0.3,5.5,1.6"/>
		<path fill="#41311B" d="M307.7,152.4c6.4,3.5,13.9,5.1,21.7,4.2c12.9-1.5,23.4-9.5,28.7-20.4c-6.2-6.5-15.2-10.2-24.7-9
			C319.7,128.8,309.4,139.5,307.7,152.4z"/>
	</g>
	<g clip-path="url(#SVGID_1_)">
		<g>
			<g>
				<g>
					<circle fill="none" stroke="#41311B" stroke-width="3.4164" stroke-miterlimit="10" cx="932.1" cy="255" r="31.1"/>
					<circle fill="none" stroke="#41311B" stroke-width="3.4164" stroke-miterlimit="10" cx="756.5" cy="255.3" r="31.1"/>
					
						<polygon fill="none" stroke="#41311B" stroke-width="3.4164" stroke-linecap="round" stroke-linejoin="round" stroke-miterlimit="10" points="
						845,217.6 795.8,217.6 824.3,256.5 872.1,256.5 					"/>
					
						<path fill="none" stroke="#41311B" stroke-width="3.4164" stroke-linecap="round" stroke-linejoin="round" stroke-miterlimit="10" d="
						M932.6,257c-6.6-7.1-15.3-21.5-21.6-31.5c-6-9.5-10.6-18-11.8-20.6l19.6,0.1"/>
					
						<path fill="none" stroke="#41311B" stroke-width="3.4164" stroke-linecap="round" stroke-linejoin="round" stroke-miterlimit="10" d="
						M795.8,217.6h109.1c1.1,2.6,2.5,4.8,2.7,5.4l-34.8,33.5H756.2L795.8,217.6z"/>
					
						<polyline fill="none" stroke="#41311B" stroke-width="3.4164" stroke-linecap="round" stroke-linejoin="round" stroke-miterlimit="10" points="
						844.6,216.2 838.1,204.9 856.1,204.9 					"/>
				</g>
				<g>
					<path fill="#138C38" d="M894.3,217.6l5.1-26.6c0.7-3.5-0.1-7.2-2.1-10.2c-2-3-5.2-5-8.7-5.7c-3.5-0.7-7.2,0.1-10.2,2.1
						c-3,2-5,5.2-5.7,8.7l-5.1,26.6L894.3,217.6z"/>
					
						<rect x="887.5" y="219.9" transform="matrix(0.903 -0.4296 0.4296 0.903 -12.9339 405.7123)" fill="#175367" width="9.2" height="23.2"/>
					<path fill="#FBD1AE" d="M919.4,207.4c-12.6-0.5-24.2-6.7-31.8-16.9l7.4-5.5c5.9,7.9,14.9,12.7,24.7,13.2L919.4,207.4z"/>
					<g>
						<circle fill="#A07B54" cx="808.9" cy="136.3" r="39.8"/>
						<path fill="#41311B" d="M806.6,96.6c-21.4,1.1-38,18.9-37.7,40.2c6.4,2.7,13.3,4.3,20.7,4.5c21.7,0.5,40.9-11.3,50.7-29.2
							C832.6,102.1,820.2,95.9,806.6,96.6z"/>
						<circle fill="#A07B54" cx="830.9" cy="144.7" r="6.8"/>
						<polygon fill="#A07B54" points="844.9,132.9 854.6,140.9 843.3,143.7 						"/>
						<circle fill="#41311B" cx="839.6" cy="130.5" r="2"/>
						<path fill="none" stroke="#41311B" stroke-width="0.7809" stroke-linecap="round" stroke-miterlimit="10" d="M834.5,132.8
							c-1.4-2.7-0.4-6,2.2-7.5c2.7-1.4,6-0.4,7.5,2.2"/>
					</g>
					<path fill="#006B81" d="M820.5,220.2l1.1-27.1c0.1-3.6-1.2-7.1-3.6-9.8c-2.5-2.7-5.9-4.2-9.5-4.4c-3.6-0.1-7.1,1.2-9.8,3.6
						c-2.7,2.5-4.2,5.9-4.4,9.5l-1.1,27.1L820.5,220.2z"/>
					
						<rect x="812" y="224.8" transform="matrix(0.903 -0.4296 0.4296 0.903 -22.3787 373.7228)" fill="#A07B54" width="9.2" height="23.2"/>
					<path fill="#A07B54" d="M842.8,210.8c-12.6-0.5-24.2-6.7-31.8-16.9l7.4-5.5c5.9,7.9,14.9,12.7,24.7,13.2L842.8,210.8z"/>
					<g>
						<path fill="#FAB612" d="M856.7,104.6c-6.4-2.3-12.1-5.6-17-9.7c5.7-5.5,14.2-7.6,22.2-4.8c8,2.8,13.2,9.9,14.2,17.7
							C869.7,108,863.1,106.9,856.7,104.6z"/>
						<g>
							<circle fill="#FBD1AE" cx="902.2" cy="135.2" r="37.7"/>
							<path fill="#FAB612" d="M916.9,118.1l-0.7,9.9c7.8,1.9,15.7,2.7,23.5,2.7c-1.7-13.7-10.9-26-24.8-31
								c-13.9-5-28.8-1.2-38.8,8.3c8.6,7.2,18.6,13,29.8,16.9c2.6,0.9,5.2,1.7,7.7,2.4L916.9,118.1z"/>
							<g>
								<path opacity="0.76" fill="#F6A10B" d="M924,152.5c-1.2,3.3-4.9,5.1-8.2,3.9c-3.3-1.2-5.1-4.9-3.9-8.2
									c1.2-3.3,4.9-5.1,8.2-3.9C923.5,145.5,925.2,149.2,924,152.5z"/>
								<circle opacity="0.76" fill="#F6A10B" cx="880.3" cy="136.9" r="6.4"/>
							</g>
							<g>
								<circle fill="#41311B" cx="910.3" cy="142.2" r="1.9"/>
								<circle fill="#41311B" cx="891.5" cy="135.5" r="1.9"/>
							</g>
							<path fill="none" stroke="#41311B" stroke-width="0.7809" stroke-linecap="round" stroke-miterlimit="10" d="M904.5,144.7
								c-1.4,0.5-3.3,0.5-5.1-0.1l-1-0.3c-1.7-0.7-3.2-1.9-4-3.2"/>
							<path fill="none" stroke="#41311B" stroke-width="0.7809" stroke-linecap="round" stroke-miterlimit="10" d="M908.8,138.6
								c1.8-0.9,4-0.1,4.8,1.7"/>
							<path fill="none" stroke="#41311B" stroke-width="0.7809" stroke-linecap="round" stroke-miterlimit="10" d="M890,132
								c1.8-0.9,4-0.1,4.8,1.7"/>
						</g>
					</g>
				</g>
			</g>
			<g>
				<path fill="#F08312" d="M756.4,196.1c-9.4,0-17.1,7.7-17.1,17.1h17.1V196.1z"/>
				<path fill="#64141B" d="M756.3,196.1v13.7h-13.7c0,7.6,6.1,13.7,13.7,13.7c7.6,0,13.7-6.1,13.7-13.7
					C770,202.2,763.9,196.1,756.3,196.1z M759.2,202.5c-0.8,0-1.5-0.7-1.5-1.5c0-0.8,0.7-1.5,1.5-1.5s1.5,0.7,1.5,1.5
					C760.7,201.8,760.1,202.5,759.2,202.5z"/>
			</g>
		</g>
	</g>
</g>
<g>
</g>
<g>
</g>
<g>
</g>
<g>
</g>
<g>
</g>
<g>
</g>
</svg>
