<svg xmlns="http://www.w3.org/2000/svg" width="17" height="10" viewBox="0 0 17 10">
  <path fill="#41311A" fill-rule="evenodd" d="M17.9966518,12.6071429 C17.9966518,12.7522329 17.9408488,12.8805798 17.8292411,12.9921875 L10.0279018,20.7935268 C9.91629408,20.9051345 9.78794715,20.9609375 9.64285714,20.9609375 C9.49776713,20.9609375 9.3694202,20.9051345 9.2578125,20.7935268 L1.45647321,12.9921875 C1.34486551,12.8805798 1.2890625,12.7522329 1.2890625,12.6071429 C1.2890625,12.4620528 1.34486551,12.3337059 1.45647321,12.2220982 L2.29352679,11.3850446 C2.40513449,11.2734369 2.53348142,11.2176339 2.67857143,11.2176339 C2.82366144,11.2176339 2.95200837,11.2734369 3.06361607,11.3850446 L9.64285714,17.9642857 L16.2220982,11.3850446 C16.3337059,11.2734369 16.4620528,11.2176339 16.6071429,11.2176339 C16.7522329,11.2176339 16.8805798,11.2734369 16.9921875,11.3850446 L17.8292411,12.2220982 C17.9408488,12.3337059 17.9966518,12.4620528 17.9966518,12.6071429 L17.9966518,12.6071429 Z" transform="translate(-1 -11)"/>
</svg>
