<?xml version="1.0" encoding="UTF-8" standalone="no"?>
<svg width="29px" height="26px" viewBox="0 0 29 26" version="1.1" xmlns="http://www.w3.org/2000/svg" xmlns:xlink="http://www.w3.org/1999/xlink" xmlns:sketch="http://www.bohemiancoding.com/sketch/ns">
    <!-- Generator: Sketch 3.4.3 (16618) - http://www.bohemiancoding.com/sketch -->
    <title>Shape + Path + Path</title>
    <desc>Created with Sketch.</desc>
    <defs></defs>
    <g id="Page-1" stroke="none" stroke-width="1" fill="none" fill-rule="evenodd" sketch:type="MSPage">
        <g id="Shape-+-Path-+-Path" sketch:type="MSLayerGroup">
            <path d="M16,21.5 L16,18.5 C16,18.4 16,18.2 15.9,18.1 C15.8,18 15.7,18 15.5,18 L12.5,18 C12.4,18 12.2,18 12.1,18.1 C12,18.2 12,18.3 12,18.5 L12,21.5 C12,21.6 12,21.8 12.1,21.9 C12.2,22 12.3,22 12.5,22 L15.5,22 C15.6,22 15.8,22 15.9,21.9 C16,21.8 16,21.6 16,21.5 Z M16,15.6 L16.3,8.4 C16.3,8.3 16.2,8.2 16.1,8.1 C16,8.1 15.8,8 15.7,8 L12.3,8 C12.2,8 12.1,8.1 11.9,8.2 C11.8,8.3 11.7,8.4 11.7,8.5 L12,15.6 C12,15.7 12.1,15.8 12.2,15.9 C12.3,16 12.4,16 12.6,16 L15.5,16 C15.6,16 15.8,16 15.9,15.9 C15.9,15.8 16,15.7 16,15.6 Z M15.8,1 L27.8,23 C28.2,23.7 28.2,24.3 27.8,25 C27.6,25.3 27.4,25.5 27.1,25.7 C26.8,25.9 26.5,26 26.1,26 L2,26 C1.6,26 1.3,25.9 1,25.7 C0.7,25.5 0.5,25.3 0.3,25 C-0.1,24.3 -0.1,23.7 0.3,23 L12.3,1 C12.5,0.7 12.7,0.4 13,0.2 C13.3,-1.11022302e-16 13.7,0 14,0 C14.3,0 14.7,0.1 15,0.3 C15.3,0.5 15.6,0.7 15.8,1 L15.8,1 Z" id="Shape" fill="#E77D00" sketch:type="MSShapeGroup"></path>
            <path d="M16,21.5 L16,18.5 C16,18.4 16,18.2 15.9,18.1 C15.8,18 15.7,18 15.5,18 L12.5,18 C12.4,18 12.2,18 12.1,18.1 C12,18.2 12,18.3 12,18.5 L12,21.5 C12,21.6 12,21.8 12.1,21.9 C12.2,22 12.3,22 12.5,22 L15.5,22 C15.6,22 15.8,22 15.9,21.9 C16,21.8 16,21.6 16,21.5 L16,21.5 Z" id="Path" fill="#FFFFFF" sketch:type="MSShapeGroup"></path>
            <path d="M16,15.6 L16.3,8.4 C16.3,8.3 16.2,8.2 16.1,8.1 C16,8.1 15.8,8 15.7,8 L12.3,8 C12.2,8 12.1,8.1 11.9,8.2 C11.8,8.3 11.7,8.4 11.7,8.5 L12,15.6 C12,15.7 12.1,15.8 12.2,15.9 C12.3,16 12.4,16 12.6,16 L15.5,16 C15.6,16 15.8,16 15.9,15.9 C15.9,15.8 16,15.7 16,15.6 L16,15.6 L16,15.6 Z" id="Path" fill="#FFFFFF" sketch:type="MSShapeGroup"></path>
        </g>
    </g>
</svg>