<?xml version="1.0" encoding="UTF-8" standalone="no"?>
<svg width="20px" height="20px" viewBox="0 0 20 20" version="1.1" xmlns="http://www.w3.org/2000/svg" xmlns:xlink="http://www.w3.org/1999/xlink" xmlns:sketch="http://www.bohemiancoding.com/sketch/ns">
    <!-- Generator: Sketch 3.2.2 (9983) - http://www.bohemiancoding.com/sketch -->
    <title>Shape 2</title>
    <desc>Created with Sketch.</desc>
    <defs></defs>
    <g id="Folgeseite" stroke="none" stroke-width="1" fill="none" fill-rule="evenodd" sketch:type="MSPage">
        <g id="Profisuche-mit-getrennten-Suchergebnissen" sketch:type="MSArtboardGroup" transform="translate(-503.000000, -259.000000)" fill="#40301A">
            <path d="M513,259 C507.476875,259 503,260.399375 503,262.125 L503,264 L510.5,271.5 L510.5,277.75 C510.5,278.440625 511.619375,279 513,279 C514.380625,279 515.5,278.440625 515.5,277.75 L515.5,271.5 L523,264 L523,262.125 C523,260.399375 518.523125,259 513,259 L513,259 Z M504.84375,261.71125 C505.31125,261.444375 505.968125,261.19125 506.74375,260.979375 C508.46125,260.509375 510.683125,260.25 513.000625,260.25 C515.318125,260.25 517.539375,260.50875 519.2575,260.979375 C520.033125,261.191875 520.69,261.445 521.1575,261.71125 C521.46625,261.886875 521.6325,262.035625 521.71,262.125 C521.6325,262.21375 521.465625,262.3625 521.1575,262.53875 C520.69,262.805625 520.0325,263.05875 519.2575,263.270625 C517.54,263.740625 515.318125,264 513.000625,264 C510.683125,264 508.461875,263.74125 506.74375,263.270625 C505.96875,263.058125 505.31125,262.805 504.84375,262.53875 C504.535,262.3625 504.36875,262.214375 504.29125,262.125 C504.36875,262.03625 504.535625,261.8875 504.84375,261.71125 L504.84375,261.71125 Z" id="Shape-2" sketch:type="MSShapeGroup"></path>
        </g>
    </g>
</svg>