<?xml version="1.0" encoding="UTF-8"?>
<svg width="20px" height="20px" viewBox="0 0 267 267" version="1.1" xmlns="http://www.w3.org/2000/svg" xmlns:xlink="http://www.w3.org/1999/xlink">
    <!-- Generator: Sketch 45.1 (43504) - http://www.bohemiancoding.com/sketch -->
    <title>ico_facebook</title>
    <desc>Created with Sketch.</desc>
    <defs></defs>
    <g id="Page-1" stroke="none" stroke-width="1" fill="none" fill-rule="evenodd">
        <g id="ico_facebook">
            <rect id="Path" fill="#FFFFFF" x="98" y="24" width="148" height="242"></rect>
            <path d="M252.164,0 L14.73,0 C6.594,0 0,6.594 0,14.73 L0,252.164 C0,260.299 6.594,266.895 14.73,266.895 L142.557,266.895 L142.557,163.539 L107.775,163.539 L107.775,123.259 L142.557,123.259 L142.557,93.554 C142.557,59.082 163.611,40.311 194.363,40.311 C209.094,40.311 221.754,41.407 225.443,41.897 L225.443,77.923 L204.115,77.933 C187.391,77.933 184.152,85.88 184.152,97.542 L184.152,123.259 L224.039,123.259 L218.846,163.539 L184.152,163.539 L184.152,266.895 L252.164,266.895 C260.299,266.895 266.894,260.299 266.894,252.164 L266.894,14.73 C266.894,6.594 260.299,0 252.164,0" id="Page-1" fill="#3B5998" fill-rule="nonzero"></path>
        </g>
    </g>
</svg>