<?xml version="1.0" encoding="UTF-8"?>
<svg width="49px" height="51px" viewBox="0 0 49 51" version="1.1" xmlns="http://www.w3.org/2000/svg" xmlns:xlink="http://www.w3.org/1999/xlink">
    <!-- Generator: Sketch 46.2 (44496) - http://www.bohemiancoding.com/sketch -->
    <title>Artboard</title>
    <desc>Created with Sketch.</desc>
    <defs></defs>
    <g id="Page-1" stroke="none" stroke-width="1" fill="none" fill-rule="evenodd">
        <g id="Artboard" fill-rule="nonzero" fill="#FFFFFF">
            <g id="skinny-arrow-right">
                <path d="M40.2,25.2 C39.6,24.9 39,24.7 38.6,24.3 C32.8,18.5 27.1,12.7 21.3,6.9 C19.6,5.2 19.6,4.8 21.3,3 C24.1,0.2 24.1,0.2 26.8,3 C33.7,10 40.6,16.8 47.5,23.7 C49.2,25.4 49.2,25.8 47.5,27.6 C40.3,34.8 33.2,41.9 26,49.1 C24.3,50.8 23.9,50.7 22.3,49.1 C19.4,46.3 19.4,46.3 22.3,43.4 C27.8,37.9 33.4,32.4 38.9,26.8 C39.1,26.5 39.4,26.1 40.2,25.2 Z" id="Shape"></path>
                <path d="M20.175,25.3 C19.575,25 18.975,24.8 18.575,24.4 C12.775,18.6 7.075,12.8 1.275,7 C-0.425,5.3 -0.425,4.9 1.275,3.1 C4.075,0.3 4.075,0.3 6.775,3.1 C13.675,10.1 20.575,16.9 27.475,23.8 C29.175,25.5 29.175,25.9 27.475,27.7 C20.275,34.9 13.175,42 5.975,49.2 C4.275,50.9 3.875,50.8 2.275,49.2 C-0.625,46.4 -0.625,46.4 2.275,43.5 C7.775,38 13.375,32.5 18.875,26.9 C19.075,26.6 19.375,26.2 20.175,25.3 Z" id="Shape-Copy"></path>
            </g>
        </g>
    </g>
</svg>