<?xml version="1.0" encoding="UTF-8"?>
<svg width="21px" height="16px" viewBox="0 0 21 16" version="1.1" xmlns="http://www.w3.org/2000/svg" xmlns:xlink="http://www.w3.org/1999/xlink">
    <!-- Generator: Sketch 44 (41411) - http://www.bohemiancoding.com/sketch -->
    <title>Shape</title>
    <desc>Created with Sketch.</desc>
    <defs></defs>
    <g id="Symbols" stroke="none" stroke-width="1" fill="none" fill-rule="evenodd">
        <g id="Rectangle-3" transform="translate(-84.000000, -6.000000)" fill-rule="nonzero" fill="#FFFFFF">
            <path d="M103.591933,14.8626562 C103.591933,14.6051278 103.39759,14.4763636 103.008905,14.4763636 L91.0403353,14.4763636 C90.746988,14.4763636 90.433473,14.5554616 90.0997905,14.7136577 C89.7661079,14.8718537 89.5039288,15.065 89.313253,15.2930966 L86.079099,19.2995028 C85.9470927,19.4760937 85.8810896,19.6232528 85.8810896,19.7409801 C85.8810896,19.9985085 86.0754322,20.1272727 86.4641173,20.1272727 L98.4326873,20.1272727 C98.7260346,20.1272727 99.0413829,20.0463352 99.3787323,19.8844602 C99.7160817,19.7225852 99.9764274,19.5275994 100.15977,19.2995028 L103.393924,15.2930966 C103.52593,15.1312216 103.591933,14.9877415 103.591933,14.8626562 Z M91.0403353,13.0636364 L99.4887376,13.0636364 L99.4887376,11.2977273 C99.4887376,11.0034091 99.386066,10.7532386 99.1807229,10.5472159 C98.9753798,10.3411932 98.7260346,10.2381818 98.4326873,10.2381818 L92.0963855,10.2381818 C91.8030382,10.2381818 91.553693,10.1351705 91.3483499,9.92914773 C91.1430068,9.723125 91.0403353,9.47295455 91.0403353,9.17863636 L91.0403353,8.47227273 C91.0403353,8.17795455 90.9376637,7.92778409 90.7323206,7.72176136 C90.5269775,7.51573864 90.2776323,7.41272727 89.984285,7.41272727 L86.4641173,7.41272727 C86.17077,7.41272727 85.9214248,7.51573864 85.7160817,7.72176136 C85.5107386,7.92778409 85.4080671,8.17795455 85.4080671,8.47227273 L85.4080671,17.8867756 L88.2242012,14.410142 C88.5468832,14.0201705 88.9722368,13.6982599 89.5002619,13.4444105 C90.0282871,13.1905611 90.5416448,13.0636364 91.0403353,13.0636364 Z M105,14.8626562 C105,15.3188494 104.831325,15.7603267 104.493976,16.1870881 L101.248821,20.1934943 C100.933473,20.5834659 100.508119,20.9053764 99.9727606,21.1592259 C99.4374018,21.4130753 98.924044,21.54 98.4326873,21.54 L86.4641173,21.54 C85.7894185,21.54 85.2100576,21.2971875 84.7260346,20.8115625 C84.2420115,20.3259375 84,19.7446591 84,19.0677273 L84,8.47227273 C84,7.79534091 84.2420115,7.2140625 84.7260346,6.7284375 C85.2100576,6.2428125 85.7894185,6 86.4641173,6 L89.984285,6 C90.6589838,6 91.2383447,6.2428125 91.7223677,6.7284375 C92.2063908,7.2140625 92.4484023,7.79534091 92.4484023,8.47227273 L92.4484023,8.82545455 L98.4326873,8.82545455 C99.1073861,8.82545455 99.686747,9.06826705 100.17077,9.55389205 C100.654793,10.039517 100.896805,10.6207955 100.896805,11.2977273 L100.896805,13.0636364 L103.008905,13.0636364 C103.404924,13.0636364 103.767941,13.1537713 104.097957,13.3340412 C104.427973,13.5143111 104.673651,13.773679 104.834992,14.1121449 C104.944997,14.3475994 105,14.5977699 105,14.8626562 Z" id="Shape"></path>
        </g>
    </g>
</svg>