<?xml version="1.0" encoding="UTF-8" standalone="no"?>
<svg width="274px" height="274px" viewBox="0 0 274 274" version="1.1" xmlns="http://www.w3.org/2000/svg" xmlns:xlink="http://www.w3.org/1999/xlink" xmlns:sketch="http://www.bohemiancoding.com/sketch/ns">
    <!-- Generator: Sketch 3.5.2 (25235) - http://www.bohemiancoding.com/sketch -->
    <title>Page 1</title>
    <desc>Created with Sketch.</desc>
    <defs>
        <path id="path-1" d="M0,0.875 L273.125,0.875 L273.125,274 L0,274"></path>
    </defs>
    <g id="Page-1" stroke="none" stroke-width="1" fill="none" fill-rule="evenodd" sketch:type="MSPage">
        <g sketch:type="MSLayerGroup">
            <path d="M175.978,78.1289 C173.861,74.0519 162.807,79.5579 165.241,86.1779 C167.53,92.4029 161.717,99.7679 169.336,103.2639 C174.535,105.6499 176.276,97.9179 177.146,94.2439 C177.097,90.5149 177.439,80.9469 175.978,78.1289" id="Fill-1" fill="#FFFFFF" sketch:type="MSShapeGroup"></path>
            <g id="Group-5">
                <mask id="mask-2" sketch:name="Clip 4" fill="white">
                    <use xlink:href="#path-1"></use>
                </mask>
                <g id="Clip-4"></g>
                <path d="M244.6255,181.4902 C243.7535,188.9092 232.5115,193.2542 235.1935,185.9902 C235.8225,184.2852 238.6585,176.3942 240.6495,176.2132 C243.5035,175.9552 245.0805,178.4232 244.6255,181.4902 M101.4265,114.4352 C97.6755,117.3452 96.6275,110.9182 101.4265,114.4352 M226.6455,178.6192 C222.2575,177.7192 220.6345,161.3702 219.5275,157.7392 C217.2065,150.1372 213.9755,142.4312 208.3655,137.3852 C203.3535,132.8762 197.5245,131.3482 192.7915,126.3762 C189.3845,122.8002 185.0845,113.6942 179.9945,113.9352 C181.1155,119.3612 183.0355,124.4422 182.8595,130.1982 C182.6135,138.1952 182.6105,143.1982 188.5865,141.5742 C194.3435,140.0102 197.6895,150.1432 196.4115,156.1072 C195.5735,160.0202 193.9935,163.5592 188.5865,163.3732 C181.6645,163.1362 175.6605,164.1872 169.0225,161.1372 C156.8725,155.5532 157.2245,141.6652 147.4895,133.8332 C140.2905,147.8792 145.3375,128.0062 138.6995,131.4462 C123.4685,139.3382 148.6095,169.7322 153.9315,171.4782 C157.7805,172.7412 167.9855,172.9382 171.0205,176.1942 C173.1895,178.5232 163.6565,190.0512 162.3915,191.4292 C157.2475,197.0322 150.3435,202.8392 146.1805,209.3572 C142.6565,214.8702 141.4275,229.4272 136.9635,232.8532 C135.4295,241.7822 132.4815,250.4772 128.2605,258.0952 C113.1645,257.0632 98.8495,253.2762 85.7655,247.1942 C86.0675,241.7662 86.1585,236.3792 85.5445,231.0902 C84.0495,218.2062 87.4715,200.1692 72.7855,197.4662 C60.7885,195.2592 35.9925,194.5072 34.5505,176.3202 C33.0685,157.6212 45.8945,149.3182 51.1865,133.9922 C54.0275,125.7732 55.9755,127.7562 62.6805,122.7762 C64.7665,121.2272 66.8675,118.6802 69.4565,118.3262 C71.5625,119.0772 73.4315,120.2902 75.0605,121.9662 C77.7285,122.7412 80.4095,122.5862 83.1035,121.5012 C89.8845,119.9752 94.5555,117.7822 97.4185,125.9402 C100.0625,133.4772 111.3785,130.3922 117.1615,129.9332 C123.1085,129.4642 129.0905,134.3262 133.7355,128.9982 C142.3705,119.0962 128.0395,113.5582 124.5685,110.3812 C121.5425,107.6102 121.8935,98.9522 126.9485,98.2052 C129.8355,97.7782 135.1835,100.7372 138.1325,101.7892 C142.0255,103.1782 141.6755,92.6672 135.2075,92.0142 C131.1965,91.6102 128.0395,93.2742 124.7605,95.6742 C119.9595,99.1872 118.7845,94.5182 115.4995,91.2822 C113.1795,88.9972 115.0435,102.9592 115.0645,103.2642 C115.5265,110.3682 109.4885,113.4442 104.3485,112.9832 C103.0365,112.8652 108.5425,70.7352 92.8845,90.8222 C89.6105,95.0232 85.8895,101.4362 83.5405,106.3612 C81.5715,110.4952 70.6165,110.9202 67.6345,108.5492 C64.3135,105.9132 60.5755,102.7672 61.3255,97.8742 C62.0035,93.4442 70.5545,80.2652 75.0745,83.3392 C78.2215,85.4802 82.9355,87.8222 85.2405,82.6252 C86.3175,80.1942 93.0465,67.5822 91.0995,65.5102 C89.4885,63.7942 78.9355,61.3372 85.4295,55.4092 C87.4505,53.5622 91.6275,55.3502 94.1125,54.5672 C97.1245,53.6192 100.6995,52.2842 103.4315,50.4782 C106.1825,48.6632 108.5035,39.7022 110.6265,39.7632 C115.5945,39.9052 117.1665,41.0732 116.7765,46.6602 C116.4835,50.8532 128.2295,53.6362 131.4295,52.2072 C135.6665,50.3152 140.1005,43.2462 144.8855,45.2962 C145.8935,45.7282 155.2385,45.1432 152.3065,41.8472 C149.6565,38.8662 142.9575,40.0232 143.8595,33.3842 C144.1885,30.9602 145.8915,22.5752 145.6035,16.8182 C204.2895,21.1862 251.4595,67.4612 257.0515,125.8022 C253.7275,133.0262 248.5775,139.6912 244.5205,146.4342 C240.7125,152.7652 240.8145,159.5882 238.8135,166.5642 C238.1385,168.9092 228.9775,179.0972 226.6455,178.6192 M216.3405,188.8522 C215.4665,187.1342 215.7345,185.6542 217.1465,184.4092 C217.7125,185.1952 218.2815,185.9812 218.8495,186.7672 C218.0125,187.4622 217.1775,188.1582 216.3405,188.8522 M214.8965,195.3052 C214.2065,193.6342 214.5835,192.6802 216.0275,192.4422 C216.5705,194.1252 216.1945,195.0792 214.8965,195.3052 M157.7085,249.1452 C156.8645,251.8612 155.7155,254.4692 154.5085,257.0332 C149.6405,257.7632 144.6955,258.2302 139.6585,258.3592 C140.8645,252.8652 142.3975,247.3832 145.8645,243.9342 C147.1865,242.6192 148.6415,241.4612 150.1775,240.5092 C152.0915,239.3202 155.0485,237.7432 157.1185,239.0402 C158.1125,239.6622 158.5335,240.9102 158.6555,242.1562 C158.8795,244.4732 158.3965,246.9272 157.7085,249.1452 M69.0735,36.9682 C74.3295,38.1472 73.4505,44.8792 68.4895,45.2172 C68.7255,45.2552 68.7065,45.2902 67.7605,45.2372 C67.7235,45.2232 67.6995,45.2112 67.6885,45.2002 C65.6025,44.3592 64.5785,42.1882 64.6405,40.2632 C66.1195,39.1652 67.5435,37.9992 69.0735,36.9682 M81.9385,29.5272 C83.4965,33.3352 82.7175,39.8922 83.3925,42.0362 C84.3415,45.0492 88.5925,46.2722 87.7435,50.2112 C86.9425,53.9302 79.7415,56.9782 76.8565,56.4812 C67.6495,54.8962 74.1325,48.6102 75.2435,43.1882 C75.1035,43.5242 75.1585,41.2962 75.2625,42.0842 C75.0725,40.0942 74.5945,36.7002 74.6125,33.5992 C77.0075,32.1652 79.4385,30.7972 81.9385,29.5272 M131.6455,40.9252 C129.4005,44.9782 124.9895,42.2522 126.2735,37.6452 C128.1375,30.9642 132.2765,35.2982 131.6875,40.5082 C131.6995,40.5162 131.6935,40.6192 131.6455,40.9252 M102.0965,27.3152 C102.2335,25.1712 103.1455,22.9702 104.3925,20.8342 C114.2285,18.1152 124.5305,16.5492 135.1935,16.4292 C133.4005,18.5122 131.8725,20.6412 131.0905,21.6572 C127.8705,25.8462 125.9375,34.3692 121.3265,36.7702 C117.5295,38.7462 111.2265,32.9882 111.9205,32.4362 C107.2125,36.1762 101.4845,36.8722 102.0965,27.3152 M136.5625,0.8752 C61.1415,0.8752 0.0005,62.0162 0.0005,137.4372 C0.0005,212.8592 61.1415,274.0002 136.5625,274.0002 C137.9285,274.0002 139.2895,273.9742 140.6465,273.9342 C140.3825,273.9152 140.1225,273.8832 139.8705,273.8332 C141.0075,273.8052 142.1275,273.7172 143.2585,273.6612 C142.8915,273.7622 142.5215,273.8272 142.1515,273.8772 C214.9795,270.9442 273.1255,210.9862 273.1255,137.4372 C273.1255,62.0162 211.9835,0.8752 136.5625,0.8752" id="Fill-3" fill="#FFFFFF" sketch:type="MSShapeGroup" mask="url(#mask-2)"></path>
            </g>
        </g>
    </g>
</svg>