<svg xmlns="http://www.w3.org/2000/svg" width="17" height="10" viewBox="0 0 17 10">
  <path fill="#41311A" fill-rule="evenodd" d="M16.8292411,1.9921875 L9.02790179,9.79352679 C8.91629408,9.90513449 8.78794715,9.9609375 8.64285714,9.9609375 C8.49776713,9.9609375 8.3694202,9.90513449 8.2578125,9.79352679 L0.456473214,1.9921875 C0.344865513,1.8805798 0.2890625,1.75223287 0.2890625,1.60714286 C0.2890625,1.46205285 0.344865513,1.33370592 0.456473214,1.22209821 L1.29352679,0.385044643 C1.40513449,0.273436942 1.53348142,0.217633929 1.67857143,0.217633929 C1.82366144,0.217633929 1.95200837,0.273436942 2.06361607,0.385044643 L8.64285714,6.96428571 L15.2220982,0.385044643 C15.3337059,0.273436942 15.4620528,0.217633929 15.6071429,0.217633929 C15.7522329,0.217633929 15.8805798,0.273436942 15.9921875,0.385044643 L16.8292411,1.22209821 C16.9408488,1.33370592 16.9966518,1.46205285 16.9966518,1.60714286 C16.9966518,1.75223287 16.9408488,1.8805798 16.8292411,1.9921875 Z" transform="rotate(180 8.5 5)"/>
</svg>
