<svg xmlns="http://www.w3.org/2000/svg" width="25" height="25" viewBox="0 0 25 25"><style>.st0{fill:#FFFFFF;} .st1{fill:#86A6AF;}</style><circle class="st0" cx="12.5" cy="12.5" r="12.5"/><path class="st1" d="M21.9 18.7c0 .2.3.3.5.4.1-.2.2-.4.3-.5-.1-.1-.9-.5-.8.1zM21.1 16.2c-.5-.4-.8.4-.4.8.3.3.7.9 1.1.9 1.3.3-.4-1.4-.7-1.7zM21.3 20.6c-.2 0-.3 0-.4.2-.1.1-.2.3-.2.5.1-.3.3-.5.6-.7zM23.1 15.8c-1.1.2-.6.9 0 1.3l.2.1h.2c.2-.4.3-.8.4-1.1-.1-.5-.3-.4-.8-.3zM13 19.9c0-.1 0-.2-.1-.2-.1-.1-.3 0-.5.1-.1.1-.2.1-.3.2-.4.4-.4 1.2-.6 1.7-.1.4.5.4.6.2.2-.2.3-.5.4-.8.1-.2.2-.5.3-.7.2-.1.2-.3.2-.5zM17 16.2c.1 0 .1-.1.1-.2-.1 0-.1 0-.1.2zM17.3 15.6c0-.1-.1-.1-.1-.2-.1.1-.1.2-.1.3.1 0 .2-.1.2-.1zM19 15.2c0-.2-.1-.4-.3-.4-.1 0-.3.5-.4.7-.1.5.7.2.7-.3zM9.5 10.8c-.4-.3-.3.2 0 0zM6.1 4c.1.4.8.7.8.1V4v.1c.2-.8-.9-.7-.8-.1zM11.1 5.6c-.1.3.2.5.4.2 0-.3-.2-.6-.4-.2zM7.8 6.9c.2 0 .7-.2.7-.4.1-.3-.2-.3-.3-.5-.1-.2.1-1.1-.4-1-.3 0-.2.7-.2 1v.1c0 .3-.4.7.2.8zM4.9 3.3c-.6.5-1.2 1.1-1.6 1.7 0 .2.1.4.2.5.5.4 1-.7 1-1 .1-.5.2-.8.4-1.2zM1.3 15.7c-.2-.3-.3-.5-.5-.8.1.6.3 1.2.5 1.8.2-.3.2-.6 0-1z"/><path class="st1" d="M7.3 5.6c-.4-.1-.4.4-.1.5.1 0 .1 0 0 0 .4 0 .5-.4.1-.5zM16.7 3.7c-.9-.1-1.6-.4-2.5 0-1 .4-.9-.8-1.6-1-1-.2-1.7.6-2.4 1.3-.2.3-.7.8-.7 1.2 0 .6.3.6.7.3 0 0 .4.4.6.3.3-.2.4-.7.7-1 .1-.2.5-.8.8-.7.3.1.1 1.2 0 1.5-.1.4.4.4.6.6.2.2-.4.3-.5.2-.3-.1-.6.3-.9.5-.2.1-1-.1-1-.4 0-.4-.1-.5-.4-.5-.2 0-.3.6-.5.7-.2.2-.4.3-.6.3-.2.1-.5 0-.6.1-.4.4.3.5.4.6.1.1-.3 1-.4 1.1-.2.3-.5.2-.7 0-.3-.2-.9.7-.9 1-.1.3.2.5.4.7.2.2.9.1 1.1-.1.2-.3.4-.8.6-1 1-1.3.7 1.5.8 1.5.3 0 .7-.2.7-.6 0 0-.1-1 0-.8.2.2.3.5.6.3.2-.2.4-.3.7-.2.4 0 .5.7.2.7-.2-.1-.6-.3-.7-.2-.3 0-.4.6-.2.8.2.2 1.2.1.6.8-.3.4-.7 0-1.1.1-.4 0-1.1.2-1.3-.3-.2-.5-.5-.4-1-.3-.2.1-.4.1-.5 0-.1-.1-.2-.2-.4-.2s-.3.2-.5.3c-.4.3-.6.7-.8 1.2-.4 1-1.2 1.6-1.1 2.8.1 1.2 1.8 1.3 2.6 1.4 1 .2.8 1.4.9 2.2.1 1-.1 2-.1 3 0 .3.5.8.7.7.2-.1.2-.3.4-.4l.6-.3c1-.5 1.5-1.7 1.7-2.9.3-.2.4-1.2.6-1.6.3-.4.7-.8 1.1-1.2.1-.1 1.1-1.1.9-1.2-.2-.2-.6 0-.9-.1-.4-.1-1.8-2.6-1.6-2.7.4-.2.1 1.1.6.2.7.5.5 1.9 1.3 2.3.4.2 1 0 1.4 0 .4 0 .5-.3.8-.6.3-.3-.4-1.6-.8-1.5-.4.1-.4.1-.3-.5 0-.4-.1-.7-.2-1.1.3 0 .6.6.9.8.3.3.7.4 1 .7.4.3.6.9.7 1.4.1.2.2 1.3.5 1.4.2 0 .8-.6.8-.8.1-.5.1-.9.4-1.3.3-.5.6-.9.8-1.4.1-.2.6-.8.7-.4 0 .1.2.9.2.9-.3.5-.5 1.1-.2 1.6.1.2.7 2.9 1.1 1.7.2-.6-.6-1.9.4-1.2 1 .6 1.1-.1.9-1.1.4 0 1 .1 1.5 0v-.8c0-3.1-1.2-5.9-3.1-8-.3.1-.5.2-.5.3 0-.1.1-.3.4-.4-.3-.4-.7-.8-1.1-1.1-.2 0-.4.1-.6.1-.9-.1-1.8.4-2.7.3zm-2.2 6c-.1.2-.2.8-.5.6-.5-.2-.1-.7-.3-1.1-.2-.4.6-.8.7-.5.1.1.1.7.1 1z"/></svg>