<svg xmlns="http://www.w3.org/2000/svg" width="135" height="44" viewBox="0 0 135 44">
  <g fill="none" fill-rule="evenodd">
    <g transform="translate(5 3)">
      <path fill="#F6B600" d="M0.533333333,21.3365854 C0.266666667,21.3365854 0.177777778,19.5365854 0.177777778,18.5707317 C0.177777778,13.2146341 4.13333333,9.48292683 9.37777778,9.48292683 C10.7555556,9.48292683 12.2222222,9.7902439 13.1111111,10.4487805 L13.1111111,15.4536585 C12.2222222,14.795122 11.3777778,14.2682927 10.2666667,14.2682927 C8,14.2682927 6.31111111,16.1560976 6.31111111,18.4829268 C6.31111111,19.6682927 6.84444444,21.1170732 7.55555556,21.5560976 L0.666666667,21.5560976 M17.1111111,21.5121951 L22.8888889,21.5121951 L22.8888889,0 L17.1111111,0 L17.1111111,21.5121951 M38.2222222,21.204878 L45.0666667,21.204878 L45.0666667,10.5365854 L39.2888889,10.5365854 L39.2888889,11.6341463 C37.9555556,10.1853659 36.0444444,9.43902439 34.1333333,9.43902439 C29.2,9.43902439 25.7777778,13.5219512 25.7777778,18.3073171 C25.7777778,19.3170732 25.9555556,20.2829268 26.2222222,21.204878 L33.1555556,21.204878 C32.3555556,20.5463415 31.9111111,19.4926829 31.9111111,18.3073171 C31.9111111,16.2439024 33.3333333,14.5317073 35.7333333,14.5317073 C38.1333333,14.5317073 39.5111111,16.2439024 39.5111111,18.3073171 C39.5111111,19.5365854 39.0222222,20.5463415 38.2222222,21.204878 M49.1111111,21.5121951 L54.8888889,21.5121951 L54.8888889,19.9317073 C54.8888889,17.0780488 55.7333333,14.8829268 59.0222222,14.8829268 C59.9555556,14.8829268 60.6666667,14.9707317 61.5555556,15.4536585 L61.5555556,10.097561 L60.7111111,10.097561 C58.4,10.097561 56.4444444,10.9756098 55.2888889,13.1707317 L54.8888889,13.1707317 L54.8888889,10.5365854 L49.1111111,10.5365854 L49.1111111,21.5121951 M75.3333333,21.204878 L82.3111111,21.4682927 L82.3111111,10.5365854 L76.1777778,10.5365854 L76.1777778,11.6341463 C74.8444444,10.1853659 73.0222222,9.43902439 71.0666667,9.43902439 C66.0888889,9.43902439 62.7555556,13.5219512 62.7555556,18.3073171 C62.7555556,19.3170732 62.9333333,20.2829268 63.2444444,21.204878 L70.1777778,21.204878 C69.3777778,20.502439 68.9333333,19.4926829 68.9333333,18.3073171 C68.9333333,16.2439024 70.3555556,14.5317073 72.7555556,14.5317073 C75.1555556,14.5317073 76.5777778,16.2439024 76.5777778,18.3073171 C76.5777778,19.4926829 76.1333333,20.5463415 75.3333333,21.204878 M86.4444444,21.5121951 L92.6666667,21.5121951 L92.6666667,15.3658537 L95.7777778,15.3658537 L95.7777778,10.5365854 L92.6666667,10.5365854 L92.6666667,5.26829268 L86.4444444,5.26829268 L86.4444444,10.5365854 L84.6666667,10.5365854 L84.6666667,15.3658537 L86.4444444,15.3658537 L86.4444444,21.5121951"/>
      <g fill="#006B81" transform="translate(8 28.098)">
        <path d="M0.0888888889,7.4195122 L0.0888888889,0.175609756 L2.17777778,0.175609756 C2.97777778,0.175609756 3.55555556,0.219512195 3.86666667,0.307317073 C4.17777778,0.395121951 4.48888889,0.526829268 4.71111111,0.702439024 C4.97777778,0.92195122 5.15555556,1.14146341 5.33333333,1.44878049 C5.46666667,1.75609756 5.55555556,2.10731707 5.55555556,2.45853659 C5.55555556,3.02926829 5.42222222,3.46829268 5.15555556,3.8195122 C4.88888889,4.17073171 4.48888889,4.3902439 3.95555556,4.52195122 L5.95555556,7.4195122 L3.68888889,7.4195122 L2,4.56585366 L2,7.4195122 L0.0888888889,7.4195122 L0.0888888889,7.4195122 Z M1.95555556,3.6 L2.31111111,3.6 C2.75555556,3.6 3.06666667,3.51219512 3.24444444,3.3804878 C3.42222222,3.24878049 3.55555556,3.02926829 3.55555556,2.67804878 C3.55555556,2.32682927 3.46666667,2.06341463 3.28888889,1.88780488 C3.11111111,1.71219512 2.8,1.66829268 2.35555556,1.66829268 L1.95555556,1.66829268 L1.95555556,3.6 L1.95555556,3.6 Z"/>
        <polygon points="10.8 7.42 10.8 .176 15.289 .176 15.289 1.756 12.756 1.756 12.756 3.029 15.111 3.029 15.111 4.566 12.711 4.566 12.711 5.795 15.244 5.795 15.244 7.42"/>
        <polygon points="20.711 7.42 20.711 .176 25.2 .176 25.2 1.756 22.667 1.756 22.667 3.029 25.067 3.029 25.067 4.566 22.667 4.566 22.667 7.42"/>
        <path d="M30.3555556.175609756L32.3555556.175609756 32.3555556 3.68780488C32.3555556 4.21463415 32.3555556 4.56585366 32.4 4.78536585 32.4444444 5.00487805 32.4888889 5.1804878 32.5333333 5.35609756 32.6222222 5.53170732 32.7555556 5.66341463 32.9333333 5.79512195 33.1111111 5.88292683 33.3777778 5.92682927 33.6444444 5.92682927 33.9111111 5.92682927 34.1333333 5.88292683 34.3555556 5.79512195 34.5333333 5.70731707 34.6666667 5.57560976 34.7555556 5.35609756 34.8 5.22439024 34.8444444 5.00487805 34.8888889 4.78536585 34.9333333 4.56585366 34.9333333 4.17073171 34.9333333 3.68780488L34.9333333 3.20487805 34.9333333.175609756 36.9333333.175609756 36.9333333 3.99512195C36.9333333 4.78536585 36.8888889 5.35609756 36.8 5.75121951 36.7111111 6.14634146 36.5333333 6.45365854 36.3111111 6.71707317 36.0444444 7.02439024 35.7333333 7.24390244 35.2888889 7.37560976 34.8444444 7.50731707 34.3111111 7.59512195 33.6888889 7.59512195 33.0666667 7.59512195 32.5333333 7.50731707 32.0888889 7.37560976 31.6444444 7.24390244 31.2888889 7.02439024 31.0666667 6.71707317 30.8444444 6.45365854 30.6666667 6.14634146 30.5777778 5.75121951 30.4888889 5.35609756 30.4444444 4.78536585 30.4444444 3.99512195L30.4444444 3.24878049 30.4444444.175609756 30.3555556.175609756zM45.9555556 4.74146341L45.9555556 3.20487805 49.8666667 3.20487805 49.8666667 3.3804878 49.8666667 3.64390244C49.8666667 4.87317073 49.5111111 5.83902439 48.8888889 6.54146341 48.2222222 7.24390244 47.2888889 7.55121951 46.0888889 7.55121951 45.5111111 7.55121951 44.9777778 7.46341463 44.4888889 7.28780488 44.0444444 7.11219512 43.6 6.84878049 43.2444444 6.49756098 42.8888889 6.14634146 42.6222222 5.75121951 42.4444444 5.26829268 42.2666667 4.78536585 42.1777778 4.30243902 42.1777778 3.77560976 42.1777778 3.24878049 42.2666667 2.72195122 42.4444444 2.28292683 42.6222222 1.84390244 42.8888889 1.40487805 43.2888889 1.05365854 43.6444444.702439024 44.0888889.43902439 44.5333333.263414634 45.0222222.087804878 45.5111111 0 46.0888889 0 46.8 0 47.4222222.131707317 48 .43902439 48.5777778.746341463 49.0222222 1.14146341 49.3777778 1.71219512L47.6444444 2.54634146C47.4222222 2.28292683 47.2 2.06341463 46.9333333 1.93170732 46.6666667 1.8 46.4 1.71219512 46.0444444 1.71219512 45.4666667 1.71219512 44.9777778 1.88780488 44.6222222 2.28292683 44.2666667 2.67804878 44.0888889 3.20487805 44.0888889 3.90731707 44.0888889 4.6097561 44.2666667 5.13658537 44.6222222 5.53170732 44.9777778 5.92682927 45.4222222 6.14634146 46.0444444 6.14634146 46.5333333 6.14634146 46.9777778 6.01463415 47.3333333 5.79512195 47.6888889 5.57560976 47.8666667 5.22439024 47.9111111 4.82926829L45.9555556 4.82926829 45.9555556 4.74146341z"/>
        <polygon points="55.244 7.42 55.244 .176 59.733 .176 59.733 1.756 57.2 1.756 57.2 3.029 59.6 3.029 59.6 4.566 57.2 4.566 57.2 5.795 59.733 5.795 59.733 7.42"/>
        <polygon points="65.156 7.42 65.156 .176 69.644 .176 69.644 1.756 67.111 1.756 67.111 3.029 69.511 3.029 69.511 4.566 67.111 4.566 67.111 5.795 69.644 5.795 69.644 7.42"/>
        <path d="M75.3777778,5.09268293 C75.6888889,5.44390244 75.9555556,5.66341463 76.2666667,5.83902439 C76.5333333,6.01463415 76.8444444,6.10243902 77.1111111,6.10243902 C77.3777778,6.10243902 77.6,6.01463415 77.7777778,5.88292683 C77.9555556,5.75121951 78.0444444,5.57560976 78.0444444,5.35609756 C78.0444444,5.13658537 77.9555556,4.91707317 77.8222222,4.78536585 C77.6888889,4.65365854 77.3333333,4.52195122 76.8,4.3902439 C76.0888889,4.21463415 75.5555556,3.95121951 75.2888889,3.64390244 C74.9777778,3.33658537 74.8444444,2.89756098 74.8444444,2.37073171 C74.8444444,1.66829268 75.0666667,1.09756098 75.5555556,0.658536585 C76.0444444,0.219512195 76.6222222,-2.84217094e-14 77.3777778,-2.84217094e-14 C77.7777778,-2.84217094e-14 78.1777778,0.043902439 78.5333333,0.175609756 C78.8888889,0.263414634 79.2444444,0.43902439 79.5555556,0.658536585 L78.9333333,2.06341463 C78.7111111,1.88780488 78.4888889,1.71219512 78.2222222,1.62439024 C77.9555556,1.53658537 77.7333333,1.49268293 77.5111111,1.49268293 C77.2888889,1.49268293 77.0666667,1.53658537 76.9333333,1.66829268 C76.8,1.8 76.7111111,1.93170732 76.7111111,2.10731707 C76.7111111,2.28292683 76.7555556,2.41463415 76.8888889,2.54634146 C77.0222222,2.67804878 77.2888889,2.76585366 77.6444444,2.85365854 L77.7333333,2.89756098 C78.5333333,3.11707317 79.0666667,3.33658537 79.3333333,3.6 C79.5111111,3.77560976 79.6444444,3.99512195 79.7333333,4.25853659 C79.8222222,4.52195122 79.8666667,4.78536585 79.8666667,5.09268293 C79.8666667,5.88292683 79.6,6.49756098 79.1111111,6.93658537 C78.6222222,7.4195122 77.9111111,7.63902439 77.0666667,7.63902439 C76.5777778,7.63902439 76.0888889,7.55121951 75.6888889,7.37560976 C75.2888889,7.2 74.8888889,6.93658537 74.4888889,6.58536585 L75.3777778,5.09268293 L75.3777778,5.09268293 Z"/>
      </g>
    </g>
    <path stroke="#000000" d="M120.792893,17.6636159 L113.767417,24.6890923 L113.442576,25.0139335 L112.792893,24.3642511 L113.117734,24.0394098 L120.468052,16.6890923 L120.792893,16.3642511 L120.955314,16.5266717 L121.117734,16.6890923 L128.468052,24.0394098 L128.792893,24.3642511 L128.143211,25.0139335 L127.81837,24.6890923 L120.792893,17.6636159 Z" stroke-linecap="square"/>
  </g>
</svg>
