<svg xmlns="http://www.w3.org/2000/svg" width="135" height="44" viewBox="0 0 135 44">
  <g fill="none" fill-rule="evenodd">
    <g transform="translate(5 3)">
      <g fill="#AF1D3F" transform="translate(19.111 28.098)">
        <polygon points=".311 7.595 .311 .351 4.8 .351 4.8 1.932 2.267 1.932 2.267 3.205 4.667 3.205 4.667 4.741 2.267 4.741 2.267 7.595"/>
        <path d="M8.97777778 7.59512195L11.5111111.351219512 14 .351219512 16.5333333 7.59512195 14.5333333 7.59512195 14.1777778 6.27804878 11.3333333 6.27804878 10.9333333 7.59512195 8.97777778 7.59512195 8.97777778 7.59512195zM11.7777778 4.91707317L13.7777778 4.91707317 13.0222222 2.54634146C12.9777778 2.45853659 12.9777778 2.37073171 12.9333333 2.19512195 12.8888889 2.0195122 12.8444444 1.84390244 12.8 1.5804878 12.7555556 1.75609756 12.7111111 1.93170732 12.6666667 2.10731707 12.6222222 2.28292683 12.5777778 2.41463415 12.5333333 2.5902439L11.7777778 4.91707317 11.7777778 4.91707317zM29.7333333 7.59512195L27.8666667 7.59512195 27.4222222 4.47804878C27.3777778 4.25853659 27.3777778 3.99512195 27.3333333 3.73170732 27.2888889 3.46829268 27.2888889 3.16097561 27.2444444 2.85365854 27.2 3.16097561 27.1111111 3.55609756 26.9777778 3.99512195 26.9333333 4.08292683 26.9333333 4.17073171 26.9333333 4.21463415L25.9555556 7.59512195 24.6222222 7.59512195 23.6444444 4.21463415C23.6444444 4.17073171 23.6 4.08292683 23.6 3.99512195 23.4666667 3.55609756 23.3777778 3.16097561 23.3333333 2.85365854 23.3333333 3.11707317 23.2888889 3.3804878 23.2444444 3.68780488 23.2 3.99512195 23.2 4.21463415 23.1555556 4.47804878L22.7111111 7.59512195 20.8444444 7.59512195 21.9555556.351219512 23.9555556.351219512 25.0666667 4.08292683C25.0666667 4.12682927 25.0666667 4.17073171 25.1111111 4.21463415 25.2 4.56585366 25.2888889 4.82926829 25.2888889 5.04878049 25.2888889 4.91707317 25.3333333 4.78536585 25.3777778 4.6097561 25.4222222 4.43414634 25.4666667 4.25853659 25.5111111 4.03902439L26.6222222.307317073 28.6222222.307317073 29.7333333 7.59512195 29.7333333 7.59512195z"/>
        <polygon points="34.978 7.595 34.978 .351 36.978 .351 36.978 7.595"/>
        <polygon points="42.711 7.595 42.711 .351 44.711 .351 44.711 5.883 47.2 5.883 47.2 7.595"/>
        <path d="M53.0222222,7.59512195 L53.0222222,4.30243902 L50.4444444,0.351219512 L52.7555556,0.351219512 L53.7333333,2.19512195 C53.7333333,2.19512195 53.7333333,2.23902439 53.7777778,2.23902439 C53.8666667,2.41463415 53.9555556,2.63414634 54,2.8097561 C54.0444444,2.63414634 54.0888889,2.45853659 54.2222222,2.28292683 C54.2222222,2.23902439 54.2666667,2.23902439 54.2666667,2.19512195 L55.2444444,0.351219512 L57.5555556,0.351219512 L54.9777778,4.30243902 L54.9777778,7.59512195 L53.0222222,7.59512195 L53.0222222,7.59512195 Z"/>
      </g>
      <path fill="#F6B600" d="M0.533333333,21.3365854 C0.266666667,21.3365854 0.177777778,19.5365854 0.177777778,18.5707317 C0.177777778,13.2146341 4.13333333,9.48292683 9.37777778,9.48292683 C10.7555556,9.48292683 12.2222222,9.7902439 13.1111111,10.4487805 L13.1111111,15.4536585 C12.2222222,14.795122 11.3777778,14.2682927 10.2666667,14.2682927 C8,14.2682927 6.31111111,16.1560976 6.31111111,18.4829268 C6.31111111,19.6682927 6.84444444,21.1170732 7.55555556,21.5560976 L0.666666667,21.5560976 M17.1111111,21.5121951 L22.8888889,21.5121951 L22.8888889,0 L17.1111111,0 L17.1111111,21.5121951 M38.2222222,21.204878 L45.0666667,21.204878 L45.0666667,10.5365854 L39.2888889,10.5365854 L39.2888889,11.6341463 C37.9555556,10.1853659 36.0444444,9.43902439 34.1333333,9.43902439 C29.2,9.43902439 25.7777778,13.5219512 25.7777778,18.3073171 C25.7777778,19.3170732 25.9555556,20.2829268 26.2222222,21.204878 L33.1555556,21.204878 C32.3555556,20.5463415 31.9111111,19.4926829 31.9111111,18.3073171 C31.9111111,16.2439024 33.3333333,14.5317073 35.7333333,14.5317073 C38.1333333,14.5317073 39.5111111,16.2439024 39.5111111,18.3073171 C39.5111111,19.5365854 39.0222222,20.5463415 38.2222222,21.204878 M49.1111111,21.5121951 L54.8888889,21.5121951 L54.8888889,19.9317073 C54.8888889,17.0780488 55.7333333,14.8829268 59.0222222,14.8829268 C59.9555556,14.8829268 60.6666667,14.9707317 61.5555556,15.4536585 L61.5555556,10.097561 L60.7111111,10.097561 C58.4,10.097561 56.4444444,10.9756098 55.2888889,13.1707317 L54.8888889,13.1707317 L54.8888889,10.5365854 L49.1111111,10.5365854 L49.1111111,21.5121951 M75.3333333,21.204878 L82.3111111,21.4682927 L82.3111111,10.5365854 L76.1777778,10.5365854 L76.1777778,11.6341463 C74.8444444,10.1853659 73.0222222,9.43902439 71.0666667,9.43902439 C66.0888889,9.43902439 62.7555556,13.5219512 62.7555556,18.3073171 C62.7555556,19.3170732 62.9333333,20.2829268 63.2444444,21.204878 L70.1777778,21.204878 C69.3777778,20.502439 68.9333333,19.4926829 68.9333333,18.3073171 C68.9333333,16.2439024 70.3555556,14.5317073 72.7555556,14.5317073 C75.1555556,14.5317073 76.5777778,16.2439024 76.5777778,18.3073171 C76.5777778,19.4926829 76.1333333,20.5463415 75.3333333,21.204878 M86.4444444,21.5121951 L92.6666667,21.5121951 L92.6666667,15.3658537 L95.7777778,15.3658537 L95.7777778,10.5365854 L92.6666667,10.5365854 L92.6666667,5.26829268 L86.4444444,5.26829268 L86.4444444,10.5365854 L84.6666667,10.5365854 L84.6666667,15.3658537 L86.4444444,15.3658537 L86.4444444,21.5121951"/>
    </g>
    <path stroke="#000000" d="M120.792893,17.6636159 L113.767417,24.6890923 L113.442576,25.0139335 L112.792893,24.3642511 L113.117734,24.0394098 L120.468052,16.6890923 L120.792893,16.3642511 L120.955314,16.5266717 L121.117734,16.6890923 L128.468052,24.0394098 L128.792893,24.3642511 L128.143211,25.0139335 L127.81837,24.6890923 L120.792893,17.6636159 Z" stroke-linecap="square"/>
  </g>
</svg>
