<?xml version="1.0" encoding="UTF-8" standalone="no"?>
<svg width="297px" height="65px" viewBox="0 0 297 65" version="1.1" xmlns="http://www.w3.org/2000/svg" xmlns:xlink="http://www.w3.org/1999/xlink" xmlns:sketch="http://www.bohemiancoding.com/sketch/ns">
    <!-- Generator: Sketch Beta 3.2 (9940) - http://www.bohemiancoding.com/sketch -->
    <title>Slice 1</title>
    <desc>Created with Sketch Beta.</desc>
    <defs>
        <path id="path-1" d="M0,0.940982036 L296.814878,0.940982036 L296.814878,64.5937725 L0,64.5937725"></path>
    </defs>
    <g id="Page-1" stroke="none" stroke-width="1" fill="none" fill-rule="evenodd" sketch:type="MSPage">
        <g id="Logo" sketch:type="MSLayerGroup">
            <mask id="mask-2" sketch:name="Clip 2" fill="white">
                <use xlink:href="#path-1"></use>
            </mask>
            <g id="Clip-2"></g>
            <path d="M1.32321951,64.6106347 C0.464817073,62.1138683 0,59.4235689 0,56.5868743 C0,40.7290539 12.7162683,29.7727904 28.9647439,29.7727904 C33.2036341,29.7727904 37.4425244,30.7339401 41.0753415,32.6562395 L41.0753415,47.4567186 C38.3504268,45.5344192 35.1208537,43.9968862 31.5890488,43.9968862 C24.5242317,43.9968862 18.9733902,49.1866347 18.9733902,56.0101078 C18.9733902,59.4998323 20.2615976,62.481006 22.4677683,64.6117844 L1.32321951,64.6106347" id="Fill-1" fill="#F4B528" sketch:type="MSShapeGroup" mask="url(#mask-2)"></path>
            <path d="M52.4796585,64.6114012 L52.4796585,0.940982036 L70.8477805,0.940982036 L70.8477805,64.6106347 L52.4796585,64.6114012" id="Fill-3" fill="#F4B528" sketch:type="MSShapeGroup" mask="url(#mask-2)"></path>
            <path d="M117.99472,64.6125509 C120.470927,62.609006 121.813061,59.5803114 121.813061,56.1062994 C121.813061,50.0515928 117.473561,44.9576527 110.005098,44.9576527 C102.537037,44.9576527 98.1971341,50.0515928 98.1971341,56.1062994 C98.1971341,59.5757126 99.5360488,62.6005749 102.015476,64.6137006 L80.6173902,64.6106347 C79.7046585,61.8877605 79.2237439,58.9916647 79.2237439,56.0101078 C79.2237439,41.8825868 89.8203659,29.7727904 105.160939,29.7727904 C111.115024,29.7727904 117.372549,31.8870898 121.207793,36.2122635 L121.207793,31.4068982 L139.575512,31.4068982 L139.575512,64.6106347 L117.99472,64.6125509" id="Fill-4" fill="#F4B528" sketch:type="MSShapeGroup" mask="url(#mask-2)"></path>
            <path d="M151.787927,64.6140838 L151.787927,31.4068982 L170.156049,31.4068982 L170.156049,39.4797126 L170.357671,39.4797126 C173.889878,33.425006 179.945378,30.7339401 187.111207,30.7339401 L190.643415,30.7339401 L190.643415,47.5525269 C188.120524,46.2073772 185.698244,45.9188024 182.872317,45.9188024 C172.679341,45.9188024 170.156049,52.3582754 170.156049,60.8154731 L170.156049,64.6140838 L151.787927,64.6140838" id="Fill-5" fill="#F4B528" sketch:type="MSShapeGroup" mask="url(#mask-2)"></path>
            <path d="M232.547378,64.6167665 C235.030024,62.6009581 236.361293,59.5757126 236.361293,56.1062994 C236.361293,50.0515928 232.02139,44.9576527 224.552927,44.9576527 C217.084463,44.9576527 212.744963,50.0515928 212.744963,56.1062994 C212.744963,59.5757126 214.083476,62.6005749 216.553646,64.6163832 L195.155963,64.6137006 C194.252488,61.8877605 193.771573,58.9916647 193.771573,56.0101078 C193.771573,41.8825868 204.368598,29.7727904 219.708768,29.7727904 C225.663256,29.7727904 231.92078,31.8870898 235.755622,36.2122635 L235.755622,31.4068982 L254.123341,31.4068982 L254.128171,64.6140838 L232.547378,64.6167665" id="Fill-6" fill="#F4B528" sketch:type="MSShapeGroup" mask="url(#mask-2)"></path>
            <path d="M268.051756,64.6140838 L268.051756,45.8226108 L262.097268,45.8226108 L262.097268,31.4068982 L268.051756,31.4068982 L268.051756,16.6064192 L286.419476,16.6064192 L286.419476,31.4068982 L296.814878,31.4068982 L296.814878,45.8226108 L286.419476,45.8226108 L286.419476,64.6140838 L268.051756,64.6140838" id="Fill-7" fill="#F4B528" sketch:type="MSShapeGroup" mask="url(#mask-2)"></path>
        </g>
    </g>
</svg>