<?xml version="1.0" encoding="UTF-8" standalone="no"?>
<svg width="90px" height="20px" viewBox="0 0 90 20" version="1.1" xmlns="http://www.w3.org/2000/svg" xmlns:xlink="http://www.w3.org/1999/xlink" xmlns:sketch="http://www.bohemiancoding.com/sketch/ns">
    <!-- Generator: Sketch 3.2.2 (9983) - http://www.bohemiancoding.com/sketch -->
    <title>Logo</title>
    <desc>Created with Sketch.</desc>
    <defs>
        <path id="path-1" d="M0,0.289532934 L89.9439024,0.289532934 L89.9439024,19.8750069 L0,19.8750069"></path>
    </defs>
    <g id="Page-1" stroke="none" stroke-width="1" fill="none" fill-rule="evenodd" sketch:type="MSPage">
        <g id="Logo" sketch:type="MSLayerGroup">
            <mask id="mask-2" sketch:name="Clip 2" fill="white">
                <use xlink:href="#path-1"></use>
            </mask>
            <g id="Clip-2"></g>
            <path d="M0.40097561,19.8801953 C0.140853659,19.1119595 0,18.284175 0,17.4113459 C0,12.5320166 3.85341463,9.16085859 8.77719512,9.16085859 C10.0617073,9.16085859 11.3462195,9.45659696 12.4470732,10.0480737 L12.4470732,14.6020673 C11.6213415,14.0105905 10.6426829,13.5375035 9.57243902,13.5375035 C7.43158537,13.5375035 5.7495122,15.1343491 5.7495122,17.2338793 C5.7495122,18.3076407 6.13987805,19.2249249 6.80841463,19.8805491 L0.40097561,19.8801953" id="Fill-1" fill="#FFFFFF" sketch:type="MSShapeGroup" mask="url(#mask-2)"></path>
            <path d="M15.9029268,19.8804311 L15.9029268,0.289532934 L21.4690244,0.289532934 L21.4690244,19.8801953 L15.9029268,19.8804311" id="Fill-3" fill="#FFFFFF" sketch:type="MSShapeGroup" mask="url(#mask-2)"></path>
            <path d="M35.7559756,19.8807849 C36.5063415,19.2643095 36.9130488,18.3324035 36.9130488,17.2634767 C36.9130488,15.4004901 35.5980488,13.8331239 33.334878,13.8331239 C31.0718293,13.8331239 29.7567073,15.4004901 29.7567073,17.2634767 C29.7567073,18.3309885 30.162439,19.2617153 30.9137805,19.8811386 L24.4295122,19.8801953 C24.1529268,19.0423878 24.0071951,18.1512814 24.0071951,17.2338793 C24.0071951,12.8869498 27.2182927,9.16085859 31.8669512,9.16085859 C33.6712195,9.16085859 35.567439,9.81141225 36.7296341,11.1422349 L36.7296341,9.66366099 L42.2956098,9.66366099 L42.2956098,19.8801953 L35.7559756,19.8807849" id="Fill-4" fill="#FFFFFF" sketch:type="MSShapeGroup" mask="url(#mask-2)"></path>
            <path d="M45.9963415,19.8812566 L45.9963415,9.66366099 L51.562439,9.66366099 L51.562439,12.1476039 L51.6235366,12.1476039 C52.6939024,10.2846172 54.5289024,9.45659696 56.7003659,9.45659696 L57.7707317,9.45659696 L57.7707317,14.6315468 C57.0062195,14.2176545 56.2721951,14.1288623 55.4158537,14.1288623 C52.3270732,14.1288623 51.562439,16.1102386 51.562439,18.7124532 L51.562439,19.8812566 L45.9963415,19.8812566" id="Fill-5" fill="#FFFFFF" sketch:type="MSShapeGroup" mask="url(#mask-2)"></path>
            <path d="M70.4689024,19.882082 C71.2212195,19.2618333 71.6246341,18.3309885 71.6246341,17.2634767 C71.6246341,15.4004901 70.3095122,13.8331239 68.0463415,13.8331239 C65.7831707,13.8331239 64.4681707,15.4004901 64.4681707,17.2634767 C64.4681707,18.3309885 64.8737805,19.2617153 65.6223171,19.8819641 L59.1381707,19.8811386 C58.8643902,19.0423878 58.7186585,18.1512814 58.7186585,17.2338793 C58.7186585,12.8869498 61.929878,9.16085859 66.5784146,9.16085859 C68.3828049,9.16085859 70.2790244,9.81141225 71.4410976,11.1422349 L71.4410976,9.66366099 L77.0070732,9.66366099 L77.0085366,19.8812566 L70.4689024,19.882082" id="Fill-6" fill="#FFFFFF" sketch:type="MSShapeGroup" mask="url(#mask-2)"></path>
            <path d="M81.2278049,19.8812566 L81.2278049,14.0992649 L79.4234146,14.0992649 L79.4234146,9.66366099 L81.2278049,9.66366099 L81.2278049,5.10966743 L86.7937805,5.10966743 L86.7937805,9.66366099 L89.9439024,9.66366099 L89.9439024,14.0992649 L86.7937805,14.0992649 L86.7937805,19.8812566 L81.2278049,19.8812566" id="Fill-7" fill="#FFFFFF" sketch:type="MSShapeGroup" mask="url(#mask-2)"></path>
        </g>
    </g>
</svg>