<?xml version="1.0" encoding="utf-8"?>
<!-- Generator: Adobe Illustrator 19.2.1, SVG Export Plug-In . SVG Version: 6.00 Build 0)  -->
<svg version="1.1" id="Layer_1" xmlns="http://www.w3.org/2000/svg" xmlns:xlink="http://www.w3.org/1999/xlink" x="0px" y="0px"
	 viewBox="0 0 126.5 52.4" style="enable-background:new 0 0 126.5 52.4;" xml:space="preserve">
<style type="text/css">
	.st0{fill:#53AB47;}
</style>
<g>
	<g>
		<path class="st0" d="M19,52.4V49h-0.6v-0.5H19v-0.2c0-0.5,0.1-1,0.5-1.3c0.3-0.3,0.7-0.4,1-0.4c0.3,0,0.5,0.1,0.6,0.1L21,47.3
			c-0.1,0-0.3-0.1-0.5-0.1c-0.6,0-0.8,0.5-0.8,1.1v0.2h1V49h-1v3.3H19z"/>
		<path class="st0" d="M24.9,51.3c0,0.4,0,0.8,0,1.1h-0.7l0-0.6h0c-0.2,0.3-0.6,0.7-1.4,0.7c-0.7,0-1.4-0.3-1.4-1.7v-2.3h0.8v2.1
			c0,0.7,0.3,1.2,0.9,1.2c0.5,0,0.9-0.3,1-0.6c0-0.1,0.1-0.2,0.1-0.4v-2.4h0.8V51.3z M22,47.4c0-0.2,0.2-0.4,0.4-0.4
			c0.2,0,0.4,0.2,0.4,0.4c0,0.2-0.2,0.4-0.4,0.4C22.1,47.8,22,47.6,22,47.4z M23.6,47.4c0-0.2,0.2-0.4,0.4-0.4
			c0.2,0,0.4,0.2,0.4,0.4c0,0.2-0.2,0.4-0.4,0.4C23.7,47.8,23.6,47.6,23.6,47.4z"/>
		<path class="st0" d="M26.2,49.7c0-0.5,0-0.8,0-1.2h0.7l0,0.8h0c0.2-0.5,0.7-0.8,1.2-0.8c0.1,0,0.1,0,0.2,0v0.7c-0.1,0-0.2,0-0.3,0
			c-0.5,0-0.9,0.4-1,0.9c0,0.1,0,0.2,0,0.3v2.1h-0.8V49.7z"/>
		<path class="st0" d="M34.4,46.7v4.7c0,0.3,0,0.7,0,1h-0.7l0-0.7h0c-0.2,0.4-0.7,0.8-1.4,0.8c-1,0-1.8-0.8-1.8-2
			c0-1.3,0.9-2.1,1.9-2.1c0.6,0,1.1,0.3,1.3,0.6h0v-2.3H34.4z M33.7,50.1c0-0.1,0-0.2,0-0.3c-0.1-0.4-0.5-0.8-1.1-0.8
			c-0.8,0-1.3,0.6-1.3,1.5c0,0.8,0.4,1.4,1.2,1.4c0.5,0,1-0.3,1.1-0.8c0-0.1,0-0.2,0-0.3V50.1z"/>
		<path class="st0" d="M38.7,51.4c0,0.3,0,0.7,0.1,0.9H38L38,51.9h0c-0.2,0.3-0.7,0.6-1.3,0.6c-0.8,0-1.3-0.5-1.3-1.1
			c0-0.9,0.9-1.4,2.5-1.4v-0.1c0-0.3-0.1-0.9-1-0.9c-0.4,0-0.8,0.1-1.1,0.3l-0.2-0.5c0.3-0.2,0.9-0.3,1.4-0.3c1.3,0,1.6,0.8,1.6,1.6
			V51.4z M37.9,50.4c-0.8,0-1.8,0.1-1.8,0.9c0,0.5,0.3,0.7,0.7,0.7c0.6,0,0.9-0.3,1-0.6c0-0.1,0-0.2,0-0.2V50.4z"/>
		<path class="st0" d="M39.8,51.6c0.2,0.1,0.6,0.3,1,0.3c0.5,0,0.8-0.2,0.8-0.6c0-0.3-0.2-0.5-0.8-0.7c-0.8-0.3-1.1-0.6-1.1-1.1
			c0-0.6,0.6-1.1,1.4-1.1c0.4,0,0.8,0.1,1,0.2L42,49.2c-0.2-0.1-0.5-0.2-0.9-0.2c-0.4,0-0.7,0.2-0.7,0.5c0,0.3,0.2,0.5,0.8,0.7
			c0.7,0.2,1.1,0.6,1.1,1.2c0,0.7-0.6,1.2-1.6,1.2c-0.5,0-0.9-0.1-1.2-0.3L39.8,51.6z"/>
		<path class="st0" d="M46.1,50.7l-0.6,1.7h-0.8l2-5.4h0.9l2,5.4h-0.8l-0.6-1.7H46.1z M48,50.1l-0.6-1.5c-0.1-0.4-0.2-0.7-0.3-1h0
			c-0.1,0.3-0.2,0.6-0.3,1l-0.6,1.6H48z"/>
		<path class="st0" d="M50.4,46.7h0.8v2.4h0c0.3-0.4,0.8-0.7,1.4-0.7c1,0,1.8,0.8,1.8,2c0,1.4-1,2.1-1.9,2.1c-0.6,0-1.1-0.2-1.4-0.7
			h0l0,0.6h-0.6c0-0.3,0-0.7,0-1V46.7z M51.2,50.8c0,0.1,0,0.2,0,0.3c0.1,0.5,0.6,0.8,1.1,0.8c0.8,0,1.3-0.6,1.3-1.5
			c0-0.8-0.4-1.4-1.3-1.4c-0.5,0-1,0.3-1.1,0.9c0,0.1,0,0.2,0,0.3V50.8z"/>
		<path class="st0" d="M55.8,50.6c0,0.9,0.7,1.3,1.4,1.3c0.5,0,0.9-0.1,1.2-0.2l0.1,0.5c-0.3,0.1-0.7,0.2-1.4,0.2
			c-1.3,0-2.1-0.8-2.1-1.9c0-1.2,0.7-2.1,2-2.1c1.4,0,1.7,1.1,1.7,1.8c0,0.1,0,0.2,0,0.3H55.8z M58,50.1c0-0.4-0.2-1.1-1.1-1.1
			c-0.8,0-1.1,0.6-1.2,1.1H58z"/>
		<path class="st0" d="M59.7,49.5c0-0.4,0-0.7,0-1h0.7l0,0.6h0c0.2-0.4,0.7-0.7,1.4-0.7c0.6,0,1.5,0.3,1.5,1.6v2.3h-0.8v-2.2
			c0-0.6-0.3-1.1-1-1.1c-0.5,0-0.9,0.3-1,0.7c0,0.1-0.1,0.2-0.1,0.3v2.3h-0.8V49.5z"/>
		<path class="st0" d="M65.4,47.6v0.9h1.1V49h-1.1v2.1c0,0.5,0.1,0.7,0.6,0.7c0.2,0,0.3,0,0.4,0l0,0.5c-0.1,0-0.4,0.1-0.7,0.1
			c-0.4,0-0.6-0.1-0.8-0.3c-0.2-0.2-0.3-0.6-0.3-1V49H64v-0.5h0.6v-0.7L65.4,47.6z"/>
		<path class="st0" d="M67.8,50.6c0,0.9,0.7,1.3,1.4,1.3c0.5,0,0.9-0.1,1.2-0.2l0.1,0.5c-0.3,0.1-0.7,0.2-1.4,0.2
			c-1.3,0-2.1-0.8-2.1-1.9c0-1.2,0.7-2.1,2-2.1c1.4,0,1.7,1.1,1.7,1.8c0,0.1,0,0.2,0,0.3H67.8z M70,50.1c0-0.4-0.2-1.1-1.1-1.1
			c-0.8,0-1.1,0.6-1.2,1.1H70z"/>
		<path class="st0" d="M75.2,51.3c0,0.4,0,0.8,0,1.1h-0.7l0-0.6h0c-0.2,0.3-0.6,0.7-1.4,0.7c-0.7,0-1.4-0.3-1.4-1.7v-2.3h0.8v2.1
			c0,0.7,0.3,1.2,0.9,1.2c0.5,0,0.9-0.3,1-0.6c0-0.1,0.1-0.2,0.1-0.4v-2.4h0.8V51.3z"/>
		<path class="st0" d="M76.9,50.6c0,0.9,0.7,1.3,1.4,1.3c0.5,0,0.9-0.1,1.2-0.2l0.1,0.5c-0.3,0.1-0.7,0.2-1.4,0.2
			c-1.3,0-2.1-0.8-2.1-1.9c0-1.2,0.7-2.1,2-2.1c1.4,0,1.7,1.1,1.7,1.8c0,0.1,0,0.2,0,0.3H76.9z M79.1,50.1c0-0.4-0.2-1.1-1.1-1.1
			c-0.8,0-1.1,0.6-1.2,1.1H79.1z"/>
		<path class="st0" d="M80.8,49.7c0-0.5,0-0.8,0-1.2h0.7l0,0.8h0c0.2-0.5,0.7-0.8,1.2-0.8c0.1,0,0.1,0,0.2,0v0.7c-0.1,0-0.2,0-0.3,0
			c-0.5,0-0.9,0.4-1,0.9c0,0.1,0,0.2,0,0.3v2.1h-0.8V49.7z"/>
		<path class="st0" d="M85.4,47h3.1v0.6h-2.4v1.8h2.2v0.6h-2.2v2.4h-0.8V47z"/>
		<path class="st0" d="M92.6,51.4c0,0.3,0,0.7,0.1,0.9h-0.7l-0.1-0.5h0c-0.2,0.3-0.7,0.6-1.3,0.6c-0.8,0-1.3-0.5-1.3-1.1
			c0-0.9,0.9-1.4,2.5-1.4v-0.1c0-0.3-0.1-0.9-1-0.9c-0.4,0-0.8,0.1-1.1,0.3l-0.2-0.5c0.3-0.2,0.9-0.3,1.4-0.3c1.3,0,1.6,0.8,1.6,1.6
			V51.4z M91.8,50.4c-0.8,0-1.8,0.1-1.8,0.9c0,0.5,0.3,0.7,0.7,0.7c0.6,0,0.9-0.3,1-0.6c0-0.1,0-0.2,0-0.2V50.4z"/>
		<path class="st0" d="M93.8,49.5c0-0.4,0-0.7,0-1h0.7l0,0.6h0c0.2-0.4,0.6-0.7,1.3-0.7c0.6,0,1,0.3,1.2,0.8h0
			c0.1-0.2,0.3-0.4,0.5-0.5c0.3-0.2,0.5-0.3,0.9-0.3c0.6,0,1.4,0.3,1.4,1.7v2.3H99v-2.2c0-0.7-0.3-1.2-0.9-1.2
			c-0.4,0-0.8,0.3-0.9,0.6c0,0.1-0.1,0.2-0.1,0.4v2.4h-0.7V50c0-0.6-0.3-1-0.9-1c-0.5,0-0.8,0.3-0.9,0.7c0,0.1-0.1,0.2-0.1,0.3v2.3
			h-0.7V49.5z"/>
		<path class="st0" d="M101.9,47.4c0,0.2-0.2,0.4-0.5,0.4c-0.3,0-0.5-0.2-0.5-0.4c0-0.2,0.2-0.4,0.5-0.4
			C101.7,47,101.9,47.2,101.9,47.4z M101,52.4v-3.8h0.8v3.8H101z"/>
		<path class="st0" d="M103,46.7h0.8v5.6H103V46.7z"/>
		<path class="st0" d="M105.9,47.4c0,0.2-0.2,0.4-0.5,0.4c-0.3,0-0.5-0.2-0.5-0.4c0-0.2,0.2-0.4,0.5-0.4
			C105.7,47,105.9,47.2,105.9,47.4z M105.1,52.4v-3.8h0.8v3.8H105.1z"/>
		<path class="st0" d="M107.5,50.6c0,0.9,0.7,1.3,1.4,1.3c0.5,0,0.9-0.1,1.2-0.2l0.1,0.5c-0.3,0.1-0.7,0.2-1.4,0.2
			c-1.3,0-2.1-0.8-2.1-1.9c0-1.2,0.7-2.1,2-2.1c1.4,0,1.7,1.1,1.7,1.8c0,0.1,0,0.2,0,0.3H107.5z M109.7,50.1c0-0.4-0.2-1.1-1.1-1.1
			c-0.8,0-1.1,0.6-1.2,1.1H109.7z"/>
	</g>
	<g>
		<path class="st0" d="M81.2,42.2c-1-0.1-7-1.4-11.2-2.2c0.5-0.8,0.8-1.7,1-2.6c1.1-4.4,3-12,4.3-14.2c2.2-3.6,4.6-4,5.5-2.9
			c0.8,1.1-0.4,2.6-1.1,3.6c-0.7,0.9-1.4,0.5-2,0.8c-0.6,0.3,0.4,0.7,1.7,0.3c1.3-0.3,3.2-1.9,3.2-3.4c0-1-0.2-2.9-4.5-2.4
			c-4.3,0.5-6.4,6.8-8,14.1c-0.7,3-1.4,4.9-2,6.2c-1-0.2-1.8-0.4-2.1-0.4c-1.5-0.3-5.7,0-4,2.3c2.5,3.1,5.3,2.1,7.2-0.3
			c4.4,0.6,9.7,1.7,10.8,1.9c1.8,0.3,3.6-0.3,3.3-0.8C83.1,41.8,82.6,42.3,81.2,42.2 M66.6,41.8c-2.9,1.8-5.1-0.6-3-1.1
			c0.5-0.1,2,0,3.8,0.3C66.9,41.6,66.6,41.8,66.6,41.8"/>
		<path class="st0" d="M90.6,19.8c-0.1-1.1-1.6-2.7-3-0.4c-1.4,2.3-3.5,7-3.9,11.8c-0.2,2.4-0.1,4.4,0.4,6c-1.2,2.4-4.5,2.5-5.6,0.6
			c0.7-0.4,2.7-1.8,3.6-3.6c1.4-3-2.2-5.3-3.7-3.3c-0.5,0.7-1.3,2-1.6,3.6c-0.8,5.4,6,7.8,8,4c0.5,0.8,1.2,1.4,2,1.7
			c2.7,0.9,3.6-2.6,3.7-5c0.1-2.5-1.8-5-3.8-4.1c0.6-1.3,1.2-2.7,1.7-3.7C89.7,24.6,90.7,20.9,90.6,19.8 M78,36.5c0-0.4,0-0.7,0-1.1
			c0.1-1.1,0.7-2.2,1.1-3c1.4-2,2.4-0.8,1.9,0.6C80.8,33.9,79.6,35.8,78,36.5 M87.1,31.9c0.8-0.2,1.2-0.1,1.6,1.1
			c0.6,1.6,0.1,6.8-2.3,6.1c-1-0.3-1.3-2.4-1.2-4.9c0.3-0.6,0.7-1.6,1.1-2.6C86.5,31.8,87,32,87.1,31.9 M85.2,31
			c0.4-2.2,1.4-5.2,1.7-6.1c1.7-4.6,2.8-5.7,2.3-3.5C88.8,23.2,86.8,28.4,85.2,31"/>
		<path class="st0" d="M109.7,37.1c-0.2,0.4-0.5,1.1-1,1.6c-0.2,0.3-1.8,1.6-2.8,0.8c-0.2-0.2-0.4-0.6-0.5-1.2
			c-0.1-1.4,1.2-5.1,1.3-5.4c0.1-0.3-1.2-1.4-2-0.9c-1.1,0.7-3.3,3.8-3.7,4.5c-0.2,0.4-0.4,0.4-0.5,0.2c0-0.2,0.6-3.3,0.6-3.5
			c0-0.6-1.6-1.9-1.8-1.1c0,0.3-0.3,3.1-0.5,5c0,0,0,0,0,0c-1.2,2.5-4.5,2.6-5.7,0.7c0.7-0.4,2.7-1.8,3.6-3.6c1.4-3-2.2-5.3-3.7-3.3
			c-0.5,0.7-1.3,2-1.6,3.6c-0.7,4.9,4.9,7.4,7.4,4.9c0.4,1,1.6,1.8,1.8,1.2c0.8-2.2,2.1-4.2,2.8-5.1c0.3-0.4,0.5-0.3,0.5,0
			c0,0.2-0.2,1.2,0,2.5c0.2,1.4,1.8,3.2,3.8,3c1.8-0.1,2.4-1.8,2.8-3C110.7,37.5,109.8,36.9,109.7,37.1 M92.8,36.5
			c0-0.4,0-0.7,0-1.1c0.1-1.1,0.7-2.2,1.1-3c1.4-2,2.4-0.8,1.9,0.6C95.6,33.9,94.5,35.8,92.8,36.5"/>
		<path class="st0" d="M112.6,38.9c-0.7-0.4-1.1,0.1-0.9,0.6c0.1,0.3,0.3,0.5,0.6,0.7c0.7,0.5,1.2-0.1,0.9-0.7
			C113.1,39.3,112.9,39.1,112.6,38.9"/>
		<path class="st0" d="M125.9,38.4c-0.8,1.6-2.9,1.7-3.6,0.4c0.5-0.3,1.7-1.1,2.3-2.3c0.9-1.9-1.4-3.4-2.3-2.1
			c-0.3,0.4-0.9,1.3-1,2.3c-0.1,0.7,0,1.3,0.2,1.8c-0.3,0.5-1.1,1.7-1.9,1.3c-0.6-0.2-1.2-1.3-0.9-3.1c1-1.8,1.7-3.6,2.3-4.6
			c1.2-2.3,1.4-4,1.2-4.6c-0.1-0.7-1.1-1.8-2-0.8c-0.5,0.6-1.9,5.1-2.2,8.2c-0.5-0.3-1.1-0.6-1.6-0.6c-0.9,0-1.9,0.9-2.3,1.9
			c-0.4,1.1-0.6,2.9,1,3.9c0.8,0.5,2.3,0.4,3-1.6c0.1,0.7,0.6,1.3,1.2,1.6c0.9,0.5,2.1,0.4,2.7-1c1.3,1.5,3.9,1.7,4.6-0.4
			C126.5,38.6,126,38.2,125.9,38.4 M120.5,28.1c0.5-1.2,1.1-0.9,0.7,0.2c-1.8,5.2-1.9,5-2.4,5.8C119.2,32.3,119.6,30.2,120.5,28.1
			 M117.7,36.4c-0.7,1.7-1,2.5-1.3,3c-0.5,0.7-1.6,0.1-1.7-0.7c-0.2-0.8,0.4-2.8,1.4-3.5c0.6-0.4,1.3,0,1.7,0.5
			C117.7,36,117.7,36.2,117.7,36.4 M122,38c0-0.2,0-0.4,0-0.7c0.1-0.7,0.4-1.4,0.7-1.9c0.9-1.3,1.5-0.5,1.2,0.4
			C123.8,36.3,123,37.5,122,38"/>
	</g>
	<g>
		<path class="st0" d="M65.1,18.1l-0.1,0.3L65,18.6l0,0.1c0,0,0,0.1,0,0.1c0,0.1-0.1,0.2-0.1,0.2c0,0.1-0.1,0.1-0.1,0.2
			c0.3,0.2,0.5,0.4,0.8,0.6c0.5,0.3,1.1,0.6,1.7,0.8c0.3,0.1,0.6,0.2,0.9,0.2c0.2,0,0.3,0,0.5,0.1c1.8-2.2,3-5.1,3-8.2
			C71.7,5.7,66,0,58.9,0c-7,0-12.7,5.7-12.7,12.7c0,7,5.7,12.7,12.7,12.7c3.9,0,7.4-1.8,9.7-4.5c-0.1,0-0.3,0-0.4,0
			c-0.3,0-0.7-0.1-1-0.1c-0.3-0.1-0.6-0.2-1-0.3c-0.3-0.1-0.6-0.3-0.9-0.4c-0.3-0.2-0.6-0.3-0.9-0.5c-0.1,0.1-0.3,0.2-0.4,0.3
			c-0.2,0.1-0.4,0.2-0.6,0.3c-0.7,0.3-1.4,0.3-2.1,0.4c-0.7,0-1.4,0-2.1,0c-1.4-0.1-2.7-0.4-4-0.8c-0.6-0.2-1.3-0.5-1.9-0.8
			c-0.6-0.3-1.2-0.7-1.8-1.2c-0.3-0.2-0.5-0.5-0.7-0.8c-0.1-0.1-0.1-0.2-0.2-0.2l-0.1-0.1l-0.1-0.1c0,0-0.1-0.1-0.1-0.1l0-0.1l0-0.1
			c0,0,0,0,0,0l0,0l0,0l0-0.1c-0.1-0.4-0.2-0.7-0.2-1.2c0-0.2,0.1-0.5,0.2-0.7c0-0.1,0.1-0.2,0.2-0.3c0,0,0.1-0.1,0.1-0.1
			c0,0,0.1-0.1,0.1-0.1c0.4-0.3,0.8-0.4,1.1-0.4c0.4-0.1,0.7-0.1,1.1,0c0.3,0,0.7,0.1,1,0.1c0,0,0,0,0,0c0,0-0.1-0.1-0.1-0.1
			l-0.1-0.3l-0.1-0.3c-0.1-0.2-0.2-0.4-0.2-0.5c-0.1-0.2-0.1-0.4-0.2-0.6c0-0.1-0.1-0.2-0.1-0.3c0-0.1,0-0.2-0.1-0.3
			c0-0.1,0-0.2,0-0.3c0-0.1,0-0.2,0-0.3c0-0.1,0-0.2,0-0.3l0-0.2l0-0.2c0-0.2,0.1-0.4,0.2-0.6c0.1-0.2,0.2-0.4,0.3-0.5
			c0.1-0.2,0.3-0.3,0.4-0.4c0.2-0.1,0.3-0.2,0.5-0.3c0.2-0.1,0.4-0.2,0.5-0.2c0.2-0.1,0.4-0.1,0.6-0.1c0.2,0,0.4,0,0.6-0.1
			c0.1,0,0.1,0,0.2,0c0,0,0-0.1,0-0.1c-0.1-0.7-0.1-1.4,0-2.2c0.1-0.4,0.2-0.8,0.4-1.1c0-0.1,0.1-0.2,0.2-0.3
			c0.1-0.1,0.1-0.2,0.2-0.3l0.1-0.1l0,0l0.1-0.1l0,0c0,0,0.1-0.1,0,0l0,0l0.1-0.1c0,0,0.1-0.1,0.1-0.1c0.2-0.1,0.4-0.2,0.6-0.3
			c0.2-0.1,0.5-0.1,0.7-0.1c0.2,0,0.5,0,0.7,0.1c0.2,0.1,0.4,0.1,0.6,0.2c0.4,0.2,0.7,0.4,1,0.7c0.3,0.3,0.5,0.5,0.7,0.8
			c0.4,0.6,0.8,1.2,1.1,1.8c0.3,0.6,0.6,1.2,0.8,1.9c0.5,1.3,0.8,2.6,1.1,3.9c0.2,1.3,0.3,2.7,0.3,4.1
			C65.3,16.7,65.2,17.4,65.1,18.1z"/>
		<path class="st0" d="M54.9,14.1L54.9,14.1c-0.6-0.1-1.3-0.2-1.9-0.2c-0.3,0-0.6,0-0.9,0.1c-0.3,0.1-0.5,0.2-0.7,0.3
			c-0.1,0.1-0.1,0.1-0.2,0.2c0,0.1,0,0.2-0.1,0.3c0,0.2,0.1,0.5,0.2,0.7l0,0.1l0,0l0,0c0,0,0,0,0,0l0,0l0.1,0.1c0,0,0,0.1,0,0.1
			l0,0.1l0.1,0.1c0,0.1,0.1,0.1,0.1,0.2c0.2,0.2,0.4,0.4,0.6,0.6c0.4,0.4,1,0.7,1.5,0.9c0.6,0.3,1.1,0.5,1.7,0.6
			c1.2,0.3,2.4,0.5,3.7,0.6c0.6,0,1.2,0,1.9,0c0.3,0,0.6-0.1,0.9-0.1c0.3-0.1,0.6-0.1,0.8-0.2c0.1,0,0.1,0,0.2-0.1
			c-0.3-0.3-0.6-0.5-0.9-0.8c-1-0.9-1.8-2-2.6-3c-0.8-1.1-1.4-2.3-2-3.5c-0.5-1.2-1-2.4-1.2-3.8c-0.1,0-0.1,0-0.2,0
			c-0.2,0-0.4,0.1-0.5,0.1c-0.2,0-0.4,0.1-0.5,0.2c-0.2,0.1-0.3,0.2-0.5,0.2c-0.2,0.1-0.3,0.2-0.4,0.3c-0.1,0.1-0.3,0.2-0.3,0.4
			c-0.1,0.1-0.2,0.3-0.2,0.5c-0.1,0.2-0.1,0.3-0.1,0.5l0,0.1v0.1c0,0.1,0,0.2,0,0.3c0,0.2,0,0.3,0.1,0.5c0,0.1,0,0.2,0.1,0.3
			c0,0.1,0.1,0.2,0.1,0.2c0.1,0.2,0.1,0.3,0.2,0.5c0.1,0.2,0.2,0.3,0.3,0.5l0.1,0.2l0.2,0.2c0.1,0.2,0.2,0.3,0.3,0.4
			c0.1,0.1,0.2,0.3,0.3,0.4c0.1,0.2,0.1,0.4-0.1,0.5C55.1,14.1,55,14.1,54.9,14.1z"/>
		<path class="st0" d="M63.5,18l0-0.2c0.1-0.6,0.2-1.2,0.2-1.8c0.1-1.2,0-2.5-0.2-3.7c-0.2-1.2-0.5-2.5-1-3.6
			c-0.4-1.2-1-2.3-1.7-3.2c-0.4-0.5-0.8-0.9-1.2-1.1c-0.1-0.1-0.2-0.1-0.3-0.1c-0.1,0-0.2,0-0.3,0c-0.1,0-0.2,0-0.3,0
			c-0.1,0-0.2,0.1-0.3,0.1l-0.1,0.1l-0.1,0.1l0,0l0,0c0,0.1-0.1,0.1-0.2,0.2c-0.1,0.2-0.2,0.4-0.3,0.7c-0.1,0.5-0.1,1.1-0.1,1.7
			c0.1,1.2,0.5,2.4,0.9,3.6c0.5,1.2,1,2.3,1.7,3.4c0.7,1.1,1.4,2.1,2.3,3.1C62.9,17.5,63.2,17.8,63.5,18L63.5,18z"/>
	</g>
	<path class="st0" d="M59.7,37.1c-0.2,0.4-0.5,1.1-1,1.6c-0.2,0.3-1.8,1.6-2.8,0.8c-0.2-0.2-0.4-0.6-0.5-1.2
		c-0.1-1.4,1.2-5.1,1.3-5.4c0.1-0.3-1.2-1.4-2-0.9c-1.1,0.7-3.3,3.8-3.7,4.5c-0.2,0.4-0.4,0.4-0.5,0.2c0-0.2,0.6-3.3,0.6-3.5
		c0-0.6-1.6-1.9-1.8-1.1c0,0.3-0.3,3.2-0.5,5.1c-0.6,0.9-1.2,1.8-1.8,2.1c-0.6,0.4-1.4,0.1-1.3-1.1c0.2-1.7,0.8-4,1.3-4.6
		c0.5-0.6-1.3-2.2-2.3-2.1c-0.9,0.1-1.3,0.1-1.4-0.5c-0.2-0.9-1.5-1.7-1.9-1c-0.2,0.4-0.3,1.4,0.5,2.1c-0.1,1.4-0.6,3.6-1.3,5.1
		c-1.3,2.4-4.5,2.5-5.6,0.6c0.7-0.4,2.7-1.8,3.6-3.6c1.4-3-2.2-5.3-3.7-3.3c-0.5,0.7-1.3,2-1.6,3.6c-0.2,1.1,0,2,0.3,2.9
		c-0.3,0.5-0.8,1.2-1.3,1.6c-0.9,0.8-2.2-0.2-2.2-1.3c0.2-4.9,1.3-7.2,2.3-9.7c3.2-0.2,6.6-0.4,8.3-0.5c0.4,0-0.4-1.2-1.4-1.2
		c-0.2,0-3.2,0.1-6.4,0.2c0.7-2,1.1-3.3,1.1-3.5c0.2-0.5-1.1-1.6-1.4-1.2c-0.2,0.2-1,2.5-1.7,4.7c-1.1,0-2.2,0.1-3.2,0.1
		c0.6-2.1,0.9-4.3,1-6.4c0.1-1.8-2-2.8-3-1.9c-2.1,2-6.5,12.1-4.8,18.3c0.1,0.2,0.1,0.4,0.2,0.6l0,0.1c-0.4,0.6-2.9,4-10.4,4
		c-8.6,0-11.2-5.4-8.4-7.8c4.4-3.7,10.7-3.6,13.1-3.6c0.8,0,0.8,0.4,1.1,0c0.3-0.4-0.3-1.4-1.1-1.5c-0.8-0.1-2.8,0.2-2.8,0.2
		s-6.4,1.1-7.7-1.7c-1.4-2.9,5.1-4.7,8.2-5c2.7-0.3,4.7-0.2,5.3,0.5c0.4,0.5-0.1,1.1-1.5,1.2c-0.1,0-0.6,0.3,0.3,0.5
		c0.9,0.2,2-0.2,2.3-0.9c0.1-0.3,0-0.6-0.1-0.9c-1.4-2.4-8.1-2.4-12.4-0.7c-2.8,1.1-4.4,2.8-3,5c0.8,1.2,1.8,2.3,3.4,3.1
		c-1.2,0.1-10.2,1.6-6.9,8c3.2,6.1,15.1,7.8,21.1,1.2c0,0,0.1,0,0.1,0l0-0.1c1.2,2,3.1,3.2,4.9,2.6c1.1-0.3,1.9-1.4,2.4-2.5
		c0.4,0.7,0.9,1.1,1.4,1.4c1.7,0.8,3-0.3,3.5-1.1c0.1-0.1,0.2-0.3,0.3-0.5c2,2.4,6,2.6,7.1-0.5c0,0,0,0,0,0c1.1-2.5,1.3-4.1,1.4-5.3
		c0.6,0.2,1.3,0.2,1.6,0.1c0.4-0.1,0.5,0.7,0.2,1.2c-0.3,0.5-0.8,2.6-0.5,4.2c0.3,1.6,2.1,2.6,3.1,2.2c0.5-0.2,1.1-0.6,1.5-1.1
		c0.4,1,1.6,1.8,1.8,1.2c0.8-2.2,2.1-4.2,2.8-5.1c0.3-0.4,0.5-0.3,0.5,0c0,0.2-0.2,1.2,0,2.5c0.2,1.4,1.8,3.2,3.8,3
		c1.8-0.1,2.4-1.8,2.8-3C60.7,37.5,59.8,36.9,59.7,37.1z M27.1,19.5c0.3-0.4,0.8-0.4,0.7,0.7c-0.3,2.2-0.7,4.4-1.4,6.5
		c-1.2,0-2,0.1-2.1,0.1c-0.6,0.1-0.3,1.3,1,1.4c0.2,0,0.3,0,0.6,0c-0.9,2.6-2.2,5.2-3.7,7.9C22.1,30.9,25.2,21.9,27.1,19.5z
		 M28.8,37.1C28.8,37.1,28.8,37.1,28.8,37.1c-0.4,0.8-2,2.7-2.8,3.1c-1,0.4-2.7-0.5-3.4-2.3c2.1-3,3.8-6.2,5-9.7
		c0.9,0,2-0.1,3.2-0.1l-0.6,1.5C29.7,31,28.3,34.2,28.8,37.1z M34.7,36.5c0-0.4,0-0.7,0-1.1c0.1-1.1,0.7-2.2,1.1-3
		c1.4-2,2.4-0.8,1.9,0.6C37.5,33.9,36.3,35.8,34.7,36.5z"/>
</g>
</svg>
