<?xml version="1.0" encoding="UTF-8"?>
<svg width="216px" height="82px" viewBox="0 0 216 82" version="1.1" xmlns="http://www.w3.org/2000/svg" xmlns:xlink="http://www.w3.org/1999/xlink">
    <!-- Generator: Sketch 46.2 (44496) - http://www.bohemiancoding.com/sketch -->
    <title>Artboard</title>
    <desc>Created with Sketch.</desc>
    <defs></defs>
    <g id="Page-1" stroke="none" stroke-width="1" fill="none" fill-rule="evenodd">
        <g id="Artboard" fill="#F6B600">
            <g id="logo--worldless" transform="translate(0.000000, 11.000000)">
                <path d="M1.2,48.6 C0.6,48.6 0.4,44.5 0.4,42.3 C0.4,30.1 9.3,21.6 21.1,21.6 C24.2,21.6 27.5,22.3 29.5,23.8 L29.5,35.2 C27.5,33.7 25.6,32.5 23.1,32.5 C18,32.5 14.2,36.8 14.2,42.1 C14.2,44.8 15.4,48.1 17,49.1 L1.5,49.1 M38.5,49 L51.5,49 L51.5,0 L38.5,0 L38.5,49 M86,48.3 L101.4,48.3 L101.4,24 L88.4,24 L88.4,26.5 C85.4,23.2 81.1,21.5 76.8,21.5 C65.7,21.5 58,30.8 58,41.7 C58,44 58.4,46.2 59,48.3 L74.6,48.3 C72.8,46.8 71.8,44.4 71.8,41.7 C71.8,37 75,33.1 80.4,33.1 C85.8,33.1 88.9,37 88.9,41.7 C88.9,44.5 87.8,46.8 86,48.3 M110.5,49 L123.5,49 L123.5,45.4 C123.5,38.9 125.4,33.9 132.8,33.9 C134.9,33.9 136.5,34.1 138.5,35.2 L138.5,23 L136.6,23 C131.4,23 127,25 124.4,30 L123.5,30 L123.5,24 L110.5,24 L110.5,49 M169.5,48.3 L185.2,48.9 L185.2,24 L171.4,24 L171.4,26.5 C168.4,23.2 164.3,21.5 159.9,21.5 C148.7,21.5 141.2,30.8 141.2,41.7 C141.2,44 141.6,46.2 142.3,48.3 L157.9,48.3 C156.1,46.7 155.1,44.4 155.1,41.7 C155.1,37 158.3,33.1 163.7,33.1 C169.1,33.1 172.3,37 172.3,41.7 C172.3,44.4 171.3,46.8 169.5,48.3 M194.5,49 L208.5,49 L208.5,35 L215.5,35 L215.5,24 L208.5,24 L208.5,12 L194.5,12 L194.5,24 L190.5,24 L190.5,35 L194.5,35 L194.5,49" id="Logo_3_"></path>
            </g>
        </g>
    </g>
</svg>