<?xml version="1.0" encoding="utf-8"?>
<!-- Generator: Adobe Illustrator 19.1.0, SVG Export Plug-In . SVG Version: 6.00 Build 0)  -->
<svg version="1.1" id="Ebene_1" xmlns="http://www.w3.org/2000/svg" xmlns:xlink="http://www.w3.org/1999/xlink" x="0px" y="0px"
	 viewBox="0 0 216 83" enable-background="new 0 0 216 83" xml:space="preserve">
<path id="Logo_3_" fill-rule="evenodd" clip-rule="evenodd" fill="#F6B600" d="M1.2,49.6c-0.6,0-0.8-4.1-0.8-6.3
	c0-12.2,8.9-20.7,20.7-20.7c3.1,0,6.4,0.7,8.4,2.2v11.4c-2-1.5-3.9-2.7-6.4-2.7c-5.1,0-8.9,4.3-8.9,9.6c0,2.7,1.2,6,2.8,7H1.5
	 M38.5,50h13V1h-13V50 M86,49.3l15.4,0V25h-13v2.5c-3-3.3-7.3-5-11.6-5C65.7,22.5,58,31.8,58,42.7c0,2.3,0.4,4.5,1,6.6l15.6,0
	c-1.8-1.5-2.8-3.9-2.8-6.6c0-4.7,3.2-8.6,8.6-8.6c5.4,0,8.5,3.9,8.5,8.6C88.9,45.5,87.8,47.8,86,49.3 M110.5,50h13v-3.6
	c0-6.5,1.9-11.5,9.3-11.5c2.1,0,3.7,0.2,5.7,1.3V24h-1.9c-5.2,0-9.6,2-12.2,7h-0.9v-6h-13V50 M169.5,49.3l15.7,0.6l0-24.9h-13.8v2.5
	c-3-3.3-7.1-5-11.5-5c-11.2,0-18.7,9.3-18.7,20.2c0,2.3,0.4,4.5,1.1,6.6l15.6,0c-1.8-1.6-2.8-3.9-2.8-6.6c0-4.7,3.2-8.6,8.6-8.6
	c5.4,0,8.6,3.9,8.6,8.6C172.3,45.4,171.3,47.8,169.5,49.3 M194.5,50h14V36h7V25h-7V13h-14v12h-4v11h4V50"/>
<g>
	<path fill="#006B81" d="M18.2,81.9V65.4h4.7c1.8,0,3.1,0.1,3.8,0.3c0.7,0.2,1.4,0.5,1.9,0.9c0.6,0.5,1,1,1.4,1.7
		c0.3,0.7,0.5,1.5,0.5,2.3c0,1.3-0.3,2.3-0.9,3.1c-0.6,0.8-1.5,1.3-2.7,1.6l4.5,6.6h-5.1l-3.8-6.5v6.5H18.2z M22.4,73.2h0.8
		c1,0,1.7-0.2,2.1-0.5c0.4-0.3,0.7-0.8,0.7-1.6c0-0.8-0.2-1.4-0.6-1.8s-1.1-0.5-2.1-0.5h-0.9V73.2z"/>
	<path fill="#006B81" d="M42.3,81.9V65.4h10.1V69h-5.7v2.9H52v3.5h-5.4v2.8h5.7v3.7H42.3z"/>
	<path fill="#006B81" d="M64.6,81.9V65.4h10.1V69H69v2.9h5.4v3.5H69v6.5H64.6z"/>
	<path fill="#006B81" d="M86.3,65.4h4.5v8c0,1.2,0,2,0.1,2.5c0.1,0.5,0.2,0.9,0.3,1.3c0.2,0.4,0.5,0.7,0.9,1c0.4,0.2,1,0.3,1.6,0.3
		c0.6,0,1.1-0.1,1.6-0.3c0.4-0.2,0.7-0.5,0.9-1c0.1-0.3,0.2-0.8,0.3-1.3c0.1-0.5,0.1-1.4,0.1-2.5v-1.1v-6.9h4.5v8.7
		c0,1.8-0.1,3.1-0.3,4s-0.6,1.6-1.1,2.2c-0.6,0.7-1.3,1.2-2.3,1.5s-2.2,0.5-3.6,0.5c-1.4,0-2.6-0.2-3.6-0.5s-1.8-0.8-2.3-1.5
		c-0.5-0.6-0.9-1.3-1.1-2.2s-0.3-2.2-0.3-4v-1.7V65.4z"/>
	<path fill="#006B81" d="M121.4,75.8v-3.5h8.8c0,0.1,0,0.2,0,0.4c0,0.1,0,0.3,0,0.6c0,2.8-0.8,5-2.2,6.6c-1.5,1.6-3.6,2.3-6.3,2.3
		c-1.3,0-2.5-0.2-3.6-0.6c-1-0.4-2-1-2.8-1.8c-0.8-0.8-1.4-1.7-1.8-2.8c-0.4-1.1-0.6-2.2-0.6-3.4c0-1.2,0.2-2.4,0.6-3.4s1-2,1.9-2.8
		c0.8-0.8,1.8-1.4,2.8-1.8c1.1-0.4,2.2-0.6,3.5-0.6c1.6,0,3,0.3,4.3,1s2.3,1.6,3.1,2.9l-3.9,1.9c-0.5-0.6-1-1.1-1.6-1.4
		s-1.2-0.5-2-0.5c-1.3,0-2.4,0.4-3.2,1.3c-0.8,0.9-1.2,2.1-1.2,3.7c0,1.6,0.4,2.8,1.2,3.7c0.8,0.9,1.8,1.4,3.2,1.4
		c1.1,0,2.1-0.3,2.9-0.8s1.2-1.3,1.3-2.2H121.4z"/>
	<path fill="#006B81" d="M142.3,81.9V65.4h10.1V69h-5.7v2.9h5.4v3.5h-5.4v2.8h5.7v3.7H142.3z"/>
	<path fill="#006B81" d="M164.6,81.9V65.4h10.1V69H169v2.9h5.4v3.5H169v2.8h5.7v3.7H164.6z"/>
	<path fill="#006B81" d="M187.6,76.6c0.7,0.8,1.3,1.3,2,1.7c0.6,0.4,1.3,0.6,1.9,0.6c0.6,0,1.1-0.2,1.5-0.5c0.4-0.3,0.6-0.7,0.6-1.2
		c0-0.5-0.2-1-0.5-1.3c-0.3-0.3-1.1-0.6-2.3-0.9c-1.6-0.4-2.8-1-3.4-1.7c-0.7-0.7-1-1.7-1-2.9c0-1.6,0.5-2.9,1.6-3.9
		s2.4-1.5,4.1-1.5c0.9,0,1.8,0.1,2.6,0.4c0.8,0.2,1.6,0.6,2.3,1.1l-1.4,3.2c-0.5-0.4-1-0.8-1.6-1s-1.1-0.3-1.6-0.3
		c-0.5,0-1,0.1-1.3,0.4c-0.3,0.3-0.5,0.6-0.5,1c0,0.4,0.1,0.7,0.4,1s0.9,0.5,1.7,0.7l0.2,0.1c1.8,0.5,3,1,3.6,1.6
		c0.4,0.4,0.7,0.9,0.9,1.5c0.2,0.6,0.3,1.2,0.3,1.9c0,1.8-0.6,3.2-1.7,4.2c-1.1,1.1-2.7,1.6-4.6,1.6c-1.1,0-2.2-0.2-3.1-0.6
		c-0.9-0.4-1.8-1-2.7-1.8L187.6,76.6z"/>
</g>
<g>
</g>
<g>
</g>
<g>
</g>
<g>
</g>
<g>
</g>
<g>
</g>
<g>
</g>
<g>
</g>
<g>
</g>
<g>
</g>
<g>
</g>
<g>
</g>
<g>
</g>
<g>
</g>
<g>
</g>
</svg>
