<svg xmlns="http://www.w3.org/2000/svg" width="150" height="180" viewBox="0 0 150 180"><path fill="#155266" d="M60.69 117.438c-9.503.763-18.716-2.772-25.28-9.69l5.024-4.767c5.118 5.394 12.3 8.147 19.702 7.556l.553 6.902z"/><path fill="#A07A54" d="M69.497 136.768h6.927v17.448h-6.927zM61.09 136.768h6.924v17.448H61.09z"/><path fill="#155266" d="M76.5 117.17c9.457 1.148 18.81-2 25.656-8.643l-4.824-4.973c-5.338 5.18-12.625 7.635-19.998 6.737l-.835 6.88z"/><circle fill="#A07A54" cx="68.756" cy="72.737" r="30.817"/><path fill="#291F00" d="M62.135 55.598l-2.174 7.78c-6.53-.712-12.826-2.203-18.792-4.387 5.055-10.118 15.508-17.07 27.588-17.07s22.535 6.952 27.588 17.07c-8.604 3.147-17.895 4.865-27.588 4.865-2.23 0-4.438-.094-6.62-.273v-7.984z"/><g fill="#F7A100"><circle opacity=".76" cx="52.439" cy="80.085" r="5.24"/><circle opacity=".76" cx="85.087" cy="80.085" r="5.24"/></g><g fill="#40301A"><circle cx="60.626" cy="75.904" r="1.516"/><circle cx="76.902" cy="75.903" r="1.517"/></g><path fill="none" stroke="#40301A" stroke-width=".424" stroke-linecap="round" stroke-miterlimit="10" d="M64.406 79.417c.95.76 2.414 1.26 3.943 1.335h.825c1.53-.074 3-.575 3.947-1.335"/><path fill="none" stroke="#40301A" stroke-width=".371" stroke-linecap="round" stroke-miterlimit="10" d="M62.713 73.6c-1.154-1.152-3.022-1.15-4.175.006M78.992 73.6c-1.155-1.152-3.025-1.15-4.178.006"/><path fill="#FABC00" d="M58.503 144.627v-29.51c0-2.72 1.08-5.326 3.003-7.25 1.922-1.92 4.53-3 7.25-3 2.72 0 5.326 1.08 7.25 3 1.924 1.924 3.002 4.53 3.002 7.25v29.51H58.503z"/><g><g stroke-miterlimit="10"><path fill="none" stroke="#40301A" stroke-linecap="round" d="M96.498 68.048v46.43"/><g fill="#006B81" stroke="#006B81"><circle cx="96.344" cy="44.03" r="18.246"/><path d="M92.693 68.34l3.65-6.32 3.65 6.32z"/></g></g></g></svg>