<?xml version="1.0" encoding="UTF-8" standalone="no"?>
<svg width="102px" height="116px" viewBox="0 0 102 116" version="1.1" xmlns="http://www.w3.org/2000/svg" xmlns:xlink="http://www.w3.org/1999/xlink" xmlns:sketch="http://www.bohemiancoding.com/sketch/ns">
    <!-- Generator: Sketch Beta 3.2 (9958) - http://www.bohemiancoding.com/sketch -->
    <title>Illu Was</title>
    <desc>Created with Sketch Beta.</desc>
    <defs></defs>
    <g id="Folgeseite" stroke="none" stroke-width="1" fill="none" fill-rule="evenodd" sketch:type="MSPage">
        <g id="Desktop-HD" sketch:type="MSArtboardGroup" transform="translate(-493.000000, -19.000000)">
            <g id="Illu-Was" sketch:type="MSLayerGroup" transform="translate(493.000000, 19.189536)">
                <g id="Imported-Layers" sketch:type="MSShapeGroup">
                    <path d="M16.3847009,20.1639849 C10.8269762,20.1639849 5.49946162,19.180964 0.568419806,17.3794684 C3.46593977,11.5891493 9.45850557,7.61025529 16.3847009,7.61025529 C23.3108962,7.61025529 29.303462,11.5891493 32.1995609,17.3794684 C27.2685191,19.180964 21.9395835,20.1639849 16.3847009,20.1639849" id="Fill-1" fill="#FBBC00"></path>
                    <path d="M90.7908535,31.2155224 C90.7908535,48.2602247 76.9484102,62.0764198 59.8759213,62.0764198 C42.8005903,62.0764198 28.9595681,48.2602247 28.9595681,31.2155224 C28.9595681,14.1722387 42.8005903,0.356043631 59.8759213,0.356043631 C76.9484102,0.356043631 90.7908535,14.1722387 90.7908535,31.2155224" id="Fill-2" fill="#FFD1AD"></path>
                    <path d="M66.5179067,14.0516662 L68.6992177,21.8434895 C75.2488349,21.1314023 81.5654,19.6363027 87.5494395,17.4518119 C82.4805559,7.31804418 71.9932105,0.356043631 59.8759213,0.356043631 C47.75579,0.356043631 37.2684446,7.31804418 32.1995609,17.4518119 C40.8310157,20.6008831 50.1516795,22.3215242 59.8759213,22.3215242 C62.1112322,22.3215242 64.3266484,22.2264847 66.5179067,22.0477536 L66.5179067,14.0516662" id="Fill-3" fill="#FBBC00"></path>
                    <path d="M76.2449906,33.3262512 C73.3389444,33.3262512 70.9871074,35.6738696 70.9871074,38.5747031 C70.9871074,41.4712812 73.3389444,43.8203181 76.2449906,43.8203181 C79.1467738,43.8203181 81.5000317,41.4712812 81.5000317,38.5747031 C81.5000317,35.6738696 79.1467738,33.3262512 76.2449906,33.3262512" id="Fill-4" fill="#F99629"></path>
                    <path d="M43.4897993,33.3262512 C40.5880162,33.3262512 38.2347582,35.6738696 38.2347582,38.5747031 C38.2347582,41.4712812 40.5880162,43.8203181 43.4897993,43.8203181 C46.3930035,43.8203181 48.7476825,41.4712812 48.7476825,38.5747031 C48.7476825,35.6738696 46.3930035,33.3262512 43.4897993,33.3262512" id="Fill-5" fill="#F99629"></path>
                    <path d="M66.6514854,33.7461274 C67.0053267,32.9843926 67.9105352,32.6553005 68.6736388,33.0085071 C69.4339003,33.3631322 69.7650049,34.2667171 69.4097425,35.0270333 C69.0573222,35.7887681 68.1521137,36.1164417 67.3904311,35.7632351 C66.6287486,35.4100285 66.296223,34.5064437 66.6514854,33.7461274" id="Fill-6" fill="#40301A"></path>
                    <path d="M50.3222054,33.7461274 C50.6760467,32.9843926 51.5826763,32.6553005 52.3429378,33.0085071 C53.1060414,33.3631322 53.4357249,34.2667171 53.0818836,35.0270333 C52.7294633,35.7887681 51.8214126,36.1164417 51.0625722,35.7632351 C50.2980476,35.4100285 49.9683641,34.5064437 50.3222054,33.7461274" id="Fill-7" fill="#40301A"></path>
                    <path d="M64.0509648,37.6696998 C63.167072,38.3789501 61.7460224,38.8711698 60.268131,38.9406763 L60.2823414,39.2413984 L60.2823414,38.9406763 L59.4538696,38.9406763 L59.4538696,39.2413984 L59.4680801,38.9406763 C57.9887675,38.8711698 56.5648759,38.3789501 55.6824042,37.6696998 C55.5530887,37.5661493 55.362668,37.5874268 55.2589314,37.7165103 C55.1551948,37.8470124 55.1765105,38.035673 55.305826,38.1392235 C56.3261396,38.9520243 57.8480836,39.4626845 59.4396591,39.540702 L60.2965519,39.540702 C61.8881274,39.4626845 63.4058083,38.9506058 64.4261218,38.1392235 C64.5568584,38.035673 64.5781741,37.8470124 64.4744375,37.7165103 C64.3692799,37.5874268 64.1802803,37.5661493 64.0509648,37.6696998" id="Fill-8" fill="#40301A"></path>
                    <path d="M66.122855,32.2652128 C66.6500643,31.7403676 67.3378523,31.477945 68.0284824,31.477945 C68.7205335,31.477945 69.4097425,31.7417861 69.9383729,32.2708868 L70.3121089,32.2708868 L70.3121089,31.8992397 C69.6811629,31.268007 68.8541121,30.9516814 68.0284824,30.9530999 C67.2056947,30.9516814 66.3800649,31.2665885 65.75054,31.8935657 L65.75054,32.2652128 L66.122855,32.2652128" id="Fill-9" fill="#40301A"></path>
                    <path d="M49.7921539,32.2652128 C50.3207844,31.7403676 51.0085723,31.477945 51.6992024,31.477945 C52.3912535,31.477945 53.0818836,31.7417861 53.610514,32.2708868 L53.982829,32.2708868 L53.98425,31.8992397 C53.353304,31.268007 52.5248321,30.9516814 51.6992024,30.9530999 C50.8749937,30.9516814 50.0493639,31.2665885 49.419839,31.8935657 L49.419839,32.2652128 L49.7921539,32.2652128" id="Fill-10" fill="#40301A"></path>
                    <path d="M70.6773186,95.9161682 L70.6773186,74.9762635 C70.6773186,72.186073 69.5689,69.5093625 67.5893781,67.5348098 C65.6141192,65.5616755 62.9325988,64.4538266 60.1359733,64.4538266 C57.34219,64.4538266 54.6592485,65.5616755 52.6811476,67.5348098 C50.7058888,69.5093625 49.591786,72.186073 49.591786,74.9762635 L49.591786,95.9161682 L70.6773186,95.9161682" id="Fill-11" fill="#F88300"></path>
                    <path d="M52.2534117,97.1984927 L59.3742908,97.1984927 L59.3742908,115.105643 L52.2534117,115.105643 L52.2534117,97.1984927 Z" id="Fill-12" fill="#145266"></path>
                    <path d="M60.8990769,97.1984927 L68.0213771,97.1984927 L68.0213771,115.105643 L60.8990769,115.105643 L60.8990769,97.1984927 Z" id="Fill-13" fill="#145266"></path>
                    <path d="M95.4050012,88.708767 L60.0563946,101.601518 L60.0563946,45.0203695 L95.4050012,32.1276183 L95.4050012,88.708767" id="Fill-14" fill="#40301A"></path>
                    <path d="M60.0563946,101.601518 L24.7077879,88.708767 L24.7077879,32.1276183 L60.0563946,45.0203695 L60.0563946,101.601518" id="Fill-15" fill="#D8D5C1"></path>
                    <path d="M19.5024835,57.1556415 C19.5024835,54.2860149 21.8315837,51.9610926 24.7077879,51.9610926 C27.579729,51.9610926 29.9102502,54.2860149 29.9102502,57.1556415 C29.9102502,60.0238495 27.579729,62.3501904 24.7077879,62.3501904 C21.8315837,62.3501904 19.5024835,60.0238495 19.5024835,57.1556415" id="Fill-16" fill="#FFD1AD"></path>
                    <path d="M90.2011179,57.1556415 C90.2011179,54.2860149 92.5302181,51.9610926 95.4050012,51.9610926 C98.2797844,51.9610926 100.610306,54.2860149 100.610306,57.1556415 C100.610306,60.0238495 98.2797844,62.3501904 95.4050012,62.3501904 C92.5302181,62.3501904 90.2011179,60.0238495 90.2011179,57.1556415" id="Fill-17" fill="#FFD1AD"></path>
                    <path d="M91.5212729,20.1639849 C84.4217095,20.1639849 78.665038,25.908912 78.665038,32.9957406 L91.5212729,32.9957406 L91.5212729,20.1639849" id="Fill-18" fill="#F8A100"></path>
                    <path d="M91.4573257,20.1639849 L91.4573257,30.4239992 L81.1788746,30.4239992 C81.1788746,36.0909087 85.7802329,40.6854319 91.4573257,40.6854319 C97.1358396,40.6854319 101.737198,36.0909087 101.737198,30.4239992 C101.737198,24.7585081 97.1358396,20.1639849 91.4573257,20.1639849" id="Fill-19" fill="#145266"></path>
                    <path d="M92.8698489,24.4506935 C92.8783752,23.3953291 93.7409523,22.5442288 94.795371,22.5442288 L94.8067394,22.5442288 C95.8711055,22.5527398 96.7223141,23.4123511 96.7223141,24.4677155 L96.7237352,24.49183 L96.8573138,24.6095655 L96.975261,24.474808 L96.975261,24.4677155 C96.975261,23.2747565 96.0117894,22.3016652 94.8124236,22.2931542 L94.795371,22.2931542 C93.6016894,22.2931542 92.6268494,23.2548975 92.6183231,24.449275 L92.7433755,24.57694 L92.8698489,24.4506935" id="Fill-20" fill="#D8D5C1"></path>
                    <path d="M94.1658461,24.2747994 C94.3406352,23.9130818 94.7740553,23.7627207 95.1378439,23.9371963 C95.5002116,24.1116718 95.6522639,24.5471515 95.4774748,24.9074506 C95.3026857,25.2691683 94.8664235,25.4209478 94.5054769,25.2464723 C94.1431093,25.0719967 93.992478,24.636517 94.1658461,24.2747994" id="Fill-21" fill="#D8D5C1"></path>
                </g>
            </g>
        </g>
    </g>
</svg>