<?xml version="1.0" encoding="UTF-8" standalone="no"?>
<svg width="72px" height="114px" viewBox="0 0 72 114" version="1.1" xmlns="http://www.w3.org/2000/svg" xmlns:xlink="http://www.w3.org/1999/xlink" xmlns:sketch="http://www.bohemiancoding.com/sketch/ns">
    <!-- Generator: Sketch 3.5.1 (25234) - http://www.bohemiancoding.com/sketch -->
    <title>mascot--show-refugees</title>
    <desc>Created with Sketch.</desc>
    <defs></defs>
    <g id="Page-1" stroke="none" stroke-width="1" fill="none" fill-rule="evenodd" sketch:type="MSPage">
        <g id="mascot--show-refugees" sketch:type="MSLayerGroup">
            <path d="M64.796,91.514 C65.1,81.987 61.121,72.954 53.896,66.734 L49.376,71.984 C55.01,76.836 58.106,83.874 57.876,91.297 L64.796,91.514 L64.796,91.514 Z" id="Shape" fill="#FABC00" sketch:type="MSShapeGroup"></path>
            <path d="M33.11,95.7 L40.036,95.7 L40.036,113.148 L33.11,113.148 L33.11,95.7 Z M41.52,95.7 L48.444,95.7 L48.444,113.148 L41.52,113.148 L41.52,95.7 Z" id="Shape" fill="#A07A54" sketch:type="MSShapeGroup"></path>
            <circle id="Oval" fill="#A07A54" sketch:type="MSShapeGroup" cx="40.777" cy="31.669" r="30.817"></circle>
            <path d="M47.398,14.53 L49.572,22.31 C56.102,21.598 62.398,20.107 68.365,17.923 C63.31,7.803 52.857,0.853 40.777,0.853 C28.697,0.853 18.242,7.803 13.189,17.923 C21.792,21.069 31.083,22.787 40.776,22.787 C43.006,22.787 45.214,22.693 47.396,22.514 L47.396,14.53 L47.398,14.53 Z" id="Shape" fill="#291F00" sketch:type="MSShapeGroup"></path>
            <g id="Group" transform="translate(19.000000, 33.000000)" fill="#F7A100" sketch:type="MSShapeGroup" opacity="0.76">
                <circle id="Oval" cx="38.094" cy="6.017" r="5.24"></circle>
                <circle id="Oval" cx="5.446" cy="6.017" r="5.24"></circle>
            </g>
            <g id="Group" transform="translate(31.000000, 33.000000)" fill="#40301A" sketch:type="MSShapeGroup">
                <circle id="Oval" cx="17.907" cy="1.836" r="1.516"></circle>
                <circle id="Oval" cx="1.63" cy="1.835" r="1.517"></circle>
            </g>
            <path d="M45.127,38.35 C44.177,39.11 42.713,39.61 41.184,39.684 L40.358,39.684 C38.828,39.61 37.358,39.109 36.412,38.349" id="Shape" stroke="#40301A" stroke-width="0.424" sketch:type="MSShapeGroup"></path>
            <path d="M46.82,32.533 C47.974,31.38 49.84,31.383 50.995,32.538 M30.54,32.533 C31.696,31.38 33.566,31.383 34.72,32.538" id="Shape" stroke="#40301A" stroke-width="0.371" sketch:type="MSShapeGroup"></path>
            <path d="M51.03,103.56 L51.03,74.05 C51.03,71.332 49.95,68.723 48.027,66.8 C46.105,64.88 43.497,63.8 40.777,63.8 C38.057,63.8 35.451,64.88 33.527,66.8 C31.604,68.723 30.525,71.333 30.525,74.05 L30.525,103.56 L51.03,103.56 L51.03,103.56 Z" id="Shape" fill="#108B33" sketch:type="MSShapeGroup"></path>
            <path d="M31.113,71.344 C24.336,78.041 15.01,81.272 5.533,80.207 L6.305,73.324 C13.697,74.154 20.961,71.636 26.245,66.414 L31.113,71.344 L31.113,71.344 Z" id="Shape" fill="#FABC00" sketch:type="MSShapeGroup"></path>
            <g id="Group" transform="translate(0.000000, 58.000000)" sketch:type="MSShapeGroup">
                <path d="M12.35,0.938 C6.74,-0.05 1.392,3.702 0.406,9.315 L10.564,11.1 L12.351,0.938 L12.35,0.938 Z" id="Shape" fill="#F7A100"></path>
                <path d="M12.3,0.93 L10.872,9.057 L2.747,7.627 C1.957,12.113 4.955,16.393 9.441,17.182 C13.931,17.97 18.211,14.972 19.001,10.485 C19.789,5.997 16.791,1.717 12.301,0.93 L12.3,0.93 Z" id="Shape" fill="#006B81"></path>
                <path d="M12.724,4.5 C12.886,3.607 13.746,3.016 14.639,3.184 C15.535,3.344 16.125,4.204 15.962,5.1" id="Shape" stroke="#D8D5C1" stroke-width="0.334"></path>
                <path d="M13.87,4.56 C14.06,4.297 14.424,4.243 14.685,4.427 C14.947,4.617 15.005,4.985 14.818,5.247 C14.63,5.507 14.264,5.564 14.004,5.377 C13.74,5.189 13.681,4.824 13.869,4.561 L13.87,4.56 Z" id="Shape" fill="#D8D5C1"></path>
            </g>
        </g>
    </g>
</svg>