<?xml version="1.0" encoding="UTF-8" standalone="no"?>
<svg width="94px" height="130px" viewBox="0 0 94 130" version="1.1" xmlns="http://www.w3.org/2000/svg" xmlns:xlink="http://www.w3.org/1999/xlink" xmlns:sketch="http://www.bohemiancoding.com/sketch/ns">
    <!-- Generator: Sketch 3.5.1 (25234) - http://www.bohemiancoding.com/sketch -->
    <title>mascot--contact-about-family</title>
    <desc>Created with Sketch.</desc>
    <defs></defs>
    <g id="Page-1" stroke="none" stroke-width="1" fill="none" fill-rule="evenodd" sketch:type="MSPage">
        <g id="mascot--contact-about-family" sketch:type="MSLayerGroup">
            <path d="M38.43,92.438 C28.928,93.202 19.715,89.668 13.15,82.748 L18.174,77.981 C23.294,83.376 30.474,86.128 37.877,85.538 L38.43,92.438 L38.43,92.438 Z" id="Shape" fill="#108B33" sketch:type="MSShapeGroup"></path>
            <path d="M36.242,110.518 L36.242,90.12 C36.242,87.4 37.322,84.793 39.246,82.87 C41.168,80.95 43.776,79.868 46.496,79.868 C49.216,79.868 51.822,80.948 53.746,82.87 C55.668,84.793 56.748,87.4 56.748,90.12 L56.748,110.517 L36.242,110.517 L36.242,110.518 Z" id="Shape" fill="#108B33" sketch:type="MSShapeGroup"></path>
            <path d="M47.236,111.768 L54.164,111.768 L54.164,129.216 L47.236,129.216 L47.236,111.768 Z M38.83,111.768 L45.754,111.768 L45.754,129.216 L38.83,129.216 L38.83,111.768 Z" id="Shape" fill="#155266" sketch:type="MSShapeGroup"></path>
            <path d="M54.238,92.17 C63.698,93.318 73.05,90.17 79.896,83.527 L75.072,78.554 C69.734,83.734 62.447,86.189 55.074,85.29 L54.238,92.17 L54.238,92.17 Z" id="Shape" fill="#108B33" sketch:type="MSShapeGroup"></path>
            <path d="M85.945,23.234 C89.318,18.839 91.773,14.026 93.338,9.034 C86.992,7.804 80.203,10.124 76,15.602 C71.8,21.08 71.314,28.237 74.145,34.047 C78.562,31.242 82.575,27.627 85.945,23.234 L85.945,23.234 Z" id="Shape" fill="#FCBC00" sketch:type="MSShapeGroup"></path>
            <circle id="Oval" fill="#FFD1AD" sketch:type="MSShapeGroup" cx="46.495" cy="47.737" r="30.817"></circle>
            <path d="M39.875,30.598 L37.701,38.378 C31.171,37.666 24.874,36.175 18.909,33.991 C23.964,23.873 34.417,16.921 46.497,16.921 C58.577,16.921 69.032,23.873 74.085,33.991 C65.481,37.138 56.19,38.856 46.497,38.856 C44.267,38.856 42.059,38.762 39.877,38.583 L39.877,30.599 L39.875,30.598 Z" id="Shape" fill="#FCBC00" sketch:type="MSShapeGroup"></path>
            <g id="Group" transform="translate(24.000000, 49.000000)" fill="#F7A100" sketch:type="MSShapeGroup" opacity="0.76">
                <path d="M0.94,6.085 C0.94,8.98 3.285,11.325 6.177,11.325 C9.073,11.325 11.417,8.979 11.417,6.085 C11.417,3.191 9.073,0.845 6.177,0.845 C3.285,0.845 0.939,3.19 0.939,6.085 L0.94,6.085 Z" id="Shape"></path>
                <circle id="Oval" cx="38.827" cy="6.085" r="5.239"></circle>
            </g>
            <g id="Group" transform="translate(36.000000, 49.000000)" fill="#40301A" sketch:type="MSShapeGroup">
                <path d="M3.74,1.265 C3.386,0.503 2.486,0.175 1.724,0.528 C0.966,0.882 0.636,1.786 0.992,2.545 C1.344,3.305 2.244,3.633 3.006,3.28 C3.764,2.926 4.096,2.023 3.74,1.265 L3.74,1.265 Z" id="Shape"></path>
                <circle id="Oval" cx="18.643" cy="1.903" r="1.517"></circle>
            </g>
            <path d="M42.146,54.417 C43.096,55.177 44.56,55.677 46.089,55.752 L46.914,55.752 C48.442,55.678 49.914,55.177 50.86,54.417" id="Shape" stroke="#40301A" stroke-width="0.424" sketch:type="MSShapeGroup"></path>
            <path d="M40.453,48.6 C39.299,47.448 37.43,47.45 36.277,48.606 M56.732,48.6 C55.576,47.448 53.707,47.45 52.554,48.606" id="Shape" stroke="#40301A" stroke-width="0.371" sketch:type="MSShapeGroup"></path>
            <g id="Group" sketch:type="MSShapeGroup">
                <path d="M19.062,43.05 L19.062,89.48" id="Shape" stroke="#40301A"></path>
                <g fill="#AF1D3F">
                    <circle id="Oval" cx="18.908" cy="19.03" r="18.246"></circle>
                    <path d="M15.258,43.34 L18.908,37.02 L22.558,43.34" id="Shape"></path>
                </g>
            </g>
        </g>
    </g>
</svg>