<?xml version="1.0" encoding="UTF-8" standalone="no"?>
<svg width="84px" height="116px" viewBox="0 0 84 116" version="1.1" xmlns="http://www.w3.org/2000/svg" xmlns:xlink="http://www.w3.org/1999/xlink" xmlns:sketch="http://www.bohemiancoding.com/sketch/ns">
    <!-- Generator: Sketch 3.5.1 (25234) - http://www.bohemiancoding.com/sketch -->
    <title>mascot--show-family</title>
    <desc>Created with Sketch.</desc>
    <defs></defs>
    <g id="Page-1" stroke="none" stroke-width="1" fill="none" fill-rule="evenodd" sketch:type="MSPage">
        <g id="mascot--show-family" sketch:type="MSLayerGroup">
            <path d="M9.712,92.18 C8.482,82.727 11.562,73.352 18.149,66.453 L23.155,71.236 C18.02,76.614 15.623,83.923 16.578,91.286 L9.71,92.18 L9.712,92.18 Z" id="Shape" fill="#155266" sketch:type="MSShapeGroup"></path>
            <path d="M20.75,97.295 L20.75,76.897 C20.75,74.177 21.83,71.569 23.753,69.647 C25.675,67.725 28.283,66.645 31.003,66.645 C33.723,66.645 36.329,67.725 38.253,69.647 C40.176,71.569 41.255,74.177 41.255,76.897 L41.255,97.295 L20.75,97.295 L20.75,97.295 Z" id="Shape" fill="#155266" sketch:type="MSShapeGroup"></path>
            <path d="M31.744,98.544 L38.671,98.544 L38.671,115.994 L31.745,115.994 L31.744,98.544 Z M23.337,98.544 L30.261,98.544 L30.261,115.994 L23.338,115.994 L23.337,98.544 Z" id="Shape" fill="#108B33" sketch:type="MSShapeGroup"></path>
            <path d="M40.085,74.19 C46.861,80.884 56.188,84.117 65.665,83.05 L64.893,76.167 C57.501,76.997 50.237,74.479 44.955,69.259 L40.085,74.189 L40.085,74.19 Z" id="Shape" fill="#155266" sketch:type="MSShapeGroup"></path>
            <path d="M72.85,13.553 C77.288,10.237 80.954,6.27 83.815,1.888 C78.042,-1.016 70.877,-0.622 65.345,3.511 C59.817,7.645 57.409,14.403 58.559,20.763 C63.571,19.261 68.414,16.869 72.849,13.553 L72.85,13.553 Z" id="Shape" fill="#FCBC00" sketch:type="MSShapeGroup"></path>
            <circle id="Oval" fill="#FFD1AD" sketch:type="MSShapeGroup" cx="31.003" cy="34.515" r="30.817"></circle>
            <path d="M24.382,17.375 L22.208,25.155 C15.678,24.443 9.381,22.952 3.415,20.768 C8.47,10.648 18.923,3.698 31.003,3.698 C43.083,3.698 53.538,10.648 58.591,20.768 C49.988,23.914 40.697,25.632 31.004,25.632 C28.774,25.632 26.566,25.538 24.384,25.359 L24.384,17.374 L24.382,17.375 Z" id="Shape" fill="#FCBC00" sketch:type="MSShapeGroup"></path>
            <g id="Group" transform="translate(9.000000, 36.000000)" fill="#F7A100" sketch:type="MSShapeGroup" opacity="0.76">
                <circle id="Oval" cx="5.686" cy="5.862" r="5.24"></circle>
                <circle id="Oval" cx="38.334" cy="5.862" r="5.24"></circle>
            </g>
            <g id="Group" transform="translate(21.000000, 36.000000)" fill="#40301A" sketch:type="MSShapeGroup">
                <circle id="Oval" cx="1.873" cy="1.682" r="1.516"></circle>
                <circle id="Oval" cx="18.15" cy="1.681" r="1.517"></circle>
            </g>
            <path d="M26.653,41.194 C27.603,41.954 29.067,42.454 30.596,42.529 L31.422,42.529 C32.952,42.454 34.422,41.953 35.369,41.193" id="Shape" stroke="#40301A" stroke-width="0.424" sketch:type="MSShapeGroup"></path>
            <path d="M24.96,35.378 C23.806,34.225 21.938,34.228 20.785,35.383 M41.24,35.378 C40.084,34.225 38.214,34.228 37.06,35.383" id="Shape" stroke="#40301A" stroke-width="0.371" sketch:type="MSShapeGroup"></path>
            <g id="Group" transform="translate(52.000000, 61.000000)" sketch:type="MSShapeGroup">
                <path d="M6.92,0.443 C12.542,-0.487 17.852,3.323 18.777,8.945 L8.599,10.625 L6.919,0.443 L6.92,0.443 Z" id="Shape" fill="#A07A54"></path>
                <path d="M0.173,9.92 C0.913,14.416 5.16,17.46 9.659,16.717 C14.151,15.977 17.194,11.729 16.453,7.235 L8.311,8.58 L6.969,0.438 C2.474,1.178 -0.569,5.424 0.172,9.918 L0.173,9.92 Z" id="Shape" fill="#AF1D3F"></path>
                <path d="M6.512,4.004 C6.358,3.109 5.504,2.508 4.61,2.664 C3.713,2.818 3.112,3.672 3.266,4.566" id="Shape" stroke="#D8D5C1" stroke-width="0.334"></path>
                <circle id="Oval" fill="#D8D5C1" cx="4.887" cy="4.389" r="0.586"></circle>
            </g>
        </g>
    </g>
</svg>