<svg xmlns="http://www.w3.org/2000/svg" width="150" height="180" viewBox="0 0 150 180"><path fill="#A07A54" d="M69.497 136.768h6.927v17.448h-6.927zM61.09 136.768h6.924v17.448H61.09z"/><circle fill="#A07A54" cx="68.756" cy="72.737" r="30.817"/><path fill="#291F00" d="M62.135 55.598l-2.174 7.78c-6.53-.712-12.826-2.203-18.792-4.387 5.055-10.118 15.508-17.07 27.588-17.07s22.535 6.952 27.588 17.07c-8.604 3.147-17.895 4.865-27.588 4.865-2.23 0-4.438-.094-6.62-.273v-7.984z"/><g fill="#F7A100"><circle opacity=".76" cx="52.439" cy="80.085" r="5.24"/><circle opacity=".76" cx="85.087" cy="80.085" r="5.24"/></g><g fill="#40301A"><circle cx="60.626" cy="75.904" r="1.516"/><circle cx="76.902" cy="75.903" r="1.517"/></g><path fill="none" stroke="#40301A" stroke-width=".424" stroke-linecap="round" stroke-miterlimit="10" d="M64.406 79.417c.95.76 2.414 1.26 3.943 1.335h.825c1.53-.074 3-.575 3.947-1.335"/><path fill="none" stroke="#40301A" stroke-width=".371" stroke-linecap="round" stroke-miterlimit="10" d="M62.713 73.6c-1.154-1.152-3.022-1.15-4.175.006M78.992 73.6c-1.155-1.152-3.025-1.15-4.178.006"/><path fill="#FABC00" d="M58.503 144.627v-29.51c0-2.72 1.08-5.326 3.003-7.25 1.922-1.92 4.53-3 7.25-3 2.72 0 5.326 1.08 7.25 3 1.924 1.924 3.002 4.53 3.002 7.25v29.51H58.503z"/><g><path fill="#40301A" d="M102.737 127.388l-34.523 12.614v-55.36l34.523-12.614"/><path fill="#D8D5C1" d="M68.214 140.002L33.69 127.388v-55.36l34.524 12.615"/><circle fill="#A07A54" cx="33.688" cy="96.516" r="5.083"/><circle fill="#A07A54" cx="102.738" cy="96.516" r="5.083"/><g><path fill="#F7A100" d="M98.945 60.323c-6.935 0-12.557 5.62-12.557 12.556h12.557V60.322z"/><path fill="#006B81" d="M98.883 60.323v10.04h-10.04c0 5.543 4.495 10.038 10.04 10.038s10.04-4.494 10.04-10.038c0-5.545-4.495-10.04-10.04-10.04z"/><path fill="none" stroke="#D8D5C1" stroke-width=".177" stroke-linecap="round" stroke-miterlimit="10" d="M100.14 64.516c.008-1.106.914-1.996 2.02-1.987 1.108.007 1.997.912 1.99 2.02"/><circle fill="#D8D5C1" cx="102.167" cy="64.655" r=".711"/></g></g></svg>