<?xml version="1.0" encoding="UTF-8" standalone="no"?>
<svg width="181px" height="122px" viewBox="0 0 181 122" version="1.1" xmlns="http://www.w3.org/2000/svg" xmlns:xlink="http://www.w3.org/1999/xlink" xmlns:sketch="http://www.bohemiancoding.com/sketch/ns">
    <!-- Generator: Sketch 3.3.2 (12043) - http://www.bohemiancoding.com/sketch -->
    <title>Imported Layers</title>
    <desc>Created with Sketch.</desc>
    <defs></defs>
    <g id="Page-1" stroke="none" stroke-width="1" fill="none" fill-rule="evenodd" sketch:type="MSPage">
        <g id="Imported-Layers" sketch:type="MSLayerGroup">
            <path d="M158.14331,31.9650796 C148.467522,35.0820177 143.158903,45.4563363 146.280159,55.1332035 L163.792018,49.4844956 L158.14331,31.9650796" id="Fill-1" fill="#F8A100" sketch:type="MSShapeGroup"></path>
            <path d="M158.055858,31.9920708 L162.576336,46.0015575 L148.56685,50.5198761 C151.062991,58.2544602 159.356832,62.5039469 167.090336,60.008885 C174.830319,57.5116637 179.078726,49.2189027 176.583664,41.4821593 C174.087522,33.7454159 165.793681,29.4937699 158.055858,31.9920708" id="Fill-2" fill="#40301A" sketch:type="MSShapeGroup"></path>
            <path d="M161.871327,37.2229558 C161.783876,36.947646 161.74285,36.6690973 161.74285,36.3959469 C161.74285,35.224531 162.497522,34.1373274 163.675416,33.7724071 C163.953965,33.6838761 164.233593,33.6417699 164.508903,33.6417699 C165.679239,33.6428496 166.764283,34.3964425 167.134602,35.572177 L167.361327,35.6898584 L167.479009,35.4631327 C167.059027,34.1351681 165.833628,33.2811681 164.508903,33.2811681 C164.196885,33.2811681 163.880549,33.3286726 163.567451,33.428 C162.235168,33.8415044 161.382248,35.0701416 161.382248,36.3959469 C161.382248,36.7058053 161.428673,37.0210619 161.52692,37.332 L161.753646,37.4496814 L161.871327,37.2229558" id="Fill-3" fill="#D8D5C1" sketch:type="MSShapeGroup"></path>
            <path d="M163.556655,36.4164602 C163.636549,35.8410088 164.164496,35.4490973 164.733469,35.5246726 C165.303522,35.6078053 165.701912,36.1346726 165.625257,36.703646 C165.545363,37.2726195 165.017416,37.6699292 164.448442,37.5889558 C163.87515,37.5133805 163.47892,36.9865133 163.556655,36.4164602" id="Fill-4" fill="#D8D5C1" sketch:type="MSShapeGroup"></path>
            <path d="M44.078708,82.2765841 C33.8199115,83.100354 23.8731327,79.2838053 16.7863363,71.8137345 L22.2104779,66.6681416 C27.7361062,72.4906726 35.4901239,75.4640177 43.4816637,74.8248673 L44.078708,82.2765841" id="Fill-5" fill="#108B33" sketch:type="MSShapeGroup"></path>
            <path d="M27.2502655,67.4130973 L5.35936283,70.482531 L0.617557522,36.6680177 L22.5095398,33.5975044 L27.2502655,67.4130973" id="Fill-6" fill="#4D4D4D" sketch:type="MSShapeGroup"></path>
            <path d="M24.0804248,61.960885 L6.90541593,64.3674159 L3.6999469,41.4994336 L20.8749558,39.0885841 L24.0804248,61.960885" id="Fill-7" fill="#999999" sketch:type="MSShapeGroup"></path>
            <path d="M24.0804248,61.960885 L6.90541593,64.3674159 L6.24467257,59.6515221 L23.4186018,57.2449912 L24.0804248,61.960885" id="Fill-8" fill="#CCCCCC" sketch:type="MSShapeGroup"></path>
            <path d="M17.3801416,65.6219646 C17.497823,66.4576106 16.9158938,67.2284779 16.0802478,67.3472389 C15.2446018,67.4638407 14.4726549,66.8808319 14.3549735,66.0462655 C14.237292,65.2095398 14.8213805,64.4375929 15.6559469,64.3209912 C16.4905133,64.2033097 17.2635398,64.7852389 17.3801416,65.6219646" id="Fill-9" fill="#808080" sketch:type="MSShapeGroup"></path>
            <path d="M12.459115,37.2920531 C12.5033805,37.612708 12.2798938,37.908531 11.9581593,37.9538761 C11.6385841,37.9981416 11.3416814,37.7746549 11.2963363,37.454 C11.2509912,37.1333451 11.4755575,36.8364425 11.7962124,36.792177 C12.1179469,36.7457522 12.4137699,36.9692389 12.459115,37.2920531" id="Fill-10" fill="#808080" sketch:type="MSShapeGroup"></path>
            <path d="M8.35430088,45.3818407 L5.68541593,45.7564779 L5.31077876,43.0865133 L7.98074336,42.7140354 L8.35430088,45.3818407" id="Fill-11" fill="#FFD1AD" sketch:type="MSShapeGroup"></path>
            <path d="M11.974354,44.8744071 L9.30330973,45.2490442 L8.92975221,42.5790796 L11.5986372,42.2055221 L11.974354,44.8744071" id="Fill-12" fill="#FCBC00" sketch:type="MSShapeGroup"></path>
            <path d="M15.5922478,44.3669735 L12.9222832,44.7416106 L12.547646,42.0727257 L15.2176106,41.6980885 L15.5922478,44.3669735" id="Fill-13" fill="#F8A100" sketch:type="MSShapeGroup"></path>
            <path d="M19.2112212,43.8606195 L16.5412566,44.234177 L16.1676991,41.5642124 L18.8365841,41.1895752 L19.2112212,43.8606195" id="Fill-14" fill="#F2F2F2" sketch:type="MSShapeGroup"></path>
            <path d="M8.85957522,48.9910973 L6.18961062,49.3657345 L5.8160531,46.6946903 L8.4860177,46.3211327 L8.85957522,48.9910973" id="Fill-15" fill="#8ACAAC" sketch:type="MSShapeGroup"></path>
            <path d="M12.4785487,48.4825841 L9.80966372,48.8572212 L9.43502655,46.1872566 L12.1039115,45.8136991 L12.4785487,48.4825841" id="Fill-16" fill="#108B33" sketch:type="MSShapeGroup"></path>
            <path d="M16.0986018,47.9762301 L13.4297168,48.3497876 L13.054,45.6809027 L15.722885,45.3062655 L16.0986018,47.9762301" id="Fill-17" fill="#145266" sketch:type="MSShapeGroup"></path>
            <path d="M19.7175752,47.4687965 L17.0476106,47.8412743 L16.6718938,45.173469 L19.3418584,44.7988319 L19.7175752,47.4687965" id="Fill-18" fill="#F8A100" sketch:type="MSShapeGroup"></path>
            <path d="M9.3659292,52.5992743 L6.6959646,52.9717522 L6.32240708,50.3039469 L8.99237168,49.9293097 L9.3659292,52.5992743" id="Fill-19" fill="#40301A" sketch:type="MSShapeGroup"></path>
            <path d="M12.983823,52.0907611 L10.3160177,52.4664779 L9.94138053,49.7954336 L12.6113451,49.4207965 L12.983823,52.0907611" id="Fill-20" fill="#F8A100" sketch:type="MSShapeGroup"></path>
            <path d="M41.7186018,101.797664 L41.7186018,79.7739646 C41.7186018,76.8384071 42.8846195,74.0226903 44.9607788,71.946531 C47.0347788,69.872531 49.8526549,68.7054336 52.7882124,68.7054336 C55.7237699,68.7054336 58.5384071,69.872531 60.615646,71.946531 C62.6907257,74.0226903 63.8556637,76.8384071 63.8556637,79.7739646 L63.8556637,101.797664 L41.7186018,101.797664" id="Fill-21" fill="#108B33" sketch:type="MSShapeGroup"></path>
            <path d="M53.5882301,103.146142 L61.0669381,103.146142 L61.0669381,121.935221 L53.5882301,121.935221 L53.5882301,103.146142 Z" id="Fill-22" fill="#145266" sketch:type="MSShapeGroup"></path>
            <path d="M44.511646,103.146142 L51.987115,103.146142 L51.987115,121.935221 L44.511646,121.935221 L44.511646,103.146142 Z" id="Fill-23" fill="#145266" sketch:type="MSShapeGroup"></path>
            <path d="M61.1479115,81.9883186 C71.3592035,83.2299115 81.4571327,79.8290265 88.8483894,72.6580177 L83.640177,67.2900177 C77.8770265,72.8825841 70.009646,75.5320354 62.0494159,74.5635929 L61.1479115,81.9883186" id="Fill-24" fill="#108B33" sketch:type="MSShapeGroup"></path>
            <path d="M99.5919469,22.1025133 C105.572106,22.1025133 111.308265,21.0412212 116.613646,19.1000177 C113.496708,12.8564248 107.045823,8.56699115 99.5919469,8.56699115 C92.1380708,8.56699115 85.6893451,12.8564248 82.5724071,19.1000177 C87.8810265,21.0412212 93.6139469,22.1025133 99.5919469,22.1025133" id="Fill-25" fill="#FCBC00" sketch:type="MSShapeGroup"></path>
            <path d="M19.5156814,34.0174867 C19.5156814,52.3941416 34.4126372,67.2900177 52.7882124,67.2900177 C71.162708,67.2900177 86.0596637,52.3941416 86.0596637,34.0174867 C86.0596637,15.6408319 71.162708,0.744955752 52.7882124,0.744955752 C34.4126372,0.744955752 19.5156814,15.6408319 19.5156814,34.0174867" id="Fill-26" fill="#FFD1AD" sketch:type="MSShapeGroup"></path>
            <path d="M45.6387965,15.512354 L43.2927257,23.912 C36.2404779,23.143292 29.4441062,21.5335398 23.0029381,19.1766726 C28.459469,8.25173451 39.7460885,0.744955752 52.7882124,0.744955752 C65.8303363,0.744955752 77.1180354,8.25173451 82.5724071,19.1766726 C73.2842124,22.5732389 63.2532212,24.4280708 52.7882124,24.4280708 C50.3806018,24.4280708 47.9967434,24.3265841 45.6387965,24.1322478 L45.6387965,15.512354" id="Fill-27" fill="#FCBC00" sketch:type="MSShapeGroup"></path>
            <path d="M35.169469,36.2933805 C32.0471327,36.2933805 29.5142832,38.8251504 29.5142832,41.9507257 C29.5142832,45.0752212 32.0471327,47.6080708 35.169469,47.6080708 C38.2972035,47.6080708 40.8289735,45.0752212 40.8289735,41.9507257 C40.8289735,38.8251504 38.2972035,36.2933805 35.169469,36.2933805" id="Fill-28" fill="#F99629" sketch:type="MSShapeGroup"></path>
            <path d="M70.4220708,36.2933805 C67.2975752,36.2933805 64.7625664,38.8251504 64.7625664,41.9507257 C64.7625664,45.0752212 67.2975752,47.6080708 70.4220708,47.6080708 C73.5454867,47.6080708 76.0772566,45.0752212 76.0772566,41.9507257 C76.0772566,38.8251504 73.5454867,36.2933805 70.4220708,36.2933805" id="Fill-29" fill="#F99629" sketch:type="MSShapeGroup"></path>
            <path d="M45.4941239,36.7457522 C45.1130088,35.9230619 44.1402478,35.5700177 43.3186372,35.9500531 C42.4991858,36.3311681 42.1439823,37.3082478 42.5272566,38.1276991 C42.9062124,38.9471504 43.8800531,39.3012743 44.7005841,38.9212389 C45.5189558,38.5390442 45.8773982,37.5652035 45.4941239,36.7457522" id="Fill-30" fill="#40301A" sketch:type="MSShapeGroup"></path>
            <path d="M63.0686018,36.7435929 C62.6874867,35.9230619 61.7125664,35.5700177 60.893115,35.9500531 C60.0725841,36.3311681 59.7184602,37.3082478 60.0984956,38.1276991 C60.478531,38.9471504 61.454531,39.3012743 62.2729027,38.9212389 C63.0945133,38.5390442 63.4497168,37.5652035 63.0686018,36.7435929" id="Fill-31" fill="#40301A" sketch:type="MSShapeGroup"></path>
            <path d="M47.9481593,41.4076637 C49.025646,42.2670619 50.6440354,42.8155221 52.338,42.8986549 L53.2524602,42.8986549 C54.9464248,42.8155221 56.571292,42.2670619 57.6455398,41.4076637 C57.7448673,41.3288496 57.7599823,41.184177 57.6811681,41.0859292 C57.602354,40.9876814 57.4587611,40.9714867 57.3594336,41.0503009 C56.3888319,41.830885 54.8395398,42.3653097 53.2297876,42.4419646 L53.2405841,42.6697699 L53.2405841,42.4419646 L52.3487965,42.4419646 L52.3487965,42.6697699 L52.3606726,42.4419646 C50.752,42.3653097 49.2081062,41.8319646 48.2342655,41.0503009 C48.1360177,40.9714867 47.9924248,40.9876814 47.912531,41.0859292 C47.8337168,41.184177 47.8499115,41.3288496 47.9481593,41.4076637" id="Fill-32" fill="#40301A" sketch:type="MSShapeGroup"></path>
            <path d="M46.4042655,34.8077876 C45.7435221,34.1470442 44.877646,33.8166726 44.0128496,33.8166726 C43.1448142,33.8166726 42.2756991,34.1492035 41.6138761,34.8131858 L41.6149558,35.0960531 L41.897823,35.0960531 C42.4819115,34.5098053 43.2463009,34.2172212 44.0128496,34.2172212 C44.7761593,34.2172212 45.5383894,34.507646 46.1224779,35.0906549 L46.4053451,35.0906549 L46.4042655,34.8077876" id="Fill-33" fill="#40301A" sketch:type="MSShapeGroup"></path>
            <path d="M63.9809027,34.8077876 C63.3190796,34.1470442 62.4521239,33.8166726 61.5862478,33.8166726 C60.7182124,33.8166726 59.8480177,34.1492035 59.1872743,34.8131858 L59.1872743,35.0960531 L59.4712212,35.0960531 C60.0542301,34.5098053 60.8196991,34.2172212 61.5862478,34.2172212 C62.3506372,34.2172212 63.1139469,34.507646 63.6980354,35.0906549 L63.9809027,35.0906549 L63.9809027,34.8077876" id="Fill-34" fill="#40301A" sketch:type="MSShapeGroup"></path>
            <path d="M129.120265,44.1618407 L148.395186,71.0752566 L179.410177,59.5014513 L129.120265,44.1618407" id="Fill-35" fill="#FFFFFF" sketch:type="MSShapeGroup"></path>
            <path d="M129.120265,44.1618407 L148.395186,71.0752566 L179.410177,59.5014513 L129.120265,44.1618407" id="Fill-36" fill="#F2F2F2" sketch:type="MSShapeGroup"></path>
            <path d="M148.395186,71.0752566 L129.120265,44.1618407 L128.430372,43.9513097 L120.93223,68.530531 L172.604088,84.2901239 L180.100071,59.7130619 L179.410177,59.5014513 L148.395186,71.0752566" id="Fill-37" fill="#FFFFFF" sketch:type="MSShapeGroup"></path>
            <path d="M158.14331,31.9650796 C148.467522,35.0820177 143.158903,45.4563363 146.280159,55.1332035 L163.792018,49.4844956 L158.14331,31.9650796" id="Fill-38" fill="#F8A100" sketch:type="MSShapeGroup"></path>
        </g>
    </g>
</svg>