<?xml version="1.0" encoding="UTF-8" standalone="no"?>
<svg width="233px" height="122px" viewBox="0 0 233 122" version="1.1" xmlns="http://www.w3.org/2000/svg" xmlns:xlink="http://www.w3.org/1999/xlink" xmlns:sketch="http://www.bohemiancoding.com/sketch/ns">
    <!-- Generator: Sketch 3.3.2 (12043) - http://www.bohemiancoding.com/sketch -->
    <title>Imported Layers</title>
    <desc>Created with Sketch.</desc>
    <defs></defs>
    <g id="Page-1" stroke="none" stroke-width="1" fill="none" fill-rule="evenodd" sketch:type="MSPage">
        <g id="Imported-Layers" sketch:type="MSLayerGroup">
            <path d="M63.213,24.581 C54.543,38.537 58.827,56.878 72.781,65.55 C86.734,74.22 105.077,69.938 113.749,55.982 C122.42,42.028 118.138,23.685 104.182,15.016 C90.228,6.344 71.884,10.627 63.213,24.581" id="Fill-1" fill="#FFD1AD" sketch:type="MSShapeGroup"></path>
            <path d="M104.182,15.016 C117.771,23.458 122.185,41.069 114.404,54.873 C109.264,54.354 104.133,52.874 99.269,50.348 C84.856,42.865 76.6,28.2 76.6,13.011 C85.256,9.247 95.557,9.655 104.182,15.016" id="Fill-2" fill="#F4B528" sketch:type="MSShapeGroup"></path>
            <path d="M66.705,35.148 C65.231,37.521 65.959,40.641 68.332,42.114 C70.705,43.588 73.823,42.86 75.297,40.487 C76.772,38.114 76.042,34.995 73.671,33.521 C71.299,32.048 68.178,32.775 66.705,35.148" id="Fill-3" fill="#F8A100" sketch:type="MSShapeGroup"></path>
            <path d="M66.101,25.063 L56.849,26.838 L63.242,32.691 L66.101,25.063" id="Fill-4" fill="#FFD1AD" sketch:type="MSShapeGroup"></path>
            <path d="M71.661,26.161 C72.088,25.475 71.877,24.571 71.191,24.146 C70.504,23.718 69.601,23.93 69.175,24.615 C68.749,25.302 68.959,26.206 69.644,26.633 C70.332,27.06 71.235,26.848 71.661,26.161" id="Fill-5" fill="#40301A" sketch:type="MSShapeGroup"></path>
            <path d="M72.894,28.763 C74.81,27.528 75.359,24.975 74.123,23.059 C72.89,21.146 70.336,20.594 68.42,21.829" id="Stroke-6" stroke="#40301A" stroke-width="0.507" stroke-linecap="round" sketch:type="MSShapeGroup"></path>
            <path d="M125.557,66.05 C129.885,69.231 134.6,71.513 139.475,72.93 C140.539,66.753 138.15,60.217 132.756,56.253 C127.359,52.287 120.41,51.96 114.832,54.822 C117.643,59.05 121.229,62.868 125.557,66.05" id="Fill-7" fill="#F4B528" sketch:type="MSShapeGroup"></path>
            <path d="M76.276,103.4 L76.276,83.121 C76.276,80.419 77.35,77.826 79.26,75.915 C81.172,74.003 83.764,72.93 86.467,72.93 C89.17,72.93 91.763,74.003 93.674,75.915 C95.586,77.826 96.659,80.419 96.659,83.121 L96.659,103.4 L76.276,103.4" id="Fill-8" fill="#108B33" sketch:type="MSShapeGroup"></path>
            <path d="M87.205,104.642 L94.09,104.642 L94.09,121.987 L87.205,121.987 L87.205,104.642 Z" id="Fill-9" fill="#145266" sketch:type="MSShapeGroup"></path>
            <path d="M78.846,104.642 L85.731,104.642 L85.731,121.987 L78.846,121.987 L78.846,104.642 Z" id="Fill-10" fill="#145266" sketch:type="MSShapeGroup"></path>
            <path d="M77.131,87.428 C67.716,86.368 59.394,81.173 54.301,73.175 L60.107,69.476 C64.078,75.71 70.565,79.761 77.9,80.586 L77.131,87.428" id="Fill-11" fill="#108B33" sketch:type="MSShapeGroup"></path>
            <path d="M100.754,0.133 C107.458,0.133 112.892,5.567 112.892,12.272 L100.754,12.272 L100.754,0.133" id="Fill-12" fill="#F8A100" sketch:type="MSShapeGroup"></path>
            <path d="M91.107,9.84 C91.107,15.2 95.453,19.547 100.815,19.547 C106.175,19.547 110.521,15.2 110.521,9.84 L100.815,9.84 L100.815,0.133 C95.453,0.133 91.107,4.478 91.107,9.84" id="Fill-13" fill="#145266" sketch:type="MSShapeGroup"></path>
            <path d="M99.598,4.187 C99.59,3.117 98.715,2.257 97.646,2.267 C96.574,2.273 95.716,3.149 95.723,4.218" id="Stroke-14" stroke="#D8D5C1" stroke-width="0.238" stroke-linecap="round" sketch:type="MSShapeGroup"></path>
            <path d="M98.258,4.022 C98.092,3.681 97.682,3.538 97.338,3.702 C96.998,3.867 96.854,4.28 97.018,4.62 C97.184,4.963 97.594,5.105 97.935,4.941 C98.28,4.775 98.422,4.364 98.258,4.022" id="Fill-15" fill="#D8D5C1" sketch:type="MSShapeGroup"></path>
            <path d="M71.661,25.682 C72.088,24.995 71.877,24.092 71.191,23.666 C70.504,23.238 69.601,23.45 69.175,24.136 C68.749,24.822 68.959,25.727 69.644,26.153 C70.332,26.581 71.235,26.368 71.661,25.682" id="Fill-16" fill="#40301A" sketch:type="MSShapeGroup"></path>
            <path d="M93.843,87.329 C103.248,88.464 112.54,85.324 119.34,78.712 L114.539,73.777 C109.239,78.932 101.997,81.38 94.668,80.493 L93.843,87.329" id="Fill-17" fill="#108B33" sketch:type="MSShapeGroup"></path>
            <path d="M100.754,0.133 C107.458,0.133 112.892,5.567 112.892,12.272 L100.754,12.272 L100.754,0.133" id="Fill-18" fill="#F8A100" sketch:type="MSShapeGroup"></path>
            <path d="M91.107,9.84 C91.107,15.2 95.453,19.547 100.815,19.547 C106.175,19.547 110.521,15.2 110.521,9.84 L100.815,9.84 L100.815,0.133 C95.453,0.133 91.107,4.478 91.107,9.84" id="Fill-19" fill="#145266" sketch:type="MSShapeGroup"></path>
            <path d="M99.598,4.187 C99.59,3.117 98.715,2.257 97.646,2.267 C96.574,2.273 95.716,3.149 95.723,4.218" id="Stroke-20" stroke="#D8D5C1" stroke-width="0.238" stroke-linecap="round" sketch:type="MSShapeGroup"></path>
            <path d="M98.258,4.022 C98.092,3.681 97.682,3.538 97.338,3.702 C96.998,3.867 96.854,4.28 97.018,4.62 C97.184,4.963 97.594,5.105 97.935,4.941 C98.28,4.775 98.422,4.364 98.258,4.022" id="Fill-21" fill="#D8D5C1" sketch:type="MSShapeGroup"></path>
            <path d="M27.596,76.727 C33.012,76.727 37.401,81.118 37.401,86.535 L27.596,86.535 L27.596,76.727" id="Fill-22" fill="#40301A" sketch:type="MSShapeGroup"></path>
            <path d="M19.803,84.57 C19.803,88.9 23.313,92.412 27.644,92.412 C31.975,92.412 35.486,88.9 35.486,84.57 L27.644,84.57 L27.644,76.727 C23.313,76.727 19.803,80.238 19.803,84.57" id="Fill-23" fill="#F4B528" sketch:type="MSShapeGroup"></path>
            <path d="M26.662,80.004 C26.656,79.139 25.949,78.444 25.085,78.452 C24.219,78.457 23.525,79.165 23.531,80.028" id="Stroke-24" stroke="#40301A" stroke-width="0.192" stroke-linecap="round" sketch:type="MSShapeGroup"></path>
            <path d="M25.578,79.87 C25.444,79.594 25.113,79.479 24.836,79.611 C24.561,79.745 24.444,80.078 24.578,80.353 C24.711,80.63 25.043,80.745 25.318,80.612 C25.598,80.479 25.711,80.146 25.578,79.87" id="Fill-25" fill="#40301A" sketch:type="MSShapeGroup"></path>
            <path d="M37.011,9.324 C42.133,11.085 44.856,16.664 43.094,21.787 L33.822,18.599 L37.011,9.324" id="Fill-26" fill="#40301A" sketch:type="MSShapeGroup"></path>
            <path d="M27.09,14.206 C25.682,18.301 27.86,22.764 31.957,24.172 C36.052,25.58 40.514,23.4 41.922,19.306 L34.506,16.756 L37.057,9.34 C32.961,7.931 28.499,10.109 27.09,14.206" id="Fill-27" fill="#F4B528" sketch:type="MSShapeGroup"></path>
            <path d="M35.062,12.118 C35.338,11.298 34.895,10.411 34.075,10.138 C33.255,9.861 32.369,10.306 32.094,11.123" id="Stroke-28" stroke="#40301A" stroke-width="0.192" stroke-linecap="round" sketch:type="MSShapeGroup"></path>
            <path d="M34.081,11.64 C34.044,11.335 33.769,11.118 33.463,11.153 C33.16,11.19 32.941,11.468 32.978,11.771 C33.014,12.076 33.29,12.293 33.594,12.257 C33.9,12.221 34.117,11.944 34.081,11.64" id="Fill-29" fill="#40301A" sketch:type="MSShapeGroup"></path>
            <path d="M102.676,107.354 C97.972,104.671 91.983,106.31 89.299,111.015 L97.816,115.873 L102.676,107.354" id="Fill-30" fill="#40301A" sketch:type="MSShapeGroup"></path>
            <path d="M102.633,107.33 L98.748,114.143 L91.938,110.257 C89.791,114.018 91.1,118.808 94.861,120.954 C98.624,123.101 103.414,121.79 105.559,118.028 C107.706,114.266 106.397,109.477 102.633,107.33" id="Fill-31" fill="#F4B528" sketch:type="MSShapeGroup"></path>
            <path d="M101.864,110.663 C102.299,109.914 103.256,109.661 104.003,110.097 C104.752,110.53 105.004,111.489 104.571,112.235" id="Stroke-32" stroke="#40301A" stroke-width="0.192" stroke-linecap="round" sketch:type="MSShapeGroup"></path>
            <path d="M102.871,111.084 C103.125,110.91 103.469,110.974 103.644,111.227 C103.816,111.479 103.753,111.826 103.5,111.999 C103.248,112.173 102.902,112.109 102.729,111.857 C102.554,111.602 102.619,111.258 102.871,111.084" id="Fill-33" fill="#40301A" sketch:type="MSShapeGroup"></path>
            <path d="M120.097,64.012 C125.219,65.772 127.941,71.352 126.18,76.475 L116.908,73.286 L120.097,64.012" id="Fill-34" fill="#40301A" sketch:type="MSShapeGroup"></path>
            <path d="M110.176,68.894 C108.768,72.988 110.946,77.451 115.043,78.859 C119.138,80.268 123.6,78.088 125.008,73.993 L117.592,71.443 L120.143,64.027 C116.047,62.618 111.585,64.797 110.176,68.894" id="Fill-35" fill="#F8A100" sketch:type="MSShapeGroup"></path>
            <path d="M118.148,66.806 C118.424,65.985 117.981,65.099 117.161,64.825 C116.341,64.549 115.455,64.993 115.18,65.81" id="Stroke-36" stroke="#40301A" stroke-width="0.192" stroke-linecap="round" sketch:type="MSShapeGroup"></path>
            <path d="M117.167,66.327 C117.13,66.023 116.855,65.806 116.549,65.841 C116.246,65.878 116.027,66.155 116.063,66.459 C116.1,66.764 116.376,66.981 116.68,66.944 C116.986,66.908 117.203,66.632 117.167,66.327" id="Fill-37" fill="#40301A" sketch:type="MSShapeGroup"></path>
            <path d="M31.88,65.965 C28.231,64.489 24.078,66.253 22.604,69.903 L29.209,72.573 L31.88,65.965" id="Fill-38" fill="#F8A100" sketch:type="MSShapeGroup"></path>
            <path d="M31.848,65.951 L29.711,71.236 L24.428,69.101 C23.249,72.018 24.658,75.34 27.576,76.519 C30.494,77.698 33.816,76.289 34.995,73.372 C36.175,70.453 34.766,67.131 31.848,65.951" id="Fill-39" fill="#288B85" sketch:type="MSShapeGroup"></path>
            <path d="M31.617,68.427 C31.857,67.846 32.522,67.57 33.102,67.812 C33.684,68.05 33.959,68.716 33.721,69.296" id="Stroke-40" stroke="#D8D5C1" stroke-width="0.14" stroke-linecap="round" sketch:type="MSShapeGroup"></path>
            <path d="M32.383,68.632 C32.549,68.481 32.804,68.495 32.954,68.659 C33.104,68.825 33.091,69.081 32.926,69.231 C32.762,69.38 32.506,69.367 32.357,69.202 C32.205,69.037 32.219,68.782 32.383,68.632" id="Fill-41" fill="#D8D5C1" sketch:type="MSShapeGroup"></path>
            <path d="M156.174,81.925 C152.527,80.444 148.371,82.203 146.892,85.852 L153.494,88.529 L156.174,81.925" id="Fill-42" fill="#F8A100" sketch:type="MSShapeGroup"></path>
            <path d="M156.141,81.911 L153.998,87.193 L148.718,85.051 C147.535,87.967 148.94,91.29 151.856,92.473 C154.773,93.656 158.097,92.251 159.279,89.335 C160.463,86.418 159.059,83.094 156.141,81.911" id="Fill-43" fill="#40301A" sketch:type="MSShapeGroup"></path>
            <path d="M155.908,84.386 C156.148,83.806 156.813,83.53 157.393,83.772 C157.975,84.012 158.249,84.678 158.01,85.258" id="Stroke-44" stroke="#D8D5C1" stroke-width="0.14" stroke-linecap="round" sketch:type="MSShapeGroup"></path>
            <path d="M156.674,84.592 C156.84,84.441 157.094,84.456 157.244,84.62 C157.393,84.786 157.381,85.042 157.216,85.191 C157.051,85.341 156.795,85.327 156.646,85.162 C156.495,84.997 156.508,84.742 156.674,84.592" id="Fill-45" fill="#D8D5C1" sketch:type="MSShapeGroup"></path>
            <path d="M6.974,114.413 C4.455,113.394 1.588,114.611 0.569,117.132 L5.129,118.975 L6.974,114.413" id="Fill-46" fill="#F8A100" sketch:type="MSShapeGroup"></path>
            <path d="M6.951,114.403 L5.477,118.052 L1.83,116.577 C1.016,118.591 1.988,120.885 4.002,121.698 C6.018,122.513 8.311,121.54 9.124,119.526 C9.938,117.512 8.967,115.218 6.951,114.403" id="Fill-47" fill="#40301A" sketch:type="MSShapeGroup"></path>
            <path d="M6.793,116.112 C6.958,115.711 7.417,115.521 7.817,115.688 C8.219,115.852 8.408,116.312 8.244,116.712" id="Stroke-48" stroke="#D8D5C1" stroke-width="0.097" stroke-linecap="round" sketch:type="MSShapeGroup"></path>
            <path d="M7.321,116.254 C7.435,116.15 7.611,116.159 7.715,116.273 C7.818,116.388 7.81,116.564 7.695,116.667 C7.582,116.771 7.406,116.762 7.303,116.648 C7.199,116.533 7.207,116.357 7.321,116.254" id="Fill-49" fill="#D8D5C1" sketch:type="MSShapeGroup"></path>
            <path d="M56.079,63.342 C53.56,62.323 50.693,63.54 49.675,66.06 L54.234,67.903 L56.079,63.342" id="Fill-50" fill="#F8A100" sketch:type="MSShapeGroup"></path>
            <path d="M56.057,63.332 L54.582,66.981 L50.935,65.506 C50.121,67.519 51.094,69.813 53.107,70.627 C55.123,71.441 57.416,70.469 58.23,68.455 C59.044,66.44 58.072,64.146 56.057,63.332" id="Fill-51" fill="#145266" sketch:type="MSShapeGroup"></path>
            <path d="M55.898,65.041 C56.063,64.64 56.523,64.45 56.923,64.616 C57.324,64.781 57.514,65.24 57.35,65.641" id="Stroke-52" stroke="#D8D5C1" stroke-width="0.097" stroke-linecap="round" sketch:type="MSShapeGroup"></path>
            <path d="M56.427,65.183 C56.541,65.079 56.717,65.088 56.82,65.201 C56.924,65.316 56.915,65.493 56.801,65.596 C56.688,65.699 56.512,65.69 56.408,65.576 C56.305,65.462 56.313,65.286 56.427,65.183" id="Fill-53" fill="#D8D5C1" sketch:type="MSShapeGroup"></path>
            <path d="M229.657,114.413 C227.139,113.394 224.272,114.611 223.253,117.132 L227.813,118.975 L229.657,114.413" id="Fill-54" fill="#F8A100" sketch:type="MSShapeGroup"></path>
            <path d="M229.635,114.403 L228.16,118.052 L224.514,116.577 C223.699,118.591 224.672,120.885 226.686,121.698 C228.701,122.513 230.994,121.54 231.808,119.526 C232.622,117.512 231.65,115.218 229.635,114.403" id="Fill-55" fill="#145266" sketch:type="MSShapeGroup"></path>
            <path d="M229.477,116.112 C229.642,115.711 230.101,115.521 230.501,115.688 C230.902,115.852 231.092,116.312 230.928,116.712" id="Stroke-56" stroke="#D8D5C1" stroke-width="0.097" stroke-linecap="round" sketch:type="MSShapeGroup"></path>
            <path d="M230.005,116.254 C230.119,116.15 230.295,116.159 230.398,116.273 C230.502,116.388 230.493,116.564 230.379,116.667 C230.266,116.771 230.09,116.762 229.986,116.648 C229.883,116.533 229.891,116.357 230.005,116.254" id="Fill-57" fill="#D8D5C1" sketch:type="MSShapeGroup"></path>
            <path d="M207.509,101.002 C214.634,102.832 218.924,110.09 217.093,117.217 L204.196,113.904 L207.509,101.002" id="Fill-58" fill="#F8A100" sketch:type="MSShapeGroup"></path>
            <path d="M194.607,108.687 C193.145,114.382 196.576,120.185 202.274,121.648 C207.97,123.113 213.776,119.68 215.238,113.983 L204.924,111.335 L207.574,101.017 C201.875,99.553 196.07,102.988 194.607,108.687" id="Fill-59" fill="#40301A" sketch:type="MSShapeGroup"></path>
            <path d="M205.174,104.995 C205.457,103.855 204.762,102.705 203.623,102.423 C202.482,102.137 201.332,102.832 201.047,103.969" id="Stroke-60" stroke="#D8D5C1" stroke-width="0.261" stroke-linecap="round" sketch:type="MSShapeGroup"></path>
            <path d="M203.794,104.453 C203.71,104.044 203.313,103.782 202.904,103.86 C202.497,103.947 202.231,104.346 202.314,104.752 C202.395,105.16 202.793,105.425 203.201,105.34 C203.611,105.26 203.876,104.863 203.794,104.453" id="Fill-61" fill="#D8D5C1" sketch:type="MSShapeGroup"></path>
            <path d="M153.144,92.892 C143.099,92.892 134.955,101.036 134.955,111.085 L153.144,111.085 L153.144,92.892" id="Fill-62" fill="#F8A100" sketch:type="MSShapeGroup"></path>
            <path d="M153.055,92.892 L153.055,107.438 L138.509,107.438 C138.509,115.472 145.022,121.986 153.055,121.986 C161.09,121.986 167.602,115.472 167.602,107.438 C167.602,99.404 161.09,92.892 153.055,92.892" id="Fill-63" fill="#145266" sketch:type="MSShapeGroup"></path>
            <path d="M154.878,98.968 C154.89,97.364 156.201,96.074 157.803,96.089 C159.408,96.1 160.695,97.412 160.685,99.014" id="Stroke-64" stroke="#D8D5C1" stroke-width="0.357" stroke-linecap="round" sketch:type="MSShapeGroup"></path>
            <path d="M156.887,98.721 C157.136,98.208 157.75,97.995 158.264,98.24 C158.774,98.488 158.991,99.107 158.744,99.616 C158.496,100.13 157.881,100.344 157.371,100.098 C156.852,99.849 156.641,99.233 156.887,98.721" id="Fill-65" fill="#D8D5C1" sketch:type="MSShapeGroup"></path>
            <path d="M28.512,92.892 C38.559,92.892 46.701,101.036 46.701,111.085 L28.512,111.085 L28.512,92.892" id="Fill-66" fill="#F8A100" sketch:type="MSShapeGroup"></path>
            <path d="M14.055,107.438 C14.055,115.472 20.567,121.986 28.602,121.986 C36.636,121.986 43.148,115.472 43.148,107.438 L28.602,107.438 L28.602,92.892 C20.567,92.892 14.055,99.404 14.055,107.438" id="Fill-67" fill="#108B33" sketch:type="MSShapeGroup"></path>
            <path d="M26.779,98.968 C26.768,97.364 25.457,96.074 23.855,96.089 C22.248,96.1 20.961,97.412 20.972,99.014" id="Stroke-68" stroke="#D8D5C1" stroke-width="0.357" stroke-linecap="round" sketch:type="MSShapeGroup"></path>
            <path d="M24.77,98.721 C24.521,98.208 23.906,97.995 23.393,98.24 C22.883,98.488 22.666,99.107 22.913,99.616 C23.162,100.13 23.776,100.344 24.286,100.098 C24.805,99.849 25.017,99.233 24.77,98.721" id="Fill-69" fill="#D8D5C1" sketch:type="MSShapeGroup"></path>
        </g>
    </g>
</svg>