<?xml version="1.0" encoding="UTF-8" standalone="no"?>
<svg width="117px" height="122px" viewBox="0 0 117 122" version="1.1" xmlns="http://www.w3.org/2000/svg" xmlns:xlink="http://www.w3.org/1999/xlink" xmlns:sketch="http://www.bohemiancoding.com/sketch/ns">
    <!-- Generator: Sketch 3.3.2 (12043) - http://www.bohemiancoding.com/sketch -->
    <title>Clara T. About</title>
    <desc>Created with Sketch.</desc>
    <defs></defs>
    <g id="Page-1" stroke="none" stroke-width="1" fill="none" fill-rule="evenodd" sketch:type="MSPage">
        <g id="Clara-T.-About" sketch:type="MSLayerGroup">
            <path d="M93.3201613,94.694629 C83.897629,94.694629 76.257871,102.335371 76.257871,111.760855 L93.3201613,111.760855 L93.3201613,94.694629" id="Fill-1" fill="#F8A100" sketch:type="MSShapeGroup"></path>
            <path d="M93.2365323,94.694629 L93.2365323,108.339935 L79.5922097,108.339935 C79.5922097,115.875403 85.7010645,121.986226 93.2365323,121.986226 C100.772984,121.986226 106.882823,115.875403 106.882823,108.339935 C106.882823,100.804468 100.772984,94.694629 93.2365323,94.694629" id="Fill-2" fill="#145266" sketch:type="MSShapeGroup"></path>
            <path d="M94.9465,100.395177 C94.9573226,98.8908387 96.1871613,97.6806774 97.6895323,97.6944516 C99.1958387,97.7042903 100.403048,98.9360968 100.394194,100.437484" id="Stroke-3" stroke="#D8D5C1" stroke-width="0.357" stroke-linecap="round" sketch:type="MSShapeGroup"></path>
            <path d="M96.8306129,100.162984 C97.0637903,99.681871 97.6403387,99.4821452 98.1224355,99.712371 C98.6015806,99.9445645 98.8042581,100.526032 98.5730484,101.002226 C98.339871,101.484323 97.7633226,101.686016 97.2851613,101.454806 C96.7981452,101.220645 96.5994032,100.644097 96.8306129,100.162984" id="Fill-4" fill="#D8D5C1" sketch:type="MSShapeGroup"></path>
            <path d="M41.5321452,26.1522742 C33.0019839,39.8831774 37.2168871,57.9283548 50.9458226,66.4604839 C64.6737742,74.9906452 82.7209194,70.7777097 91.2530484,57.0468065 C99.7841935,43.317871 95.5712581,25.2707258 81.8403548,16.7415484 C68.1114194,8.20941935 50.0632903,12.4233387 41.5321452,26.1522742" id="Fill-5" fill="#FFD1AD" sketch:type="MSShapeGroup"></path>
            <path d="M81.8403548,16.7415484 C95.2101774,25.0473871 99.5529839,42.3743387 91.8974839,55.9556935 C86.8403871,55.4450645 81.7921452,53.9889355 77.0065968,51.5036774 C62.8260645,44.141371 54.7032258,29.7129032 54.7032258,14.7688871 C63.2196129,11.0655968 73.3544677,11.4670161 81.8403548,16.7415484" id="Fill-6" fill="#F4B528" sketch:type="MSShapeGroup"></path>
            <path d="M44.9678226,36.5488387 C43.5175968,38.8835645 44.2338548,41.9532419 46.5685806,43.4024839 C48.9033065,44.8527097 51.9710161,44.1364516 53.4212419,41.8017258 C54.8724516,39.467 54.1542258,36.3983065 51.8214677,34.9480806 C49.4877258,33.4988387 46.4170645,34.2141129 44.9678226,36.5488387" id="Fill-7" fill="#F8A100" sketch:type="MSShapeGroup"></path>
            <path d="M44.3735645,26.6265 L35.2707903,28.372871 L41.5606774,34.1314677 L44.3735645,26.6265" id="Fill-8" fill="#FFD1AD" sketch:type="MSShapeGroup"></path>
            <path d="M49.8438871,27.7067903 C50.264,27.0318548 50.0564032,26.1424355 49.3814677,25.7242903 C48.7055484,25.3031935 47.8171129,25.5117742 47.3979839,26.1857258 C46.9788548,26.8616452 47.1854677,27.7510645 47.8594194,28.1711774 C48.5363226,28.5912903 49.4247581,28.3827097 49.8438871,27.7067903" id="Fill-9" fill="#40301A" sketch:type="MSShapeGroup"></path>
            <path d="M51.057,30.2668226 C52.9420968,29.0517419 53.4822419,26.5399194 52.2661774,24.6548226 C51.0530645,22.7726774 48.5402581,22.2295806 46.6551613,23.4446613" id="Stroke-10" stroke="#40301A" stroke-width="0.507" stroke-linecap="round" sketch:type="MSShapeGroup"></path>
            <path d="M102.870597,66.9524194 C107.12879,70.0821129 111.767742,72.3273065 116.564113,73.7214516 C117.610952,67.6440806 115.260484,61.2135 109.953484,57.3134355 C104.643532,53.4114032 97.8066129,53.0896774 92.3185806,55.9055161 C95.0842419,60.0653226 98.6124032,63.8217419 102.870597,66.9524194" id="Fill-11" fill="#F4B528" sketch:type="MSShapeGroup"></path>
            <path d="M54.3844516,103.7 L54.3844516,83.7480806 C54.3844516,81.0896613 55.441129,78.5384839 57.3203226,76.6583065 C59.2014839,74.7771452 61.7516774,73.7214516 64.4110806,73.7214516 C67.0704839,73.7214516 69.6216613,74.7771452 71.5018387,76.6583065 C73.383,78.5384839 74.4386935,81.0896613 74.4386935,83.7480806 L74.4386935,103.7 L54.3844516,103.7" id="Fill-12" fill="#108B33" sketch:type="MSShapeGroup"></path>
            <path d="M65.1371774,104.921968 L71.911129,104.921968 L71.911129,121.98721 L65.1371774,121.98721 L65.1371774,104.921968 Z" id="Fill-13" fill="#145266" sketch:type="MSShapeGroup"></path>
            <path d="M56.913,104.921968 L63.6869516,104.921968 L63.6869516,121.98721 L56.913,121.98721 L56.913,104.921968 Z" id="Fill-14" fill="#145266" sketch:type="MSShapeGroup"></path>
            <path d="M55.2256613,87.9856129 C45.9625161,86.9427097 37.7747419,81.8315 32.7638871,73.9625 L38.4762419,70.3231613 C42.3831935,76.4566129 48.7655645,80.4422742 55.9822581,81.2539677 L55.2256613,87.9856129" id="Fill-15" fill="#108B33" sketch:type="MSShapeGroup"></path>
            <path d="M78.4676452,2.09859677 C85.0635161,2.09859677 90.409871,7.44495161 90.409871,14.0418065 L78.4676452,14.0418065 L78.4676452,2.09859677" id="Fill-16" fill="#F8A100" sketch:type="MSShapeGroup"></path>
            <path d="M68.9762419,11.6490323 C68.9762419,16.9225806 73.2521452,21.1994677 78.5276613,21.1994677 C83.8012097,21.1994677 88.0771129,16.9225806 88.0771129,11.6490323 L78.5276613,11.6490323 L78.5276613,2.09859677 C73.2521452,2.09859677 68.9762419,6.37351613 68.9762419,11.6490323" id="Fill-17" fill="#145266" sketch:type="MSShapeGroup"></path>
            <path d="M77.3302903,6.08819355 C77.3224194,5.03446774 76.4615323,4.18833871 75.4097742,4.19817742 C74.3550645,4.20408065 73.5109032,5.06595161 73.5177903,6.11770968" id="Stroke-18" stroke="#D8D5C1" stroke-width="0.238" stroke-linecap="round" sketch:type="MSShapeGroup"></path>
            <path d="M76.0119032,5.92487097 C75.8485806,5.58937097 75.4451935,5.44867742 75.1067419,5.61003226 C74.7722258,5.77237097 74.6305484,6.17870968 74.7919032,6.51322581 C74.9552258,6.85069355 75.3586129,6.99040323 75.6941129,6.82904839 C76.0335484,6.66572581 76.1732581,6.26135484 76.0119032,5.92487097" id="Fill-19" fill="#D8D5C1" sketch:type="MSShapeGroup"></path>
            <path d="M49.8438871,27.2355161 C50.264,26.5595968 50.0564032,25.6711613 49.3814677,25.2520323 C48.7055484,24.8309355 47.8171129,25.0395161 47.3979839,25.7144516 C46.9788548,26.3893871 47.1854677,27.2797903 47.8594194,27.6989194 C48.5363226,28.1200161 49.4247581,27.9104516 49.8438871,27.2355161" id="Fill-20" fill="#40301A" sketch:type="MSShapeGroup"></path>
            <path d="M70.4904194,86.5747419 C79.1563548,90.0064839 88.7835323,89.3433548 96.9073548,84.751629 L93.5730161,78.8543065 C87.2408226,82.4346129 79.7368387,82.9531129 72.9855161,80.2769839 L70.4904194,86.5747419" id="Fill-21" fill="#108B33" sketch:type="MSShapeGroup"></path>
            <path d="M79.200629,0.622790323 C86.3061452,0.622790323 92.0657258,6.38237097 92.0657258,13.488871 L79.200629,13.488871 L79.200629,0.622790323" id="Fill-22" fill="#F8A100" sketch:type="MSShapeGroup"></path>
            <path d="M68.9762419,10.911129 C68.9762419,16.592 73.5827258,21.1994677 79.2655645,21.1994677 C84.9464355,21.1994677 89.5529194,16.592 89.5529194,10.911129 L79.2655645,10.911129 L79.2655645,0.622790323 C73.5827258,0.622790323 68.9762419,5.22927419 68.9762419,10.911129" id="Fill-23" fill="#145266" sketch:type="MSShapeGroup"></path>
            <path d="M77.9747258,4.92033871 C77.9668548,3.78593548 77.0400484,2.8738871 75.9076129,2.88470968 C74.7712419,2.89159677 73.8611613,3.8193871 73.8680484,4.95182258" id="Stroke-24" stroke="#D8D5C1" stroke-width="0.238" stroke-linecap="round" sketch:type="MSShapeGroup"></path>
            <path d="M76.555,4.74520968 C76.3788871,4.38314516 75.945,4.23162903 75.5799839,4.40577419 C75.2198871,4.58090323 75.0664032,5.01872581 75.2405484,5.37882258 C75.4166613,5.74187097 75.8515323,5.8933871 76.2126129,5.71924194 C76.5786129,5.54312903 76.7291452,5.10727419 76.555,4.74520968" id="Fill-25" fill="#D8D5C1" sketch:type="MSShapeGroup"></path>
            <path d="M22.0101774,9.90462903 C27.4145806,11.7621774 30.2874839,17.6496613 28.4279677,23.0550484 L18.6453387,19.6902097 L22.0101774,9.90462903" id="Fill-26" fill="#40301A" sketch:type="MSShapeGroup"></path>
            <path d="M11.5417903,15.0551935 C10.0561452,19.3763548 12.3554516,24.0851613 16.6775968,25.5708065 C20.9977742,27.0564516 25.7055968,24.7571452 27.1922258,20.4369677 L19.3675,17.7460806 L22.0583871,9.92135484 C17.7372258,8.43374194 13.0294032,10.7330484 11.5417903,15.0551935" id="Fill-27" fill="#F4B528" sketch:type="MSShapeGroup"></path>
            <path d="M19.9529032,12.8532903 C20.2451129,11.9874839 19.7767903,11.0508387 18.9129516,10.7635484 C18.0471452,10.4713387 17.1124677,10.9406452 16.8222258,11.8025161" id="Stroke-28" stroke="#40301A" stroke-width="0.192" stroke-linecap="round" sketch:type="MSShapeGroup"></path>
            <path d="M18.9188548,12.3475806 C18.8795,12.0258548 18.5892581,11.7975968 18.2665484,11.834 C17.9467903,11.8733548 17.7165645,12.1665484 17.7539516,12.4863065 C17.7923226,12.8080323 18.0835484,13.0372742 18.4042903,12.9989032 C18.7279839,12.9605323 18.9572258,12.6693065 18.9188548,12.3475806" id="Fill-29" fill="#40301A" sketch:type="MSShapeGroup"></path>
            <path d="M80.6164194,107.308839 C75.8967903,104.616968 69.8902581,106.261016 67.1974032,110.980645 L75.7413387,115.854742 L80.6164194,107.308839" id="Fill-30" fill="#40301A" sketch:type="MSShapeGroup"></path>
            <path d="M80.573129,107.284242 L76.6760161,114.11821 L69.8440161,110.220113 C67.6913065,113.992274 69.0037903,118.7975 72.7769355,120.951194 C76.5520484,123.103903 81.3562903,121.789452 83.5080161,118.016306 C85.6617097,114.241194 84.3482419,109.437935 80.573129,107.284242" id="Fill-31" fill="#F4B528" sketch:type="MSShapeGroup"></path>
            <path d="M79.8017742,110.627435 C80.237629,109.876742 81.1978871,109.622903 81.9475968,110.059742 C82.6982903,110.495597 82.9511452,111.456839 82.5172581,112.205565" id="Stroke-32" stroke="#40301A" stroke-width="0.192" stroke-linecap="round" sketch:type="MSShapeGroup"></path>
            <path d="M80.8122097,111.0505 C81.0670323,110.875371 81.4113871,110.939323 81.5875,111.194145 C81.7596774,111.447 81.6967097,111.79529 81.442871,111.968452 C81.1900161,112.142597 80.8436935,112.078645 80.6695484,111.82579 C80.4934355,111.569984 80.5593548,111.224645 80.8122097,111.0505" id="Fill-33" fill="#40301A" sketch:type="MSShapeGroup"></path>
            <path d="M35.6741774,62.1757258 C31.7219677,60.5769355 27.2217419,62.486629 25.6229516,66.4427742 L32.7786452,69.3353548 L35.6741774,62.1757258" id="Fill-34" fill="#F8A100" sketch:type="MSShapeGroup"></path>
            <path d="M35.6397419,62.1609677 L33.3246935,67.8870968 L27.6015161,65.5720484 C26.3234677,68.7322419 27.8504355,72.3332097 31.010629,73.6092903 C34.1737742,74.8883226 37.7727742,73.3623387 39.0498387,70.2011613 C40.3278871,67.039 38.8028871,63.4390161 35.6397419,62.1609677" id="Fill-35" fill="#145266" sketch:type="MSShapeGroup"></path>
            <path d="M35.3908226,64.843 C35.6495806,64.2133226 36.3707581,63.9152097 36.9994516,64.1759355 C37.629129,64.4346935 37.9262581,65.155871 37.6684839,65.7835806" id="Stroke-36" stroke="#D8D5C1" stroke-width="0.097" stroke-linecap="round" sketch:type="MSShapeGroup"></path>
            <path d="M36.2202258,65.0653548 C36.3992903,64.9020323 36.6757581,64.9167903 36.8380968,65.0938871 C37.0004355,65.2749194 36.9866613,65.552371 36.8075968,65.7137258 C36.6295161,65.8760645 36.3540323,65.8613065 36.1907097,65.6832258 C36.028371,65.5031774 36.0411613,65.2276935 36.2202258,65.0653548" id="Fill-37" fill="#D8D5C1" sketch:type="MSShapeGroup"></path>
            <path d="M104.158484,70.1401613 C97.4160161,67.5063387 89.8205323,70.8367419 87.1857258,77.5801935 L99.3886774,82.3470484 L104.158484,70.1401613" id="Fill-38" fill="#F8A100" sketch:type="MSShapeGroup"></path>
            <path d="M104.097484,70.1145806 L100.284,79.8775323 L90.5259677,76.0650323 C88.4185161,81.4536935 91.0828387,87.5330323 96.4724839,89.6365484 C101.863113,91.7420323 107.9395,89.0796774 110.044,83.6910161 C112.150468,78.3003871 109.490081,72.2200645 104.097484,70.1145806" id="Fill-39" fill="#40301A" sketch:type="MSShapeGroup"></path>
            <path d="M103.728532,74.6699032 C104.1575,73.5974839 105.373565,73.0789839 106.445,73.5079516 C107.519387,73.9359355 108.038871,75.152 107.613839,76.2234355" id="Stroke-40" stroke="#D8D5C1" stroke-width="0.261" stroke-linecap="round" sketch:type="MSShapeGroup"></path>
            <path d="M105.141371,75.0319677 C105.443419,74.7525484 105.910758,74.7712419 106.193129,75.0693548 C106.467629,75.3723871 106.451887,75.8436613 106.151806,76.120129 C105.85271,76.3995484 105.382419,76.3828226 105.104968,76.0797903 C104.823581,75.7806935 104.840306,75.3113871 105.141371,75.0319677" id="Fill-41" fill="#D8D5C1" sketch:type="MSShapeGroup"></path>
            <path d="M16.3155323,89.6178548 C27.4932903,89.6178548 36.5517903,98.6793065 36.5517903,109.858048 L16.3155323,109.858048 L16.3155323,89.6178548" id="Fill-42" fill="#F8A100" sketch:type="MSShapeGroup"></path>
            <path d="M0.232193548,105.801548 C0.232193548,114.739032 7.47741935,121.986226 16.416871,121.986226 C25.353371,121.986226 32.5995806,114.739032 32.5995806,105.801548 L16.416871,105.801548 L16.416871,89.6178548 C7.47741935,89.6178548 0.232193548,96.8630806 0.232193548,105.801548" id="Fill-43" fill="#108B33" sketch:type="MSShapeGroup"></path>
            <path d="M14.3891129,96.3780323 C14.3753387,94.5932903 12.9172419,93.1578226 11.1344677,93.1745484 C9.34775806,93.1873387 7.91524194,94.6464194 7.92704839,96.4291935" id="Stroke-44" stroke="#D8D5C1" stroke-width="0.357" stroke-linecap="round" sketch:type="MSShapeGroup"></path>
            <path d="M12.1527742,96.1035323 C11.8763065,95.5328871 11.1925161,95.2947903 10.6208871,95.5683065 C10.0531935,95.8437903 9.81214516,96.5325 10.0866452,97.0982258 C10.3640968,97.6708387 11.0478871,97.9089355 11.6145968,97.6344355 C12.192129,97.3579677 12.4272742,96.6731935 12.1527742,96.1035323" id="Fill-45" fill="#D8D5C1" sketch:type="MSShapeGroup"></path>
        </g>
    </g>
</svg>