<?xml version="1.0" encoding="UTF-8" standalone="no"?>
<svg width="295px" height="130px" viewBox="0 0 295 130" version="1.1" xmlns="http://www.w3.org/2000/svg" xmlns:xlink="http://www.w3.org/1999/xlink" xmlns:sketch="http://www.bohemiancoding.com/sketch/ns">
    <!-- Generator: Sketch 3.3.2 (12043) - http://www.bohemiancoding.com/sketch -->
    <title>Imported Layers</title>
    <desc>Created with Sketch.</desc>
    <defs></defs>
    <g id="Page-1" stroke="none" stroke-width="1" fill="none" fill-rule="evenodd" sketch:type="MSPage">
        <g id="Imported-Layers" sketch:type="MSLayerGroup">
            <path d="M186.459,56.521 C186.459,54.19 188.354,52.302 190.684,52.302 C193.017,52.302 194.906,54.19 194.906,56.521 C194.906,58.856 193.017,60.742 190.684,60.742 C188.354,60.742 186.459,58.856 186.459,56.521" id="Fill-1" fill="#FCBC00" sketch:type="MSShapeGroup"></path>
            <path d="M199.406,52.301 C199.406,47.82 203.039,44.188 207.52,44.188 C212,44.188 215.633,47.82 215.633,52.301 C215.633,56.783 212,60.417 207.52,60.417 C203.039,60.417 199.406,56.783 199.406,52.301" id="Fill-2" fill="#FCBC00" sketch:type="MSShapeGroup"></path>
            <path d="M93.356,38.612 C93.356,37.406 94.336,36.429 95.541,36.429 C96.749,36.429 97.728,37.406 97.728,38.612 C97.728,39.821 96.749,40.797 95.541,40.797 C94.336,40.797 93.356,39.821 93.356,38.612" id="Fill-3" fill="#FCBC00" sketch:type="MSShapeGroup"></path>
            <path d="M81.07,36.843 C81.07,34.348 83.094,32.324 85.59,32.324 C88.084,32.324 90.107,34.348 90.107,36.843 C90.107,39.339 88.084,41.362 85.59,41.362 C83.094,41.362 81.07,39.339 81.07,36.843" id="Fill-4" fill="#FCBC00" sketch:type="MSShapeGroup"></path>
            <path d="M257.057,0.684 C236.115,0.684 219.133,17.666 219.133,38.607 C219.133,59.562 236.115,76.543 257.057,76.543 C277.998,76.543 294.981,59.562 294.981,38.607 C294.981,17.666 277.998,0.684 257.057,0.684" id="Fill-5" fill="#FCBC00" sketch:type="MSShapeGroup"></path>
            <path d="M123.927,111.288 L123.927,90.889 C123.927,88.17 125.007,85.562 126.93,83.639 C128.852,81.718 131.461,80.637 134.18,80.637 C136.899,80.637 139.506,81.718 141.43,83.639 C143.352,85.562 144.432,88.17 144.432,90.889 L144.432,111.288 L123.927,111.288" id="Fill-6" fill="#108B33" sketch:type="MSShapeGroup"></path>
            <path d="M134.921,112.537 L141.848,112.537 L141.848,129.986 L134.921,129.986 L134.921,112.537 Z" id="Fill-7" fill="#145266" sketch:type="MSShapeGroup"></path>
            <path d="M126.514,112.537 L133.438,112.537 L133.438,129.986 L126.514,129.986 L126.514,112.537 Z" id="Fill-8" fill="#145266" sketch:type="MSShapeGroup"></path>
            <path d="M140.238,91.6 C149.696,92.749 159.051,89.599 165.895,82.957 L161.071,77.985 C155.734,83.165 148.445,85.619 141.074,84.723 L140.238,91.6" id="Fill-9" fill="#108B33" sketch:type="MSShapeGroup"></path>
            <path d="M112.348,104.497 C112.785,94.976 117.451,86.281 125.139,80.637 L129.237,86.221 C123.242,90.621 119.607,97.398 119.266,104.816 L112.348,104.497" id="Fill-10" fill="#108B33" sketch:type="MSShapeGroup"></path>
            <path d="M177.531,37.472 C183.07,37.472 188.383,36.489 193.297,34.691 C190.41,28.908 184.436,24.935 177.531,24.935 C170.627,24.935 164.654,28.908 161.768,34.691 C166.684,36.489 171.994,37.472 177.531,37.472" id="Fill-11" fill="#FCBC00" sketch:type="MSShapeGroup"></path>
            <path d="M103.362,48.508 C103.362,65.529 117.16,79.326 134.18,79.326 C151.199,79.326 164.997,65.529 164.997,48.508 C164.997,31.487 151.199,17.69 134.18,17.69 C117.16,17.69 103.362,31.487 103.362,48.508" id="Fill-12" fill="#FFD1AD" sketch:type="MSShapeGroup"></path>
            <path d="M127.559,31.368 L125.385,39.148 C118.854,38.436 112.558,36.945 106.592,34.762 C111.647,24.643 122.1,17.69 134.18,17.69 C146.26,17.69 156.715,24.643 161.768,34.762 C153.164,37.908 143.873,39.626 134.18,39.626 C131.95,39.626 129.742,39.532 127.559,39.352 L127.559,31.368" id="Fill-13" fill="#FCBC00" sketch:type="MSShapeGroup"></path>
            <path d="M117.861,50.616 C114.969,50.616 112.623,52.961 112.623,55.856 C112.623,58.75 114.969,61.096 117.861,61.096 C120.758,61.096 123.102,58.75 123.102,55.856 C123.102,52.961 120.758,50.616 117.861,50.616" id="Fill-14" fill="#F99629" sketch:type="MSShapeGroup"></path>
            <path d="M150.513,50.616 C147.619,50.616 145.271,52.961 145.271,55.856 C145.271,58.75 147.619,61.096 150.513,61.096 C153.406,61.096 155.751,58.75 155.751,55.856 C155.751,52.961 153.406,50.616 150.513,50.616" id="Fill-15" fill="#F99629" sketch:type="MSShapeGroup"></path>
            <path d="M127.424,51.035 C127.071,50.273 126.17,49.946 125.409,50.298 C124.65,50.651 124.321,51.556 124.676,52.315 C125.027,53.074 125.929,53.402 126.69,53.05 C127.447,52.696 127.779,51.794 127.424,51.035" id="Fill-16" fill="#40301A" sketch:type="MSShapeGroup"></path>
            <path d="M143.702,51.033 C143.35,50.273 142.446,49.946 141.688,50.298 C140.927,50.651 140.6,51.556 140.951,52.315 C141.303,53.074 142.207,53.402 142.965,53.05 C143.727,52.696 144.055,51.794 143.702,51.033" id="Fill-17" fill="#40301A" sketch:type="MSShapeGroup"></path>
            <path d="M129.698,55.353 C130.695,56.149 132.194,56.657 133.763,56.734 L134.61,56.734 C136.18,56.657 137.684,56.149 138.679,55.353 C138.771,55.28 138.785,55.146 138.712,55.055 C138.639,54.964 138.506,54.949 138.414,55.022 C137.515,55.745 136.08,56.24 134.589,56.311 L134.6,56.522 L134.6,56.311 L133.773,56.311 L133.773,56.522 L133.784,56.311 C132.294,56.24 130.864,55.746 129.963,55.022 C129.871,54.949 129.738,54.964 129.665,55.055 C129.591,55.146 129.606,55.28 129.698,55.353" id="Fill-18" fill="#40301A" sketch:type="MSShapeGroup"></path>
            <path d="M128.268,49.24 C127.656,48.628 126.853,48.322 126.052,48.322 C125.248,48.322 124.443,48.63 123.831,49.245 L123.831,49.507 L124.093,49.507 C124.634,48.964 125.342,48.693 126.052,48.693 C126.759,48.693 127.465,48.962 128.006,49.502 L128.268,49.502 L128.268,49.24" id="Fill-19" fill="#40301A" sketch:type="MSShapeGroup"></path>
            <path d="M144.547,49.24 C143.934,48.628 143.131,48.322 142.329,48.322 C141.525,48.322 140.72,48.63 140.107,49.245 L140.108,49.507 L140.37,49.507 C140.911,48.964 141.619,48.693 142.329,48.693 C143.037,48.693 143.744,48.962 144.285,49.502 L144.547,49.502 L144.547,49.24" id="Fill-20" fill="#40301A" sketch:type="MSShapeGroup"></path>
            <path d="M251.551,55.018 L262.563,55.018 L262.563,65.66 L251.551,65.66 L251.551,55.018 Z" id="Fill-21" fill="#FFFFFF" sketch:type="MSShapeGroup"></path>
            <path d="M262.819,25.325 L259.836,50.635 L254.35,50.635 L251.294,25.325 L251.294,11.566 L262.819,11.566 L262.819,25.325" id="Fill-22" fill="#FFFFFF" sketch:type="MSShapeGroup"></path>
            <path d="M64.983,5.849 C56.095,5.849 48.895,13.05 48.895,21.935 C48.895,30.82 56.095,38.023 64.983,38.023 C73.867,38.023 81.07,30.82 81.07,21.935 C81.07,13.05 73.867,5.849 64.983,5.849" id="Fill-23" fill="#FCBC00" sketch:type="MSShapeGroup"></path>
            <path d="M62.918,27.073 L66.732,27.073 L66.732,30.814 L62.918,30.814 L62.918,27.073 Z" id="Fill-24" fill="#FFFFFF" sketch:type="MSShapeGroup"></path>
            <path d="M70.655,19.664 C70.453,20.165 70.199,20.596 69.9,20.95 C69.602,21.307 69.27,21.612 68.904,21.862 C68.541,22.113 68.196,22.365 67.873,22.617 C67.55,22.866 67.262,23.154 67.012,23.477 C66.761,23.802 66.603,24.207 66.537,24.693 L66.537,25.616 L63.258,25.616 L63.258,24.523 C63.307,23.826 63.44,23.244 63.659,22.773 C63.877,22.305 64.133,21.902 64.424,21.572 C64.715,21.239 65.023,20.95 65.346,20.71 C65.673,20.467 65.972,20.225 66.246,19.979 C66.521,19.737 66.743,19.47 66.914,19.177 C67.084,18.887 67.162,18.522 67.145,18.086 C67.145,17.341 66.962,16.79 66.598,16.433 C66.234,16.079 65.727,15.899 65.079,15.899 C64.642,15.899 64.266,15.983 63.949,16.153 C63.635,16.322 63.377,16.55 63.174,16.835 C62.971,17.119 62.82,17.449 62.724,17.829 C62.625,18.211 62.576,18.619 62.576,19.057 L59.009,19.057 C59.024,18.183 59.172,17.38 59.457,16.652 C59.738,15.924 60.137,15.292 60.647,14.758 C61.156,14.222 61.772,13.807 62.494,13.506 C63.213,13.207 64.019,13.058 64.909,13.058 C66.061,13.058 67.019,13.216 67.787,13.531 C68.557,13.847 69.177,14.239 69.647,14.709 C70.115,15.18 70.453,15.685 70.655,16.228 C70.857,16.771 70.959,17.274 70.959,17.746 C70.959,18.522 70.857,19.163 70.655,19.664" id="Fill-25" fill="#FFFFFF" sketch:type="MSShapeGroup"></path>
            <path d="M20.972,14.014 C9.914,14.014 0.957,22.973 0.957,34.026 C0.957,45.079 9.914,54.041 20.972,54.041 C32.023,54.041 40.984,45.079 40.984,34.026 C40.984,22.973 32.023,14.014 20.972,14.014" id="Fill-26" fill="#FCBC00" sketch:type="MSShapeGroup"></path>
            <path d="M18.402,40.418 L23.147,40.418 L23.147,45.072 L18.402,45.072 L18.402,40.418 Z" id="Fill-27" fill="#FFFFFF" sketch:type="MSShapeGroup"></path>
            <path d="M28.028,31.201 C27.775,31.825 27.461,32.359 27.09,32.802 C26.718,33.244 26.305,33.624 25.85,33.935 C25.398,34.248 24.969,34.562 24.566,34.874 C24.164,35.185 23.807,35.543 23.496,35.944 C23.183,36.35 22.986,36.853 22.904,37.457 L22.904,38.604 L18.825,38.604 L18.825,37.244 C18.887,36.379 19.053,35.654 19.324,35.068 C19.596,34.485 19.913,33.985 20.275,33.574 C20.639,33.161 21.022,32.802 21.424,32.502 C21.83,32.199 22.201,31.897 22.543,31.593 C22.884,31.292 23.162,30.96 23.374,30.595 C23.585,30.233 23.682,29.78 23.66,29.237 C23.66,28.31 23.434,27.626 22.981,27.182 C22.527,26.741 21.897,26.518 21.091,26.518 C20.547,26.518 20.079,26.622 19.686,26.834 C19.294,27.044 18.973,27.327 18.721,27.681 C18.469,28.035 18.28,28.445 18.16,28.918 C18.039,29.394 17.979,29.901 17.979,30.445 L13.539,30.445 C13.559,29.357 13.742,28.359 14.097,27.454 C14.447,26.548 14.942,25.763 15.576,25.098 C16.211,24.431 16.977,23.914 17.875,23.54 C18.77,23.169 19.772,22.982 20.88,22.982 C22.313,22.982 23.504,23.18 24.459,23.572 C25.418,23.964 26.189,24.452 26.773,25.037 C27.356,25.622 27.775,26.251 28.028,26.926 C28.278,27.602 28.405,28.228 28.405,28.815 C28.405,29.78 28.278,30.578 28.028,31.201" id="Fill-28" fill="#FFFFFF" sketch:type="MSShapeGroup"></path>
            <path d="M53.69,38.898 C46.482,38.898 40.646,44.736 40.646,51.94 C40.646,59.144 46.482,64.984 53.69,64.984 C60.892,64.984 66.732,59.144 66.732,51.94 C66.732,44.736 60.892,38.898 53.69,38.898" id="Fill-29" fill="#FCBC00" sketch:type="MSShapeGroup"></path>
            <path d="M52.014,56.106 L55.107,56.106 L55.107,59.139 L52.014,59.139 L52.014,56.106 Z" id="Fill-30" fill="#FFFFFF" sketch:type="MSShapeGroup"></path>
            <path d="M58.287,50.1 C58.123,50.506 57.918,50.854 57.676,51.143 C57.434,51.431 57.164,51.679 56.868,51.882 C56.574,52.085 56.294,52.289 56.031,52.493 C55.77,52.695 55.536,52.929 55.334,53.191 C55.13,53.454 55.002,53.783 54.948,54.176 L54.948,54.925 L52.291,54.925 L52.291,54.038 C52.33,53.474 52.438,53.002 52.615,52.62 C52.792,52.24 52.999,51.913 53.235,51.646 C53.472,51.376 53.721,51.143 53.983,50.947 C54.248,50.75 54.49,50.553 54.713,50.355 C54.936,50.158 55.116,49.942 55.254,49.704 C55.393,49.469 55.455,49.174 55.44,48.819 C55.44,48.216 55.293,47.769 54.998,47.479 C54.703,47.193 54.292,47.047 53.766,47.047 C53.412,47.047 53.107,47.114 52.851,47.253 C52.596,47.391 52.387,47.575 52.222,47.806 C52.057,48.036 51.936,48.304 51.857,48.611 C51.777,48.922 51.738,49.253 51.738,49.607 L48.846,49.607 C48.857,48.898 48.979,48.247 49.209,47.658 C49.438,47.067 49.76,46.555 50.173,46.121 C50.587,45.688 51.086,45.35 51.671,45.107 C52.254,44.865 52.906,44.742 53.629,44.742 C54.563,44.742 55.34,44.872 55.962,45.127 C56.586,45.383 57.088,45.701 57.47,46.082 C57.85,46.463 58.123,46.873 58.287,47.313 C58.451,47.755 58.533,48.161 58.533,48.545 C58.533,49.174 58.451,49.692 58.287,50.1" id="Fill-31" fill="#FFFFFF" sketch:type="MSShapeGroup"></path>
        </g>
    </g>
</svg>