<svg xmlns="http://www.w3.org/2000/svg" width="150" height="180" viewBox="0 0 150 180"><path fill="#108B33" d="M66.43 117.438c-9.502.764-18.715-2.77-25.28-9.69l5.024-4.767c5.12 5.395 12.3 8.147 19.703 7.557l.553 6.9z"/><path fill="#108B33" d="M64.242 135.518V115.12c0-2.72 1.08-5.327 3.004-7.25 1.922-1.92 4.53-3.002 7.25-3.002 2.72 0 5.326 1.08 7.25 3.002 1.922 1.923 3.002 4.53 3.002 7.25v20.397H64.242z"/><path fill="#155266" d="M75.236 136.768h6.928v17.448h-6.928zM66.83 136.768h6.924v17.448H66.83z"/><path fill="#108B33" d="M82.238 117.17c9.46 1.148 18.812-2 25.658-8.643l-4.824-4.973c-5.338 5.18-12.625 7.635-19.998 6.736l-.836 6.88z"/><path fill="#FCBC00" d="M113.945 48.234c3.373-4.395 5.828-9.208 7.393-14.2-6.346-1.23-13.135 1.09-17.338 6.568-4.2 5.478-4.686 12.635-1.855 18.445 4.417-2.805 8.43-6.42 11.8-10.813z"/><circle fill="#FFD1AD" cx="74.495" cy="72.737" r="30.817"/><path fill="#FCBC00" d="M67.875 55.598l-2.174 7.78c-6.53-.712-12.827-2.203-18.792-4.387 5.055-10.118 15.508-17.07 27.588-17.07s22.535 6.952 27.588 17.07c-8.604 3.147-17.895 4.865-27.588 4.865-2.23 0-4.438-.094-6.62-.273v-7.984z"/><g fill="#F7A100"><path opacity=".76" d="M52.94 80.085c0 2.895 2.345 5.24 5.237 5.24 2.896 0 5.24-2.346 5.24-5.24s-2.344-5.24-5.24-5.24c-2.892 0-5.238 2.345-5.238 5.24z"/><circle opacity=".76" cx="90.827" cy="80.085" r="5.239"/></g><g fill="#40301A"><path d="M67.74 75.265c-.354-.762-1.254-1.09-2.016-.737-.758.354-1.088 1.258-.732 2.017.352.76 1.252 1.088 2.014.735.758-.354 1.09-1.257.734-2.015z"/><circle cx="82.643" cy="75.903" r="1.517"/></g><path fill="none" stroke="#40301A" stroke-width=".424" stroke-linecap="round" stroke-miterlimit="10" d="M70.146 79.417c.95.76 2.414 1.26 3.943 1.335h.825c1.528-.074 3-.575 3.946-1.335"/><path fill="none" stroke="#40301A" stroke-width=".371" stroke-linecap="round" stroke-miterlimit="10" d="M68.453 73.6c-1.154-1.152-3.023-1.15-4.176.006M84.732 73.6c-1.156-1.152-3.025-1.15-4.178.006"/><g><path fill="none" stroke="#40301A" stroke-linecap="round" stroke-miterlimit="10" d="M47.062 68.05v46.43"/><g fill="#AF1D3F"><circle cx="46.908" cy="44.03" r="18.246"/><path d="M43.258 68.34l3.65-6.32 3.65 6.32"/></g></g></svg>