<svg xmlns="http://www.w3.org/2000/svg" width="150" height="180" viewBox="0 0 150 180"><path fill="#155266" d="M42.712 124.18c-1.23-9.453 1.85-18.828 8.437-25.727l5.006 4.783c-5.135 5.378-7.532 12.687-6.577 20.05l-6.868.894z"/><path fill="#155266" d="M53.75 129.295v-20.398c0-2.72 1.08-5.328 3.003-7.25 1.922-1.922 4.53-3.002 7.25-3.002 2.72 0 5.326 1.08 7.25 3.002 1.923 1.922 3.002 4.53 3.002 7.25v20.398H53.75z"/><path fill="#108B33" d="M64.744 130.544h6.927v17.45h-6.926zM56.337 130.544h6.924v17.45h-6.923z"/><path fill="#155266" d="M73.085 106.19c6.776 6.694 16.103 9.927 25.58 8.86l-.772-6.883c-7.392.83-14.656-1.688-19.938-6.908l-4.87 4.93z"/><path fill="#FCBC00" d="M105.85 45.553c4.438-3.316 8.104-7.283 10.965-11.665-5.773-2.904-12.938-2.51-18.47 1.623-5.528 4.134-7.936 10.892-6.786 17.252 5.012-1.502 9.855-3.894 14.29-7.21z"/><circle fill="#FFD1AD" cx="64.003" cy="66.515" r="30.817"/><path fill="#FCBC00" d="M57.382 49.375l-2.174 7.78c-6.53-.712-12.827-2.203-18.793-4.387 5.055-10.12 15.508-17.07 27.588-17.07s22.535 6.95 27.588 17.07c-8.603 3.146-17.894 4.864-27.587 4.864-2.23 0-4.438-.094-6.62-.273v-7.985z"/><g fill="#F7A100"><circle opacity=".76" cx="47.686" cy="73.862" r="5.24"/><circle opacity=".76" cx="80.334" cy="73.862" r="5.24"/></g><g fill="#40301A"><circle cx="55.873" cy="69.682" r="1.516"/><circle cx="72.15" cy="69.681" r="1.517"/></g><path fill="none" stroke="#40301A" stroke-width=".424" stroke-linecap="round" stroke-miterlimit="10" d="M59.653 73.194c.95.76 2.414 1.26 3.943 1.335h.826c1.53-.075 3-.576 3.947-1.336"/><path fill="none" stroke="#40301A" stroke-width=".371" stroke-linecap="round" stroke-miterlimit="10" d="M57.96 67.378c-1.154-1.153-3.022-1.15-4.175.005M74.24 67.378c-1.156-1.153-3.026-1.15-4.18.005"/><g><path fill="#A07A54" d="M91.92 93.443c5.622-.93 10.932 2.88 11.857 8.502l-10.178 1.68-1.68-10.182z"/><path fill="#AF1D3F" d="M85.173 102.92c.74 4.496 4.987 7.54 9.486 6.797 4.492-.74 7.535-4.988 6.794-9.482l-8.142 1.345-1.342-8.142c-4.495.74-7.538 4.986-6.797 9.48z"/><path fill="none" stroke="#D8D5C1" stroke-width=".334" stroke-linecap="round" stroke-miterlimit="10" d="M91.512 97.004c-.154-.895-1.008-1.496-1.902-1.34-.897.154-1.498 1.008-1.344 1.902"/><circle fill="#D8D5C1" cx="89.887" cy="97.389" r=".586"/></g></svg>