<?xml version="1.0" encoding="UTF-8" standalone="no"?>
<svg width="81px" height="130px" viewBox="0 0 81 130" version="1.1" xmlns="http://www.w3.org/2000/svg" xmlns:xlink="http://www.w3.org/1999/xlink" xmlns:sketch="http://www.bohemiancoding.com/sketch/ns">
    <!-- Generator: Sketch 3.5.2 (25235) - http://www.bohemiancoding.com/sketch -->
    <title>mascot--contact-about-refugees</title>
    <desc>Created with Sketch.</desc>
    <defs></defs>
    <g id="Page-1" stroke="none" stroke-width="1" fill="none" fill-rule="evenodd" sketch:type="MSPage">
        <g id="mascot--contact-about-refugees" sketch:type="MSLayerGroup">
            <g id="Page-1" sketch:type="MSShapeGroup">
                <g id="mascot--contact-about-refugees">
                    <path d="M25.69,92.438 C16.187,93.201 6.974,89.666 0.41,82.748 L5.434,77.981 C10.552,83.375 17.734,86.128 25.136,85.537 L25.689,92.439 L25.69,92.438 L25.69,92.438 Z" id="Shape" fill="#155266"></path>
                    <path d="M34.497,111.768 L41.424,111.768 L41.424,129.216 L34.497,129.216 L34.497,111.768 L34.497,111.768 Z M26.09,111.768 L33.014,111.768 L33.014,129.216 L26.09,129.216 L26.09,111.768 L26.09,111.768 Z" id="Shape" fill="#D6A974"></path>
                    <path d="M41.5,92.17 C50.957,93.318 60.31,90.17 67.156,83.527 L62.332,78.554 C56.994,83.734 49.707,86.189 42.334,85.291 L41.499,92.171 L41.5,92.17 L41.5,92.17 Z" id="Shape" fill="#155266"></path>
                    <circle id="Oval" fill="#D6A974" cx="33.756" cy="47.737" r="30.817"></circle>
                    <path d="M27.135,30.598 L24.961,38.378 C18.431,37.666 12.135,36.175 6.169,33.991 C11.224,23.873 21.677,16.921 33.757,16.921 C45.837,16.921 56.292,23.873 61.345,33.991 C52.741,37.138 43.45,38.856 33.757,38.856 C31.527,38.856 29.319,38.762 27.137,38.583 L27.137,30.599 L27.135,30.598 L27.135,30.598 Z" id="Shape" fill="#291F00"></path>
                    <g id="Group" transform="translate(12.000000, 49.000000)" fill="#C08B76">
                        <circle id="Oval" cx="5.439" cy="6.085" r="5.24"></circle>
                        <circle id="Oval" cx="38.087" cy="6.085" r="5.24"></circle>
                    </g>
                    <g id="Group" transform="translate(24.000000, 49.000000)" fill="#40301A">
                        <circle id="Oval" cx="1.626" cy="1.904" r="1.516"></circle>
                        <circle id="Oval" cx="17.902" cy="1.903" r="1.517"></circle>
                    </g>
                    <path d="M29.406,54.417 C30.356,55.177 31.82,55.677 33.349,55.752 L34.174,55.752 C35.704,55.678 37.174,55.177 38.121,54.417" id="Shape" stroke="#40301A" stroke-width="0.424"></path>
                    <path d="M27.713,48.6 C26.559,47.448 24.691,47.45 23.538,48.606 M43.992,48.6 C42.837,47.448 40.967,47.45 39.814,48.606" id="Shape" stroke="#40301A" stroke-width="0.371"></path>
                    <path d="M23.503,119.627 L23.503,90.117 C23.503,87.397 24.583,84.791 26.506,82.867 C28.428,80.947 31.036,79.867 33.756,79.867 C36.476,79.867 39.082,80.947 41.006,82.867 C42.93,84.791 44.008,87.397 44.008,90.117 L44.008,119.627 L23.503,119.627 L23.503,119.627 L23.503,119.627 Z" id="Shape" fill="#FABC00"></path>
                    <g id="Group" transform="translate(43.000000, 0.000000)">
                        <path d="M18.498,43.048 L18.498,89.478" id="Shape" stroke="#40301A"></path>
                        <g stroke="#006B81" fill="#006B81">
                            <circle id="Oval" cx="18.344" cy="19.03" r="18.246"></circle>
                            <path d="M14.693,43.34 L18.343,37.02 L21.993,43.34 L14.693,43.34 L14.693,43.34 Z" id="Shape"></path>
                        </g>
                    </g>
                </g>
            </g>
        </g>
    </g>
</svg>