<svg xmlns="http://www.w3.org/2000/svg" width="150" height="180" viewBox="0 0 150 180"><path fill="#FABC00" d="M103.796 124.514c.304-9.527-3.675-18.56-10.9-24.78l-4.52 5.25c5.634 4.852 8.73 11.89 8.5 19.313l6.92.217z"/><path fill="#A07A54" d="M72.11 128.7h6.926v17.448H72.11zM80.52 128.7h6.924v17.448H80.52z"/><circle fill="#A07A54" cx="79.777" cy="64.669" r="30.817"/><path fill="#291F00" d="M86.398 47.53l2.174 7.78c6.53-.712 12.826-2.203 18.793-4.387-5.055-10.12-15.508-17.07-27.588-17.07-12.08 0-22.535 6.95-27.588 17.07 8.603 3.146 17.894 4.864 27.587 4.864 2.23 0 4.438-.094 6.62-.273V47.53z"/><g fill="#F7A100"><circle opacity=".76" cx="96.094" cy="72.017" r="5.24"/><circle opacity=".76" cx="63.446" cy="72.017" r="5.24"/></g><g fill="#40301A"><circle cx="87.907" cy="67.836" r="1.516"/><circle cx="71.63" cy="67.835" r="1.517"/></g><path fill="none" stroke="#40301A" stroke-width=".424" stroke-linecap="round" stroke-miterlimit="10" d="M84.127 71.35c-.95.76-2.414 1.26-3.943 1.334h-.826c-1.53-.074-3-.575-3.946-1.335"/><path fill="none" stroke="#40301A" stroke-width=".371" stroke-linecap="round" stroke-miterlimit="10" d="M85.82 65.533c1.154-1.153 3.02-1.15 4.175.005M69.54 65.533c1.156-1.153 3.026-1.15 4.18.005"/><path fill="#108B33" d="M90.03 136.56v-29.51c0-2.718-1.08-5.327-3.003-7.25-1.922-1.92-4.53-3-7.25-3-2.72 0-5.326 1.08-7.25 3-1.923 1.923-3.002 4.533-3.002 7.25v29.51H90.03z"/><path fill="#FABC00" d="M70.113 104.344c-6.777 6.697-16.103 9.928-25.58 8.863l.772-6.883c7.392.83 14.656-1.688 19.94-6.91l4.868 4.93z"/><g><path fill="#F7A100" d="M51.35 91.938c-5.61-.988-10.958 2.764-11.944 8.377l10.158 1.785 1.787-10.162z"/><path fill="#006B81" d="M51.3 91.93l-1.428 8.127-8.125-1.43c-.79 4.486 2.208 8.766 6.694 9.555 4.49.788 8.77-2.21 9.56-6.697.788-4.488-2.21-8.768-6.7-9.555z"/><path fill="none" stroke="#D8D5C1" stroke-width=".334" stroke-linecap="round" stroke-miterlimit="10" d="M51.724 95.5c.162-.893 1.022-1.484 1.915-1.316.896.16 1.486 1.02 1.323 1.916"/><path fill="#D8D5C1" d="M52.87 95.56c.19-.263.554-.317.815-.133.262.19.32.558.133.82-.188.26-.554.317-.814.13-.264-.188-.323-.553-.135-.816z"/></g></svg>