<?xml version="1.0" encoding="UTF-8" standalone="no"?>
<svg width="238px" height="130px" viewBox="0 0 238 130" version="1.1" xmlns="http://www.w3.org/2000/svg" xmlns:xlink="http://www.w3.org/1999/xlink" xmlns:sketch="http://www.bohemiancoding.com/sketch/ns">
    <!-- Generator: Sketch 3.3.2 (12043) - http://www.bohemiancoding.com/sketch -->
    <title>Clara T. FAQ</title>
    <desc>Created with Sketch.</desc>
    <defs></defs>
    <g id="Page-1" stroke="none" stroke-width="1" fill="none" fill-rule="evenodd" sketch:type="MSPage">
        <g id="Clara-T.-FAQ" sketch:type="MSLayerGroup">
            <g id="Page-1" sketch:type="MSShapeGroup">
                <path d="M108.625086,109.029655 L108.625086,86.1687069 C108.625086,83.1215517 109.835431,80.1987931 111.990517,78.0437069 C114.144483,75.8908621 117.068362,74.6793966 120.115517,74.6793966 C123.162672,74.6793966 126.08431,75.8908621 128.240517,78.0437069 C130.394483,80.1987931 131.604828,83.1215517 131.604828,86.1687069 L131.604828,109.029655 L108.625086,109.029655" id="Fill-1" fill="#108B33"></path>
                <path d="M120.945948,110.429397 L128.708966,110.429397 L128.708966,129.98431 L120.945948,129.98431 L120.945948,110.429397 Z" id="Fill-2" fill="#145266"></path>
                <path d="M111.52431,110.429397 L119.283966,110.429397 L119.283966,129.98431 L111.52431,129.98431 L111.52431,110.429397 Z" id="Fill-3" fill="#145266"></path>
                <path d="M126.904655,86.9655172 C137.504138,88.2531897 147.98819,84.7230172 155.65819,77.2793966 L150.251983,71.7073276 C144.270862,77.5125 136.102155,80.2626724 127.841552,79.2585345 L126.904655,86.9655172" id="Fill-4" fill="#108B33"></path>
                <path d="M94.527931,102.539741 C95.0176724,91.8696552 100.24681,82.1252586 108.862672,75.8000862 L113.455259,82.0580172 C106.736724,86.9890517 102.663017,94.5839655 102.280862,102.897241 L94.527931,102.539741" id="Fill-5" fill="#108B33"></path>
                <path d="M168.698534,26.3048276 C174.906034,26.3048276 180.860259,25.2031897 186.367328,23.1881897 C183.131897,16.7072414 176.435776,12.2547414 168.698534,12.2547414 C160.961293,12.2547414 154.267414,16.7072414 151.033103,23.1881897 C156.542414,25.2031897 162.493276,26.3048276 168.698534,26.3048276" id="Fill-6" fill="#FCBC00"></path>
                <path d="M85.5781034,38.6727586 C85.5781034,57.7480172 101.041379,73.2101724 120.115517,73.2101724 C139.188534,73.2101724 154.65181,57.7480172 154.65181,38.6727586 C154.65181,19.5975 139.188534,4.13534483 120.115517,4.13534483 C101.041379,4.13534483 85.5781034,19.5975 85.5781034,38.6727586" id="Fill-7" fill="#FFD1AD"></path>
                <path d="M112.695431,19.4641379 L110.259052,28.1831034 C102.939828,27.3851724 95.8839655,25.7142241 89.197931,23.2677586 C94.8630172,11.9275 106.577586,4.13534483 120.115517,4.13534483 C133.653448,4.13534483 145.370259,11.9275 151.033103,23.2677586 C141.39069,26.7934483 130.978362,28.7187931 120.115517,28.7187931 C117.616379,28.7187931 115.141897,28.6134483 112.695431,28.4117241 L112.695431,19.4641379" id="Fill-8" fill="#FCBC00"></path>
                <path d="M101.826983,41.0351724 C98.5859483,41.0351724 95.9568103,43.6631897 95.9568103,46.9075862 C95.9568103,50.1508621 98.5859483,52.78 101.826983,52.78 C105.073621,52.78 107.700517,50.1508621 107.700517,46.9075862 C107.700517,43.6631897 105.073621,41.0351724 101.826983,41.0351724" id="Fill-9" fill="#F99629"></path>
                <path d="M138.419741,41.0351724 C135.176466,41.0351724 132.545086,43.6631897 132.545086,46.9075862 C132.545086,50.1508621 135.176466,52.78 138.419741,52.78 C141.661897,52.78 144.289914,50.1508621 144.289914,46.9075862 C144.289914,43.6631897 141.661897,41.0351724 138.419741,41.0351724" id="Fill-10" fill="#F99629"></path>
                <path d="M112.544138,41.5047414 C112.148534,40.6507759 111.138793,40.2843103 110.285948,40.6787931 C109.435345,41.0743966 109.066638,42.0886207 109.464483,42.9392241 C109.857845,43.7898276 110.868707,44.1574138 111.721552,43.762931 C112.569914,43.3662069 112.941983,42.3553448 112.544138,41.5047414" id="Fill-11" fill="#40301A"></path>
                <path d="M130.786724,41.5025 C130.392241,40.6507759 129.379138,40.2843103 128.529655,40.6787931 C127.67681,41.0743966 127.310345,42.0886207 127.703707,42.9392241 C128.09819,43.7898276 129.111293,44.1574138 129.960776,43.762931 C130.814741,43.3662069 131.182328,42.3553448 130.786724,41.5025" id="Fill-12" fill="#40301A"></path>
                <path d="M115.092586,46.3438793 C116.209914,47.2359483 117.889828,47.8052586 119.64819,47.8915517 L120.597414,47.8915517 C122.356897,47.8052586 124.042414,47.2359483 125.1575,46.3438793 C125.260603,46.262069 125.276293,46.1118966 125.194483,46.0099138 C125.112672,45.907931 124.963621,45.8911207 124.860517,45.972931 C123.853017,46.7831897 122.244828,47.337931 120.573879,47.4175 L120.586207,47.6539655 L120.586207,47.4175 L119.659397,47.4175 L119.659397,47.6539655 L119.671724,47.4175 C118.001897,47.337931 116.39931,46.7843103 115.389569,45.972931 C115.286466,45.8911207 115.137414,45.907931 115.055603,46.0099138 C114.972672,46.1118966 114.989483,46.262069 115.092586,46.3438793" id="Fill-13" fill="#40301A"></path>
                <path d="M113.49,39.4931034 C112.804138,38.8072414 111.904224,38.4643103 111.006552,38.4643103 C110.105517,38.4643103 109.203362,38.8094828 108.5175,39.4987069 L108.5175,39.7923276 L108.811121,39.7923276 C109.417414,39.1837931 110.210862,38.8800862 111.006552,38.8800862 C111.798879,38.8800862 112.590086,39.1815517 113.196379,39.7867241 L113.49,39.7867241 L113.49,39.4931034" id="Fill-14" fill="#40301A"></path>
                <path d="M131.733707,39.4931034 C131.046724,38.8072414 130.14681,38.4643103 129.248017,38.4643103 C128.346983,38.4643103 127.444828,38.8094828 126.757845,39.4987069 L126.758966,39.7923276 L127.052586,39.7923276 C127.658879,39.1837931 128.452328,38.8800862 129.248017,38.8800862 C130.041466,38.8800862 130.833793,39.1815517 131.440086,39.7867241 L131.733707,39.7867241 L131.733707,39.4931034" id="Fill-15" fill="#40301A"></path>
                <path d="M164.243793,46.8392241 C164.243793,44.6942241 165.986466,42.9571552 168.130345,42.9571552 C170.276466,42.9571552 172.014655,44.6942241 172.014655,46.8392241 C172.014655,48.9875862 170.276466,50.7224138 168.130345,50.7224138 C165.986466,50.7224138 164.243793,48.9875862 164.243793,46.8392241" id="Fill-16" fill="#FCBC00"></path>
                <path d="M175.177241,42.9560345 C175.177241,38.8341379 178.519138,35.4911207 182.641034,35.4911207 C186.762931,35.4911207 190.105948,38.8341379 190.105948,42.9560345 C190.105948,47.0801724 186.762931,50.4231897 182.641034,50.4231897 C178.519138,50.4231897 175.177241,47.0801724 175.177241,42.9560345" id="Fill-17" fill="#FCBC00"></path>
                <path d="M214.686034,5.80181034 C202.041293,5.80181034 191.786983,16.0561207 191.786983,28.7008621 C191.786983,41.3534483 202.041293,51.6077586 214.686034,51.6077586 C227.331897,51.6077586 237.586207,41.3534483 237.586207,28.7008621 C237.586207,16.0561207 227.331897,5.80181034 214.686034,5.80181034" id="Fill-18" fill="#FCBC00"></path>
                <path d="M211.362069,38.61 L218.012241,38.61 L218.012241,45.0349138 L211.362069,45.0349138 L211.362069,38.61 Z" id="Fill-19" fill="#FFFFFF"></path>
                <path d="M218.165776,20.6812069 L216.364828,35.962931 L213.050948,35.962931 L211.207414,20.6812069 L211.207414,12.3724138 L218.165776,12.3724138 L218.165776,20.6812069" id="Fill-20" fill="#FFFFFF"></path>
                <path d="M76.6058621,27.5824138 C76.6058621,26.2308621 77.7041379,25.1359483 79.054569,25.1359483 C80.4083621,25.1359483 81.5055172,26.2308621 81.5055172,27.5824138 C81.5055172,28.9373276 80.4083621,30.0311207 79.054569,30.0311207 C77.7041379,30.0311207 76.6058621,28.9373276 76.6058621,27.5824138" id="Fill-21" fill="#FCBC00"></path>
                <path d="M62.837069,25.5999138 C62.837069,22.8037931 65.1053448,20.5355172 67.9025862,20.5355172 C70.6975862,20.5355172 72.9647414,22.8037931 72.9647414,25.5999138 C72.9647414,28.3971552 70.6975862,30.6643103 67.9025862,30.6643103 C65.1053448,30.6643103 62.837069,28.3971552 62.837069,25.5999138" id="Fill-22" fill="#FCBC00"></path>
                <path d="M51.2513793,0.609655172 C44.2313793,0.609655172 38.5438793,6.29827586 38.5438793,13.3160345 C38.5438793,20.3349138 44.2313793,26.0246552 51.2513793,26.0246552 C58.2691379,26.0246552 63.9577586,20.3349138 63.9577586,13.3160345 C63.9577586,6.29827586 58.2691379,0.609655172 51.2513793,0.609655172" id="Fill-23" fill="#FCBC00"></path>
                <path d="M49.6196552,17.3740517 L52.6331897,17.3740517 L52.6331897,20.3293103 L49.6196552,20.3293103 L49.6196552,17.3740517 Z" id="Fill-24" fill="#FFFFFF"></path>
                <path d="M55.7318966,11.5218103 C55.5716379,11.9185345 55.3710345,12.2592241 55.1356897,12.5382759 C54.8992241,12.8206897 54.6369828,13.0616379 54.3489655,13.2588793 C54.0609483,13.4572414 53.7897414,13.6556034 53.5342241,13.8550862 C53.2787069,14.0523276 53.0512069,14.2787069 52.8539655,14.5342241 C52.6556034,14.7908621 52.5312069,15.1102586 52.4785345,15.4946552 L52.4785345,16.2242241 L49.8886207,16.2242241 L49.8886207,15.3601724 C49.9278448,14.8099138 50.0331897,14.350431 50.2057759,13.9783621 C50.3783621,13.6085345 50.5800862,13.2902586 50.8098276,13.0291379 C51.039569,12.7668966 51.2838793,12.5382759 51.5371552,12.3488793 C51.7960345,12.1572414 52.0325,11.9656034 52.2499138,11.7717241 C52.4662069,11.5800862 52.6421552,11.3693966 52.7766379,11.1374138 C52.9111207,10.9076724 52.9727586,10.6207759 52.9581897,10.2756034 C52.9581897,9.68724138 52.8147414,9.25241379 52.5267241,8.97 C52.2398276,8.69094828 51.8386207,8.54862069 51.3275862,8.54862069 C50.9824138,8.54862069 50.6843103,8.61474138 50.4343966,8.74922414 C50.1867241,8.88258621 49.9827586,9.06301724 49.8225,9.28827586 C49.6622414,9.51241379 49.5434483,9.77353448 49.4672414,10.0727586 C49.3887931,10.3742241 49.3506897,10.6969828 49.3506897,11.0421552 L46.5332759,11.0421552 C46.5444828,10.352931 46.6610345,9.71862069 46.8862931,9.1437069 C47.1093103,8.5687931 47.4231034,8.06896552 47.8265517,7.64646552 C48.2288793,7.22396552 48.7141379,6.89560345 49.2856897,6.65801724 C49.8527586,6.42267241 50.4893103,6.30387931 51.1931034,6.30387931 C52.1019828,6.30387931 52.859569,6.42939655 53.4658621,6.67818966 C54.0732759,6.92698276 54.5641379,7.23741379 54.9350862,7.60836207 C55.3049138,7.98043103 55.5716379,8.38051724 55.7318966,8.8075 C55.8910345,9.23784483 55.9717241,9.63456897 55.9717241,10.0077586 C55.9717241,10.6207759 55.8910345,11.1273276 55.7318966,11.5218103" id="Fill-25" fill="#FFFFFF"></path>
                <path d="M16.4887069,5.93965517 C7.75405172,5.93965517 0.680258621,13.0156897 0.680258621,21.7469828 C0.680258621,30.4771552 7.75405172,37.555431 16.4887069,37.555431 C25.2177586,37.555431 32.2960345,30.4771552 32.2960345,21.7469828 C32.2960345,13.0156897 25.2177586,5.93965517 16.4887069,5.93965517" id="Fill-26" fill="#FCBC00"></path>
                <path d="M14.4591379,26.7956897 L18.2078448,26.7956897 L18.2078448,30.4715517 L14.4591379,30.4715517 L14.4591379,26.7956897 Z" id="Fill-27" fill="#FFFFFF"></path>
                <path d="M22.0630172,19.5156897 C21.8624138,20.0076724 21.6147414,20.4301724 21.3211207,20.7787069 C21.0275,21.1283621 20.7013793,21.4298276 20.3405172,21.6752586 C19.9852586,21.9218103 19.6456897,22.1694828 19.3274138,22.4160345 C19.0102586,22.6625862 18.7278448,22.945 18.4824138,23.2621552 C18.2358621,23.5815517 18.0800862,23.9805172 18.0150862,24.4568103 L18.0150862,25.3623276 L14.7931034,25.3623276 L14.7931034,24.2887069 C14.8412931,23.6050862 14.9724138,23.0324138 15.1875862,22.5706897 C15.4016379,22.1089655 15.6526724,21.7144828 15.9384483,21.3894828 C16.2253448,21.0633621 16.527931,20.7787069 16.8450862,20.5433621 C17.1667241,20.3035345 17.4603448,20.0648276 17.7293103,19.825 C17.9993966,19.5862931 18.2190517,19.3251724 18.3860345,19.0360345 C18.5530172,18.7502586 18.6292241,18.3927586 18.6124138,17.9646552 C18.6124138,17.2317241 18.4331034,16.6915517 18.0756034,16.3407759 C17.7169828,15.9933621 17.2193966,15.8162931 16.5828448,15.8162931 C16.1536207,15.8162931 15.7837931,15.8981034 15.4722414,16.0650862 C15.162931,16.232069 14.9096552,16.4550862 14.7112931,16.7352586 C14.5118103,17.0143103 14.3627586,17.3393103 14.2675,17.7125 C14.1722414,18.087931 14.1251724,18.4891379 14.1251724,18.9183621 L10.6174138,18.9183621 C10.6331034,18.0587931 10.7787931,17.2709483 11.0589655,16.5559483 C11.3357759,15.8398276 11.7257759,15.2200862 12.2267241,14.6944828 C12.7276724,14.1677586 13.3328448,13.7587069 14.0422414,13.4639655 C14.7493966,13.1714655 15.5406034,13.0235345 16.4158621,13.0235345 C17.5477586,13.0235345 18.4891379,13.1793103 19.2422414,13.4897414 C20.0009483,13.7990517 20.6094828,14.184569 21.0712069,14.6462931 C21.5306897,15.1080172 21.8624138,15.6056034 22.0630172,16.137931 C22.2602586,16.6725 22.36,17.1667241 22.36,17.629569 C22.36,18.3927586 22.2602586,19.0237069 22.0630172,19.5156897" id="Fill-28" fill="#FFFFFF"></path>
                <path d="M41.21,26.7161207 C35.5180172,26.7161207 30.9075,31.3277586 30.9075,37.0175 C30.9075,42.7061207 35.5180172,47.32 41.21,47.32 C46.8986207,47.32 51.5125,42.7061207 51.5125,37.0175 C51.5125,31.3277586 46.8986207,26.7161207 41.21,26.7161207" id="Fill-29" fill="#FCBC00"></path>
                <path d="M39.8864655,40.3078448 L42.329569,40.3078448 L42.329569,42.7038793 L39.8864655,42.7038793 L39.8864655,40.3078448 Z" id="Fill-30" fill="#FFFFFF"></path>
                <path d="M44.8421552,35.5628448 C44.7121552,35.8833621 44.5496552,36.1590517 44.3591379,36.3865517 C44.1675,36.6140517 43.954569,36.8101724 43.7214655,36.970431 C43.4894828,37.1318103 43.2675862,37.292069 43.0602586,37.4534483 C42.8540517,37.6137069 42.6691379,37.7975 42.51,38.0048276 C42.3486207,38.2132759 42.2466379,38.4721552 42.2051724,38.7825862 L42.2051724,39.3743103 L40.1061207,39.3743103 L40.1061207,38.6738793 C40.1375,38.2278448 40.2215517,37.8557759 40.3616379,37.5543103 C40.5017241,37.2539655 40.6653448,36.9962069 40.8513793,36.7843966 C41.0385345,36.5714655 41.2346552,36.3865517 41.4431034,36.2330172 C41.6515517,36.0761207 41.842069,35.9214655 42.0191379,35.764569 C42.1939655,35.6087931 42.3374138,35.4384483 42.4461207,35.2512931 C42.5559483,35.0652586 42.6052586,34.8321552 42.592931,34.5519828 C42.592931,34.0756897 42.4763793,33.7226724 42.2432759,33.4940517 C42.0112931,33.2676724 41.6862931,33.1511207 41.2705172,33.1511207 C40.9914655,33.1511207 40.7505172,33.2049138 40.5476724,33.3147414 C40.347069,33.4234483 40.1812069,33.5691379 40.0512069,33.7506897 C39.9200862,33.9333621 39.8248276,34.1451724 39.7631897,34.3883621 C39.700431,34.6326724 39.6690517,34.8937931 39.6690517,35.1750862 L37.3839655,35.1750862 C37.3940517,34.6136207 37.4893103,34.1003448 37.6719828,33.6352586 C37.8512931,33.167931 38.1068103,32.7633621 38.432931,32.420431 C38.7601724,32.0775 39.1546552,31.8118966 39.6163793,31.6202586 C40.0769828,31.4286207 40.5913793,31.3311207 41.162931,31.3311207 C41.9003448,31.3311207 42.5144828,31.4342241 43.0053448,31.6348276 C43.4984483,31.8376724 43.8951724,32.0887069 44.1966379,32.3901724 C44.4969828,32.6905172 44.7121552,33.0143966 44.8421552,33.3618103 C44.9710345,33.7114655 45.0360345,34.0319828 45.0360345,34.3356897 C45.0360345,34.8321552 44.9710345,35.2412069 44.8421552,35.5628448" id="Fill-31" fill="#FFFFFF"></path>
            </g>
        </g>
    </g>
</svg>