<?xml version="1.0" encoding="UTF-8" standalone="no"?>
<svg width="89px" height="89px" viewBox="0 0 89 89" version="1.1" xmlns="http://www.w3.org/2000/svg" xmlns:xlink="http://www.w3.org/1999/xlink" xmlns:sketch="http://www.bohemiancoding.com/sketch/ns">
    <!-- Generator: Sketch 3.3.3 (12081) - http://www.bohemiancoding.com/sketch -->
    <title>picto_learn--refugees</title>
    <desc>Created with Sketch.</desc>
    <defs></defs>
    <g id="Page-1" stroke="none" stroke-width="1" fill="none" fill-rule="evenodd" sketch:type="MSPage">
        <g id="picto_learn--refugees" sketch:type="MSLayerGroup" transform="translate(1.000000, 1.000000)">
            <path d="M86.174,43.5 C86.174,67.067 67.067,86.174 43.5,86.174 C19.931,86.174 0.827,67.068 0.827,43.5 C0.827,19.932 19.931,0.826 43.5,0.826 C67.066,0.826 86.174,19.932 86.174,43.5" id="Fill-1" stroke="#FDBA2D" stroke-width="3" fill="#FFFFFF" sketch:type="MSShapeGroup"></path>
            <g id="Group" transform="translate(15.000000, 24.000000)" fill="#006b81" sketch:type="MSShapeGroup">
                <rect id="Rectangle-path" x="26.837" y="8.776" width="3.325" height="35.41"></rect>
                <path d="M0.326,36.119 L25.947,44.187 L25.947,8.776 L0.326,0.707 L0.326,36.119 Z" id="Shape"></path>
                <path d="M31.051,8.776 L31.051,44.186 L34.137,43.214 L34.137,51.95 L34.141,51.95 L35.118,50.973 L36.093,51.95 L36.095,51.95 L36.095,42.597 L56.675,36.118 L56.675,0.707 L31.051,8.776 L31.051,8.776 Z M50.072,16.91 L37.652,20.821 L37.652,14.864 L50.072,10.954 L50.072,16.91 L50.072,16.91 Z" id="Shape"></path>
            </g>
        </g>
    </g>
</svg>