<?xml version="1.0" encoding="UTF-8" standalone="no"?>
<svg width="89px" height="89px" viewBox="0 0 89 89" version="1.1" xmlns="http://www.w3.org/2000/svg" xmlns:xlink="http://www.w3.org/1999/xlink" xmlns:sketch="http://www.bohemiancoding.com/sketch/ns">
    <!-- Generator: Sketch 3.4.2 (15857) - http://www.bohemiancoding.com/sketch -->
    <title>everyday_life</title>
    <desc>Created with Sketch.</desc>
    <defs></defs>
    <g id="Page-1" stroke="none" stroke-width="1" fill="none" fill-rule="evenodd" sketch:type="MSPage">
        <g id="everyday_life" sketch:type="MSLayerGroup" transform="translate(1.000000, 1.000000)">
            <circle id="Oval" stroke="#FCBC00" stroke-width="3" fill="#FFFFFF" sketch:type="MSShapeGroup" cx="43.6414538" cy="43.6414538" r="42.6749992"></circle>
            <path d="M23.6656773,52.8296055 L48.4518647,52.8296055 L48.4518647,24.179222 L23.6656773,24.179222 L23.6656773,52.8296055 Z M47.0764496,29.3765339 L43.4215148,25.5548091 L47.0764496,25.5548091 L47.0764496,29.3765339 L47.0764496,29.3765339 Z" id="Shape" fill="#006B81" sketch:type="MSShapeGroup"></path>
            <path d="M43.6730753,32.893738 L28.4448106,32.893738 C28.1124344,32.893738 27.8429913,32.6242949 27.8429913,32.2919187 C27.8429913,31.9595425 28.1124344,31.6900994 28.4448106,31.6900994 L43.6730753,31.6900994 C44.0054515,31.6900994 44.2748946,31.9595425 44.2748946,32.2919187 C44.2748946,32.6242949 44.0054515,32.893738 43.6730753,32.893738 L43.6730753,32.893738 Z" id="Shape" fill="#FFFFFF" sketch:type="MSShapeGroup"></path>
            <path d="M43.6730753,37.3965503 L28.4448106,37.3965503 C28.1124344,37.3965503 27.8429913,37.1271072 27.8429913,36.794731 C27.8429913,36.4623548 28.1124344,36.1929117 28.4448106,36.1929117 L43.6730753,36.1929117 C44.0054515,36.1929117 44.2748946,36.4623548 44.2748946,36.794731 C44.2748946,37.1271072 44.0054515,37.3965503 43.6730753,37.3965503 L43.6730753,37.3965503 Z" id="Shape" fill="#FFFFFF" sketch:type="MSShapeGroup"></path>
            <path d="M43.6730753,41.8995346 L28.4448106,41.8995346 C28.1124344,41.8995346 27.8429913,41.6302634 27.8429913,41.2977153 C27.8429913,40.965339 28.1124344,40.6958959 28.4448106,40.6958959 L43.6730753,40.6958959 C44.0054515,40.6958959 44.2748946,40.965339 44.2748946,41.2977153 C44.2748946,41.6300915 44.0054515,41.8995346 43.6730753,41.8995346 L43.6730753,41.8995346 Z" id="Shape" fill="#FFFFFF" sketch:type="MSShapeGroup"></path>
            <path d="M43.6730753,46.4023469 L28.4448106,46.4023469 C28.1124344,46.4023469 27.8429913,46.1329038 27.8429913,45.8005276 C27.8429913,45.4679794 28.1124344,45.1987082 28.4448106,45.1987082 L43.6730753,45.1987082 C44.0054515,45.1987082 44.2748946,45.4679794 44.2748946,45.8005276 C44.2748946,46.1329038 44.0054515,46.4023469 43.6730753,46.4023469 L43.6730753,46.4023469 Z" id="Shape" fill="#FFFFFF" sketch:type="MSShapeGroup"></path>
            <path d="M18.5075697,19.5448692 L18.5075697,46.6936275 L22.3762363,46.6936275 L22.3762363,23.0852864 L41.918342,23.0852864 L41.918342,19.5448692 L18.5075697,19.5448692 Z" id="Shape" fill="#006B81" sketch:type="MSShapeGroup"></path>
            <ellipse id="Oval" fill="#006B81" sketch:type="MSShapeGroup" cx="48.9322885" cy="50.0203128" rx="11.5040346" ry="11.5040346"></ellipse>
            <path d="M65.9615405,69.5550247 C65.2574119,69.5550247 64.5536271,69.2864413 64.0164604,68.7491026 L54.9052595,59.6379017 C53.830754,58.5635682 57.721602,54.6728922 58.7959355,55.7472257 L67.9071365,64.8584266 C68.9816419,65.9327601 68.9816419,67.6747691 67.9071365,68.7491026 C67.3696258,69.2862694 66.6654972,69.5550247 65.9615405,69.5550247 L65.9615405,69.5550247 Z" id="Shape" fill="#006B81" sketch:type="MSShapeGroup"></path>
            <path d="M48.9322885,40.3270666 C43.5790195,40.3270666 39.2390423,44.6668719 39.2390423,50.0203128 C39.2390423,55.3737538 43.5788476,59.713559 48.9322885,59.713559 C54.2859014,59.713559 58.6255347,55.3737538 58.6255347,50.0203128 C58.6255347,44.6668719 54.2857295,40.3270666 48.9322885,40.3270666 L48.9322885,40.3270666 Z M48.9322885,58.6194515 C44.1830742,58.6194515 40.3329779,54.7693552 40.3329779,50.0201409 C40.3329779,48.9906859 40.5145554,48.0035302 40.8462439,47.0885929 L47.5924667,47.0885929 C48.3036452,47.0885929 48.8801881,46.5117061 48.8801881,45.8005276 C48.8801881,45.089349 48.3038172,44.5126342 47.5924667,44.5126342 L42.3291267,44.5126342 C43.9065812,42.6236092 46.2786091,41.4210022 48.9321166,41.4210022 C53.6815028,41.4210022 57.5315991,45.2710985 57.5315991,50.0203128 C57.5315991,54.7695272 53.6816748,58.6194515 48.9322885,58.6194515 L48.9322885,58.6194515 Z" id="Shape" fill="#FFFFFF" sketch:type="MSShapeGroup"></path>
        </g>
    </g>
</svg>
