<?xml version="1.0" encoding="UTF-8" standalone="no"?>
<svg width="89px" height="89px" viewBox="0 0 89 89" version="1.1" xmlns="http://www.w3.org/2000/svg" xmlns:xlink="http://www.w3.org/1999/xlink" xmlns:sketch="http://www.bohemiancoding.com/sketch/ns">
    <!-- Generator: Sketch 3.3.3 (12081) - http://www.bohemiancoding.com/sketch -->
    <title>picto_violence--refugees</title>
    <desc>Created with Sketch.</desc>
    <defs></defs>
    <g id="Page-1" stroke="none" stroke-width="1" fill="none" fill-rule="evenodd" sketch:type="MSPage">
        <g id="picto_violence--refugees" sketch:type="MSLayerGroup" transform="translate(2.000000, 1.000000)">
            <g id="Page-1" sketch:type="MSShapeGroup">
                <g id="Imported-Layers">
                    <path d="M42.7552,86.1419644 C19.1867545,86.1419644 0.0819326733,67.0362891 0.0819326733,43.468697 C0.0819326733,19.9002515 19.1867545,0.795429703 42.7552,0.795429703 C66.3219386,0.795429703 85.4284673,19.9002515 85.4284673,43.468697 C85.4284673,67.0362891 66.3219386,86.1419644 42.7552,86.1419644 Z" id="Fill-1" stroke="#FDBA2D" stroke-width="3" fill="#FFFFFF"></path>
                    <path d="M55.2320099,44.2427901 C56.2305644,44.2427901 57.187299,43.8450752 57.8922614,43.1409663 C58.5989307,42.4351505 58.9940851,41.4775624 58.9940851,40.4798614 C58.9940851,39.4813069 58.5989307,38.5245723 57.8922614,37.8187564 C57.2308257,37.1556139 56.3449287,36.770701 55.413798,36.7254673 L55.413798,36.5974475 C56.2689703,36.5086871 57.0737881,36.1297485 57.6874297,35.5161069 C58.3923921,34.8102911 58.7892535,33.852703 58.7892535,32.8558554 C58.7892535,31.857301 58.3923921,30.9005663 57.6874297,30.193897 C56.9807604,29.4889347 56.0240257,29.0929267 55.0254713,29.0929267 L49.0486535,29.0929267 C48.9709881,28.114002 48.5510832,27.1905525 47.852095,26.4915644 C47.0745881,25.7157644 46.0205584,25.2787901 44.923002,25.2787901 L34.9878119,25.2787901 L33.8441683,25.3752317 C29.418097,25.3752317 25.8156198,28.8872416 25.6654099,33.2749069 L10.8287683,33.2749069 L10.8287683,55.3079683 L27.9134376,55.3079683 C30.6385525,57.8990891 34.320402,59.490802 38.3777762,59.490802 L51.9803069,59.490802 C53.001905,59.490802 53.9799762,59.0845525 54.700301,58.3650812 C55.4214792,57.6430495 55.8268752,56.6641248 55.8268752,55.6442337 C55.8268752,54.6243426 55.4214792,53.6454178 54.700301,52.9242396 C54.1498158,52.3746079 53.4499743,52.0093248 52.6972178,51.8659426 L53.6863842,51.8659426 C54.6866455,51.8659426 55.6416733,51.4707881 56.3483426,50.7641188 C57.0541584,50.058303 57.4501663,49.1015683 57.4501663,48.1038673 C57.4501663,47.1053129 57.0541584,46.1485782 56.3483426,45.4419089 C55.7756673,44.8700871 55.0348594,44.5039505 54.243697,44.3870257 L54.243697,44.2427901 L55.2320099,44.2427901" id="Fill-2" fill="#af1d3f"></path>
                    <path d="M44.2590059,20.3491743 L46.990095,12.2480812 L48.2737069,20.6999485 L52.3703406,13.1962812 L52.1663624,21.7437366 L57.5039347,15.0645168 L55.8183406,23.4464 L62.2346931,17.7956059 L59.1186911,25.7575842 L66.4200871,21.3076158 L61.9692653,28.607305 L69.9303901,25.4921564 L64.281303,31.9085089 L72.6614792,30.2229149 L65.9831129,35.5604871 L74.5297149,35.3573624 L67.026901,39.4531426 L75.4796218,40.7367545 L67.3785287,43.468697 L75.4796218,46.1997861 L67.026901,47.483398 L74.5297149,51.5800317 L65.9831129,51.3752 L72.6614792,56.7127723 L64.281303,55.0280317 L69.9303901,61.4443842 L61.9692653,58.3292356 L66.4183802,65.6280713 L59.1186911,61.1789564 L62.2346931,69.1400812 L55.8183406,63.4901406 L57.5039347,71.8720238 L52.1663624,65.1936574 L52.3703406,73.7394059 L48.2737069,66.2365921 L46.990095,74.6884594 L44.2590059,66.5873663" id="Stroke-3" stroke="#af1d3f" stroke-width="2"></path>
                </g>
            </g>
        </g>
    </g>
</svg>