<?xml version="1.0" encoding="UTF-8" standalone="no"?>
<svg width="89px" height="89px" viewBox="0 0 89 89" version="1.1" xmlns="http://www.w3.org/2000/svg" xmlns:xlink="http://www.w3.org/1999/xlink" xmlns:sketch="http://www.bohemiancoding.com/sketch/ns">
    <!-- Generator: Sketch 3.4.2 (15857) - http://www.bohemiancoding.com/sketch -->
    <title>everyday_life</title>
    <desc>Created with Sketch.</desc>
    <defs></defs>
    <g id="Page-1" stroke="none" stroke-width="1" fill="none" fill-rule="evenodd" sketch:type="MSPage">
        <g id="everyday_life" sketch:type="MSLayerGroup" transform="translate(1.000000, 1.000000)">
            <circle id="Oval" stroke="#FCBC00" stroke-width="3" fill="#FFFFFF" sketch:type="MSShapeGroup" cx="43.6414538" cy="43.6414538" r="42.6749992"></circle>
            <path d="M43.6730753,32.893738 L28.4448106,32.893738 C28.1124344,32.893738 27.8429913,32.6242949 27.8429913,32.2919187 C27.8429913,31.9595425 28.1124344,31.6900994 28.4448106,31.6900994 L43.6730753,31.6900994 C44.0054515,31.6900994 44.2748946,31.9595425 44.2748946,32.2919187 C44.2748946,32.6242949 44.0054515,32.893738 43.6730753,32.893738 L43.6730753,32.893738 Z" id="Shape" fill="#FFFFFF" sketch:type="MSShapeGroup"></path>
            <path d="M43.6730753,37.3965503 L28.4448106,37.3965503 C28.1124344,37.3965503 27.8429913,37.1271072 27.8429913,36.794731 C27.8429913,36.4623548 28.1124344,36.1929117 28.4448106,36.1929117 L43.6730753,36.1929117 C44.0054515,36.1929117 44.2748946,36.4623548 44.2748946,36.794731 C44.2748946,37.1271072 44.0054515,37.3965503 43.6730753,37.3965503 L43.6730753,37.3965503 Z" id="Shape" fill="#FFFFFF" sketch:type="MSShapeGroup"></path>
            <path d="M43.6730753,41.8995346 L28.4448106,41.8995346 C28.1124344,41.8995346 27.8429913,41.6302634 27.8429913,41.2977153 C27.8429913,40.965339 28.1124344,40.6958959 28.4448106,40.6958959 L43.6730753,40.6958959 C44.0054515,40.6958959 44.2748946,40.965339 44.2748946,41.2977153 C44.2748946,41.6300915 44.0054515,41.8995346 43.6730753,41.8995346 L43.6730753,41.8995346 Z" id="Shape" fill="#FFFFFF" sketch:type="MSShapeGroup"></path>
            <path d="M43.6730753,46.4023469 L28.4448106,46.4023469 C28.1124344,46.4023469 27.8429913,46.1329038 27.8429913,45.8005276 C27.8429913,45.4679794 28.1124344,45.1987082 28.4448106,45.1987082 L43.6730753,45.1987082 C44.0054515,45.1987082 44.2748946,45.4679794 44.2748946,45.8005276 C44.2748946,46.1329038 44.0054515,46.4023469 43.6730753,46.4023469 L43.6730753,46.4023469 Z" id="Shape" fill="#FFFFFF" sketch:type="MSShapeGroup"></path>
            <path d="M48.9322885,40.3270666 C43.5790195,40.3270666 39.2390423,44.6668719 39.2390423,50.0203128 C39.2390423,55.3737538 43.5788476,59.713559 48.9322885,59.713559 C54.2859014,59.713559 58.6255347,55.3737538 58.6255347,50.0203128 C58.6255347,44.6668719 54.2857295,40.3270666 48.9322885,40.3270666 L48.9322885,40.3270666 Z M48.9322885,58.6194515 C44.1830742,58.6194515 40.3329779,54.7693552 40.3329779,50.0201409 C40.3329779,48.9906859 40.5145554,48.0035302 40.8462439,47.0885929 L47.5924667,47.0885929 C48.3036452,47.0885929 48.8801881,46.5117061 48.8801881,45.8005276 C48.8801881,45.089349 48.3038172,44.5126342 47.5924667,44.5126342 L42.3291267,44.5126342 C43.9065812,42.6236092 46.2786091,41.4210022 48.9321166,41.4210022 C53.6815028,41.4210022 57.5315991,45.2710985 57.5315991,50.0203128 C57.5315991,54.7695272 53.6816748,58.6194515 48.9322885,58.6194515 L48.9322885,58.6194515 Z" id="Shape" fill="#FFFFFF" sketch:type="MSShapeGroup"></path>
            <path d="M32.4736565,31.0515021 C31.7008942,29.5862117 31.3150677,27.9584193 31.3150677,26.1673856 C31.3150677,23.1349407 32.3790024,20.5195656 34.5068717,18.3216299 C36.6347411,16.1236943 39.7368825,15.024819 43.8131111,15.024819 C48.6881689,15.024819 52.1452634,16.6553844 54.1832852,19.9157757 C55.2821606,21.6687259 55.9212609,23.8596364 56.1015105,26.4881374 L48.4300885,26.4881374 C48.291435,25.2609613 47.9943467,24.2896472 47.5384539,23.5732707 C46.7257594,22.305238 45.3876605,21.6711293 43.524527,21.6711293 C42.275536,21.6711293 41.2543066,21.9826375 40.4615783,22.6058389 C39.6690347,23.2290402 39.2724857,24.1435988 39.2724857,25.3485904 C39.2724857,26.7377138 39.9685263,27.7776152 41.3609774,28.4679248 C42.7528739,29.1586042 45.3087205,30.3767216 49.0281473,32.1230165 C55.5119557,35.2504853 58.7540447,38.8750732 58.7540447,42.9975196 C58.7540447,45.57666 58.0018032,47.7087814 56.4978747,49.3940687 C55.6642897,50.3284086 54.4448782,51.2115391 52.8394553,52.0441997 C53.9775234,53.0197658 54.8107386,53.9339547 55.3392858,54.7869512 C56.2739954,56.2705438 56.74172,58.0179479 56.74172,60.0289786 C56.74172,63.9094284 55.4217385,66.870513 52.7817754,68.9126021 C50.1418124,70.9539516 47.1820219,71.975181 43.9027738,71.975181 C40.3428908,71.975181 37.3180256,71.0706055 34.8285479,69.2616392 C32.3385156,67.4524881 30.923695,64.4546141 30.5835317,60.2680173 L38.6221082,60.2680173 C38.8999699,61.7719458 39.2967038,62.859544 39.8130495,63.5302573 C40.6662308,64.6683254 42.0653373,65.2375443 44.0107386,65.2375443 C45.2016799,65.2375443 46.2234639,64.8613311 47.0771999,64.109829 C47.930751,63.3577723 48.3576189,62.3820213 48.3576189,61.1836851 C48.3576189,60.1066246 47.9098605,59.161747 47.0147134,58.3492374 C46.1195662,57.5369126 43.5835009,56.0546141 39.4063325,53.9017871 C35.7660306,52.0743337 33.2796956,50.5715144 31.9467731,49.3933292 C29.8183492,47.505238 28.7540447,45.2109844 28.7540447,42.5100139 C28.7540447,39.971915 29.4857656,37.8701125 30.9492073,36.2047912 C31.8027583,35.2101833 33.011817,34.3065321 34.5771229,33.4938376 C33.9267454,33.0460792 33.2255283,32.2319057 32.4736565,31.0515021 L32.4736565,31.0515021 Z M49.7482213,42.5100139 C49.237052,42.0837005 48.5297342,41.6268834 47.6264527,41.1390079 L38.8151139,36.5092744 C37.7580195,36.9561085 37.0059628,37.6162841 36.5591287,38.4888769 C36.2742419,39.0577261 36.1322607,39.6670621 36.1322607,40.3167 C36.1322607,41.3118626 36.5541372,42.1949931 37.3989993,42.9666461 C37.889463,43.4340009 38.7537366,44.0026652 39.9912655,44.6724542 L48.3576189,49.2108612 C49.0283322,48.9270837 49.5971814,48.5107534 50.0649059,47.96224 C50.7966268,47.1706209 51.1624872,46.2257433 51.1624872,45.1294562 C51.1624872,44.2158219 50.6908804,43.3426745 49.7482213,42.5100139 L49.7482213,42.5100139 Z" id="Shape" fill="#006B82" sketch:type="MSShapeGroup"></path>
        </g>
    </g>
</svg>