<?xml version="1.0" encoding="utf-8"?>
<!-- Generator: Adobe Illustrator 15.1.0, SVG Export Plug-In . SVG Version: 6.00 Build 0)  -->
<!DOCTYPE svg PUBLIC "-//W3C//DTD SVG 1.1//EN" "http://www.w3.org/Graphics/SVG/1.1/DTD/svg11.dtd">
<svg version="1.1" id="Ebene_1" xmlns:sketch="http://www.bohemiancoding.com/sketch/ns"
	 xmlns="http://www.w3.org/2000/svg" xmlns:xlink="http://www.w3.org/1999/xlink" x="0px" y="0px" width="89px" height="89px"
	 viewBox="0 0 89 89" enable-background="new 0 0 89 89" xml:space="preserve">
<title>Imported Layers</title>
<desc>Created with Sketch.</desc>
<path id="Fill-1" sketch:type="MSShapeGroup" fill="#FFFFFF" stroke="#F4B528" stroke-width="3" d="M87.174,44.5
	c0,23.567-19.107,42.674-42.674,42.674c-23.569,0-42.673-19.106-42.673-42.674c0-23.568,19.104-42.674,42.673-42.674
	C68.066,1.826,87.174,20.932,87.174,44.5"/>
<g>
	<rect x="42.837" y="33.776" fill="#40301A" width="3.325" height="35.41"/>
	<polygon fill="#40301A" points="16.326,61.119 41.947,69.187 41.947,33.776 16.326,25.707 	"/>
	<path fill="#40301A" d="M47.051,33.776v35.41l3.086-0.972v8.736h0.004l0.977-0.977l0.975,0.977h0.002v-9.353l20.58-6.479V25.707
		L47.051,33.776z M66.072,41.91l-12.42,3.911v-5.957l12.42-3.91V41.91z"/>
</g>
</svg>
