<svg xmlns="http://www.w3.org/2000/svg" width="388" height="186" viewBox="0 0 388 186">
  <g fill="none" fill-rule="evenodd">
    <path fill="#9D1546" d="M96.8,185.2 C96.8,183.7 96.7,182.2 96.7,180.7 C96.7,101.6 161.9,37.5 242.3,37.5 C322.7,37.5 387.9,101.6 387.9,180.7 C387.9,182.2 387.9,183.7 387.8,185.2 L96.8,185.2 L96.8,185.2 Z" opacity=".1"/>
    <path fill="#93AB39" d="M209.9,185.2 L209.9,183.8 C209.9,158.9 230.4,138.8 255.7,138.8 C281,138.8 301.5,159 301.5,183.8 L301.5,185.2 L209.9,185.2 L209.9,185.2 Z" opacity=".4"/>
    <path fill="#88C7AA" d="M199.3,185.2 L199.3,138.9 C199.3,133.3 201.6,127.8 205.6,123.8 C209.7,119.8 215.2,117.6 220.9,117.6 C226.6,117.6 232.2,119.8 236.2,123.8 C240.3,127.8 242.5,133.2 242.5,138.9 L242.5,185.2 L199.3,185.2 L199.3,185.2 Z" opacity=".5"/>
    <path fill="#02663B" d="M72.7,185.2 L72.7,184.1 C72.7,165.1 89.1,149.7 109.2,149.7 C129.3,149.7 145.7,165.1 145.7,184.1 L145.7,185.2 L72.7,185.2 L72.7,185.2 Z" opacity=".35"/>
    <g fill="#93AB39" transform="translate(235)" opacity=".35">
      <ellipse cx="59.8" cy="21.5" rx="21.9" ry="21.5"/>
      <path d="M0,64.4 C0,72.4 6.6,78.9 14.8,78.9 C23,78.9 29.6,72.4 29.6,64.4 C29.6,56.4 23,49.9 14.8,49.9 C6.6,49.9 0,56.4 0,64.4 L0,64.4 Z"/>
      <ellipse cx="14.8" cy="64.4" rx="10.7" ry="10.5"/>
    </g>
    <path fill="#88C7AA" d="M93,185.2 L93,184.6 C93,174.3 84.5,166 74.1,166 C63.7,166 55.2,174.3 55.2,184.6 L55.2,185.2 L93,185.2 L93,185.2 Z" opacity=".45"/>
    <path fill="#9D1546" d="M31.8,185.2 L31.8,150.2 C31.8,146 33.5,141.9 36.6,138.8 C39.7,135.8 43.8,134.1 48.2,134.1 C52.5,134.1 56.7,135.8 59.8,138.8 C62.9,141.8 64.6,145.9 64.6,150.2 L64.6,185.2 L31.8,185.2 L31.8,185.2 Z" opacity=".45"/>
    <path fill="#F6A00C" d="M86.9,135 L86.9,185.2 L126.8,185.2 L126.8,135 C126.8,129.8 124.7,124.8 121,121.1 C117.2,117.4 112.2,115.4 106.9,115.4 C101.6,115.4 96.5,117.5 92.8,121.1 C88.9,124.8 86.8,129.8 86.9,135 L86.9,135 Z M99.3,138.8 C99.3,134.5 102.8,131 107.2,131 C111.6,131 115.1,134.5 115.1,138.8 C115.1,143.1 111.6,146.6 107.2,146.6 C102.8,146.6 99.3,143.1 99.3,138.8 L99.3,138.8 Z" opacity=".8"/>
    <path fill="#93AB39" d="M99,90.1 C77.4,90.1 56.7,81.7 41.5,66.7 C26.3,51.7 17.7,31.4 17.7,10.2 L17.7,9.2 C17.7,6.8 16.8,4.5 15.1,2.8 C13.5,1.1 11.2,0.1 8.9,0.1 C6.6,0.1 4.4,1.1 2.7,2.8 C1.1,4.5 0.1,6.8 0.1,9.2 L0.1,90.3 L17.6,90.3 L17.6,90.2 L99,90.2 L99,90.1 Z" opacity=".3" transform="translate(0 95)"/>
    <path stroke="#41311A" stroke-width="1.138" d="M297.5 28C297.5 29.5 296.2 30.8 294.7 30.8L290.5 30.8 285.3 30.8C283.7 30.8 282.5 32 282.5 33.6L282.5 110.8 282.5 36.1 282.5 185.2M249.5 63.3C249.5 65.8 251.5 67.8 254.1 67.8L259.3 67.8 262.3 67.8 273.7 67.8C276.2 67.8 278.3 69.8 278.3 72.3L278.3 185.2 278.3 76.4"/>
    <g transform="translate(201 61)">
      <g transform="translate(67 64)">
        <g transform="translate(20 14)">
          <path fill="#FBCFAB" d="M22.5,5.3 C18.7,0.1 11.2,-1.1 5.9,2.7 C5.7,2.8 5.6,2.9 5.5,3 L3.2,2.6 L4,4.4 C0.3,8.4 -0.2,14.5 3.2,19.1 C7,24.4 14.5,25.5 19.8,21.7 C25.1,17.8 26.3,10.5 22.5,5.3 L22.5,5.3 Z"/>
          <path fill="#F6A108" d="M5.6,7 C4.7,7.6 4.5,8.9 5.1,9.8 C5.7,10.7 7,10.9 7.9,10.2 C8.8,9.6 9,8.3 8.4,7.4 C7.7,6.6 6.4,6.4 5.6,7 L5.6,7 Z"/>
          <circle cx="8.4" cy="4" r=".6" fill="#41311A"/>
          <path stroke="#41311A" stroke-width=".304" d="M8.8,5.6 C9.7,5.5 10.3,4.6 10.1,3.7 C9.9,2.8 9.1,2.2 8.2,2.4"/>
        </g>
        <circle cx="19.3" cy="55.7" r="2.7" fill="#41311A"/>
        <circle cx="46.3" cy="55.7" r="2.7" fill="#41311A"/>
        <path fill="#B1193D" d="M59.2,26 C59.2,11.6 47.4,0.1 32.8,0.1 L32.8,26.1 L6.4,26.1 C6.4,26.1 6.4,26.1 6.4,26.2 C6.4,40.6 18.2,52.1 32.8,52.1 C47.4,52.1 59.2,40.5 59.2,26.2 L59.2,26 C59.2,26.1 59.2,26.1 59.2,26 L59.2,26 Z"/>
        <path stroke="#41311A" stroke-width="1.676" d="M7,26.7 L7,26.7 C7,23 3.9,19.9 0.1,19.9"/>
      </g>
      <g transform="translate(5 12)">
        <g fill="#155367" transform="translate(23 93)">
          <rect width="6.8" height="16.8" x=".7" y=".5"/>
          <rect width="6.8" height="16.8" x="8.8" y=".5"/>
        </g>
        <path fill="#006B82" d="M41.2,92.3 L41.2,72.6 C41.2,70 40.1,67.5 38.2,65.6 C36.3,63.7 33.8,62.7 31.1,62.7 C28.4,62.7 25.9,63.7 24,65.6 C22.1,67.5 21,70 21,72.6 L21,92.3 L41.2,92.3 L41.2,92.3 Z"/>
        <path fill="#208983" d="M62.1 83C52.8 82.1 44.5 77.2 39.4 69.5L45.1 65.8C49.1 71.8 55.6 75.6 62.8 76.3L62.1 83 62.1 83zM8.7 89.3C7.6 80.2 10.8 71.1 17.3 64.6L22.2 69.3C17.1 74.4 14.6 81.5 15.5 88.6L8.7 89.3 8.7 89.3z"/>
        <ellipse cx="31.2" cy="30.4" fill="#FBCFAB" rx="30.3" ry="29.8"/>
        <path stroke="#41311A" stroke-width=".91" d="M37.2 31.3C38.3 30.2 40.2 30.2 41.3 31.3M21.1 31.3C22.2 30.2 24.1 30.2 25.2 31.3"/>
        <g fill="#41311A" transform="translate(21 32)">
          <circle cx="18.2" cy="1.5" r="1.5"/>
          <circle cx="2.2" cy="1.5" r="1.5"/>
        </g>
        <path stroke="#41311A" stroke-width=".91" d="M35.5,36.9 C34.6,37.6 33.1,38.1 31.6,38.2 L30.8,38.2 C29.3,38.1 27.8,37.6 26.9,36.9"/>
        <g fill="#F6A108" transform="translate(9 32)">
          <path d="M43.4 5.6C43.4 8.4 41.1 10.7 38.2 10.7 35.3 10.7 33 8.4 33 5.6 33 2.8 35.3.5 38.2.5 41.1.5 43.4 2.8 43.4 5.6L43.4 5.6zM11.3 5.6C11.3 8.4 9 10.7 6.1 10.7 3.2 10.7.9 8.4.9 5.6.9 2.8 3.2.5 6.1.5 9 .5 11.3 2.8 11.3 5.6L11.3 5.6z"/>
        </g>
        <g fill="#EF8106">
          <path d="M47.7 5.3C47.5 6.8 47.3 8.4 47.3 10 47.3 20.5 52.8 29.8 61.2 35.1 61.4 33.6 61.6 32 61.6 30.4 61.6 19.9 56.1 10.7 47.7 5.3L47.7 5.3zM14.8 5.3C15 6.8 15.2 8.4 15.2 10 15.2 20.5 9.7 29.8 1.3 35.1 1.1 33.6.9 32 .9 30.4.8 19.9 6.4 10.7 14.8 5.3L14.8 5.3z"/>
          <path d="M31.2,21.9 C40.8,21.9 49.9,20.2 58.4,17.2 C53.4,7.4 43.1,0.7 31.2,0.7 C19.3,0.7 9,7.3 4,17.1 C12.5,20.2 21.7,21.9 31.2,21.9 L31.2,21.9 Z"/>
        </g>
        <path fill="#EF8106" d="M38.9,39.7 C37.3,37.2 34.4,35.5 31.1,35.5 C27.8,35.5 25,37.2 23.3,39.7 L38.9,39.7 L38.9,39.7 Z"/>
      </g>
    </g>
    <g transform="translate(128 72)">
      <g fill="#41311B" transform="translate(17 105)">
        <circle cx="32.106" cy="3.812" r="2.8" transform="rotate(-65.501 32.106 3.812)"/>
        <circle cx="4.553" cy="3.873" r="2.8" transform="rotate(-65.501 4.553 3.873)"/>
      </g>
      <path stroke="#534839" stroke-width="4.1" d="M16.8,104.4 L54,104.2"/>
      <path fill="#FBD1AE" d="M39.5,88.7 C41.9,94.4 46.5,98.7 52.4,100.4 L50.8,105.9 C43.3,103.6 37.2,98.2 34.2,90.9 L39.5,88.7 L39.5,88.7 Z"/>
      <polygon fill="#FBD1AE" points="35.1 102.2 29.4 102.2 29.3 87.9 35 87.9"/>
      <polygon fill="#41311B" points="42.3 92.7 28.2 92.7 28.2 81.5 42.2 81.5"/>
      <path fill="#175367" d="M43.8,86.3 L43.6,69.9 C43.6,67.7 42.7,65.5 41.2,64 C39.5,62.4 37.4,61.5 35.2,61.5 C32.9,61.5 30.7,62.4 29.2,64 C27.6,65.6 26.7,67.7 26.8,70 L26.9,86.3 L43.8,86.3 L43.8,86.3 L43.8,86.3 Z"/>
      <path fill="#FBD1AE" d="M46.3,64.5 C52.1,66.5 58.4,65.8 63.7,62.6 L66.7,67.5 C60,71.6 51.9,72.5 44.5,69.8 L46.3,64.5 L46.3,64.5 L46.3,64.5 Z M25.4,63.7 C19.2,63.6 13.5,60.8 9.8,56 L5.3,59.5 C10.1,65.6 17.5,69.3 25.3,69.4 L25.4,63.7 L25.4,63.7 L25.4,63.7 Z"/>
      <polygon fill="#41311B" stroke="#41311B" stroke-width=".3" points="60.7 53.3 9.7 53.5 9.6 33.1 60.6 32.9"/>
      <circle cx="34.982" cy="33.815" r="25.5" fill="#FBD1AE" transform="rotate(-65.501 34.983 33.816)"/>
      <path stroke="#41311B" stroke-width="1.1" d="M26.6,34.6 C27.6,33.6 29.1,33.6 30.1,34.6 M40,34.5 C40.9,33.6 42.5,33.6 43.4,34.5"/>
      <g fill="#41311B" transform="translate(26 34)">
        <circle cx="2.327" cy="2.479" r="1.3" transform="rotate(-65.501 2.327 2.479)"/>
        <circle cx="15.738" cy="2.382" r="1.3" transform="rotate(-65.501 15.738 2.382)"/>
      </g>
      <path stroke="#41311B" stroke-width="1.1" d="M38.7,39.4 C37.9,40.1 36.7,40.4 35.5,40.5 L34.8,40.5 C33.6,40.4 32.3,40 31.5,39.4"/>
      <g fill="#F6A10B" transform="translate(17 33)">
        <path d="M4.6,2.6 C7,2.7 8.9,4.6 8.9,6.9 C8.9,9.3 6.9,11.3 4.6,11.3 C2.2,11.3 0.4,9.4 0.3,7 C0.2,4.6 2.2,2.7 4.6,2.6 L4.6,2.6 L4.6,2.6 Z"/>
        <circle cx="31.624" cy="6.827" r="4.4" transform="rotate(-65.501 31.625 6.827)"/>
      </g>
      <path fill="#41311B" stroke="#41311B" stroke-width=".3" d="M60.3,30.1 C58.5,17.7 47.8,8.3 34.9,8.3 C22.1,8.3 11.5,17.9 9.8,30.3 C17.4,31.7 26,32.5 35,32.5 C44,32.4 52.6,31.6 60.3,30.1 L60.3,30.1 L60.3,30.1 Z"/>
      <g transform="translate(60 58)">
        <polygon fill="#B1193D" points="5 .7 14.2 4.1 9.1 18.1 0 14.7"/>
        <path fill="#FFFFFF" d="M8.4,5.5 C9.5,5.9 10,7.1 9.7,8.1 C9.3,9.2 8.1,9.8 7.1,9.4 C6,8.9 5.5,7.7 5.8,6.7 C6.2,5.6 7.3,5.1 8.4,5.5 L8.4,5.5 Z"/>
      </g>
      <path fill="#AAA797" d="M0.7,38.3 C0.7,43.2 4.7,47.1 9.6,47.1 L9.6,30.3 C9.6,16.3 20.9,4.9 34.9,4.9 C48.9,4.8 60.3,16.1 60.5,30.1 L60.6,46.9 C65.5,46.9 69.4,42.9 69.4,38.1 C69.4,34.4 67.1,31.3 63.9,30 C63.8,22.3 60.9,15.2 55.4,9.8 C49.9,4.3 42.6,1.4 34.9,1.4 C27.2,1.5 19.9,4.5 14.5,9.9 C9.1,15.4 6.2,22.6 6.1,30.2 C3,31.5 0.8,34.7 0.7,38.3 L0.7,38.3 L0.7,38.3 Z"/>
    </g>
  </g>
</svg>
