<svg xmlns="http://www.w3.org/2000/svg" viewBox="0 0 347.33 164.88"><defs><style>.cls-1{isolation:isolate;}.cls-2{fill:#5c8794;opacity:0.5;}.cls-11,.cls-15,.cls-2,.cls-21,.cls-24,.cls-3,.cls-4,.cls-6,.cls-7{mix-blend-mode:multiply;}.cls-3{fill:#02653c;opacity:0.29;}.cls-24,.cls-4{fill:#f6a10b;}.cls-4{opacity:0.35;}.cls-17,.cls-5{fill:#065b78;}.cls-5{opacity:0.25;}.cls-10,.cls-16,.cls-18,.cls-19,.cls-6{fill:none;stroke:#41311b;}.cls-10,.cls-16,.cls-19,.cls-6{stroke-linecap:round;}.cls-10,.cls-16,.cls-18,.cls-6{stroke-miterlimit:10;}.cls-6{stroke-width:1.46px;}.cls-13,.cls-7{fill:#f08312;}.cls-8{fill:#41311b;}.cls-21,.cls-9{fill:#a07b54;}.cls-10{stroke-width:0.89px;}.cls-12,.cls-15{fill:#df9a6f;}.cls-14{fill:#138c38;}.cls-16{stroke-width:0.3px;}.cls-18,.cls-19{stroke-width:3.91px;}.cls-19{stroke-linejoin:round;}.cls-20{fill:#fbd1ae;}.cls-22{fill:#175367;}.cls-23{fill:#fab612;}.cls-24{opacity:0.76;}.cls-25{fill:#64141b;}</style></defs><title>reduced_illu_refugees</title><g class="cls-1"><g id="Ebene_1" data-name="Ebene 1"><path class="cls-2" d="M101.64,60A101.64,101.64,0,0,0,0,161.65c0,1.08,0,2.15.06,3.22H21.25c0-.85,0-1.7,0-2.55a80.44,80.44,0,1,1,160.89,0c0,0.85,0,1.7,0,2.55h21.19c0-1.07.06-2.15,0.06-3.22A101.65,101.65,0,0,0,101.64,60Z"/><path class="cls-3" d="M101.64,81.88A80.44,80.44,0,0,0,21.2,162.32c0,0.85,0,1.7,0,2.55H37.77c0-.67,0-1.35,0-2a63.91,63.91,0,1,1,127.81,0c0,0.68,0,1.35,0,2H182c0-.85,0-1.7,0-2.55A80.44,80.44,0,0,0,101.64,81.88Z"/><path class="cls-4" d="M101.64,98.94a63.91,63.91,0,0,0-63.9,63.91c0,0.68,0,1.35,0,2H55.15c0-.51,0-1,0-1.53a48.16,48.16,0,1,1,96.33,0c0,0.51,0,1,0,1.53h14.09c0-.67,0-1.35,0-2A63.91,63.91,0,0,0,101.64,98.94Z"/><path class="cls-5" d="M208.2,21.34a138.65,138.65,0,0,0-96.74,39.14,101.65,101.65,0,0,1,91.83,101.17c0,1,0,2.21,0,3.22h144c0-1.47.08-2.94,0.08-4.42A139.13,139.13,0,0,0,208.2,21.34Z"/><line class="cls-6" x1="139.48" y1="39.28" x2="139.48" y2="139.03"/><circle class="cls-7" cx="139.34" cy="16.8" r="16.8"/><polygon class="cls-7" points="135.98 39.17 139.34 33.35 142.7 39.17 135.98 39.17"/><circle class="cls-8" cx="137.09" cy="93.08" r="15.12"/><circle class="cls-9" cx="109.47" cy="83.06" r="29.86"/><path class="cls-8" d="M104.25,53.66A29.84,29.84,0,0,0,139.33,83,29.84,29.84,0,0,0,104.25,53.66Z"/><path class="cls-8" d="M79.71,80.73A29.85,29.85,0,0,0,116.47,54,29.85,29.85,0,0,0,79.71,80.73Z"/><path class="cls-10" d="M115.33,84a2.84,2.84,0,0,1,4,0"/><path class="cls-10" d="M99.54,84a2.84,2.84,0,0,1,4,0"/><circle class="cls-8" cx="117.35" cy="86.15" r="1.46"/><circle class="cls-8" cx="101.56" cy="86.15" r="1.46"/><path class="cls-10" d="M113.69,89.59a6.85,6.85,0,0,1-3.81,1.31H109.1a6.65,6.65,0,0,1-3.81-1.31"/><g class="cls-11"><path class="cls-12" d="M130.34,90.22a5.08,5.08,0,1,1-5.08-5.08A5.08,5.08,0,0,1,130.34,90.22Z"/><path class="cls-12" d="M98.72,90.22a5.08,5.08,0,1,1-5.08-5.08A5.08,5.08,0,0,1,98.72,90.22Z"/></g><rect class="cls-9" x="101.88" y="146.25" width="6.68" height="16.87"/><rect class="cls-9" x="109.83" y="146.25" width="6.68" height="16.87"/><path class="cls-13" d="M119.09,156.35v-31a9.93,9.93,0,0,0-19.86,0v31h19.86Z"/><path class="cls-14" d="M92.85,142.57a30.27,30.27,0,0,1-3.21-26L96,118.72A23.57,23.57,0,0,0,98.5,139Z"/><path class="cls-9" d="M88.09,127.46a30.33,30.33,0,0,0,4.76,15.11L98.5,139a23.59,23.59,0,0,1-3.72-12.15Z"/><path class="cls-14" d="M141.81,133.76A30.27,30.27,0,0,1,121,117.85l6-3a23.57,23.57,0,0,0,16.2,12.41Z"/><path class="cls-9" d="M127.7,126.57a30.33,30.33,0,0,0,14.11,7.19l1.4-6.54a23.59,23.59,0,0,1-11.28-5.86Z"/><path class="cls-9" d="M119,119.49a11.74,11.74,0,0,0-16.35-2.65,3.9,3.9,0,0,0-.41.34l-2.24-.45,0.82,1.75A11.71,11.71,0,1,0,119,119.49Z"/><path class="cls-8" d="M112.55,115a18.05,18.05,0,0,0,4.06,20.62A11.7,11.7,0,0,0,112.55,115Z"/><path class="cls-15" d="M102.37,121.21a2,2,0,1,0,2.76.45A2,2,0,0,0,102.37,121.21Z"/><circle class="cls-8" cx="105.17" cy="118.22" r="0.56"/><path class="cls-16" d="M105.58,119.83a1.63,1.63,0,1,0-.6-3.21"/><path class="cls-17" d="M109.14,141.75a12.55,12.55,0,0,0,12.55-12.55H96.59A12.55,12.55,0,0,0,109.14,141.75Z"/><circle class="cls-18" cx="304.93" cy="138.84" r="23.82"/><circle class="cls-18" cx="170.57" cy="139.06" r="23.82"/><polygon class="cls-19" points="238.32 110.26 200.64 110.26 222.49 140.01 259.03 140.01 238.32 110.26"/><path class="cls-19" d="M305.3,140.39c-5-5.46-11.69-16.42-16.55-24.12a180.55,180.55,0,0,1-9-15.77l15,0.08"/><path class="cls-19" d="M200.64,110.26H284.1c0.86,2,1.88,3.66,2.06,4.13L259.52,140H170.37Z"/><polyline class="cls-19" points="237.99 109.13 233.02 100.5 246.76 100.5"/><path class="cls-14" d="M276,110.22l3.88-20.36A10.42,10.42,0,0,0,259.42,86l-3.88,20.36Z"/><rect class="cls-9" x="264.82" y="111.99" width="7.04" height="17.73" transform="translate(-25.9 127) rotate(-25.44)"/><path class="cls-17" d="M219.58,112.24l0.82-20.71a10.42,10.42,0,1,0-20.82-.83l-0.82,20.71Z"/><path class="cls-20" d="M230.22,102.4a31.76,31.76,0,0,1-24.29-12.92l5.66-4.18a24.75,24.75,0,0,0,18.93,10.07Z"/><circle class="cls-9" cx="272.66" cy="45.03" r="30.41" transform="translate(-1.99 14.43) rotate(-3.02)"/><path class="cls-8" d="M271,14.67a30.47,30.47,0,0,0-28.87,30.72,42.94,42.94,0,0,0,15.82,3.42A43.05,43.05,0,0,0,296.69,26.5,30.44,30.44,0,0,0,271,14.67Z"/><circle class="cls-21" cx="289.52" cy="51.44" r="5.17" transform="translate(-2.31 15.33) rotate(-3.02)"/><polygon class="cls-9" points="300.2 42.44 307.61 48.58 299 50.67 300.2 42.44"/><circle class="cls-8" cx="296.17" cy="40.6" r="1.5" transform="translate(-1.73 15.64) rotate(-3.02)"/><path class="cls-10" d="M292.29,42.4a4.22,4.22,0,0,1,7.43-4"/><rect class="cls-22" x="213.06" y="113.76" width="7.04" height="17.73" transform="translate(-31.67 104.93) rotate(-25.44)"/><path class="cls-9" d="M294.6,104A31.76,31.76,0,0,1,270.31,91.1L276,86.92A24.75,24.75,0,0,0,294.9,97Z"/><path class="cls-23" d="M176.27,23.83a42.86,42.86,0,0,1-13-7.4A16.49,16.49,0,0,1,191,26.33,42.87,42.87,0,0,1,176.27,23.83Z"/><circle class="cls-20" cx="211.02" cy="47.18" r="28.84" transform="translate(95.74 230.12) rotate(-70.38)"/><path class="cls-23" d="M222.25,34.15l-0.53,7.54a74.6,74.6,0,0,0,17.95,2A28.85,28.85,0,0,0,191,26.39a75,75,0,0,0,22.79,13q2.95,1.05,5.92,1.84Z"/><circle class="cls-24" cx="223.1" cy="58.78" r="4.9" transform="translate(92.83 249.2) rotate(-70.38)"/><circle class="cls-24" cx="194.32" cy="48.53" r="4.9" transform="translate(83.37 215.27) rotate(-70.38)"/><circle class="cls-8" cx="217.2" cy="52.52" r="1.42" transform="translate(27.33 170.35) rotate(-45.42)"/><circle class="cls-8" cx="202.85" cy="47.41" r="1.42" transform="translate(26.68 158.59) rotate(-45.41)"/><path class="cls-10" d="M212.76,54.43a6.6,6.6,0,0,1-3.9-.06l-0.73-.26a6.6,6.6,0,0,1-3.06-2.42"/><path class="cls-10" d="M216.08,49.84a2.76,2.76,0,0,1,3.68,1.32"/><path class="cls-10" d="M201.73,44.72A2.76,2.76,0,0,1,205.41,46"/><path class="cls-13" d="M170.52,93.78a13.08,13.08,0,0,0-13.08,13.08h13.08V93.78Z"/><path class="cls-25" d="M170.46,93.78v10.46H160A10.46,10.46,0,1,0,170.46,93.78Zm2.23,4.88a1.14,1.14,0,1,1,1.14-1.14A1.14,1.14,0,0,1,172.69,98.66Z"/></g></g></svg>