<?xml version="1.0" encoding="utf-8"?>
<!-- Generator: Adobe Illustrator 19.2.1, SVG Export Plug-In . SVG Version: 6.00 Build 0)  -->
<svg version="1.1" id="Ebene_1" xmlns="http://www.w3.org/2000/svg" xmlns:xlink="http://www.w3.org/1999/xlink" x="0px" y="0px"
	 viewBox="0 0 387.9 185.8" style="enable-background:new 0 0 387.9 185.8;" xml:space="preserve">
<style type="text/css">
	.st0{opacity:0.1;fill:#9D1546;enable-background:new    ;}
	.st1{opacity:0.4;fill:#93AB39;enable-background:new    ;}
	.st2{opacity:0.5;fill:#88C7AA;enable-background:new    ;}
	.st3{opacity:0.35;fill:#02663B;enable-background:new    ;}
	.st4{opacity:0.35;fill:#93AB39;enable-background:new    ;}
	.st5{opacity:0.45;fill:#88C7AA;enable-background:new    ;}
	.st6{opacity:0.45;fill:#9D1546;enable-background:new    ;}
	.st7{opacity:0.8;fill:#F6A00C;enable-background:new    ;}
	.st8{opacity:0.3;}
	.st9{fill:#93AB39;}
	.st10{fill:none;stroke:#41311A;stroke-width:1.1381;stroke-linecap:round;stroke-miterlimit:10;}
	.st11{fill:none;stroke:#41311A;stroke-width:1.1381;stroke-linecap:round;stroke-linejoin:round;stroke-miterlimit:10;}
	.st12{fill:#FBCFAB;}
	.st13{fill:#F6A108;}
	.st14{fill:#41311A;}
	.st15{fill:none;stroke:#41311A;stroke-width:0.3039;stroke-linecap:round;stroke-miterlimit:10;}
	.st16{fill:#9D1546;}
	.st17{fill:none;stroke:#41311A;stroke-width:1.6759;stroke-linecap:round;stroke-miterlimit:10;}
	.st18{display:none;}
	.st19{display:inline;}
	.st20{fill:#93AB3A;}
	.st21{display:inline;fill:#9D1546;}
	.st22{fill:none;stroke:#41311A;stroke-width:0.9105;stroke-linecap:round;stroke-miterlimit:10;}
	.st23{fill:#155367;}
	.st24{fill:#006B82;}
	.st25{fill:#208983;}
	.st26{fill:#EF8106;}
	.st27{fill:#41311B;}
	.st28{fill:none;stroke:#534839;stroke-width:4.1;stroke-linecap:round;stroke-miterlimit:10;}
	.st29{fill:#FBD1AE;}
	.st30{fill:#175367;}
	.st31{fill:#41311B;stroke:#41311B;stroke-width:0.3;stroke-miterlimit:10;}
	.st32{fill:none;stroke:#41311B;stroke-width:1.1;stroke-linecap:round;stroke-miterlimit:10;}
	.st33{fill:#F6A10B;}
	.st34{fill:#B01D40;}
	.st35{fill:#FFFFFF;}
	.st36{fill:#AAA797;}
</style>
<g>
	<path class="st0" d="M96.8,185.2c0-1.5-0.1-3-0.1-4.5c0-79.1,65.2-143.2,145.6-143.2s145.6,64.1,145.6,143.2c0,1.5,0,3-0.1,4.5
		H96.8z"/>
	<path class="st1" d="M209.9,185.2c0-0.5,0-0.9,0-1.4c0-24.9,20.5-45,45.8-45s45.8,20.2,45.8,45c0,0.5,0,1,0,1.4H209.9z"/>
	<path class="st2" d="M199.3,185.2v-46.3c0-5.6,2.3-11.1,6.3-15.1c4.1-4,9.6-6.2,15.3-6.2c5.7,0,11.3,2.2,15.3,6.2
		c4.1,4,6.3,9.4,6.3,15.1v46.3H199.3z"/>
	<path class="st3" d="M72.7,185.2c0-0.4,0-0.7,0-1.1c0-19,16.4-34.4,36.5-34.4s36.5,15.4,36.5,34.4c0,0.4,0,0.7,0,1.1H72.7z"/>
	<g>
		<ellipse class="st4" cx="294.8" cy="21.5" rx="21.9" ry="21.5"/>
		<path class="st4" d="M235,64.4c0,8,6.6,14.5,14.8,14.5s14.8-6.5,14.8-14.5s-6.6-14.5-14.8-14.5C241.6,49.9,235,56.4,235,64.4z"/>
		<ellipse class="st4" cx="249.8" cy="64.4" rx="10.7" ry="10.5"/>
	</g>
	<path class="st5" d="M93,185.2c0-0.2,0-0.4,0-0.6c0-10.3-8.5-18.6-18.9-18.6s-18.9,8.3-18.9,18.6c0,0.2,0,0.4,0,0.6H93z"/>
	<path class="st6" d="M31.8,185.2v-35c0-4.2,1.7-8.3,4.8-11.4c3.1-3,7.2-4.7,11.6-4.7c4.3,0,8.5,1.7,11.6,4.7
		c3.1,3,4.8,7.1,4.8,11.4v35H31.8z"/>
	<path class="st7" d="M86.9,135v50.2h39.9V135c0-5.2-2.1-10.2-5.8-13.9c-3.8-3.7-8.8-5.7-14.1-5.7c-5.3,0-10.4,2.1-14.1,5.7
		C88.9,124.8,86.8,129.8,86.9,135z M99.3,138.8c0-4.3,3.5-7.8,7.9-7.8s7.9,3.5,7.9,7.8s-3.5,7.8-7.9,7.8S99.3,143.1,99.3,138.8z"/>
	<g class="st8">
		<path class="st9" d="M99,185.1c-21.6,0-42.3-8.4-57.5-23.4c-15.2-15-23.8-35.3-23.8-56.5v-1c0-2.4-0.9-4.7-2.6-6.4
			c-1.6-1.7-3.9-2.7-6.2-2.7c-2.3,0-4.5,1-6.2,2.7c-1.6,1.7-2.6,4-2.6,6.4l0,81.1h17.5v-0.1H99z"/>
	</g>
	<path class="st10" d="M297.5,28c0,1.5-1.3,2.8-2.8,2.8h-4.2h-5.2c-1.6,0-2.8,1.2-2.8,2.8v77.2V36.1v149.1"/>
	<path class="st11" d="M249.5,63.3c0,2.5,2,4.5,4.6,4.5h5.2h3h11.4c2.5,0,4.6,2,4.6,4.5v112.9V76.4"/>
	<g>
		<g>
			<g>
				<path class="st12" d="M310.5,144.3c-3.8-5.2-11.3-6.4-16.6-2.6c-0.2,0.1-0.3,0.2-0.4,0.3l-2.3-0.4l0.8,1.8
					c-3.7,4-4.2,10.1-0.8,14.7c3.8,5.3,11.3,6.4,16.6,2.6C313.1,156.8,314.3,149.5,310.5,144.3z"/>
				<path class="st13" d="M293.6,146c-0.9,0.6-1.1,1.9-0.5,2.8c0.6,0.9,1.9,1.1,2.8,0.4c0.9-0.6,1.1-1.9,0.5-2.8
					C295.7,145.6,294.4,145.4,293.6,146z"/>
				<ellipse class="st14" cx="296.4" cy="143" rx="0.6" ry="0.6"/>
				<path class="st15" d="M296.8,144.6c0.9-0.1,1.5-1,1.3-1.9c-0.2-0.9-1-1.5-1.9-1.3"/>
			</g>
			<ellipse class="st14" cx="287.3" cy="180.7" rx="2.7" ry="2.7"/>
			<ellipse class="st14" cx="314.3" cy="180.7" rx="2.7" ry="2.7"/>
			<path class="st16" d="M327.2,151c0-14.4-11.8-25.9-26.4-25.9v26h-26.4c0,0,0,0,0,0.1c0,14.4,11.8,25.9,26.4,25.9
				c14.6,0,26.4-11.6,26.4-25.9C327.2,151.1,327.2,151.1,327.2,151C327.2,151.1,327.2,151.1,327.2,151z"/>
			<path class="st17" d="M275,151.7L275,151.7c0-3.7-3.1-6.8-6.9-6.8"/>
		</g>
		<g class="st18">
			<g class="st19">
				<rect x="234.6" y="166.5" class="st20" width="6.8" height="16.8"/>
				<rect x="226.7" y="166.5" class="st20" width="6.8" height="16.8"/>
			</g>
			<path class="st21" d="M244.1,165.3v-19.7c0-2.6-1.1-5.1-3-7c-1.9-1.9-4.4-2.9-7.1-2.9c-2.7,0-5.2,1-7.1,2.9c-1.9,1.9-3,4.4-3,7
				v19.7H244.1z"/>
			<path class="st21" d="M267.4,149.6c-9.2,1.5-18.5-1.2-25.5-7.3l4.5-5c5.4,4.8,12.7,6.9,19.9,5.7L267.4,149.6z"/>
			<path class="st21" d="M225.4,144c-5.6,7.3-14.2,11.7-23.6,12l-0.2-6.7c7.3-0.2,14-3.7,18.4-9.4L225.4,144z"/>
			<g class="st19">
				<path class="st12" d="M267.9,118.1l5,0.4l-3.1-4.9c0.2-0.4,0.3-0.9,0.4-1.3c4.3-15.9-5.3-32.2-21.4-36.5
					c-16.1-4.2-32.7,5.2-37.1,21c-4.3,15.9,5.3,32.2,21.4,36.5C247.1,137.1,261.5,130.4,267.9,118.1z"/>
				<ellipse class="st13" cx="254.9" cy="115.7" rx="5.2" ry="5.1"/>
				<ellipse class="st14" cx="264.5" cy="107.6" rx="1.5" ry="1.5"/>
				<path class="st22" d="M260.3,108.1c-0.4-2.2,1.1-4.4,3.4-4.8c2.3-0.4,4.5,1.1,4.9,3.3"/>
				<g>
					<path class="st14" d="M222.5,80.7c-5.5,4.2-9.6,10.3-11.1,17.6c-0.5,2.2-0.6,4.3-0.6,6.4c5.8-2.9,10.3-8.3,11.7-15.1
						C223.1,86.5,223.1,83.6,222.5,80.7z"/>
					<g>
						<path class="st14" d="M213.6,91.5c5.2,5.4,12.1,9.4,20,11c13.2,2.6,26.1-1.8,34.8-10.6c-3.9-8.3-11.6-14.6-21.4-16.6
							C233.1,72.5,219.5,79.5,213.6,91.5z"/>
					</g>
					<ellipse class="st14" cx="234.9" cy="71.5" rx="10.1" ry="9.9"/>
				</g>
			</g>
		</g>
		<g>
			<g>
				<rect x="229.7" y="166.5" class="st23" width="6.8" height="16.8"/>
				<rect x="237.8" y="166.5" class="st23" width="6.8" height="16.8"/>
			</g>
			<path class="st24" d="M247.2,165.3v-19.7c0-2.6-1.1-5.1-3-7c-1.9-1.9-4.4-2.9-7.1-2.9c-2.7,0-5.2,1-7.1,2.9c-1.9,1.9-3,4.4-3,7
				v19.7H247.2z"/>
			<path class="st25" d="M268.1,156c-9.3-0.9-17.6-5.8-22.7-13.5l5.7-3.7c4,6,10.5,9.8,17.7,10.5L268.1,156z"/>
			<path class="st25" d="M214.7,162.3c-1.1-9.1,2.1-18.2,8.6-24.7l4.9,4.7c-5.1,5.1-7.6,12.2-6.7,19.3L214.7,162.3z"/>
			<ellipse class="st12" cx="237.2" cy="103.4" rx="30.3" ry="29.8"/>
			<path class="st22" d="M243.2,104.3c1.1-1.1,3-1.1,4.1,0"/>
			<path class="st22" d="M227.1,104.3c1.1-1.1,3-1.1,4.1,0"/>
			<g>
				<ellipse class="st14" cx="245.2" cy="106.5" rx="1.5" ry="1.5"/>
				<ellipse class="st14" cx="229.2" cy="106.5" rx="1.5" ry="1.5"/>
			</g>
			<path class="st22" d="M241.5,109.9c-0.9,0.7-2.4,1.2-3.9,1.3h-0.8c-1.5-0.1-3-0.6-3.9-1.3"/>
			<g>
				<path class="st13" d="M258.4,110.6c0,2.8-2.3,5.1-5.2,5.1s-5.2-2.3-5.2-5.1s2.3-5.1,5.2-5.1S258.4,107.8,258.4,110.6z"/>
				<path class="st13" d="M226.3,110.6c0,2.8-2.3,5.1-5.2,5.1s-5.2-2.3-5.2-5.1s2.3-5.1,5.2-5.1S226.3,107.8,226.3,110.6z"/>
			</g>
			<g>
				<path class="st26" d="M253.7,78.3c-0.2,1.5-0.4,3.1-0.4,4.7c0,10.5,5.5,19.8,13.9,25.1c0.2-1.5,0.4-3.1,0.4-4.7
					C267.6,92.9,262.1,83.7,253.7,78.3z"/>
				<path class="st26" d="M220.8,78.3c0.2,1.5,0.4,3.1,0.4,4.7c0,10.5-5.5,19.8-13.9,25.1c-0.2-1.5-0.4-3.1-0.4-4.7
					C206.8,92.9,212.4,83.7,220.8,78.3z"/>
				<path class="st26" d="M237.2,94.9c9.6,0,18.7-1.7,27.2-4.7c-5-9.8-15.3-16.5-27.2-16.5S215,80.3,210,90.1
					C218.5,93.2,227.7,94.9,237.2,94.9z"/>
			</g>
			<path class="st26" d="M244.9,112.7c-1.6-2.5-4.5-4.2-7.8-4.2c-3.3,0-6.1,1.7-7.8,4.2H244.9z"/>
		</g>
	</g>
	<g>
		<g>
			
				<ellipse transform="matrix(0.4147 -0.91 0.91 0.4147 -60.8649 266.9952)" class="st27" cx="177.1" cy="180.8" rx="2.8" ry="2.8"/>
			
				<ellipse transform="matrix(0.4147 -0.91 0.91 0.4147 -77.1053 241.9898)" class="st27" cx="149.6" cy="180.9" rx="2.8" ry="2.8"/>
		</g>
		<path class="st28" d="M144.8,176.4l37.2-0.2"/>
		<path class="st29" d="M167.5,160.7c2.4,5.7,7,10,12.9,11.7l-1.6,5.5c-7.5-2.3-13.6-7.7-16.6-15L167.5,160.7z"/>
		<path class="st29" d="M163.1,174.2l-5.7,0l-0.1-14.3l5.7,0L163.1,174.2z"/>
		<path class="st27" d="M170.3,164.7l-14.1,0l0-11.2l14,0L170.3,164.7z"/>
		<path class="st30" d="M171.8,158.3l-0.2-16.4c0-2.2-0.9-4.4-2.4-5.9c-1.7-1.6-3.8-2.5-6-2.5c-2.3,0-4.5,0.9-6,2.5
			c-1.6,1.6-2.5,3.7-2.4,6l0.1,16.3L171.8,158.3L171.8,158.3z"/>
		<path class="st29" d="M174.3,136.5c5.8,2,12.1,1.3,17.4-1.9l3,4.9c-6.7,4.1-14.8,5-22.2,2.3L174.3,136.5L174.3,136.5z
			 M153.4,135.7c-6.2-0.1-11.9-2.9-15.6-7.7l-4.5,3.5c4.8,6.1,12.2,9.8,20,9.9L153.4,135.7L153.4,135.7z"/>
		<path class="st31" d="M188.7,125.3l-51,0.2l-0.1-20.4l51-0.2L188.7,125.3z"/>
		<ellipse transform="matrix(0.4147 -0.91 0.91 0.4147 -0.8912 210.2704)" class="st29" cx="163" cy="105.8" rx="25.5" ry="25.5"/>
		<g>
			<path class="st32" d="M154.6,106.6c1-1,2.5-1,3.5,0 M168,106.5c0.9-0.9,2.5-0.9,3.4,0"/>
		</g>
		<g>
			<ellipse transform="matrix(0.4147 -0.91 0.91 0.4147 -7.2258 205.7167)" class="st27" cx="156.3" cy="108.5" rx="1.3" ry="1.3"/>
			<ellipse transform="matrix(0.4147 -0.91 0.91 0.4147 0.6776 217.9469)" class="st27" cx="169.8" cy="108.4" rx="1.3" ry="1.3"/>
		</g>
		<path class="st32" d="M166.7,111.4c-0.8,0.7-2,1-3.2,1.1l-0.7,0c-1.2-0.1-2.5-0.5-3.3-1.1"/>
		<g>
			<path class="st33" d="M149.6,107.6c2.4,0.1,4.3,2,4.3,4.3c0,2.4-2,4.4-4.3,4.4c-2.4,0-4.2-1.9-4.3-4.3
				C145.2,109.6,147.2,107.7,149.6,107.6L149.6,107.6z"/>
			<ellipse transform="matrix(0.4147 -0.91 0.91 0.4147 1.5595 226.1282)" class="st33" cx="176.6" cy="111.9" rx="4.4" ry="4.4"/>
		</g>
		<path class="st31" d="M188.3,102.1c-1.8-12.4-12.5-21.8-25.4-21.8c-12.8,0-23.4,9.6-25.1,22c7.6,1.4,16.2,2.2,25.2,2.2
			C172,104.4,180.6,103.6,188.3,102.1L188.3,102.1z"/>
		<g>
			<path class="st34" d="M193,130.7l9.2,3.4l-5.1,14l-9.1-3.4L193,130.7z"/>
			<path class="st35" d="M196.4,135.5c1.1,0.4,1.6,1.6,1.3,2.6c-0.4,1.1-1.6,1.7-2.6,1.3c-1.1-0.5-1.6-1.7-1.3-2.7
				C194.2,135.6,195.3,135.1,196.4,135.5z"/>
		</g>
		<path class="st36" d="M128.7,110.3c0,4.9,4,8.8,8.9,8.8l0-16.8c0-14,11.3-25.4,25.3-25.4c14-0.1,25.4,11.2,25.6,25.2l0.1,16.8
			c4.9,0,8.8-4,8.8-8.8c0-3.7-2.3-6.8-5.5-8.1c-0.1-7.7-3-14.8-8.5-20.2c-5.5-5.5-12.8-8.4-20.5-8.4c-7.7,0.1-15,3.1-20.4,8.5
			c-5.4,5.5-8.3,12.7-8.4,20.3C131,103.5,128.8,106.7,128.7,110.3L128.7,110.3z"/>
	</g>
</g>
</svg>
