<?xml version="1.0" encoding="UTF-8" standalone="no"?>
<svg width="114px" height="126px" viewBox="0 0 114 126" version="1.1" xmlns="http://www.w3.org/2000/svg" xmlns:xlink="http://www.w3.org/1999/xlink" xmlns:sketch="http://www.bohemiancoding.com/sketch/ns">
    <!-- Generator: Sketch Beta 3.2 (9961) - http://www.bohemiancoding.com/sketch -->
    <title>searching-clara-t</title>
    <desc>Created with Sketch Beta.</desc>
    <defs></defs>
    <g id="Page-1" stroke="none" stroke-width="1" fill="none" fill-rule="evenodd" sketch:type="MSPage">
        <g id="searching-clara-t" sketch:type="MSLayerGroup">
            <g id="Page-1" sketch:type="MSShapeGroup">
                <g id="Imported-Layers">
                    <path d="M87.7298684,93.2761446 C77.7823684,96.5138795 67.0601316,95.046494 58.3110526,89.2503976 L62.47375,82.8284819 C69.2950658,87.3453976 77.6492105,88.4899277 85.4026316,85.9652289 L87.7298684,93.2761446" id="Fill-1" fill="#F6C6A1"></path>
                    <path d="M110.000526,82.7290241 C114.786645,78.3345181 115.145263,70.8200964 110.799474,65.9787952 C106.452171,61.1390241 99.0210526,60.7748554 94.2319079,65.1724217 C90.0207895,69.0405663 89.2430263,75.3201807 92.0756579,80.0712048 L82.4822368,88.8801084 C81.5546711,89.7339157 81.4835526,91.1844699 82.3263816,92.1239639 C83.1707237,93.0619277 84.6036842,93.1323133 85.53125,92.2800361 L95.1276974,83.4696024 C99.5309868,86.7777229 105.787895,86.5971687 110.000526,82.7290241 L110.000526,82.7290241 L110.000526,82.7290241 Z M95.1155921,80.378759 C91.6111184,76.4738916 91.8971053,70.4146145 95.7571711,66.8708554 C99.6202632,63.3255663 105.613882,63.6178193 109.118355,67.5211566 C112.624342,71.4260241 112.335329,77.4853012 108.475263,81.0305904 C104.615197,84.5743494 98.6215789,84.2820964 95.1155921,80.378759 L95.1155921,80.378759 L95.1155921,80.378759 Z" id="Fill-2" fill="#433F34"></path>
                    <path d="M109.236382,81.8813373 C104.907237,85.8565904 98.2069737,85.5306747 94.2757895,81.1514699 C90.3415789,76.7707349 90.6653947,69.9984217 94.9960526,66.0216386 C99.3282237,62.0433253 106.026974,62.3707711 109.958158,66.751506 C113.892368,71.1307108 113.570066,77.9030241 109.236382,81.8813373" id="Fill-3" fill="#CCC9B5"></path>
                    <path d="M46.3298684,106.347964 L53.9228947,106.347964 L53.9228947,125.693277 L46.3298684,125.693277 L46.3298684,106.347964 L46.3298684,106.347964 Z" id="Fill-4" fill="#254B5A"></path>
                    <path d="M55.5510526,106.347964 L63.1455921,106.347964 L63.1455921,125.693277 L55.5510526,125.693277 L55.5510526,106.347964 L55.5510526,106.347964 Z" id="Fill-5" fill="#254B5A"></path>
                    <path d="M39.9867105,109.466349 C34.7678289,100.311639 33.9371053,89.4018795 37.7048684,79.5341325 L44.7879605,82.3036506 C41.8524342,89.9955663 42.4985526,98.4969157 46.5659211,105.630337 L39.9867105,109.466349" id="Fill-6" fill="#F6C6A1"></path>
                    <path d="M75.9166447,96.3975904 L75.9166447,91.0115663 C75.9166447,85.331759 73.68625,79.8845301 69.7172368,75.8679639 C65.7436842,71.8513976 60.3568421,69.5944699 54.7384868,69.5944699 C49.1201316,69.5944699 43.7332895,71.8513976 39.76125,75.8679639 C35.7876974,79.8845301 33.5588158,85.331759 33.5588158,91.0115663 L33.5588158,96.3975904 L75.9166447,96.3975904" id="Fill-7" fill="#87A6AE"></path>
                    <path d="M65.6559211,81.8614458 L65.6559211,75.5359277 C65.6559211,72.6072771 64.5059211,69.799506 62.4586184,67.729253 C60.4113158,65.659 57.6346711,64.4945783 54.7384868,64.4945783 C51.8423026,64.4945783 49.0641447,65.659 47.0168421,67.729253 C44.9695395,69.799506 43.8195395,72.6072771 43.8195395,75.5359277 L43.8195395,81.8614458 L65.6559211,81.8614458" id="Fill-8" fill="#87A6AE"></path>
                    <path d="M40.3619737,89.2565181 L69.1119737,89.2565181 L69.1119737,119.349398 L40.3619737,119.349398 L40.3619737,89.2565181 L40.3619737,89.2565181 Z" id="Fill-9" fill="#87A6AE"></path>
                    <path d="M87.8872368,53.1456747 C78.9686842,69.0987108 58.9480921,74.7173133 43.1734211,65.7003133 C27.3972368,56.680253 21.8378947,36.4398193 30.7594737,20.485253 C39.6780263,4.53221687 59.6971053,-1.08944578 75.4717763,7.93214458 C91.2479605,16.9506747 96.8073026,37.1956988 87.8872368,53.1456747" id="Fill-10" fill="#F6C6A1"></path>
                    <path d="M75.4717763,7.93214458 C60.1101974,-0.850746988 40.7296711,4.24914458 31.4857895,19.2504458 C34.7088158,24.003 38.8548684,28.2337831 43.8740132,31.6428916 C58.7407895,41.7462771 77.3026974,41.9819157 92.0045395,33.8539157 C91.0678947,23.368 85.2225658,13.5063735 75.4717763,7.93214458" id="Fill-11" fill="#F1AD3A"></path>
                    <path d="M75.81375,55.3827108 C74.2975658,58.0940843 70.8929605,59.0504096 68.2101316,57.5172289 C65.5273026,55.9825181 64.5830921,52.5412771 66.1007895,49.8299036 C67.6169737,47.1154699 71.0215789,46.1622048 73.7013816,47.6938554 C76.3857237,49.2270361 77.3314474,52.6713373 75.81375,55.3827108" id="Fill-12" fill="#ED9736"></path>
                    <path d="M85.8944079,50.5781325 L89.0720395,60.5835904 L80.0233553,57.4560241 L85.8944079,50.5781325" id="Fill-13" fill="#F6C6A1"></path>
                    <path d="M81.8890789,45.7215301 C82.3278947,44.9381084 83.3144737,44.6611566 84.0892105,45.1048916 C84.8654605,45.5501566 85.1393421,46.5462651 84.7020395,47.3296867 C84.2632237,48.1131084 83.2751316,48.3915904 82.5003947,47.9493855 C81.7226316,47.5056506 81.4502632,46.5064819 81.8890789,45.7215301" id="Fill-14" fill="#30291A"></path>
                    <path d="M78.7175,45.9097349 C78.9005921,43.3727952 81.0810526,41.4677952 83.5868421,41.656 C86.0941447,41.8380843 87.9795395,44.0414578 87.7964474,46.5783976" id="Stroke-15" stroke="#30291A" stroke-width="0.369"></path>
                    <path d="M55.4935526,31.2986145 C67.1130921,37.9393373 80.6846053,37.8291687 91.7851316,32.2105663 C90.4081579,22.3489398 84.7080921,13.2125904 75.4717763,7.93214458 C63.2984211,0.970096386 48.6177632,2.75880723 38.4417763,11.2555663 C41.5301316,19.4508916 47.3542763,26.6470482 55.4935526,31.2986145" id="Fill-16" fill="#87A6AE"></path>
                    <path d="M70.9898026,5.84353012 C56.0806579,0.0795662651 38.8518421,6.00725301 30.7594737,20.485253 C29.0571711,23.5271325 27.8920395,26.7250843 27.2126316,29.972 C42.1232895,35.7298434 59.3505921,29.8052169 67.4444737,15.3302771 C69.1452632,12.2883976 70.3134211,9.08891566 70.9898026,5.84353012" id="Fill-17" fill="#87A6AE"></path>
                    <path d="M90.3158553,32.804253 C86.6630921,34.5669518 82.8514474,35.5997831 79.0428289,35.9624217 C79.1290789,31.1884458 81.8194737,26.6393976 86.3725658,24.4421446 C90.9286842,22.2479518 96.1188158,22.9961807 99.8396711,25.934012 C97.1613816,28.6974096 93.9686184,31.0430843 90.3158553,32.804253" id="Fill-18" fill="#87A6AE"></path>
                    <path d="M68.8789474,9.63975904 L67.4490132,9.14093976 L70.4874342,0.220337349 L71.9188816,0.717626506 L68.8789474,9.63975904" id="Fill-19" fill="#87A6AE"></path>
                    <path d="M14.7684211,14.312747 C9.39822368,11.7803976 4.69684211,8.38659036 0.744473684,4.37308434 C6.15855263,0.0275421687 13.7500658,-1.13228916 20.4427632,2.02587952 C27.1339474,5.18710843 31.1271711,11.8140602 31.30875,18.8051807 C25.7297368,18.3155422 20.1371053,16.8496867 14.7684211,14.312747" id="Fill-20" fill="#F1AD3A"></path>
                    <path d="M55.3573684,85.9422771 C55.3573684,86.7165181 54.7354605,87.3438675 53.9698026,87.3438675 C53.2041447,87.3438675 52.5822368,86.7165181 52.5822368,85.9422771 C52.5822368,85.166506 53.2041447,84.5391566 53.9698026,84.5391566 C54.7354605,84.5391566 55.3573684,85.166506 55.3573684,85.9422771" id="Fill-21" fill="#CCC9B5"></path>
                    <path d="M55.3573684,78.0361446 C55.3573684,78.8103855 54.7354605,79.4377349 53.9698026,79.4377349 C53.2041447,79.4377349 52.5822368,78.8103855 52.5822368,78.0361446 C52.5822368,77.2619036 53.2041447,76.6330241 53.9698026,76.6330241 C54.7354605,76.6330241 55.3573684,77.2619036 55.3573684,78.0361446" id="Fill-22" fill="#CCC9B5"></path>
                    <path d="M55.3573684,93.8468795 C55.3573684,94.6211205 54.7354605,95.25 53.9698026,95.25 C53.2041447,95.25 52.5822368,94.6211205 52.5822368,93.8468795 C52.5822368,93.0726386 53.2041447,92.4452892 53.9698026,92.4452892 C54.7354605,92.4452892 55.3573684,93.0726386 55.3573684,93.8468795" id="Fill-23" fill="#CCC9B5"></path>
                    <path d="M37.1419737,57.1714217 C29.7486842,57.1714217 23.7550658,63.233759 23.7550658,70.7114578 L37.1419737,70.7114578 L37.1419737,57.1714217" id="Fill-24" fill="#ED9736"></path>
                    <path d="M37.0753947,57.1714217 L37.0753947,67.9985542 L26.3698026,67.9985542 C26.3698026,73.9782651 31.1634868,78.8256867 37.0753947,78.8256867 C42.9903289,78.8256867 47.7840132,73.9782651 47.7840132,67.9985542 C47.7840132,62.0188434 42.9903289,57.1714217 37.0753947,57.1714217" id="Fill-25" fill="#254B5A"></path>
                    <path d="M38.4175658,61.6944578 C38.4266447,60.5009639 39.3920395,59.5415783 40.5707895,59.550759 C41.7525658,59.5599398 42.6998026,60.5361566 42.6922368,61.7296506" id="Stroke-26" stroke="#CCC9B5" stroke-width="0.173"></path>
                    <path d="M39.8974342,61.5093133 C40.0805263,61.1298434 40.5329605,60.9691807 40.91125,61.1527952 C41.2865132,61.3364096 41.4453947,61.7969759 41.2638158,62.1764458 C41.0807237,62.5589759 40.6282895,62.7181084 40.2530263,62.534494 C39.8717105,62.3493494 39.7158553,61.8918434 39.8974342,61.5093133" id="Fill-27" fill="#CCC9B5"></path>
                </g>
            </g>
        </g>
    </g>
</svg>