<?xml version="1.0" encoding="utf-8"?>
<!-- Generator: Adobe Illustrator 19.2.1, SVG Export Plug-In . SVG Version: 6.00 Build 0)  -->
<svg version="1.1" id="Ebene_1" xmlns="http://www.w3.org/2000/svg" xmlns:xlink="http://www.w3.org/1999/xlink" x="0px" y="0px"
	 viewBox="0 0 28.7 49.3" style="enable-background:new 0 0 28.7 49.3;" xml:space="preserve">
<style type="text/css">
	.st0{fill:#FFFFFF;}
</style>
<g>
	<path class="st0" d="M20.2,24.2c-0.6-0.3-1.2-0.5-1.6-0.9C12.8,17.5,7.1,11.7,1.3,5.9c-1.7-1.7-1.7-2.1,0-3.9
		c2.8-2.8,2.8-2.8,5.5,0C13.7,9,20.6,15.8,27.5,22.7c1.7,1.7,1.7,2.1,0,3.9c-7.2,7.2-14.3,14.3-21.5,21.5c-1.7,1.7-2.1,1.6-3.7,0
		c-2.9-2.8-2.9-2.8,0-5.7c5.5-5.5,11.1-11,16.6-16.6C19.1,25.5,19.4,25.1,20.2,24.2z"/>
</g>
</svg>
