<?xml version="1.0" encoding="utf-8"?>
<!-- Generator: Adobe Illustrator 18.0.0, SVG Export Plug-In . SVG Version: 6.00 Build 0)  -->
<!DOCTYPE svg PUBLIC "-//W3C//DTD SVG 1.1//EN" "http://www.w3.org/Graphics/SVG/1.1/DTD/svg11.dtd">
<svg version="1.1" id="Ebene_1" xmlns="http://www.w3.org/2000/svg" xmlns:xlink="http://www.w3.org/1999/xlink" x="0px" y="0px"
	 width="71.2px" height="80.9px" viewBox="0 0 71.2 80.9" enable-background="new 0 0 71.2 80.9" xml:space="preserve">
<g>
	<g>
		<g>
			<path fill="#FFB700" d="M11.1,14C7.2,14,3.5,13.3,0,12c2-4.1,6.3-6.9,11.1-6.9s9.1,2.8,11.1,6.9C18.8,13.3,15,14,11.1,14z"/>
			<g>
				<circle fill="#FBD0AE" cx="41.7" cy="21.8" r="21.8"/>
				<path fill="#FFB700" d="M46.4,9.7l1.5,5.5c4.6-0.5,9.1-1.6,13.3-3.1C57.6,4.9,50.3,0,41.7,0c-8.5,0-15.9,4.9-19.5,12.1
					c6.1,2.2,12.6,3.4,19.5,3.4c1.6,0,3.1-0.1,4.7-0.2V9.7z"/>
				<g>
					<circle opacity="0.76" fill="#F5A10C" cx="53.3" cy="26.9" r="3.7"/>
					<circle opacity="0.76" fill="#F5A10C" cx="30.2" cy="26.9" r="3.7"/>
				</g>
				<g>
					<circle fill="#40301A" cx="47.5" cy="24" r="1.1"/>
					<circle fill="#40301A" cx="36" cy="24" r="1.1"/>
				</g>
				<path fill="none" stroke="#40301A" stroke-width="0.4239" stroke-linecap="round" stroke-miterlimit="10" d="M44.8,26.5
					c-0.7,0.5-1.7,0.9-2.8,0.9h-0.6c-1.1-0.1-2.1-0.4-2.8-0.9"/>
				<path fill="none" stroke="#40301A" stroke-width="0.3706" stroke-linecap="round" stroke-miterlimit="10" d="M46,22.4
					c0.8-0.8,2.1-0.8,2.9,0"/>
				<path fill="none" stroke="#40301A" stroke-width="0.3706" stroke-linecap="round" stroke-miterlimit="10" d="M34.5,22.4
					c0.8-0.8,2.1-0.8,2.9,0"/>
			</g>
		</g>
		<path fill="#EF8212" d="M49.3,67.4V52.6c0-2-0.8-3.9-2.2-5.2c-1.4-1.4-3.3-2.2-5.2-2.2c-2,0-3.9,0.8-5.2,2.2
			c-1.4,1.4-2.2,3.3-2.2,5.2v14.8H49.3z"/>
		<rect x="36.4" y="68.3" fill="#165265" width="5" height="12.6"/>
		<rect x="42.5" y="68.3" fill="#165265" width="5" height="12.6"/>
		<g>
			<g>
				<polygon fill="#40301A" points="66.7,62.3 41.9,71.4 41.9,31.5 66.7,22.4 				"/>
				<polygon fill="#D9D5C1" points="41.9,71.4 17,62.3 17,22.4 41.9,31.5 				"/>
			</g>
			<circle fill="#FBD0AE" cx="17" cy="40" r="3.7"/>
			<circle fill="#FBD0AE" cx="66.7" cy="40" r="3.7"/>
		</g>
	</g>
	<g>
		<g>
			<path fill="#F5A10C" d="M64,14c-5,0-9,4-9,9h9V14z"/>
			<path fill="#165265" d="M64,14v7.2h-7.2c0,4,3.2,7.2,7.2,7.2s7.2-3.2,7.2-7.2C71.2,17.2,68,14,64,14z"/>
			<path fill="none" stroke="#D9D5C1" stroke-width="0.1774" stroke-linecap="round" stroke-miterlimit="10" d="M64.9,17
				c0-0.8,0.7-1.4,1.5-1.4c0.8,0,1.4,0.7,1.4,1.5"/>
			<circle fill="#D9D5C1" cx="66.3" cy="17.1" r="0.5"/>
		</g>
	</g>
</g>
<g>
</g>
<g>
</g>
<g>
</g>
<g>
</g>
<g>
</g>
<g>
</g>
</svg>
