<?xml version="1.0" encoding="utf-8"?>
<!-- Generator: Adobe Illustrator 18.0.0, SVG Export Plug-In . SVG Version: 6.00 Build 0)  -->
<!DOCTYPE svg PUBLIC "-//W3C//DTD SVG 1.1//EN" "http://www.w3.org/Graphics/SVG/1.1/DTD/svg11.dtd">
<svg version="1.1" id="Ebene_1" xmlns="http://www.w3.org/2000/svg" xmlns:xlink="http://www.w3.org/1999/xlink" x="0px" y="0px"
	 width="74.3px" height="91.4px" viewBox="0 0 74.3 91.4" enable-background="new 0 0 74.3 91.4" xml:space="preserve">
<g>
	<g>
		<g>
			<g>
				<g>
					<circle fill="#FBD0AE" cx="51.2" cy="31.9" r="21.7"/>
					<path fill="#FFB700" d="M39.8,13.5c-9.9,6.2-13.1,19-7.5,29.1c3.7-0.4,7.5-1.5,11-3.3C53.9,33.8,59.9,23.1,59.9,12
						C53.6,9.3,46.1,9.6,39.8,13.5z"/>
					<circle fill="#F5A10C" cx="64" cy="30.1" r="3.7"/>
					<polygon fill="#FBD0AE" points="67.5,20.8 74.3,22.1 69.6,26.4 					"/>
					<circle fill="#40301A" cx="64.4" cy="21" r="1.1"/>
					<path fill="none" stroke="#40301A" stroke-width="0.3694" stroke-linecap="round" stroke-miterlimit="10" d="M62.6,23.5
						c-1.4-0.9-1.8-2.8-0.9-4.2c0.9-1.4,2.8-1.8,4.2-0.9"/>
				</g>
			</g>
			<path fill="#FFB700" d="M24.2,50.7c-3.2,2.3-6.6,4-10.1,5c-0.8-4.5,1-9.3,4.9-12.2c3.9-2.9,9-3.1,13.1-1
				C30,45.6,27.3,48.4,24.2,50.7z"/>
		</g>
		<path fill="#0E8B32" d="M60.1,77.9V63.1c0-2-0.8-3.9-2.2-5.3c-1.4-1.4-3.3-2.2-5.3-2.2c-2,0-3.9,0.8-5.3,2.2
			c-1.4,1.4-2.2,3.3-2.2,5.3v14.8H60.1z"/>
		<rect x="47.1" y="78.8" fill="#165265" width="5" height="12.6"/>
		<rect x="53.2" y="78.8" fill="#165265" width="5" height="12.6"/>
		<path fill="#0E8B32" d="M38.5,75.8C37.7,69,40,62.2,44.8,57.2l3.6,3.5c-3.8,3.9-5.5,9.1-4.9,14.5L38.5,75.8z"/>
		<path fill="#0E8B32" d="M57.5,63.2c6.9-0.8,12.9-4.6,16.6-10.4l-4.2-2.7c-2.9,4.5-7.6,7.5-13,8.1L57.5,63.2z"/>
	</g>
	<circle fill="#FFB700" cx="26" cy="25.7" r="1.5"/>
	<circle fill="#FFB700" cx="20.6" cy="23.3" r="3.1"/>
	<path fill="#FFB700" d="M10.9,0C4.9,0,0,4.9,0,10.9c0,6,4.9,10.9,10.9,10.9c6,0,10.9-4.9,10.9-10.9C21.9,4.9,17,0,10.9,0z M12.1,17
		H9.5v-2.5h2.6V17z M14.8,9.4c-0.1,0.3-0.3,0.6-0.5,0.9c-0.2,0.2-0.4,0.4-0.7,0.6c-0.2,0.2-0.5,0.3-0.7,0.5
		c-0.2,0.2-0.4,0.4-0.6,0.6c-0.2,0.2-0.3,0.5-0.3,0.8v0.6H9.8v-0.7c0-0.5,0.1-0.9,0.3-1.2c0.1-0.3,0.3-0.6,0.5-0.8
		c0.2-0.2,0.4-0.4,0.6-0.6c0.2-0.2,0.4-0.3,0.6-0.5c0.2-0.2,0.3-0.3,0.5-0.5c0.1-0.2,0.2-0.4,0.2-0.7c0-0.5-0.1-0.9-0.4-1.1
		c-0.2-0.2-0.6-0.4-1-0.4c-0.3,0-0.6,0.1-0.8,0.2C10,7.1,9.8,7.3,9.7,7.5C9.6,7.7,9.5,7.9,9.4,8.1C9.3,8.4,9.3,8.7,9.3,9H6.9
		c0-0.6,0.1-1.1,0.3-1.6C7.4,6.8,7.6,6.4,8,6.1c0.3-0.4,0.8-0.6,1.3-0.9c0.5-0.2,1-0.3,1.6-0.3c0.8,0,1.4,0.1,2,0.3
		c0.5,0.2,0.9,0.5,1.3,0.8c0.3,0.3,0.5,0.7,0.7,1c0.1,0.4,0.2,0.7,0.2,1C15,8.6,14.9,9,14.8,9.4z"/>
	<g>
		<g>
			<path fill="#F5A10C" d="M42.3,3c-4.9,0-8.8,4-8.8,8.8h8.8V3z"/>
			<path fill="#165265" d="M42.2,3V10h-7.1c0,3.9,3.2,7.1,7.1,7.1c3.9,0,7.1-3.2,7.1-7.1C49.3,6.1,46.1,3,42.2,3z"/>
			<path fill="none" stroke="#D9D5C1" stroke-width="0.1735" stroke-linecap="round" stroke-miterlimit="10" d="M43.1,5.9
				c0-0.8,0.6-1.4,1.4-1.4c0.8,0,1.4,0.6,1.4,1.4"/>
			<circle fill="#D9D5C1" cx="44.5" cy="6" r="0.5"/>
		</g>
	</g>
</g>
<g>
</g>
<g>
</g>
<g>
</g>
<g>
</g>
<g>
</g>
<g>
</g>
</svg>
