<?xml version="1.0" encoding="utf-8"?>
<!-- Generator: Adobe Illustrator 18.0.0, SVG Export Plug-In . SVG Version: 6.00 Build 0)  -->
<!DOCTYPE svg PUBLIC "-//W3C//DTD SVG 1.1//EN" "http://www.w3.org/Graphics/SVG/1.1/DTD/svg11.dtd">
<svg version="1.1" id="Ebene_1" xmlns="http://www.w3.org/2000/svg" xmlns:xlink="http://www.w3.org/1999/xlink" x="0px" y="0px"
	 width="204.7px" height="89.5px" viewBox="0 0 204.7 89.5" enable-background="new 0 0 204.7 89.5" xml:space="preserve">
<g>
	<g>
		<circle fill="#FBD0AE" cx="96.5" cy="29.5" r="22.3"/>
		<circle fill="#F5A10C" cx="108.6" cy="34.9" r="3.8"/>
		<polygon fill="#FBD0AE" points="116.8,28.7 122,33.5 115.6,34.7 		"/>
		<circle fill="#40301A" cx="113.9" cy="27.2" r="1.1"/>
		<path fill="none" stroke="#40301A" stroke-width="0.3804" stroke-linecap="round" stroke-miterlimit="10" d="M111,28.4
			c-0.7-1.5-0.1-3.4,1.5-4.1c1.5-0.7,3.4-0.1,4.1,1.5"/>
	</g>
	<path fill="#EF8212" d="M103.5,76V61.2c0-2-0.8-3.9-2.2-5.2c-1.4-1.4-3.3-2.2-5.2-2.2c-2,0-3.9,0.8-5.2,2.2
		c-1.4,1.4-2.2,3.3-2.2,5.2V76H103.5z"/>
	<rect x="90.5" y="76.9" fill="#FBD0AE" width="5" height="12.6"/>
	<rect x="96.6" y="76.9" fill="#FBD0AE" width="5" height="12.6"/>
	<path fill="#40301A" d="M101.3,17.1l1.6,5.6c4.7-0.5,9.3-1.6,13.6-3.2c-3.7-7.3-11.2-12.4-20-12.4c-8.8,0-16.3,5-20,12.4
		c6.2,2.3,13,3.5,20,3.5c1.6,0,3.2-0.1,4.8-0.2V17.1z"/>
	<path fill="#40301A" d="M79.5,15.2c-3.3,3.9-5.4,9-5.4,14.5c0,1.6,0.2,3.3,0.5,4.8c3.8-3,6.2-7.6,6.2-12.8
		C80.9,19.3,80.4,17.1,79.5,15.2z"/>
	<circle fill="#40301A" cx="96.5" cy="7.4" r="7.4"/>
	<path fill="#EF8212" d="M74.4,63c4.6-5.2,11.1-8,18-7.7l-0.2,5c-5.4-0.2-10.5,2-14.1,6L74.4,63z"/>
	<path fill="#EF8212" d="M99.7,59.8c5.9,3.6,13,4.4,19.5,2l-1.7-4.7c-5.1,1.8-10.6,1.2-15.2-1.6L99.7,59.8z"/>
</g>
<g>
	<path fill="#0E8B32" d="M150.1,76V61.2c0-2,0.8-3.9,2.2-5.2c1.4-1.4,3.3-2.2,5.2-2.2c2,0,3.9,0.8,5.2,2.2c1.4,1.4,2.2,3.3,2.2,5.2
		V76H150.1z"/>
	<rect x="158.1" y="76.9" fill="#165265" width="5" height="12.6"/>
	<rect x="152" y="76.9" fill="#165265" width="5" height="12.6"/>
	<path fill="#0E8B32" d="M163,62.2c6.7-1.4,12.4-5.8,15.5-12l-4.5-2.3c-2.4,4.8-6.8,8.2-12.1,9.3L163,62.2z"/>
	<path fill="#0E8B32" d="M153.3,64.3c-6.7,1.6-13.7,0.1-19.2-4.1l3.1-4c4.3,3.3,9.7,4.5,14.9,3.2L153.3,64.3z"/>
	<g>
		<g>
			<g>
				<circle fill="#FBD0AE" cx="157.3" cy="30.5" r="22.4"/>
				<path fill="#FFB700" d="M157.3,8.1c12,0,21.9,9.5,22.4,21.5c-3.5,1.7-7.4,2.8-11.5,3.1c-12.2,0.9-23.3-5.2-29.3-14.9
					C142.9,11.9,149.6,8.1,157.3,8.1z"/>
				<circle fill="#F5A10C" cx="145.1" cy="35.9" r="3.8"/>
				<polygon fill="#FBD0AE" points="136.9,29.7 131.7,34.5 138.1,35.7 				"/>
				<circle fill="#40301A" cx="139.8" cy="28.2" r="1.1"/>
				<path fill="none" stroke="#40301A" stroke-width="0.3817" stroke-linecap="round" stroke-miterlimit="10" d="M142.7,29.3
					c0.7-1.6,0.1-3.4-1.5-4.1c-1.6-0.7-3.4-0.1-4.1,1.5"/>
			</g>
		</g>
		<path fill="#FFB700" d="M191.2,32.3c4,0.3,8-0.1,11.6-1.1c-1.8-4.4-5.9-7.6-10.9-8c-5-0.4-9.6,2.2-12,6.2
			C183.4,31,187.2,32,191.2,32.3z"/>
	</g>
</g>
<g>
	<g>
		<circle fill="#FBD0AE" cx="57.5" cy="64.9" r="8.8"/>
		<circle fill="#F5A10C" cx="62" cy="62.3" r="1.5"/>
		<polygon fill="#FBD0AE" points="61.9,58.2 64.6,57.7 63.5,60 		"/>
		<circle fill="#40301A" cx="60.7" cy="58.8" r="0.4"/>
		<path fill="none" stroke="#40301A" stroke-width="0.1505" stroke-linecap="round" stroke-miterlimit="10" d="M60.4,60
			c-0.7-0.1-1.1-0.8-1-1.4c0.1-0.7,0.8-1.1,1.4-1"/>
	</g>
	<circle fill="#40301A" cx="67.5" cy="87.3" r="2"/>
	<circle fill="#40301A" cx="47.4" cy="87.3" r="2"/>
	<path fill="#40301A" d="M77.1,64.9H57.5V45.3c-10.8,0-19.6,8.8-19.6,19.6c0,0,0,0,0,0.1c0,0,0,0,0,0.1c0,10.8,8.8,19.6,19.6,19.6
		C68.3,84.6,77.1,75.8,77.1,64.9C77.1,65,77.1,65,77.1,64.9z"/>
	<path fill="none" stroke="#40301A" stroke-width="2" stroke-linecap="round" stroke-miterlimit="10" d="M76.1,65.4
		C76.1,65.4,76.1,65.4,76.1,65.4c0-2.8,2.3-5.1,5.1-5.1"/>
</g>
<g>
	<path fill="#278B85" d="M31.7,76.3V61.5c0-2-0.8-3.9-2.2-5.2c-1.4-1.4-3.3-2.2-5.2-2.2c-2,0-3.9,0.8-5.2,2.2
		c-1.4,1.4-2.2,3.3-2.2,5.2v14.8H31.7z"/>
	<path fill="#278B85" d="M11.8,74.8c-1.6-6.7-0.1-13.7,4.1-19.2l4,3.1c-3.3,4.3-4.5,9.7-3.2,14.9L11.8,74.8z"/>
	<path fill="#278B85" d="M27.7,59.9c3.6,5.9,9.6,9.8,16.5,10.6l0.6-5c-5.3-0.7-10-3.7-12.8-8.3L27.7,59.9z"/>
	<rect x="18.7" y="77.2" fill="#165265" width="5" height="12.6"/>
	<rect x="24.8" y="77.2" fill="#165265" width="5" height="12.6"/>
	<g>
		<circle fill="#FBD0AE" cx="24.8" cy="29.7" r="22.3"/>
		<path fill="#40301A" d="M13.9,10.2C7.1,14,2.5,21.3,2.5,29.7s4.6,15.7,11.4,19.5c6.8-3.8,11.4-11.1,11.4-19.5S20.7,14,13.9,10.2z"
			/>
		<circle fill="#F5A10C" cx="36.9" cy="35" r="3.8"/>
		<polygon fill="#FBD0AE" points="45.1,28.8 50.3,33.6 43.9,34.8 		"/>
		<circle fill="#40301A" cx="42.2" cy="27.3" r="1.1"/>
		<path fill="none" stroke="#40301A" stroke-width="0.3804" stroke-linecap="round" stroke-miterlimit="10" d="M39.3,28.5
			c-0.7-1.5-0.1-3.4,1.5-4.1c1.5-0.7,3.4-0.1,4.1,1.5"/>
		<g>
			<path fill="#40301A" d="M3.2,24.2c4.5,3.2,10.1,5.1,16.1,5.1c9.9,0,18.6-5.2,23.5-12.9c-4.1-5.5-10.6-9-17.9-9
				C14.4,7.3,5.7,14.5,3.2,24.2z"/>
		</g>
		<path fill="#40301A" d="M46.3,34.5c-2.4,0-4.5,1.2-5.7,3.1h5.1c0.4-1,0.7-2.1,0.9-3.1C46.5,34.5,46.4,34.5,46.3,34.5z"/>
	</g>
</g>
<g>
</g>
<g>
</g>
<g>
</g>
<g>
</g>
<g>
</g>
<g>
</g>
</svg>
