<svg xmlns="http://www.w3.org/2000/svg" xmlns:xlink="http://www.w3.org/1999/xlink" width="37" height="52.3" viewBox="0 0 37 52.3"><style>.st0{clip-path:url(#SVGID_2_);} .st1{fill:#423320;} .st2{fill:#FFCFAB;} .st3{fill:none;stroke:#423320;stroke-width:0.4343;stroke-linecap:round;stroke-miterlimit:10;} .st4{fill:#DD976E;} .st5{fill:#188936;} .st6{fill:#BC472C;} .st7{clip-path:url(#SVGID_4_);}</style><defs><path id="SVGID_1_" d="M0 0h37v39.9H0z"/></defs><clipPath id="SVGID_2_"><use xlink:href="#SVGID_1_" overflow="visible"/></clipPath><g class="st0"><path class="st1" d="M23.8 52.3V41.8c0-1.4-.6-2.8-1.6-3.8s-2.4-1.6-3.8-1.6-2.8.6-3.8 1.6-1.6 2.4-1.6 3.8v10.5h10.8z"/><circle class="st2" cx="18.3" cy="18.7" r="16.3"/><path class="st3" d="M13 19.2c.6-.6 1.6-.6 2.2 0M21.6 19.2c.6-.6 1.6-.6 2.2 0"/><circle class="st1" cx="14.1" cy="20.4" r=".8"/><circle class="st1" cx="22.7" cy="20.4" r=".8"/><path class="st3" d="M20.6 22.3c-.5.4-1.3.7-2.1.7h-.4c-.8 0-1.6-.3-2.1-.7"/><path class="st4" d="M9.7 19.9c1.5 0 2.8 1.2 2.8 2.8 0 1.5-1.2 2.8-2.8 2.8S7 24.2 7 22.6c0-1.5 1.2-2.7 2.7-2.7zM27 19.9c1.5 0 2.8 1.2 2.8 2.8 0 1.5-1.2 2.8-2.8 2.8s-2.8-1.2-2.8-2.8c0-1.6 1.3-2.8 2.8-2.8z"/><path class="st5" d="M33 11.5c-2.7-5.4-8.2-9-14.6-9s-11.9 3.7-14.6 9c4.6 1.7 9.5 2.6 14.6 2.6s10-.9 14.6-2.6z"/><path class="st6" d="M28.5 49.6c-.1-3.9-2-7.5-5.1-9.9l2.2-2.9c4 3 6.4 7.7 6.5 12.7l-3.6.1z"/><path class="st2" d="M29.7 41.2c1.5 2.5 2.4 5.3 2.5 8.3l-3.6.1c-.1-2.4-.8-4.7-2.1-6.6l3.2-1.8z"/><g><path class="st6" d="M4.5 29.5c1.4 3.7 4.3 6.5 8.1 7.7l-1.1 3.5C6.7 39.1 3 35.6 1.2 30.9l3.3-1.4z"/><path class="st2" d="M6.2 37.8c-2.3-1.8-4-4.2-5.1-7l3.4-1.3c.9 2.2 2.3 4.1 4.1 5.6l-2.4 2.7z"/></g><path class="st1" d="M18.3 14.1c2.9 0 5.7-.3 8.5-.8-1.4 3.2-4.7 5.5-8.4 5.5-3.8 0-7-2.3-8.4-5.5 2.7.5 5.5.8 8.3.8z"/></g></svg>