<svg xmlns="http://www.w3.org/2000/svg" width="1148" height="326" viewBox="0 0 1148 326">
  <g fill="none" fill-rule="evenodd" opacity=".75">
    <path fill="#40301A" fill-rule="nonzero" d="M1147.42224,324.177868 C1147.5378,321.866439 1147.5378,319.786154 1147.5378,317.532511 C1147.5378,201.845507 1053.82587,108.174861 938.217011,108.174861 C822.665929,108.174861 728.83845,201.787721 728.83845,317.532511 L728.83845,324.177868 L1147.42224,324.177868 Z" opacity=".1"/>
    <g fill-rule="nonzero" opacity=".3" transform="translate(0 47.962)">
      <path fill="#40301A" d="M508.30921,275.926795 L508.30921,276.215724 L542.743432,276.215724 L542.743432,18.4914292 C542.743432,13.7530005 541.010166,9.13014316 537.71696,5.77857162 C534.539305,2.31142865 530.090589,0.404500014 525.584097,0.404500014 C521.077604,0.404500014 516.686663,2.31142865 513.451233,5.72078591 C510.215803,9.07235745 508.366985,13.6952147 508.366985,18.4336435 L508.366985,116.669361 C508.251434,158.852934 491.496527,199.302935 461.568797,229.178151 C431.756618,259.053366 391.198188,275.869009 348.906492,275.869009 L508.424761,275.869009 L508.30921,275.926795 Z"/>
      <path fill="#875726" d="M0.115551082,69.6317881 L0.115551082,276.100152 L278.882536,276.100152 C244.390539,276.100152 211.285153,262.404937 186.8461,237.961579 C162.464821,213.576007 148.714243,180.464792 148.714243,145.908933 L148.714243,69.6317881 C148.714243,51.5448589 140.914545,34.2669297 126.932864,21.4962864 C113.066734,8.78342887 94.1163563,1.56021434 74.3571213,1.56021434 C54.7134373,1.56021434 35.8208354,8.72564315 21.89693,21.4962864 C7.91524912,34.209144 0.057775541,51.5448589 0.057775541,69.6317881 L0.115551082,69.6317881 Z" opacity=".8"/>
    </g>
    <path fill="#40301A" fill-rule="nonzero" d="M393.740312,324.177868 L393.740312,319.381654 C393.740312,236.343579 326.489582,169.02322 243.523905,169.02322 C160.558228,169.02322 93.018621,236.343579 93.018621,319.381654 C93.018621,320.999654 93.1341721,322.559868 93.1919477,324.177868 L393.740312,324.177868 Z" opacity=".2"/>
    <path fill="#875726" fill-rule="nonzero" d="M745.304479,324.177868 L745.304479,321.982011 C745.304479,283.438938 714.105687,252.176866 675.511626,252.176866 C636.917564,252.176866 605.718772,283.381152 605.718772,321.982011 L605.718772,324.177868 L745.304479,324.177868 Z M410.784097,324.177868 L410.784097,252.350223 C410.784097,243.682365 407.317564,235.187865 401.193357,229.004793 C395.011374,222.821722 386.63392,219.354579 377.852038,219.354579 C369.185707,219.354579 360.692703,222.821722 354.51072,229.004793 C348.328737,235.187865 344.91998,243.566794 344.91998,252.350223 L344.91998,324.177868 L410.784097,324.177868 Z" opacity=".6"/>
    <path fill="#AF1D3F" fill-rule="nonzero" d="M509.291394,322.791011 L509.291394,320.479582 C509.291394,279.567295 474.626069,246.398294 431.98772,246.398294 C389.23382,246.398294 354.568495,279.567295 354.568495,320.479582 C354.568495,321.288582 354.568495,322.097582 354.741822,322.791011 L509.291394,322.791011 Z" opacity=".3"/>
    <path fill="#875726" fill-rule="nonzero" d="M661.298842,324.177868 L661.298842,323.253297 C661.298842,307.362225 674.182788,294.47601 690.071062,294.47601 C705.959336,294.47601 718.843281,307.362225 718.843281,323.253297 L718.843281,324.177868 L661.298842,324.177868 Z" opacity=".6"/>
    <path fill="#AF1D3F" fill-rule="nonzero" d="M1099.35299,324.177868 L1099.46855,321.750868 C1099.46855,279.220581 1065.03432,244.895865 1022.62708,244.895865 C980.046502,244.895865 945.670055,279.220581 945.670055,321.750868 L945.670055,324.177868 L1099.35299,324.177868 Z" opacity=".3"/>
    <path fill="#165265" fill-rule="nonzero" d="M855.078007,324.177868 L855.078007,269.859295 C855.078007,263.329509 852.420332,256.97308 847.740513,252.292437 C843.11847,247.66958 836.763161,245.011437 830.118973,245.011437 C823.532562,245.011437 817.177252,247.611794 812.497433,252.292437 C807.87539,256.915294 805.217715,263.271723 805.217715,269.91708 L805.217715,324.235654 L855.020232,324.235654 L855.078007,324.177868 Z" opacity=".3"/>
    <path fill="#875726" fill-rule="nonzero" d="M730.513941,205.71715 L730.513941,324.177868 L828.501258,324.177868 L828.501258,205.71715 C828.501258,192.773149 823.301459,180.291435 814.172924,171.04572 C804.928837,161.800005 792.507096,156.714862 779.507599,156.714862 C766.508103,156.714862 754.086361,161.915577 744.842275,171.161291 C735.598188,180.407006 730.39839,192.773149 730.513941,205.832721 L730.513941,205.71715 Z M760.961651,215.251793 C760.961651,204.50365 769.743533,195.835792 780.432008,195.835792 C791.178259,195.835792 799.84459,204.50365 799.84459,215.194007 C799.84459,225.94215 791.178259,234.610008 780.432008,234.610008 C769.685757,234.610008 761.019426,225.94215 761.019426,215.251793 L760.961651,215.251793 Z" opacity=".6"/>
    <path fill="#524738" fill-rule="nonzero" d="M698.852944,246.282723 L698.852944,324.177868 L759.748364,324.177868 L759.748364,246.340508 C759.748364,238.250508 756.512934,230.507222 750.850931,224.786436 C745.073377,219.123436 737.38923,215.887436 729.300654,215.887436 C721.212079,215.887436 713.470156,219.06565 707.750377,224.786436 C702.030599,230.507222 698.795169,238.250508 698.852944,246.282723 Z M717.803322,252.234651 C717.803322,245.589294 723.176447,240.215222 729.820634,240.215222 C736.464821,240.215222 741.837947,245.589294 741.837947,252.234651 C741.837947,258.880009 736.464821,264.25408 729.820634,264.25408 C723.176447,264.25408 717.687771,258.822223 717.803322,252.234651 Z" opacity=".7"/>
    <path fill="#524738" fill-rule="nonzero" d="M541.356819,89.5678602 C550.600906,81.1889313 563.080423,76.4505026 576.022144,76.4505026 C588.963865,76.4505026 601.558933,81.1889313 610.687469,89.6256459 C619.816004,98.0623604 625.131354,109.561718 625.131354,121.40779 L625.131354,238.134937 C625.131354,261.01808 634.202114,282.861081 650.32149,298.983296 C666.498641,315.163296 688.337796,324.177868 711.101359,324.177868 L527.144036,324.177868 L527.144036,121.350004 C527.144036,109.503932 532.343835,98.0623604 541.47237,89.5678602 L541.356819,89.5678602 Z" opacity=".5"/>
    <path fill="#165265" fill-rule="nonzero" d="M815.212884,38.1385727 C813.075189,36.0005012 810.186412,34.8447869 807.124308,34.8447869 L806.084348,34.8447869 L806.084348,32.7645011 C806.084348,25.8302152 803.368898,19.3004292 798.573528,14.4464291 C793.778158,9.59242889 787.01842,6.93428595 780.200906,6.93428595 C773.267841,6.93428595 766.739205,9.59242889 761.886059,14.4464291 C759.575038,16.7578577 757.668445,19.5315721 756.397383,22.5364293 C753.335279,19.7627149 749.464318,18.2602863 745.304479,18.2602863 C740.913538,18.2602863 736.753699,19.9938578 733.63382,23.1142865 C730.571716,26.2347152 728.83845,30.3952867 728.83845,34.7870012 L728.83845,35.9427155 C727.27851,35.2492869 725.718571,34.7870012 724.04308,34.7870012 C721.038752,34.7870012 718.149975,36.0582869 715.954504,38.1385727 C713.93236,40.2766442 712.77685,43.1081443 712.77685,46.1130015 L712.77685,50.0424303 L818.563865,50.0424303 L818.563865,46.1130015 C818.563865,43.2237157 817.235028,40.3344299 815.097333,38.1385727 L815.212884,38.1385727 Z" opacity=".3"/>
    <path fill="#D9D5C1" fill-rule="nonzero" d="M723.349774,42.8770014 C722.078712,41.6057157 720.345445,40.8545014 718.496628,40.8545014 L717.803322,40.8545014 L717.803322,39.5832156 C717.803322,35.422644 716.070055,31.4932153 713.181278,28.4883581 C710.292501,25.5990723 706.248213,23.8655008 702.203926,23.8655008 C697.986311,23.8655008 693.999799,25.5990723 691.053246,28.4883581 C689.666633,29.933001 688.568898,31.6087868 687.817816,33.400144 C685.968998,31.6665725 683.600201,30.7997867 681.115853,30.7997867 C678.458178,30.7997867 675.916054,31.8399296 674.067237,33.6890726 C672.21842,35.5960012 671.17846,38.1385727 671.17846,40.7967157 L671.17846,41.4901443 C670.196276,41.0856442 669.214092,40.9122871 668.289683,40.9122871 C666.440866,40.9122871 664.649824,41.4901443 663.378762,42.8770014 C662.223251,44.1482872 661.414394,45.8818587 661.414394,47.7310016 L661.414394,50.0424303 L725.487469,50.0424303 L725.487469,47.7310016 C725.487469,45.8818587 724.736387,44.1482872 723.465325,42.8770014 L723.349774,42.8770014 Z" opacity=".3"/>
    <path fill="#165265" fill-rule="nonzero" d="M272.411676,30.4530725 L272.411676,33.5157154 L354.626271,33.5157154 L354.626271,30.4530725 C354.626271,28.1416438 353.759638,25.9457866 352.084147,24.2700008 C350.466432,22.6520008 348.213186,21.6696436 345.902164,21.6696436 C344.573327,21.6696436 343.302265,22.0163579 342.146754,22.5364293 L342.146754,21.6696436 C342.146754,18.2025006 340.817916,15.0242862 338.391344,12.5972861 C336.080322,10.1702861 332.729341,8.78342887 329.320584,8.78342887 C326.142929,8.78342887 323.080825,9.93914319 320.654253,12.1350004 C319.729844,9.82357176 318.343231,7.68550026 316.436638,5.77857162 C312.681228,2.08028578 307.539205,0 302.223855,0 C296.908505,0 291.824258,2.08028578 288.011072,5.77857162 C284.255662,9.59242889 282.233518,14.7353576 282.233518,20.0516435 L282.233518,21.785215 C281.886865,21.6696436 281.540211,21.6696436 281.309109,21.6696436 C278.998088,21.6696436 276.687066,22.594215 275.127126,24.2700008 C273.567187,26.0035723 272.585003,28.1416438 272.527227,30.4530725 L272.411676,30.4530725 Z" opacity=".5"/>
    <path fill="#165265" fill-rule="nonzero" d="M344.91998,31.7821439 L344.91998,33.5157154 L394.606945,33.5157154 L394.606945,31.7821439 C394.606945,30.2797153 394.02919,28.8928581 393.047006,27.9105009 C392.064821,26.9281438 390.735984,26.3502866 389.291595,26.3502866 C388.540513,26.3502866 387.789431,26.5236437 386.980574,26.9281438 L386.980574,26.3502866 C386.980574,24.2700008 386.171716,22.3052865 384.669552,20.8606436 C383.340715,19.4160007 381.318571,18.5492149 379.296427,18.5492149 C377.332058,18.5492149 375.483241,19.3582149 374.096628,20.6295007 C373.518873,19.2426435 372.65224,17.913572 371.496729,16.8156434 C369.185707,14.5042148 366.123603,13.3485004 362.830398,13.3485004 C359.652743,13.3485004 356.590639,14.5042148 354.279618,16.8156434 C351.968596,19.1270721 350.813085,22.189715 350.813085,25.4835009 L350.813085,26.465858 L350.23533,26.465858 C348.733166,26.465858 347.346553,27.0437152 346.422144,27.9682867 C345.43996,29.0084295 344.862204,30.2797153 344.91998,31.7821439 L344.91998,31.7821439 Z" opacity=".3"/>
    <path fill="#AF1D3F" fill-rule="nonzero" d="M527.028485,22.9409293 C536.734776,22.6520008 544.938903,30.2219296 545.170005,39.9299299 L527.606241,40.5077871 L527.028485,22.9987151 L527.028485,22.9409293 Z"/>
    <path fill="#40301A" fill-rule="nonzero" d="M513.509009,37.4451441 C513.740111,45.1884301 520.268747,51.313716 527.952894,51.0247874 C535.752592,50.7936446 541.819024,44.2638586 541.587921,36.5783584 L527.548465,36.9828584 L527.144036,22.9409293 C519.402114,23.1720722 513.277906,29.7018581 513.566784,37.3873584 L513.509009,37.4451441 Z"/>
    <path stroke="#D9D5C1" stroke-width=".6" d="M525.584097,28.8928581 C525.584097,27.3326438 524.197484,26.1191437 522.69532,26.1769295 C521.077604,26.1769295 519.806543,27.5637866 519.922094,29.0662153" stroke-linecap="round"/>
    <ellipse cx="522.753" cy="29.182" fill="#D9D5C1" fill-rule="nonzero" rx=".982" ry=".982"/>
    <path fill="#FBD0AE" fill-rule="nonzero" d="M1030.25345,260.729152 C1024.47589,252.639151 1013.09411,250.790008 1004.94776,256.684151 C1004.71666,256.799723 1004.48556,256.97308 1004.37001,257.146437 L1000.90347,256.453009 L1002.05898,259.168937 C996.454756,265.352009 995.703674,274.886652 1000.90347,281.936509 C1006.68103,290.02651 1018.00503,291.760081 1026.15138,285.98151 C1034.23996,280.202938 1036.14655,268.819152 1030.31122,260.671366 L1030.25345,260.729152 Z"/>
    <path fill="#F5A10C" fill-rule="nonzero" d="M1004.48556,263.387295 C1003.09894,264.369652 1002.75229,266.27658 1003.79225,267.663438 C1004.77443,269.050295 1006.68103,269.397009 1008.06764,268.356866 C1009.45425,267.374509 1009.80091,265.46758 1008.76095,264.080723 C1007.77876,262.693866 1005.87217,262.347152 1004.48556,263.387295 Z"/>
    <ellipse cx="1008.819" cy="258.764" fill="#40301A" fill-rule="nonzero" rx=".867" ry=".867"/>
    <path stroke="#40301A" stroke-width=".5" d="M1009.45425,261.191437 C1010.84087,261.01808 1011.76527,259.689009 1011.4764,258.302152 C1011.24529,256.915294 1009.91646,255.990723 1008.58762,256.279651" stroke-linecap="round"/>
    <ellipse cx="994.953" cy="317.128" fill="#40301A" fill-rule="nonzero" rx="4.16" ry="4.161"/>
    <ellipse cx="1036.089" cy="317.128" fill="#40301A" fill-rule="nonzero" rx="4.16" ry="4.161"/>
    <path fill="#40301A" fill-rule="nonzero" d="M1055.73246,271.188366 C1055.73246,248.940866 1037.70649,230.969508 1015.52068,230.969508 L1015.52068,271.303938 L975.251132,271.303938 L975.251132,271.419509 C975.251132,293.66701 993.334877,311.638368 1015.52068,311.638368 C1037.76427,311.638368 1055.73246,293.609224 1055.73246,271.419509 L1055.73246,271.303938 L1055.73246,271.188366 L1055.73246,271.188366 Z"/>
    <path stroke="#40301A" stroke-width="2.9" d="M976.175541,272.170723 C976.175541,266.392152 971.553498,261.769295 965.775944,261.769295" stroke-linecap="round"/>
    <g transform="translate(16.177 156.6)">
      <path stroke="#40301A" stroke-width="2" d="M19.0659285,136.952147 L19.0659285,41.95243 L19.0659285,167.347434 L19.0659285,38.485287 C19.0659285,36.2894298 20.7991948,34.5558583 23.1102164,34.5558583 L33.9720181,34.5558583 C36.1674887,34.5558583 37.9007549,32.8222868 37.9007549,30.6264296" stroke-linecap="round"/>
      <path fill="#165265" fill-rule="nonzero" d="M0.173326623,39.1787156 L0.173326623,38.0230013 C0.173326623,17.2201434 17.0437846,0.231142865 37.9007549,0.231142865 C58.6999497,0.231142865 75.6281832,17.1623577 75.6281832,38.0230013 L75.6281832,39.1787156 L0.115551082,39.1787156 L0.173326623,39.1787156 Z" opacity=".3"/>
    </g>
    <g transform="translate(930.186 46.229)">
      <ellipse cx="88.281" cy="32.707" fill="#524738" fill-rule="nonzero" opacity=".3" rx="32.297" ry="32.302"/>
      <path fill="#AF1D3F" fill-rule="nonzero" d="M21.9547056,75.1214311 C33.9720181,75.1214311 43.7360845,84.9450029 43.7360845,96.9644318 C43.7360845,108.983861 33.9142426,118.749647 21.9547056,118.749647 C9.93739305,118.749647 0.173326623,108.926075 0.173326623,96.9644318 C0.173326623,84.9450029 9.87961751,75.1792168 21.9547056,75.1792168 L21.9547056,75.1214311 Z" opacity=".3"/>
      <ellipse cx="21.955" cy="96.964" fill="#AF1D3F" fill-rule="nonzero" opacity=".3" rx="15.773" ry="15.776"/>
      <path stroke="#40301A" stroke-width="2" d="M69.9084046,277.949295 L69.9084046,54.4919304 L69.9084046,166.249506 L69.9084046,50.6780731 C69.9084046,48.3666445 71.8149975,46.5175016 74.1260191,46.5175016 L87.992149,46.5175016 C90.3031706,46.5175016 92.1519879,44.6683586 92.1519879,42.35693" stroke-linecap="round"/>
      <path stroke="#40301A" stroke-width="2" d="M63.7841973,114.878004 L63.7841973,277.949295 L63.7841973,108.637147 C63.7841973,104.996646 60.7798691,101.934003 57.024459,101.934003 L28.3100151,101.934003 C24.4968294,101.934003 21.4925013,98.9291462 21.4925013,95.1730746" stroke-linecap="round" stroke-linejoin="round"/>
    </g>
    <g transform="translate(863.744 132.33)">
      <path fill="#FBD0AE" fill-rule="nonzero" d="M12.1328636,0.46228573 L22.4169099,0.46228573 L22.4169099,26.5814295 L12.0173125,26.5814295 L12.1328636,0.46228573 Z M0.173326623,0.46228573 L10.572924,0.46228573 L10.572924,26.5814295 L0.173326623,26.5814295 L0.173326623,0.46228573 Z" transform="translate(38.71 162.378)"/>
      <path fill="#AF1D3F" fill-rule="nonzero" d="M65.2863613,160.991005 L65.2863613,130.480147 C65.2863613,126.435147 63.7264217,122.505718 60.8376447,119.616433 C57.9488676,116.727147 54.0779064,115.109147 49.975843,115.109147 C45.9315551,115.109147 42.0028183,116.727147 39.1140413,119.616433 C36.2252642,122.505718 34.6075491,126.377361 34.6075491,130.480147 L34.6075491,160.991005 L65.2285858,160.991005 L65.2863613,160.991005 Z"/>
      <path fill="#FBD0AE" fill-rule="nonzero" d="M100.93387,136.605433 C86.8366381,138.916862 72.6238551,134.698505 62.0509311,125.221647 L68.983996,117.536147 C77.2458983,125.04829 88.2810267,128.226504 99.2583795,126.435147 L100.991646,136.605433 L100.93387,136.605433 Z M36.8030196,127.937576 C28.1366885,139.321362 15.1371917,146.140076 0.866633115,146.602362 L0.519979869,136.200933 C11.4973327,135.912005 21.781379,130.595719 28.4833417,121.754504 L36.7452441,127.937576 L36.8030196,127.937576 Z M101.684952,87.8342887 L109.195773,88.4121458 L104.458178,80.9000027 L105.035934,78.8197169 C111.622345,54.2030018 96.9473578,28.8928581 72.4505284,22.3052865 C47.838148,15.7177148 22.532461,30.3952867 15.9460493,54.8964304 C9.35963764,79.5131455 24.0346251,104.823289 48.5314545,111.410861 C69.9084046,117.189433 91.8631102,106.788004 101.684952,87.8342887 L101.684952,87.8342887 Z"/>
      <ellipse cx="81.81" cy="84.078" fill="#F5A10C" fill-rule="nonzero" rx="7.857" ry="7.859"/>
      <ellipse cx="96.485" cy="71.539" fill="#40301A" fill-rule="nonzero" rx="2.253" ry="2.254"/>
      <path stroke="#40301A" stroke-width="1.6" d="M90.129844,72.2321453 C89.4365375,68.7650023 91.7475591,65.4712165 95.2140916,64.8355736 C98.6806241,64.2577164 102.031605,66.5691451 102.724912,70.0362881" stroke-linecap="round"/>
      <path fill="#40301A" fill-rule="nonzero" d="M32.354303,29.8752153 C24.0346251,36.4050012 17.7948666,45.8818587 15.5993961,57.0345019 C14.848314,60.5016449 14.5594363,63.737645 14.6172119,67.0314308 C23.5146452,62.4085735 30.332159,54.0874304 32.5276296,43.57043 C33.3942627,38.9475727 33.3364872,34.3247154 32.4120785,29.8752153 L32.354303,29.8752153 Z"/>
      <path fill="#40301A" fill-rule="nonzero" d="M18.8348264,46.633073 C26.6922999,55.0697876 37.2074484,61.1950735 49.340312,63.6798593 C69.3884248,67.7248594 89.2054353,60.9061449 102.378259,47.2109302 C96.3696024,34.3825012 84.6411676,24.5011437 69.735078,21.4385007 C48.5314545,17.1623577 27.7900352,28.0838581 18.8926019,46.6908587 L18.8348264,46.633073 Z"/>
      <ellipse cx="51.247" cy="15.544" fill="#40301A" fill-rule="nonzero" rx="15.368" ry="15.371"/>
    </g>
    <g transform="translate(768.415 150.82)">
      <path fill="#40301A" fill-rule="nonzero" d="M0.404428787,0.46228573 L10.8040262,0.46228573 L10.8040262,26.5814295 L0.404428787,26.5814295 L0.404428787,0.46228573 Z M12.710619,0.46228573 L23.1102164,0.46228573 L23.1102164,26.5814295 L12.710619,26.5814295 L12.710619,0.46228573 Z" transform="translate(34.665 143.886)"/>
      <path fill="#165265" fill-rule="nonzero" d="M61.7042778,142.499576 L61.7042778,111.988718 C61.7042778,107.943718 60.0865627,104.014289 57.1977856,101.125003 C54.3090086,98.2357176 50.4380473,96.6177175 46.3359839,96.6177175 C42.291696,96.6177175 38.3629592,98.2357176 35.4741822,101.125003 C32.5854051,104.014289 30.96769,107.885932 30.96769,111.988718 L30.96769,142.499576 L61.7042778,142.499576 L61.7042778,142.499576 Z"/>
      <path fill="#278B85" fill-rule="nonzero" d="M93.5963764,127.995361 C79.3835934,126.608504 66.7885254,118.98079 58.9310518,107.019146 L67.597383,101.356146 C73.7215903,110.601861 83.5434323,116.611575 94.5785606,117.709504 L93.5963764,127.995361 Z M12.2484147,137.876719 C10.6306995,123.719218 15.4260695,109.735075 25.421238,99.5647891 L32.8165073,106.845789 C25.0168093,114.704647 21.2613991,125.626147 22.532461,136.663219 L12.2484147,137.818933 L12.2484147,137.876719 Z"/>
      <ellipse cx="46.509" cy="46.518" fill="#FBD0AE" fill-rule="nonzero" rx="46.22" ry="46.229"/>
      <path stroke="#40301A" stroke-width="1.6" d="M55.5800705,47.9621445 C57.3133367,46.228573 60.2021137,46.228573 61.8198289,47.9621445 M31.1987921,47.9621445 C32.9320584,46.228573 35.7052843,46.228573 37.380775,47.9621445" stroke-linecap="round"/>
      <g fill="#40301A" fill-rule="nonzero" transform="translate(31.777 48.54)">
        <ellipse cx="26.923" cy="2.774" rx="2.253" ry="2.254"/>
        <ellipse cx="2.484" cy="2.774" rx="2.253" ry="2.254"/>
      </g>
      <path stroke="#40301A" stroke-width="1.6" d="M53.0379467,56.6300019 C51.5935581,57.7857162 49.3980876,58.5369305 47.1448415,58.652502 L45.9893306,58.652502 C43.678309,58.5369305 41.3672874,57.7857162 40.0384499,56.6300019" stroke-linecap="round"/>
      <path fill="#F5A10C" fill-rule="nonzero" d="M64.9397081,7.91664312 C64.9397081,12.2505718 61.4731756,15.7755005 57.0822345,15.7755005 C52.6912934,15.7755005 49.2247609,12.3083576 49.2247609,7.91664312 C49.2247609,3.52492869 52.6912934,0.0577857162 57.0822345,0.0577857162 C61.4731756,0.0577857162 64.9397081,3.64050012 64.9397081,7.97442884 L64.9397081,7.91664312 Z M16.0038249,7.91664312 C16.0038249,12.2505718 12.5372924,15.7755005 8.14635128,15.7755005 C3.75541017,15.7755005 0.346653246,12.3083576 0.346653246,7.91664312 C0.346653246,3.52492869 3.81318571,0.0577857162 8.20412682,0.0577857162 C12.5950679,0.0577857162 16.1193759,3.64050012 16.1193759,7.97442884 L16.0038249,7.91664312 Z" transform="translate(13.866 49.696)"/>
      <g fill="#40301A" fill-rule="nonzero">
        <path d="M71.6416709,7.68550026 C71.2372421,9.99692891 71.0639155,12.423929 71.0639155,14.9087148 C71.0639155,31.2620725 79.4413689,45.5351444 92.267539,53.8562875 C92.6141922,51.5448589 92.8452944,49.1178588 92.8452944,46.633073 C92.8452944,30.2797153 84.4100654,16.0066434 71.5838953,7.68550026 L71.6416709,7.68550026 Z M21.3769502,7.68550026 C21.781379,9.99692891 21.9547056,12.423929 21.9547056,14.9087148 C21.9547056,31.2620725 13.5772521,45.5351444 0.751082033,53.8562875 C0.404428787,51.5448589 0.173326623,49.1178588 0.173326623,46.633073 C0.173326623,30.2797153 8.60855561,16.0066434 21.4347257,7.68550026 L21.3769502,7.68550026 Z"/>
        <path d="M46.5093105,33.2845725 C61.0687469,33.2845725 75.0504278,30.6842153 87.992149,25.9457866 C80.4813286,10.6903575 64.6508304,0.231142865 46.5093105,0.231142865 C28.3677906,0.231142865 12.6528435,10.6325718 5.02647207,25.8880009 C17.9681933,30.5108582 31.9498742,33.1690011 46.5093105,33.1690011 L46.5093105,33.2845725 Z"/>
      </g>
      <path fill="#40301A" fill-rule="nonzero" d="M58.2377453,60.9061449 C55.7533971,57.0345019 51.3046804,54.4341447 46.3937594,54.4341447 C41.4250629,54.4341447 37.0341218,57.0345019 34.5497735,60.9061449 L58.2377453,60.9061449 Z"/>
    </g>
    <g transform="translate(509.58 176.824)">
      <path fill="#40301A" fill-rule="nonzero" d="M11.9017614,77.2017169 C7.97302466,77.2017169 4.7953699,80.3799313 4.7953699,84.30936 L4.7953699,86.8519315 L7.68414696,86.8519315 L7.68414696,102.858575 C7.68414696,105.979004 10.1684952,108.521575 13.2883744,108.521575 C16.4660292,108.521575 19.0659285,105.979004 19.0659285,102.743003 L19.0659285,84.3671457 C19.0659285,80.3221456 15.8304982,77.2017169 11.9017614,77.2017169 L11.9017614,77.2017169 Z"/>
      <g fill="#40301A" fill-rule="nonzero" transform="translate(13.288 137.53)">
        <ellipse cx="3.987" cy="3.467" rx="3.467" ry="3.467"/>
        <ellipse cx="38.363" cy="3.467" rx="3.467" ry="3.467"/>
      </g>
      <path fill="#524738" fill-rule="nonzero" d="M60.3176648,99.1025033 C60.3176648,97.6000747 59.162154,96.3865747 57.6599899,96.3865747 C56.1578259,96.3865747 54.9445395,97.542289 54.9445395,99.1025033 C54.9445395,100.142646 55.637846,101.067218 56.5044791,101.413932 L56.5044791,134.062862 L11.324006,134.062862 C10.7462506,134.062862 10.1684952,134.640719 10.1684952,135.218576 C10.1684952,135.912005 10.7462506,136.489862 11.324006,136.489862 L58.8732763,136.489862 L58.8732763,101.471718 C59.7399094,101.067218 60.3754404,100.142646 60.3754404,99.160289 L60.3176648,99.1025033 Z"/>
      <path fill="#155266" fill-rule="nonzero" d="M35.7052843,114.704647 C35.7052843,124.528218 31.2565677,133.658362 23.5724207,139.783648 L19.1237041,134.178433 C25.1901359,129.382219 28.5988928,122.274576 28.5988928,114.646861 L35.7630599,114.646861 L35.7052843,114.704647 Z"/>
      <polygon fill="#155266" fill-rule="nonzero" points="32.354 114.705 39.403 114.705 39.403 132.618 32.354 132.618"/>
      <path fill="#278B85" fill-rule="nonzero" d="M42.5805737,112.855504 L42.5805737,92.457146 C42.5805737,89.5678602 41.4250629,86.9097172 39.4606945,84.9450029 C37.4963261,82.9802885 34.8386512,81.8823599 31.9498742,81.8823599 C29.2344238,81.8823599 26.5189733,83.0380742 24.5546049,84.9450029 C22.5902365,86.9097172 21.4925013,89.5678602 21.4925013,92.457146 L21.4925013,112.855504 L42.5805737,112.855504 Z"/>
      <path fill="#FFD1AD" fill-rule="nonzero" d="M29.1766482,90.1457173 C35.24308,97.8890033 44.3716155,102.280718 54.1934575,102.396289 L54.1934575,95.3464318 C46.6826371,95.2308603 39.5184701,91.7637174 34.7808757,85.7540029 L29.1766482,90.203503 L29.1766482,90.1457173 Z M58.8155008,30.2797153 L61.7042778,25.9457866 L55.6956215,26.1191437 C49.9180674,19.6471435 41.4250629,15.5443577 32.0076497,15.5443577 C14.4438853,15.5443577 0.231102164,29.7596439 0.231102164,47.3265016 C0.231102164,64.8933593 14.4438853,79.1086455 32.0076497,79.1086455 C49.5714142,79.1086455 63.7841973,64.8933593 63.7841973,47.3265016 C63.7841973,40.9700728 62.0509311,35.1915012 58.8155008,30.2219296 L58.8155008,30.2797153 Z"/>
      <path fill="#AF1D3F" fill-rule="nonzero" d="M0.231102164,47.3842873 C0.231102164,53.2784304 1.84881731,58.7680734 4.62204328,63.5642878 C23.8035229,59.9237877 38.3629592,43.0503586 38.3629592,22.8253579 C38.3629592,20.5139293 38.1896326,18.318072 37.7852038,16.1222148 C35.9363865,15.7177148 33.9720181,15.5443577 32.0076497,15.5443577 C14.4438853,15.5443577 0.231102164,29.7596439 0.231102164,47.3265016 L0.231102164,47.3842873 Z"/>
      <path fill="#AF1D3F" fill-rule="nonzero" d="M24.0346251,15.3710005 C24.0346251,23.5765722 29.581077,30.5686439 37.1496729,32.7067154 C37.9585304,29.528501 38.3051837,26.1769295 38.3051837,22.8831436 C38.3051837,14.6197862 35.9941621,6.93428595 31.8343231,0.520071446 C27.2122798,3.69828584 24.0924006,9.18792888 24.0924006,15.3132148 L24.0346251,15.3710005 Z"/>
      <ellipse cx="49.687" cy="40.739" fill="#F7A100" fill-rule="nonzero" rx="5.373" ry="5.374"/>
      <ellipse cx="47.376" cy="27.679" fill="#40301A" fill-rule="nonzero" rx="1.56" ry="1.56"/>
      <path stroke="#40301A" stroke-width="1.1" d="M45.6426774,31.7821439 C43.3316558,30.9153582 42.1761449,28.315001 42.9850025,26.1191437 C43.8516356,23.8077151 46.3359839,22.6520008 48.6470055,23.5187865" stroke-linecap="round"/>
    </g>
    <g transform="translate(148.483 158.91)">
      <g fill="#40301A" fill-rule="nonzero" transform="translate(0 57.786)">
        <ellipse cx="18.199" cy="35.192" rx="3.467" ry="3.467"/>
        <ellipse cx="3.813" cy="3.987" rx="3.467" ry="3.467"/>
      </g>
      <path stroke="#524738" stroke-width="4.1" d="M6.47086059,53.971859 L25.8834424,96.0398604" stroke-linecap="round"/>
      <path fill="#FFD1AD" fill-rule="nonzero" d="M35.9941621,71.6542881 C30.7943634,77.2595026 28.3100151,84.7716457 29.3499748,92.3415745 L22.3013588,93.3239317 C20.9725214,83.6159314 24.0346251,73.9079311 30.7943634,66.7425022 L35.9941621,71.6542881 Z"/>
      <polygon fill="#FFD1AD" fill-rule="nonzero" points="18.488 73.619 15.599 67.147 31.777 59.635 34.781 66.107"/>
      <polygon fill="#40301A" fill-rule="nonzero" points="32.932 76.855 25.652 60.906 38.363 55.128 45.643 70.961"/>
      <path fill="#155266" fill-rule="nonzero" d="M41.0206341,75.2370025 L59.5088072,66.5691451 C62.0509311,65.4134308 64.0152994,63.333145 64.9974836,60.7905735 C65.9796678,58.0746448 65.8641168,55.185359 64.7086059,52.7005732 C63.5530951,50.100216 61.4154001,48.0777159 58.7577252,47.1531444 C56.1578259,46.1707873 53.2690488,46.2863587 50.6691495,47.4998587 L32.1809763,56.0521447 L40.9628586,75.2370025 L41.0206341,75.2370025 Z"/>
      <path fill="#FFD1AD" fill-rule="nonzero" d="M67.0196276,66.8580737 C67.7707096,74.4857882 71.7572219,81.3045027 78.1125315,85.5806457 L74.0682436,91.5325745 C65.9796678,86.0429315 60.7798691,77.3172883 60.0287871,67.5515023 L66.961852,66.9736451 L67.0196276,66.8580737 Z M57.0822345,42.76143 C54.0201309,35.7115726 54.1934575,27.7371438 57.775541,21.0340007 L51.4202315,17.7402149 C46.9715148,26.4080723 46.6248616,36.5783584 50.5535984,45.5929301 L57.0822345,42.7036443 L57.0822345,42.76143 Z"/>
      <polygon fill="#40301A" fill-rule="nonzero" stroke="#40301A" stroke-width=".3" points="87.126 77.433 60.549 19.647 83.659 8.957 110.236 66.743"/>
      <ellipse cx="95.965" cy="38.196" fill="#FFD1AD" fill-rule="nonzero" rx="31.777" ry="31.782"/>
      <path stroke="#40301A" stroke-width="1.1" d="M0,0.115571432 C1.61771515,0.693428595 2.42657272,2.42700008 1.84881731,4.04500014 M7.048616,15.3710005 C8.60855561,15.9488577 9.35963764,17.6824292 8.78188223,19.3004292" transform="translate(90.708 28.893)" stroke-linecap="round"/>
      <g fill="#40301A" fill-rule="nonzero" transform="translate(87.819 30.049)">
        <ellipse cx="1.675" cy="1.907" rx="1.56" ry="1.56"/>
        <ellipse cx="8.666" cy="17.162" rx="1.56" ry="1.56"/>
      </g>
      <path stroke="#40301A" stroke-width="1.1" d="M91.5742325,45.1884301 C90.4187217,44.6105729 89.378762,43.4548586 88.6854555,42.0680014 L88.2810267,41.3167871 C87.7032713,39.8721442 87.5299446,38.2541441 87.8188223,37.0406441" stroke-linecap="round"/>
      <g fill="#F7A100" fill-rule="nonzero" transform="translate(76.264 20.225)">
        <path d="M10.6884751,3.64050012 C11.8439859,6.35642878 10.6884751,9.53464318 8.0308002,10.8059289 C5.25757423,12.0772147 2.02214394,10.8059289 0.808857574,8.14778599 C-0.462204328,5.48964304 0.808857574,2.36921437 3.46653246,1.04014289 C6.18198289,-0.231142865 9.41741319,1.04014289 10.6884751,3.69828584 L10.6884751,3.64050012 Z"/>
        <ellipse cx="19.875" cy="36.463" rx="5.431" ry="5.432"/>
      </g>
      <path fill="#40301A" fill-rule="nonzero" stroke="#40301A" stroke-width=".3" d="M113.24006,64.951145 C126.355108,56.5144305 131.554907,39.5254299 124.795169,24.9056437 C118.150981,10.4592146 101.800503,3.35157154 86.8944137,7.80107169 C89.2054353,17.2201434 92.7875189,27.3326438 97.4673377,37.5029298 C102.204932,47.7310016 107.578057,57.0345019 113.24006,65.0089308 L113.24006,64.951145 Z"/>
      <g fill-rule="nonzero" transform="translate(64.709 84.945)">
        <polygon fill="#AF1D3F" points="18.488 .116 19.413 12.251 .924 13.753 .058 1.618"/>
        <path fill="#FFFFFF" d="M14.9060896,6.47200022 C15.0216407,7.85885741 13.9816809,9.13014316 12.5950679,9.2457146 C11.1506794,9.36128603 9.87961751,8.26335742 9.70629089,6.93428595 C9.70629089,5.43185733 10.7462506,4.21835728 12.1328636,4.04500014 C13.5772521,4.04500014 14.7905385,5.02735731 14.9060896,6.47200022 Z"/>
      </g>
      <path fill="#AAA797" fill-rule="nonzero" d="M73.2016105,1.61800005 C67.6551585,4.16057157 65.2863613,10.6903575 67.8284852,16.2377863 L86.8944137,7.56992883 C102.724912,0.288928581 121.559738,7.28100024 128.839456,23.1720722 C136.17695,39.0053585 129.243885,57.8435019 113.471163,65.2400736 L94.405234,74.0235025 C96.9473578,79.5131455 103.475994,81.9401456 108.96467,79.3975741 C113.124509,77.4906455 115.493306,73.3300739 115.31998,68.9961452 C123.986311,64.951145 130.514947,57.9012877 133.808153,48.9445016 C137.159134,39.8721442 136.69693,30.1063582 132.768193,21.3229293 C128.723905,12.6550719 121.501963,5.95192877 112.546754,2.60035723 C103.53377,-0.693428595 93.8274786,-0.288928581 85.1611475,3.52492869 C82.0412682,0.635642878 77.3036739,-0.173357149 73.2016105,1.67578577 L73.2016105,1.61800005 Z"/>
    </g>
    <path fill="#AF1D3F" fill-rule="nonzero" d="M635.646502,324.004511 L635.646502,324.177868 L613.691797,324.177868 L613.691797,221.08815 C613.691797,218.025507 614.847307,215.078436 616.927227,212.99815 C619.007146,210.686721 621.780372,209.531007 624.669149,209.531007 C627.557927,209.531007 630.446704,210.686721 632.468848,212.99815 C634.548767,215.078436 635.646502,218.025507 635.646502,221.08815 L635.646502,222.417222 C635.646502,249.28758 646.392753,275.117795 665.458681,294.07151 C684.52461,313.140796 710.408052,323.946725 737.331454,323.946725 L635.646502,323.946725 L635.646502,324.004511 Z" opacity=".3"/>
  </g>
</svg>
